# https://github.com/mikedh/trimesh

o mark_buddies
v 0.08832391 0.09725270 0.00000000
v 0.08673120 0.10400975 0.00000000
v 0.08319020 0.11432435 0.00000000
v 0.08029681 0.12063487 0.00000000
v 0.07479209 0.13004911 0.00000000
v 0.07071155 0.13566548 0.00000000
v 0.06345914 0.14380993 0.00000000
v 0.05835158 0.14851177 0.00000000
v 0.04963604 0.15506686 0.00000000
v 0.04370188 0.15866967 0.00000000
v 0.03386522 0.16337815 0.00000000
v 0.02733732 0.16574055 0.00000000
v 0.01676553 0.16841768 0.00000000
v 0.00990004 0.16944696 0.00000000
v -0.00099204 0.16998769 0.00000000
v -0.00792572 0.16964348 0.00000000
v -0.01871068 0.16802658 0.00000000
v -0.02544047 0.16632238 0.00000000
v -0.03569512 0.16261131 0.00000000
v -0.04195694 0.15961398 0.00000000
v -0.04712694 0.15666695 0.00000000
v -0.05605444 0.15040362 0.00000000
v -0.06131467 0.14587322 0.00000000
v -0.06883240 0.13797301 0.00000000
v -0.07309641 0.13249461 0.00000000
v -0.07890938 0.12326754 0.00000000
v -0.08200984 0.11705612 0.00000000
v -0.08588994 0.10686424 0.00000000
v -0.08770519 0.10016355 0.00000000
v -0.08950018 0.08940680 0.00000000
v -0.08995900 0.08247975 0.00000000
v -0.08959842 0.07158022 0.00000000
v -0.08868280 0.06469865 0.00000000
v -0.08618081 0.05408405 0.00000000
v -0.08392668 0.04751797 0.00000000
v -0.07938147 0.03760481 0.00000000
v -0.07640599 0.03245114 0.00000000
v -0.07251338 0.02670292 0.00000000
v -0.06553421 0.01832313 0.00000000
v -0.06058490 0.01345498 0.00000000
v -0.05209087 0.00661532 0.00000000
v -0.04627907 0.00281828 0.00000000
v -0.03660347 -0.00221287 0.00000000
v -0.03015724 -0.00478980 0.00000000
v -0.01967975 -0.00781502 0.00000000
v -0.01285204 -0.00907073 0.00000000
v -0.00198380 -0.00997130 0.00000000
v 0.00495747 -0.00985651 0.00000000
v 0.01578999 -0.00859710 0.00000000
v 0.02257246 -0.00711633 0.00000000
v 0.03294419 -0.00374634 0.00000000
v 0.03930169 -0.00095768 0.00000000
v 0.04880565 0.00439062 0.00000000
v 0.05448873 0.00837774 0.00000000
v 0.06275199 0.01549451 0.00000000
v 0.06753763 0.02052363 0.00000000
v 0.07423592 0.02912959 0.00000000
v 0.07793634 0.03500338 0.00000000
v 0.08280683 0.04476083 0.00000000
v 0.08527683 0.05124879 0.00000000
v 0.08812840 0.06177486 0.00000000
v 0.08927105 0.06862240 0.00000000
v 0.08999180 0.07950405 0.00000000
v 0.08976226 0.08644248 0.00000000
v 0.05790462 0.06431335 0.00000000
v 0.05674127 0.06052070 0.00000000
v 0.05532982 0.05681322 0.00000000
v 0.05178830 0.04971821 0.00000000
v 0.04967374 0.04636170 0.00000000
v 0.04480316 0.04010398 0.00000000
v 0.04206845 0.03723014 0.00000000
v 0.03605994 0.03205528 0.00000000
v 0.02942139 0.02771810 0.00000000
v 0.02226879 0.02429438 0.00000000
v 0.01853848 0.02294441 0.00000000
v 0.01085135 0.02099777 0.00000000
v 0.00692813 0.02040960 0.00000000
v 0.00297462 0.02008200 0.00000000
v -0.00495408 0.02021311 0.00000000
v -0.00889460 0.02067124 0.00000000
v -0.01664190 0.02236266 0.00000000
v -0.02409843 0.02506112 0.00000000
v -0.02767668 0.02677391 0.00000000
v -0.03445501 0.03088923 0.00000000
v -0.03762544 0.03327375 0.00000000
v -0.04345957 0.03864445 0.00000000
v -0.04609776 0.04160714 0.00000000
v -0.05075877 0.04802247 0.00000000
v -0.05276121 0.05144706 0.00000000
v -0.05606620 0.05865529 0.00000000
v -0.05735430 0.06240740 0.00000000
v -0.05839161 0.06623644 0.00000000
v -0.05969681 0.07405808 0.00000000
v -0.05995899 0.07801647 0.00000000
v -0.05969681 0.08594192 0.00000000
v -0.05839161 0.09376355 0.00000000
v -0.05735430 0.09759259 0.00000000
v -0.05606620 0.10134471 0.00000000
v -0.05276121 0.10855294 0.00000000
v -0.05075877 0.11197753 0.00000000
v -0.04609776 0.11839286 0.00000000
v -0.04345957 0.12135555 0.00000000
v -0.03762544 0.12672624 0.00000000
v -0.03445501 0.12911077 0.00000000
v -0.02767668 0.13322608 0.00000000
v -0.02041480 0.13641144 0.00000000
v -0.01664190 0.13763733 0.00000000
v -0.00889460 0.13932876 0.00000000
v -0.00495408 0.13978690 0.00000000
v 0.00297462 0.13991800 0.00000000
v 0.00692813 0.13959041 0.00000000
v 0.01085135 0.13900223 0.00000000
v 0.01853848 0.13705559 0.00000000
v 0.02590172 0.13411207 0.00000000
v 0.02942139 0.13228190 0.00000000
v 0.03605994 0.12794472 0.00000000
v 0.03914979 0.12545668 0.00000000
v 0.04206845 0.12276985 0.00000000
v 0.04734195 0.11684772 0.00000000
v 0.04967374 0.11363830 0.00000000
v 0.05367642 0.10679287 0.00000000
v 0.05532982 0.10318678 0.00000000
v 0.05790462 0.09568665 0.00000000
v 0.05946771 0.08791245 0.00000000
v 0.05986063 0.08396489 0.00000000
v 0.05999180 0.08000000 0.00000000
v 0.05946771 0.07208755 0.00000000
v 0.08832391 0.09725270 0.02000000
v 0.08673120 0.10400975 0.02000000
v 0.08319020 0.11432435 0.02000000
v 0.08029681 0.12063487 0.02000000
v 0.07479209 0.13004911 0.02000000
v 0.07071155 0.13566548 0.02000000
v 0.06345914 0.14380993 0.02000000
v 0.05835158 0.14851177 0.02000000
v 0.04963604 0.15506686 0.02000000
v 0.04370188 0.15866967 0.02000000
v 0.03386522 0.16337815 0.02000000
v 0.02733732 0.16574055 0.02000000
v 0.01676553 0.16841768 0.02000000
v 0.00990004 0.16944696 0.02000000
v -0.00099204 0.16998769 0.02000000
v -0.00792572 0.16964348 0.02000000
v -0.01871068 0.16802658 0.02000000
v -0.02544047 0.16632238 0.02000000
v -0.03569512 0.16261131 0.02000000
v -0.04195694 0.15961398 0.02000000
v -0.04712694 0.15666695 0.02000000
v -0.05605444 0.15040362 0.02000000
v -0.06131467 0.14587322 0.02000000
v -0.06883240 0.13797301 0.02000000
v -0.07309641 0.13249461 0.02000000
v -0.07890938 0.12326754 0.02000000
v -0.08200984 0.11705612 0.02000000
v -0.08588994 0.10686424 0.02000000
v -0.08770519 0.10016355 0.02000000
v -0.08950018 0.08940680 0.02000000
v -0.08995900 0.08247975 0.02000000
v -0.08959842 0.07158022 0.02000000
v -0.08868280 0.06469865 0.02000000
v -0.08618081 0.05408405 0.02000000
v -0.08392668 0.04751797 0.02000000
v -0.07938147 0.03760481 0.02000000
v -0.07640599 0.03245114 0.02000000
v -0.07251338 0.02670292 0.02000000
v -0.06553421 0.01832313 0.02000000
v -0.06058490 0.01345498 0.02000000
v -0.05209087 0.00661532 0.02000000
v -0.04627907 0.00281828 0.02000000
v -0.03660347 -0.00221287 0.02000000
v -0.03015724 -0.00478980 0.02000000
v -0.01967975 -0.00781502 0.02000000
v -0.01285204 -0.00907073 0.02000000
v -0.00198380 -0.00997130 0.02000000
v 0.00495747 -0.00985651 0.02000000
v 0.01578999 -0.00859710 0.02000000
v 0.02257246 -0.00711633 0.02000000
v 0.03294419 -0.00374634 0.02000000
v 0.03930169 -0.00095768 0.02000000
v 0.04880565 0.00439062 0.02000000
v 0.05448873 0.00837774 0.02000000
v 0.06275199 0.01549451 0.02000000
v 0.06753763 0.02052363 0.02000000
v 0.07423592 0.02912959 0.02000000
v 0.07793634 0.03500338 0.02000000
v 0.08280683 0.04476083 0.02000000
v 0.08527683 0.05124879 0.02000000
v 0.08812840 0.06177486 0.02000000
v 0.08927105 0.06862240 0.02000000
v 0.08999180 0.07950405 0.02000000
v 0.08976226 0.08644248 0.02000000
v 0.05790462 0.06431335 0.02000000
v 0.05674127 0.06052070 0.02000000
v 0.05532982 0.05681322 0.02000000
v 0.05178830 0.04971821 0.02000000
v 0.04967374 0.04636170 0.02000000
v 0.04480316 0.04010398 0.02000000
v 0.04206845 0.03723014 0.02000000
v 0.03605994 0.03205528 0.02000000
v 0.02942139 0.02771810 0.02000000
v 0.02226879 0.02429438 0.02000000
v 0.01853848 0.02294441 0.02000000
v 0.01085135 0.02099777 0.02000000
v 0.00692813 0.02040960 0.02000000
v 0.00297462 0.02008200 0.02000000
v -0.00495408 0.02021311 0.02000000
v -0.00889460 0.02067124 0.02000000
v -0.01664190 0.02236266 0.02000000
v -0.02409843 0.02506112 0.02000000
v -0.02767668 0.02677391 0.02000000
v -0.03445501 0.03088923 0.02000000
v -0.03762544 0.03327375 0.02000000
v -0.04345957 0.03864445 0.02000000
v -0.04609776 0.04160714 0.02000000
v -0.05075877 0.04802247 0.02000000
v -0.05276121 0.05144706 0.02000000
v -0.05606620 0.05865529 0.02000000
v -0.05735430 0.06240740 0.02000000
v -0.05839161 0.06623644 0.02000000
v -0.05969681 0.07405808 0.02000000
v -0.05995899 0.07801647 0.02000000
v -0.05969681 0.08594192 0.02000000
v -0.05839161 0.09376355 0.02000000
v -0.05735430 0.09759259 0.02000000
v -0.05606620 0.10134471 0.02000000
v -0.05276121 0.10855294 0.02000000
v -0.05075877 0.11197753 0.02000000
v -0.04609776 0.11839286 0.02000000
v -0.04345957 0.12135555 0.02000000
v -0.03762544 0.12672624 0.02000000
v -0.03445501 0.12911077 0.02000000
v -0.02767668 0.13322608 0.02000000
v -0.02041480 0.13641144 0.02000000
v -0.01664190 0.13763733 0.02000000
v -0.00889460 0.13932876 0.02000000
v -0.00495408 0.13978690 0.02000000
v 0.00297462 0.13991800 0.02000000
v 0.00692813 0.13959041 0.02000000
v 0.01085135 0.13900223 0.02000000
v 0.01853848 0.13705559 0.02000000
v 0.02590172 0.13411207 0.02000000
v 0.02942139 0.13228190 0.02000000
v 0.03605994 0.12794472 0.02000000
v 0.03914979 0.12545668 0.02000000
v 0.04206845 0.12276985 0.02000000
v 0.04734195 0.11684772 0.02000000
v 0.04967374 0.11363830 0.02000000
v 0.05367642 0.10679287 0.02000000
v 0.05532982 0.10318678 0.02000000
v 0.05790462 0.09568665 0.02000000
v 0.05946771 0.08791245 0.02000000
v 0.05986063 0.08396489 0.02000000
v 0.05999180 0.08000000 0.02000000
v 0.05946771 0.07208755 0.02000000
v -0.09147920 0.07428280 0.00000000
v -0.09363952 0.08225722 0.00000000
v -0.09759778 0.09170269 0.00000000
v -0.10176808 0.09883481 0.00000000
v -0.10507125 0.10338122 0.00000000
v -0.11056560 0.10955136 0.00000000
v -0.11470014 0.11335748 0.00000000
v -0.12130293 0.11832353 0.00000000
v -0.12610659 0.12123998 0.00000000
v -0.13355872 0.12480707 0.00000000
v -0.13884301 0.12671942 0.00000000
v -0.14685208 0.12874758 0.00000000
v -0.15240966 0.12958078 0.00000000
v -0.16066135 0.12999043 0.00000000
v -0.16627413 0.12971179 0.00000000
v -0.17444469 0.12848686 0.00000000
v -0.17989242 0.12710731 0.00000000
v -0.18766120 0.12429585 0.00000000
v -0.19273011 0.12186952 0.00000000
v -0.19979230 0.11758186 0.00000000
v -0.20428349 0.11420397 0.00000000
v -0.21036194 0.10860837 0.00000000
v -0.21409917 0.10441146 0.00000000
v -0.21895537 0.09772747 0.00000000
v -0.22179200 0.09287624 0.00000000
v -0.22523539 0.08536615 0.00000000
v -0.22706009 0.08005095 0.00000000
v -0.22895557 0.07200946 0.00000000
v -0.22969677 0.06643886 0.00000000
v -0.22996993 0.05818151 0.00000000
v -0.22959852 0.05257411 0.00000000
v -0.22823866 0.04442493 0.00000000
v -0.22676922 0.03900076 0.00000000
v -0.22382970 0.03127951 0.00000000
v -0.22131990 0.02625141 0.00000000
v -0.21691607 0.01926108 0.00000000
v -0.21346438 0.01482636 0.00000000
v -0.20776904 0.00884126 0.00000000
v -0.20351091 0.00517393 0.00000000
v -0.19674756 0.00042890 0.00000000
v -0.19185008 -0.00232712 0.00000000
v -0.18428408 -0.00564588 0.00000000
v -0.17893945 -0.00738246 0.00000000
v -0.17086771 -0.00914471 0.00000000
v -0.16528562 -0.00979370 0.00000000
v -0.15702489 -0.00993030 0.00000000
v -0.15142439 -0.00946623 0.00000000
v -0.14329880 -0.00797182 0.00000000
v -0.13789967 -0.00641290 0.00000000
v -0.13022807 -0.00334612 0.00000000
v -0.12524216 -0.00075352 0.00000000
v -0.11832561 0.00376529 0.00000000
v -0.11394856 0.00728982 0.00000000
v -0.11056560 0.01044863 0.00000000
v -0.10507125 0.01661877 0.00000000
v -0.10176808 0.02116520 0.00000000
v -0.09759778 0.02829731 0.00000000
v -0.09525560 0.03340564 0.00000000
v -0.09257297 0.04121985 0.00000000
v -0.09128368 0.04668964 0.00000000
v -0.09019401 0.05487933 0.00000000
v -0.09000820 0.06049595 0.00000000
v -0.09055423 0.06873975 0.00000000
v -0.12311598 0.04454320 0.00000000
v -0.12688644 0.03757600 0.00000000
v -0.13195628 0.03148871 0.00000000
v -0.13812657 0.02652021 0.00000000
v -0.14515516 0.02286546 0.00000000
v -0.15276626 0.02066787 0.00000000
v -0.16066122 0.02001367 0.00000000
v -0.16853024 0.02092854 0.00000000
v -0.17606452 0.02337658 0.00000000
v -0.18296844 0.02726172 0.00000000
v -0.18897106 0.03243152 0.00000000
v -0.19383687 0.03868311 0.00000000
v -0.19737491 0.04577117 0.00000000
v -0.19944637 0.05341757 0.00000000
v -0.19996993 0.06132226 0.00000000
v -0.19892508 0.06917507 0.00000000
v -0.19635281 0.07666785 0.00000000
v -0.19235404 0.08350658 0.00000000
v -0.18708570 0.08942292 0.00000000
v -0.18075453 0.09418470 0.00000000
v -0.17360893 0.09760506 0.00000000
v -0.16592933 0.09954980 0.00000000
v -0.15801705 0.09994260 0.00000000
v -0.15018259 0.09876806 0.00000000
v -0.14273337 0.09607225 0.00000000
v -0.13596168 0.09196096 0.00000000
v -0.13013327 0.08659553 0.00000000
v -0.12547682 0.08018648 0.00000000
v -0.12311598 0.07545680 0.00000000
v -0.12079284 0.06788307 0.00000000
v -0.12000821 0.06000000 0.00000000
v -0.12079284 0.05211694 0.00000000
v -0.09147920 0.07428280 0.02000000
v -0.09363952 0.08225722 0.02000000
v -0.09759778 0.09170269 0.02000000
v -0.10176808 0.09883481 0.02000000
v -0.10507125 0.10338122 0.02000000
v -0.11056560 0.10955136 0.02000000
v -0.11470014 0.11335748 0.02000000
v -0.12130293 0.11832353 0.02000000
v -0.12610659 0.12123998 0.02000000
v -0.13355872 0.12480707 0.02000000
v -0.13884301 0.12671942 0.02000000
v -0.14685208 0.12874758 0.02000000
v -0.15240966 0.12958078 0.02000000
v -0.16066135 0.12999043 0.02000000
v -0.16627413 0.12971179 0.02000000
v -0.17444469 0.12848686 0.02000000
v -0.17989242 0.12710731 0.02000000
v -0.18766120 0.12429585 0.02000000
v -0.19273011 0.12186952 0.02000000
v -0.19979230 0.11758186 0.02000000
v -0.20428349 0.11420397 0.02000000
v -0.21036194 0.10860837 0.02000000
v -0.21409917 0.10441146 0.02000000
v -0.21895537 0.09772747 0.02000000
v -0.22179200 0.09287624 0.02000000
v -0.22523539 0.08536615 0.02000000
v -0.22706009 0.08005095 0.02000000
v -0.22895557 0.07200946 0.02000000
v -0.22969677 0.06643886 0.02000000
v -0.22996993 0.05818151 0.02000000
v -0.22959852 0.05257411 0.02000000
v -0.22823866 0.04442493 0.02000000
v -0.22676922 0.03900076 0.02000000
v -0.22382970 0.03127951 0.02000000
v -0.22131990 0.02625141 0.02000000
v -0.21691607 0.01926108 0.02000000
v -0.21346438 0.01482636 0.02000000
v -0.20776904 0.00884126 0.02000000
v -0.20351091 0.00517393 0.02000000
v -0.19674756 0.00042890 0.02000000
v -0.19185008 -0.00232712 0.02000000
v -0.18428408 -0.00564588 0.02000000
v -0.17893945 -0.00738246 0.02000000
v -0.17086771 -0.00914471 0.02000000
v -0.16528562 -0.00979370 0.02000000
v -0.15702489 -0.00993030 0.02000000
v -0.15142439 -0.00946623 0.02000000
v -0.14329880 -0.00797182 0.02000000
v -0.13789967 -0.00641290 0.02000000
v -0.13022807 -0.00334612 0.02000000
v -0.12524216 -0.00075352 0.02000000
v -0.11832561 0.00376529 0.02000000
v -0.11394856 0.00728982 0.02000000
v -0.11056560 0.01044863 0.02000000
v -0.10507125 0.01661877 0.02000000
v -0.10176808 0.02116520 0.02000000
v -0.09759778 0.02829731 0.02000000
v -0.09525560 0.03340564 0.02000000
v -0.09257297 0.04121985 0.02000000
v -0.09128368 0.04668964 0.02000000
v -0.09019401 0.05487933 0.02000000
v -0.09000820 0.06049595 0.02000000
v -0.09055423 0.06873975 0.02000000
v -0.12311598 0.04454320 0.02000000
v -0.12688644 0.03757600 0.02000000
v -0.13195628 0.03148871 0.02000000
v -0.13812657 0.02652021 0.02000000
v -0.14515516 0.02286546 0.02000000
v -0.15276626 0.02066787 0.02000000
v -0.16066122 0.02001367 0.02000000
v -0.16853024 0.02092854 0.02000000
v -0.17606452 0.02337658 0.02000000
v -0.18296844 0.02726172 0.02000000
v -0.18897106 0.03243152 0.02000000
v -0.19383687 0.03868311 0.02000000
v -0.19737491 0.04577117 0.02000000
v -0.19944637 0.05341757 0.02000000
v -0.19996993 0.06132226 0.02000000
v -0.19892508 0.06917507 0.02000000
v -0.19635281 0.07666785 0.02000000
v -0.19235404 0.08350658 0.02000000
v -0.18708570 0.08942292 0.02000000
v -0.18075453 0.09418470 0.02000000
v -0.17360893 0.09760506 0.02000000
v -0.16592933 0.09954980 0.02000000
v -0.15801705 0.09994260 0.02000000
v -0.15018259 0.09876806 0.02000000
v -0.14273337 0.09607225 0.02000000
v -0.13596168 0.09196096 0.02000000
v -0.13013327 0.08659553 0.02000000
v -0.12547682 0.08018648 0.02000000
v -0.12311598 0.07545680 0.02000000
v -0.12079284 0.06788307 0.02000000
v -0.12000821 0.06000000 0.02000000
v -0.12079284 0.05211694 0.02000000
v 0.22852080 0.07428280 0.00000000
v 0.22636048 0.08225722 0.00000000
v 0.22436103 0.08750919 0.00000000
v 0.22067121 0.09490132 0.00000000
v 0.21767575 0.09965611 0.00000000
v 0.21260120 0.10617588 0.00000000
v 0.20872724 0.11024693 0.00000000
v 0.20246711 0.11563850 0.00000000
v 0.19786669 0.11886605 0.00000000
v 0.19066660 0.12291786 0.00000000
v 0.18552025 0.12517527 0.00000000
v 0.17766275 0.12772831 0.00000000
v 0.17217238 0.12892699 0.00000000
v 0.16396579 0.12988111 0.00000000
v 0.15372586 0.12971179 0.00000000
v 0.14555532 0.12848686 0.00000000
v 0.14010759 0.12710731 0.00000000
v 0.13233879 0.12429585 0.00000000
v 0.12726988 0.12186952 0.00000000
v 0.12020770 0.11758186 0.00000000
v 0.11571652 0.11420397 0.00000000
v 0.10963807 0.10860837 0.00000000
v 0.10590083 0.10441146 0.00000000
v 0.10104463 0.09772747 0.00000000
v 0.09820800 0.09287624 0.00000000
v 0.09476461 0.08536615 0.00000000
v 0.09293990 0.08005095 0.00000000
v 0.09104443 0.07200946 0.00000000
v 0.09030323 0.06643886 0.00000000
v 0.09003007 0.05818151 0.00000000
v 0.09040148 0.05257411 0.00000000
v 0.09176134 0.04442493 0.00000000
v 0.09323078 0.03900076 0.00000000
v 0.09617029 0.03127951 0.00000000
v 0.09868009 0.02625141 0.00000000
v 0.10308393 0.01926108 0.00000000
v 0.10653561 0.01482636 0.00000000
v 0.11223096 0.00884126 0.00000000
v 0.11648908 0.00517393 0.00000000
v 0.12325245 0.00042890 0.00000000
v 0.12814993 -0.00232712 0.00000000
v 0.13571592 -0.00564588 0.00000000
v 0.14106056 -0.00738246 0.00000000
v 0.14913230 -0.00914471 0.00000000
v 0.15471438 -0.00979370 0.00000000
v 0.16297512 -0.00993030 0.00000000
v 0.16857561 -0.00946623 0.00000000
v 0.17670120 -0.00797182 0.00000000
v 0.18210033 -0.00641290 0.00000000
v 0.18977192 -0.00334612 0.00000000
v 0.19475783 -0.00075352 0.00000000
v 0.20167439 0.00376529 0.00000000
v 0.20605144 0.00728982 0.00000000
v 0.21194156 0.01308335 0.00000000
v 0.21553798 0.01740152 0.00000000
v 0.22017054 0.02424242 0.00000000
v 0.22284521 0.02918479 0.00000000
v 0.22603841 0.03680462 0.00000000
v 0.22742702 0.04121985 0.00000000
v 0.22871631 0.04668964 0.00000000
v 0.22980599 0.05487933 0.00000000
v 0.22999179 0.06049595 0.00000000
v 0.22944577 0.06873975 0.00000000
v 0.19688402 0.04454320 0.00000000
v 0.19311357 0.03757600 0.00000000
v 0.18804371 0.03148871 0.00000000
v 0.18187344 0.02652021 0.00000000
v 0.17484485 0.02286546 0.00000000
v 0.16723374 0.02066787 0.00000000
v 0.15933877 0.02001367 0.00000000
v 0.15146977 0.02092854 0.00000000
v 0.14393547 0.02337658 0.00000000
v 0.13703157 0.02726172 0.00000000
v 0.13102894 0.03243152 0.00000000
v 0.12616314 0.03868311 0.00000000
v 0.12262509 0.04577117 0.00000000
v 0.12055364 0.05341757 0.00000000
v 0.12003007 0.05867774 0.00000000
v 0.12055364 0.06658243 0.00000000
v 0.12262509 0.07422884 0.00000000
v 0.12616314 0.08131690 0.00000000
v 0.13102894 0.08756848 0.00000000
v 0.13703157 0.09273828 0.00000000
v 0.14393547 0.09662342 0.00000000
v 0.15146977 0.09907146 0.00000000
v 0.15933877 0.09998633 0.00000000
v 0.16723374 0.09933213 0.00000000
v 0.17484485 0.09713455 0.00000000
v 0.18187344 0.09347979 0.00000000
v 0.18804371 0.08851129 0.00000000
v 0.19311357 0.08242400 0.00000000
v 0.19688402 0.07545680 0.00000000
v 0.19920716 0.06788307 0.00000000
v 0.19999179 0.06000000 0.00000000
v 0.19920716 0.05211694 0.00000000
v 0.22852080 0.07428280 0.02000000
v 0.22636048 0.08225722 0.02000000
v 0.22436103 0.08750919 0.02000000
v 0.22067121 0.09490132 0.02000000
v 0.21767575 0.09965611 0.02000000
v 0.21260120 0.10617588 0.02000000
v 0.20872724 0.11024693 0.02000000
v 0.20246711 0.11563850 0.02000000
v 0.19786669 0.11886605 0.02000000
v 0.19066660 0.12291786 0.02000000
v 0.18552025 0.12517527 0.02000000
v 0.17766275 0.12772831 0.02000000
v 0.17217238 0.12892699 0.02000000
v 0.16396579 0.12988111 0.02000000
v 0.15372586 0.12971179 0.02000000
v 0.14555532 0.12848686 0.02000000
v 0.14010759 0.12710731 0.02000000
v 0.13233879 0.12429585 0.02000000
v 0.12726988 0.12186952 0.02000000
v 0.12020770 0.11758186 0.02000000
v 0.11571652 0.11420397 0.02000000
v 0.10963807 0.10860837 0.02000000
v 0.10590083 0.10441146 0.02000000
v 0.10104463 0.09772747 0.02000000
v 0.09820800 0.09287624 0.02000000
v 0.09476461 0.08536615 0.02000000
v 0.09293990 0.08005095 0.02000000
v 0.09104443 0.07200946 0.02000000
v 0.09030323 0.06643886 0.02000000
v 0.09003007 0.05818151 0.02000000
v 0.09040148 0.05257411 0.02000000
v 0.09176134 0.04442493 0.02000000
v 0.09323078 0.03900076 0.02000000
v 0.09617029 0.03127951 0.02000000
v 0.09868009 0.02625141 0.02000000
v 0.10308393 0.01926108 0.02000000
v 0.10653561 0.01482636 0.02000000
v 0.11223096 0.00884126 0.02000000
v 0.11648908 0.00517393 0.02000000
v 0.12325245 0.00042890 0.02000000
v 0.12814993 -0.00232712 0.02000000
v 0.13571592 -0.00564588 0.02000000
v 0.14106056 -0.00738246 0.02000000
v 0.14913230 -0.00914471 0.02000000
v 0.15471438 -0.00979370 0.02000000
v 0.16297512 -0.00993030 0.02000000
v 0.16857561 -0.00946623 0.02000000
v 0.17670120 -0.00797182 0.02000000
v 0.18210033 -0.00641290 0.02000000
v 0.18977192 -0.00334612 0.02000000
v 0.19475783 -0.00075352 0.02000000
v 0.20167439 0.00376529 0.02000000
v 0.20605144 0.00728982 0.02000000
v 0.21194156 0.01308335 0.02000000
v 0.21553798 0.01740152 0.02000000
v 0.22017054 0.02424242 0.02000000
v 0.22284521 0.02918479 0.02000000
v 0.22603841 0.03680462 0.02000000
v 0.22742702 0.04121985 0.02000000
v 0.22871631 0.04668964 0.02000000
v 0.22980599 0.05487933 0.02000000
v 0.22999179 0.06049595 0.02000000
v 0.22944577 0.06873975 0.02000000
v 0.19688402 0.04454320 0.02000000
v 0.19311357 0.03757600 0.02000000
v 0.18804371 0.03148871 0.02000000
v 0.18187344 0.02652021 0.02000000
v 0.17484485 0.02286546 0.02000000
v 0.16723374 0.02066787 0.02000000
v 0.15933877 0.02001367 0.02000000
v 0.15146977 0.02092854 0.02000000
v 0.14393547 0.02337658 0.02000000
v 0.13703157 0.02726172 0.02000000
v 0.13102894 0.03243152 0.02000000
v 0.12616314 0.03868311 0.02000000
v 0.12262509 0.04577117 0.02000000
v 0.12055364 0.05341757 0.02000000
v 0.12003007 0.05867774 0.02000000
v 0.12055364 0.06658243 0.02000000
v 0.12262509 0.07422884 0.02000000
v 0.12616314 0.08131690 0.02000000
v 0.13102894 0.08756848 0.02000000
v 0.13703157 0.09273828 0.02000000
v 0.14393547 0.09662342 0.02000000
v 0.15146977 0.09907146 0.02000000
v 0.15933877 0.09998633 0.02000000
v 0.16723374 0.09933213 0.02000000
v 0.17484485 0.09713455 0.02000000
v 0.18187344 0.09347979 0.02000000
v 0.18804371 0.08851129 0.02000000
v 0.19311357 0.08242400 0.02000000
v 0.19688402 0.07545680 0.02000000
v 0.19920716 0.06788307 0.02000000
v 0.19999179 0.06000000 0.02000000
v 0.19920716 0.05211694 0.02000000
v -0.20293356 -0.09692773 0.00000000
v -0.20049775 -0.08716135 0.00000000
v -0.19729495 -0.07879496 0.00000000
v -0.19349949 -0.07196269 0.00000000
v -0.19074124 -0.06829550 0.00000000
v -0.18640476 -0.06409673 0.00000000
v -0.18189651 -0.06130857 0.00000000
v -0.17460023 -0.05899438 0.00000000
v -0.17116222 -0.05711997 0.00000000
v -0.16832648 -0.05441960 0.00000000
v -0.16628627 -0.05107731 0.00000000
v -0.16518064 -0.04732085 0.00000000
v -0.16500448 -0.04536669 0.00000000
v -0.16508491 -0.04340624 0.00000000
v -0.16600563 -0.03960023 0.00000000
v -0.16788003 -0.03616222 0.00000000
v -0.16913728 -0.03465585 0.00000000
v -0.17218469 -0.03219684 0.00000000
v -0.17392269 -0.03128627 0.00000000
v -0.17767915 -0.03018063 0.00000000
v -0.17963332 -0.03000448 0.00000000
v -0.18352693 -0.03042054 0.00000000
v -0.19139513 -0.03275990 0.00000000
v -0.19868930 -0.03626422 0.00000000
v -0.20445654 -0.04012960 0.00000000
v -0.21051225 -0.04549021 0.00000000
v -0.21583353 -0.05163591 0.00000000
v -0.22043830 -0.05845083 0.00000000
v -0.22436018 -0.06584897 0.00000000
v -0.22784899 -0.07436731 0.00000000
v -0.23043826 -0.08271942 0.00000000
v -0.23314825 -0.09556171 0.00000000
v -0.23436677 -0.10545737 0.00000000
v -0.23499842 -0.11978247 0.00000000
v -0.23454367 -0.12367176 0.00000000
v -0.23309778 -0.12731083 0.00000000
v -0.23203148 -0.12895788 0.00000000
v -0.22930305 -0.13176662 0.00000000
v -0.22768760 -0.13288026 0.00000000
v -0.22409199 -0.13443106 0.00000000
v -0.22217336 -0.13484171 0.00000000
v -0.22021753 -0.13499843 0.00000000
v -0.21632825 -0.13454367 0.00000000
v -0.21268918 -0.13309778 0.00000000
v -0.21104212 -0.13203147 0.00000000
v -0.20823337 -0.12930304 0.00000000
v -0.20711975 -0.12768760 0.00000000
v -0.20556894 -0.12409200 0.00000000
v -0.20500158 -0.12021753 0.00000000
v -0.20446800 -0.10793097 0.00000000
v -0.20293356 -0.09692773 0.02000000
v -0.20049775 -0.08716135 0.02000000
v -0.19729495 -0.07879496 0.02000000
v -0.19349949 -0.07196269 0.02000000
v -0.19074124 -0.06829550 0.02000000
v -0.18640476 -0.06409673 0.02000000
v -0.18189651 -0.06130857 0.02000000
v -0.17460023 -0.05899438 0.02000000
v -0.17116222 -0.05711997 0.02000000
v -0.16832648 -0.05441960 0.02000000
v -0.16628627 -0.05107731 0.02000000
v -0.16518064 -0.04732085 0.02000000
v -0.16500448 -0.04536669 0.02000000
v -0.16508491 -0.04340624 0.02000000
v -0.16600563 -0.03960023 0.02000000
v -0.16788003 -0.03616222 0.02000000
v -0.16913728 -0.03465585 0.02000000
v -0.17218469 -0.03219684 0.02000000
v -0.17392269 -0.03128627 0.02000000
v -0.17767915 -0.03018063 0.02000000
v -0.17963332 -0.03000448 0.02000000
v -0.18352693 -0.03042054 0.02000000
v -0.19139513 -0.03275990 0.02000000
v -0.19868930 -0.03626422 0.02000000
v -0.20445654 -0.04012960 0.02000000
v -0.21051225 -0.04549021 0.02000000
v -0.21583353 -0.05163591 0.02000000
v -0.22043830 -0.05845083 0.02000000
v -0.22436018 -0.06584897 0.02000000
v -0.22784899 -0.07436731 0.02000000
v -0.23043826 -0.08271942 0.02000000
v -0.23314825 -0.09556171 0.02000000
v -0.23436677 -0.10545737 0.02000000
v -0.23499842 -0.11978247 0.02000000
v -0.23454367 -0.12367176 0.02000000
v -0.23309778 -0.12731083 0.02000000
v -0.23203148 -0.12895788 0.02000000
v -0.22930305 -0.13176662 0.02000000
v -0.22768760 -0.13288026 0.02000000
v -0.22409199 -0.13443106 0.02000000
v -0.22217336 -0.13484171 0.02000000
v -0.22021753 -0.13499843 0.02000000
v -0.21632825 -0.13454367 0.02000000
v -0.21268918 -0.13309778 0.02000000
v -0.21104212 -0.13203147 0.02000000
v -0.20823337 -0.12930304 0.02000000
v -0.20711975 -0.12768760 0.02000000
v -0.20556894 -0.12409200 0.02000000
v -0.20500158 -0.12021753 0.02000000
v -0.20446800 -0.10793097 0.02000000
v 0.23380883 -0.10022759 0.00000000
v 0.23234184 -0.09099282 0.00000000
v 0.23043826 -0.08271942 0.00000000
v 0.22784899 -0.07436731 0.00000000
v 0.22465791 -0.06649075 0.00000000
v 0.22248235 -0.06208134 0.00000000
v 0.21822353 -0.05496574 0.00000000
v 0.21386920 -0.04918227 0.00000000
v 0.20834139 -0.04339332 0.00000000
v 0.20208597 -0.03840992 0.00000000
v 0.19512191 -0.03437462 0.00000000
v 0.19027354 -0.03234092 0.00000000
v 0.18352693 -0.03042054 0.00000000
v 0.17963332 -0.03000448 0.00000000
v 0.17576468 -0.03061035 0.00000000
v 0.17218469 -0.03219684 0.00000000
v 0.17058040 -0.03332648 0.00000000
v 0.16788003 -0.03616222 0.00000000
v 0.16600563 -0.03960023 0.00000000
v 0.16542053 -0.04147306 0.00000000
v 0.16508491 -0.04340624 0.00000000
v 0.16518064 -0.04732085 0.00000000
v 0.16628627 -0.05107731 0.00000000
v 0.16832648 -0.05441960 0.00000000
v 0.17116222 -0.05711997 0.00000000
v 0.17460023 -0.05899438 0.00000000
v 0.18189651 -0.06130857 0.00000000
v 0.18492293 -0.06302176 0.00000000
v 0.18786973 -0.06532906 0.00000000
v 0.19213794 -0.07004010 0.00000000
v 0.19608589 -0.07634199 0.00000000
v 0.19950761 -0.08420946 0.00000000
v 0.20221590 -0.09352651 0.00000000
v 0.20355082 -0.10046643 0.00000000
v 0.20446800 -0.10793097 0.00000000
v 0.20515828 -0.12217335 0.00000000
v 0.20622651 -0.12594062 0.00000000
v 0.20823337 -0.12930304 0.00000000
v 0.20954832 -0.13075930 0.00000000
v 0.21268918 -0.13309778 0.00000000
v 0.21632825 -0.13454367 0.00000000
v 0.21825798 -0.13489850 0.00000000
v 0.22217336 -0.13484171 0.00000000
v 0.22409199 -0.13443106 0.00000000
v 0.22768760 -0.13288026 0.00000000
v 0.22930305 -0.13176662 0.00000000
v 0.23203148 -0.12895788 0.00000000
v 0.23309778 -0.12731083 0.00000000
v 0.23454367 -0.12367176 0.00000000
v 0.23499842 -0.11978247 0.00000000
v 0.23469421 -0.10983465 0.00000000
v 0.23380883 -0.10022759 0.02000000
v 0.23234184 -0.09099282 0.02000000
v 0.23043826 -0.08271942 0.02000000
v 0.22784899 -0.07436731 0.02000000
v 0.22465791 -0.06649075 0.02000000
v 0.22248235 -0.06208134 0.02000000
v 0.21822353 -0.05496574 0.02000000
v 0.21386920 -0.04918227 0.02000000
v 0.20834139 -0.04339332 0.02000000
v 0.20208597 -0.03840992 0.02000000
v 0.19512191 -0.03437462 0.02000000
v 0.19027354 -0.03234092 0.02000000
v 0.18352693 -0.03042054 0.02000000
v 0.17963332 -0.03000448 0.02000000
v 0.17576468 -0.03061035 0.02000000
v 0.17218469 -0.03219684 0.02000000
v 0.17058040 -0.03332648 0.02000000
v 0.16788003 -0.03616222 0.02000000
v 0.16600563 -0.03960023 0.02000000
v 0.16542053 -0.04147306 0.02000000
v 0.16508491 -0.04340624 0.02000000
v 0.16518064 -0.04732085 0.02000000
v 0.16628627 -0.05107731 0.02000000
v 0.16832648 -0.05441960 0.02000000
v 0.17116222 -0.05711997 0.02000000
v 0.17460023 -0.05899438 0.02000000
v 0.18189651 -0.06130857 0.02000000
v 0.18492293 -0.06302176 0.02000000
v 0.18786973 -0.06532906 0.02000000
v 0.19213794 -0.07004010 0.02000000
v 0.19608589 -0.07634199 0.02000000
v 0.19950761 -0.08420946 0.02000000
v 0.20221590 -0.09352651 0.02000000
v 0.20355082 -0.10046643 0.02000000
v 0.20446800 -0.10793097 0.02000000
v 0.20515828 -0.12217335 0.02000000
v 0.20622651 -0.12594062 0.02000000
v 0.20823337 -0.12930304 0.02000000
v 0.20954832 -0.13075930 0.02000000
v 0.21268918 -0.13309778 0.02000000
v 0.21632825 -0.13454367 0.02000000
v 0.21825798 -0.13489850 0.02000000
v 0.22217336 -0.13484171 0.02000000
v 0.22409199 -0.13443106 0.02000000
v 0.22768760 -0.13288026 0.02000000
v 0.22930305 -0.13176662 0.02000000
v 0.23203148 -0.12895788 0.02000000
v 0.23309778 -0.12731083 0.02000000
v 0.23454367 -0.12367176 0.02000000
v 0.23499842 -0.11978247 0.02000000
v 0.23469421 -0.10983465 0.02000000
v -0.14275524 -0.16593117 0.00000000
v -0.14005578 -0.15105422 0.00000000
v -0.13640113 -0.13755099 0.00000000
v -0.13423786 -0.13129556 0.00000000
v -0.13059637 -0.12250783 0.00000000
v -0.12503882 -0.11184990 0.00000000
v -0.12197258 -0.10695072 0.00000000
v -0.11702629 -0.10010812 0.00000000
v -0.10979749 -0.09187295 0.00000000
v -0.10591449 -0.08811367 0.00000000
v -0.09975518 -0.08289833 0.00000000
v -0.09091730 -0.07669903 0.00000000
v -0.07886744 -0.07010554 0.00000000
v -0.06572321 -0.06474786 0.00000000
v -0.05153075 -0.06059185 0.00000000
v -0.03636080 -0.05760848 0.00000000
v -0.02030212 -0.05576499 0.00000000
v -0.00345437 -0.05502118 0.00000000
v 0.01699239 -0.05552969 0.00000000
v 0.03321709 -0.05714976 0.00000000
v 0.04557542 -0.05925947 0.00000000
v 0.05732948 -0.06211189 0.00000000
v 0.06843778 -0.06572232 0.00000000
v 0.07886744 -0.07010554 0.00000000
v 0.08859618 -0.07527931 0.00000000
v 0.09761274 -0.08126918 0.00000000
v 0.10591449 -0.08811367 0.00000000
v 0.11167198 -0.09384041 0.00000000
v 0.11528653 -0.09795675 0.00000000
v 0.12036965 -0.10460375 0.00000000
v 0.12352914 -0.10936564 0.00000000
v 0.12791520 -0.11703195 0.00000000
v 0.13059637 -0.12250783 0.00000000
v 0.13534661 -0.13438281 0.00000000
v 0.13922884 -0.14755185 0.00000000
v 0.14217389 -0.16208018 0.00000000
v 0.14372407 -0.17390108 0.00000000
v 0.14442693 -0.18223272 0.00000000
v 0.14514431 -0.20207573 0.00000000
v 0.14618775 -0.20584995 0.00000000
v 0.14706948 -0.20760275 0.00000000
v 0.14947782 -0.21069036 0.00000000
v 0.15260322 -0.21304944 0.00000000
v 0.15623271 -0.21451922 0.00000000
v 0.15816008 -0.21488672 0.00000000
v 0.16207574 -0.21485569 0.00000000
v 0.16584994 -0.21381225 0.00000000
v 0.16760276 -0.21293052 0.00000000
v 0.17069036 -0.21052217 0.00000000
v 0.17304944 -0.20739678 0.00000000
v 0.17451921 -0.20376728 0.00000000
v 0.17488673 -0.20183992 0.00000000
v 0.17495741 -0.19481717 0.00000000
v 0.17436928 -0.18036921 0.00000000
v 0.17248128 -0.16188361 0.00000000
v 0.16935937 -0.14462583 0.00000000
v 0.16502568 -0.12856962 0.00000000
v 0.15950400 -0.11369986 0.00000000
v 0.15282457 -0.10001354 0.00000000
v 0.14502960 -0.08751787 0.00000000
v 0.14073136 -0.08172033 0.00000000
v 0.13590956 -0.07591977 0.00000000
v 0.12604868 -0.06587285 0.00000000
v 0.12078191 -0.06130641 0.00000000
v 0.11280768 -0.05524136 0.00000000
v 0.10078496 -0.04767698 0.00000000
v 0.09467240 -0.04443596 0.00000000
v 0.08551246 -0.04022259 0.00000000
v 0.07209668 -0.03524410 0.00000000
v 0.06219303 -0.03234442 0.00000000
v 0.05499397 -0.03059737 0.00000000
v 0.03743322 -0.02744727 0.00000000
v 0.01881308 -0.02558481 0.00000000
v 0.00752810 -0.02509098 0.00000000
v -0.00391318 -0.02502454 0.00000000
v -0.01527057 -0.02538157 0.00000000
v -0.02623481 -0.02616179 0.00000000
v -0.03720199 -0.02741537 0.00000000
v -0.04795445 -0.02915531 0.00000000
v -0.06561966 -0.03327974 0.00000000
v -0.07571489 -0.03646023 0.00000000
v -0.08521064 -0.04009575 0.00000000
v -0.09186444 -0.04306655 0.00000000
v -0.10078496 -0.04767698 0.00000000
v -0.10963519 -0.05307604 0.00000000
v -0.11561763 -0.05727207 0.00000000
v -0.12344210 -0.06355171 0.00000000
v -0.12860020 -0.06827007 0.00000000
v -0.13590956 -0.07591977 0.00000000
v -0.14073136 -0.08172033 0.00000000
v -0.14685884 -0.09019619 0.00000000
v -0.15097843 -0.09677756 0.00000000
v -0.15613919 -0.10636648 0.00000000
v -0.15950400 -0.11369986 0.00000000
v -0.16364050 -0.12440851 0.00000000
v -0.16622147 -0.13247205 0.00000000
v -0.17019242 -0.14852184 0.00000000
v -0.17244078 -0.16159646 0.00000000
v -0.17399156 -0.17536268 0.00000000
v -0.17483515 -0.18983401 0.00000000
v -0.17499954 -0.19988108 0.00000000
v -0.17451921 -0.20376728 0.00000000
v -0.17304944 -0.20739678 0.00000000
v -0.17069036 -0.21052217 0.00000000
v -0.16922548 -0.21182753 0.00000000
v -0.16584994 -0.21381225 0.00000000
v -0.16399704 -0.21445765 0.00000000
v -0.16011892 -0.21499953 0.00000000
v -0.15816008 -0.21488672 0.00000000
v -0.15436980 -0.21390326 0.00000000
v -0.15260322 -0.21304944 0.00000000
v -0.15096322 -0.21197233 0.00000000
v -0.14817247 -0.20922549 0.00000000
v -0.14618775 -0.20584995 0.00000000
v -0.14514431 -0.20207573 0.00000000
v -0.14442693 -0.18223272 0.00000000
v -0.14275524 -0.16593117 0.02000000
v -0.14005578 -0.15105422 0.02000000
v -0.13640113 -0.13755099 0.02000000
v -0.13423786 -0.13129556 0.02000000
v -0.13059637 -0.12250783 0.02000000
v -0.12503882 -0.11184990 0.02000000
v -0.12197258 -0.10695072 0.02000000
v -0.11702629 -0.10010812 0.02000000
v -0.10979749 -0.09187295 0.02000000
v -0.10591449 -0.08811367 0.02000000
v -0.09975518 -0.08289833 0.02000000
v -0.09091730 -0.07669903 0.02000000
v -0.07886744 -0.07010554 0.02000000
v -0.06572321 -0.06474786 0.02000000
v -0.05153075 -0.06059185 0.02000000
v -0.03636080 -0.05760848 0.02000000
v -0.02030212 -0.05576499 0.02000000
v -0.00345437 -0.05502118 0.02000000
v 0.01699239 -0.05552969 0.02000000
v 0.03321709 -0.05714976 0.02000000
v 0.04557542 -0.05925947 0.02000000
v 0.05732948 -0.06211189 0.02000000
v 0.06843778 -0.06572232 0.02000000
v 0.07886744 -0.07010554 0.02000000
v 0.08859618 -0.07527931 0.02000000
v 0.09761274 -0.08126918 0.02000000
v 0.10591449 -0.08811367 0.02000000
v 0.11167198 -0.09384041 0.02000000
v 0.11528653 -0.09795675 0.02000000
v 0.12036965 -0.10460375 0.02000000
v 0.12352914 -0.10936564 0.02000000
v 0.12791520 -0.11703195 0.02000000
v 0.13059637 -0.12250783 0.02000000
v 0.13534661 -0.13438281 0.02000000
v 0.13922884 -0.14755185 0.02000000
v 0.14217389 -0.16208018 0.02000000
v 0.14372407 -0.17390108 0.02000000
v 0.14442693 -0.18223272 0.02000000
v 0.14514431 -0.20207573 0.02000000
v 0.14618775 -0.20584995 0.02000000
v 0.14706948 -0.20760275 0.02000000
v 0.14947782 -0.21069036 0.02000000
v 0.15260322 -0.21304944 0.02000000
v 0.15623271 -0.21451922 0.02000000
v 0.15816008 -0.21488672 0.02000000
v 0.16207574 -0.21485569 0.02000000
v 0.16584994 -0.21381225 0.02000000
v 0.16760276 -0.21293052 0.02000000
v 0.17069036 -0.21052217 0.02000000
v 0.17304944 -0.20739678 0.02000000
v 0.17451921 -0.20376728 0.02000000
v 0.17488673 -0.20183992 0.02000000
v 0.17495741 -0.19481717 0.02000000
v 0.17436928 -0.18036921 0.02000000
v 0.17248128 -0.16188361 0.02000000
v 0.16935937 -0.14462583 0.02000000
v 0.16502568 -0.12856962 0.02000000
v 0.15950400 -0.11369986 0.02000000
v 0.15282457 -0.10001354 0.02000000
v 0.14502960 -0.08751787 0.02000000
v 0.14073136 -0.08172033 0.02000000
v 0.13590956 -0.07591977 0.02000000
v 0.12604868 -0.06587285 0.02000000
v 0.12078191 -0.06130641 0.02000000
v 0.11280768 -0.05524136 0.02000000
v 0.10078496 -0.04767698 0.02000000
v 0.09467240 -0.04443596 0.02000000
v 0.08551246 -0.04022259 0.02000000
v 0.07209668 -0.03524410 0.02000000
v 0.06219303 -0.03234442 0.02000000
v 0.05499397 -0.03059737 0.02000000
v 0.03743322 -0.02744727 0.02000000
v 0.01881308 -0.02558481 0.02000000
v 0.00752810 -0.02509098 0.02000000
v -0.00391318 -0.02502454 0.02000000
v -0.01527057 -0.02538157 0.02000000
v -0.02623481 -0.02616179 0.02000000
v -0.03720199 -0.02741537 0.02000000
v -0.04795445 -0.02915531 0.02000000
v -0.06561966 -0.03327974 0.02000000
v -0.07571489 -0.03646023 0.02000000
v -0.08521064 -0.04009575 0.02000000
v -0.09186444 -0.04306655 0.02000000
v -0.10078496 -0.04767698 0.02000000
v -0.10963519 -0.05307604 0.02000000
v -0.11561763 -0.05727207 0.02000000
v -0.12344210 -0.06355171 0.02000000
v -0.12860020 -0.06827007 0.02000000
v -0.13590956 -0.07591977 0.02000000
v -0.14073136 -0.08172033 0.02000000
v -0.14685884 -0.09019619 0.02000000
v -0.15097843 -0.09677756 0.02000000
v -0.15613919 -0.10636648 0.02000000
v -0.15950400 -0.11369986 0.02000000
v -0.16364050 -0.12440851 0.02000000
v -0.16622147 -0.13247205 0.02000000
v -0.17019242 -0.14852184 0.02000000
v -0.17244078 -0.16159646 0.02000000
v -0.17399156 -0.17536268 0.02000000
v -0.17483515 -0.18983401 0.02000000
v -0.17499954 -0.19988108 0.02000000
v -0.17451921 -0.20376728 0.02000000
v -0.17304944 -0.20739678 0.02000000
v -0.17069036 -0.21052217 0.02000000
v -0.16922548 -0.21182753 0.02000000
v -0.16584994 -0.21381225 0.02000000
v -0.16399704 -0.21445765 0.02000000
v -0.16011892 -0.21499953 0.02000000
v -0.15816008 -0.21488672 0.02000000
v -0.15436980 -0.21390326 0.02000000
v -0.15260322 -0.21304944 0.02000000
v -0.15096322 -0.21197233 0.02000000
v -0.14817247 -0.20922549 0.02000000
v -0.14618775 -0.20584995 0.02000000
v -0.14514431 -0.20207573 0.02000000
v -0.14442693 -0.18223272 0.02000000
f 31 94 93
f 31 93 92
f 31 92 91
f 31 91 90
f 31 90 89
f 31 89 88
f 31 88 87
f 31 87 86
f 95 94 31
f 95 31 30
f 95 30 29
f 95 29 28
f 95 28 27
f 95 27 26
f 95 26 25
f 95 25 24
f 95 24 23
f 95 23 22
f 22 21 20
f 22 20 19
f 22 19 18
f 22 18 17
f 22 17 16
f 22 16 15
f 22 15 14
f 22 14 13
f 22 13 12
f 22 12 11
f 22 11 10
f 22 10 9
f 22 9 8
f 22 8 7
f 22 7 6
f 22 6 5
f 5 4 3
f 5 3 2
f 5 2 1
f 5 1 64
f 5 64 63
f 5 63 62
f 5 62 61
f 5 61 60
f 5 60 59
f 5 59 58
f 5 58 57
f 5 57 56
f 5 56 55
f 5 55 54
f 5 54 53
f 53 52 51
f 53 51 50
f 53 50 49
f 53 49 48
f 53 48 47
f 53 47 46
f 53 46 45
f 53 45 44
f 53 44 43
f 53 43 42
f 53 42 41
f 53 41 40
f 53 40 39
f 53 39 38
f 53 38 37
f 53 37 36
f 36 35 34
f 36 34 33
f 36 33 32
f 36 32 31
f 36 31 86
f 36 86 85
f 36 85 84
f 36 84 83
f 36 83 82
f 36 82 81
f 96 95 22
f 53 36 81
f 53 81 80
f 53 80 79
f 53 79 78
f 53 78 77
f 53 77 76
f 53 76 75
f 53 75 74
f 53 74 73
f 53 73 72
f 53 72 71
f 53 71 70
f 53 70 69
f 53 69 68
f 53 68 67
f 53 67 66
f 53 66 65
f 53 65 127
f 97 96 22
f 5 53 127
f 5 127 126
f 5 126 125
f 5 125 124
f 5 124 123
f 5 123 122
f 5 122 121
f 5 121 120
f 5 120 119
f 5 119 118
f 5 118 117
f 5 117 116
f 5 116 115
f 5 115 114
f 5 114 113
f 5 113 112
f 5 112 111
f 98 97 22
f 22 5 111
f 22 111 110
f 22 110 109
f 22 109 108
f 22 108 107
f 22 107 106
f 22 106 105
f 22 105 104
f 22 104 103
f 22 103 102
f 22 102 101
f 22 101 100
f 22 100 99
f 22 99 98
f 220 221 158
f 219 220 158
f 218 219 158
f 217 218 158
f 216 217 158
f 215 216 158
f 214 215 158
f 213 214 158
f 158 221 222
f 157 158 222
f 156 157 222
f 155 156 222
f 154 155 222
f 153 154 222
f 152 153 222
f 151 152 222
f 150 151 222
f 149 150 222
f 147 148 149
f 146 147 149
f 145 146 149
f 144 145 149
f 143 144 149
f 142 143 149
f 141 142 149
f 140 141 149
f 139 140 149
f 138 139 149
f 137 138 149
f 136 137 149
f 135 136 149
f 134 135 149
f 133 134 149
f 132 133 149
f 130 131 132
f 129 130 132
f 128 129 132
f 191 128 132
f 190 191 132
f 189 190 132
f 188 189 132
f 187 188 132
f 186 187 132
f 185 186 132
f 184 185 132
f 183 184 132
f 182 183 132
f 181 182 132
f 180 181 132
f 178 179 180
f 177 178 180
f 176 177 180
f 175 176 180
f 174 175 180
f 173 174 180
f 172 173 180
f 171 172 180
f 170 171 180
f 169 170 180
f 168 169 180
f 167 168 180
f 166 167 180
f 165 166 180
f 164 165 180
f 163 164 180
f 161 162 163
f 160 161 163
f 159 160 163
f 158 159 163
f 213 158 163
f 212 213 163
f 211 212 163
f 210 211 163
f 209 210 163
f 208 209 163
f 149 222 223
f 208 163 180
f 207 208 180
f 206 207 180
f 205 206 180
f 204 205 180
f 203 204 180
f 202 203 180
f 201 202 180
f 200 201 180
f 199 200 180
f 198 199 180
f 197 198 180
f 196 197 180
f 195 196 180
f 194 195 180
f 193 194 180
f 192 193 180
f 254 192 180
f 149 223 224
f 254 180 132
f 253 254 132
f 252 253 132
f 251 252 132
f 250 251 132
f 249 250 132
f 248 249 132
f 247 248 132
f 246 247 132
f 245 246 132
f 244 245 132
f 243 244 132
f 242 243 132
f 241 242 132
f 240 241 132
f 239 240 132
f 238 239 132
f 149 224 225
f 238 132 149
f 237 238 149
f 236 237 149
f 235 236 149
f 234 235 149
f 233 234 149
f 232 233 149
f 231 232 149
f 230 231 149
f 229 230 149
f 228 229 149
f 227 228 149
f 226 227 149
f 225 226 149
f 1 129 128
f 2 129 1
f 2 130 129
f 3 130 2
f 3 131 130
f 4 131 3
f 4 132 131
f 5 132 4
f 5 133 132
f 6 133 5
f 6 134 133
f 7 134 6
f 7 135 134
f 8 135 7
f 8 136 135
f 9 136 8
f 9 137 136
f 10 137 9
f 10 138 137
f 11 138 10
f 11 139 138
f 12 139 11
f 12 140 139
f 13 140 12
f 13 141 140
f 14 141 13
f 14 142 141
f 15 142 14
f 15 143 142
f 16 143 15
f 16 144 143
f 17 144 16
f 17 145 144
f 18 145 17
f 18 146 145
f 19 146 18
f 19 147 146
f 20 147 19
f 20 148 147
f 21 148 20
f 21 149 148
f 22 149 21
f 22 150 149
f 23 150 22
f 23 151 150
f 24 151 23
f 24 152 151
f 25 152 24
f 25 153 152
f 26 153 25
f 26 154 153
f 27 154 26
f 27 155 154
f 28 155 27
f 28 156 155
f 29 156 28
f 29 157 156
f 30 157 29
f 30 158 157
f 31 158 30
f 31 159 158
f 32 159 31
f 32 160 159
f 33 160 32
f 33 161 160
f 34 161 33
f 34 162 161
f 35 162 34
f 35 163 162
f 36 163 35
f 36 164 163
f 37 164 36
f 37 165 164
f 38 165 37
f 38 166 165
f 39 166 38
f 39 167 166
f 40 167 39
f 40 168 167
f 41 168 40
f 41 169 168
f 42 169 41
f 42 170 169
f 43 170 42
f 43 171 170
f 44 171 43
f 44 172 171
f 45 172 44
f 45 173 172
f 46 173 45
f 46 174 173
f 47 174 46
f 47 175 174
f 48 175 47
f 48 176 175
f 49 176 48
f 49 177 176
f 50 177 49
f 50 178 177
f 51 178 50
f 51 179 178
f 52 179 51
f 52 180 179
f 53 180 52
f 53 181 180
f 54 181 53
f 54 182 181
f 55 182 54
f 55 183 182
f 56 183 55
f 56 184 183
f 57 184 56
f 57 185 184
f 58 185 57
f 58 186 185
f 59 186 58
f 59 187 186
f 60 187 59
f 60 188 187
f 61 188 60
f 61 189 188
f 62 189 61
f 62 190 189
f 63 190 62
f 64 128 191
f 1 128 64
f 63 191 190
f 64 191 63
f 65 193 192
f 66 193 65
f 66 194 193
f 67 194 66
f 67 195 194
f 68 195 67
f 68 196 195
f 69 196 68
f 69 197 196
f 70 197 69
f 70 198 197
f 71 198 70
f 71 199 198
f 72 199 71
f 72 200 199
f 73 200 72
f 73 201 200
f 74 201 73
f 74 202 201
f 75 202 74
f 75 203 202
f 76 203 75
f 76 204 203
f 77 204 76
f 77 205 204
f 78 205 77
f 78 206 205
f 79 206 78
f 79 207 206
f 80 207 79
f 80 208 207
f 81 208 80
f 81 209 208
f 82 209 81
f 82 210 209
f 83 210 82
f 83 211 210
f 84 211 83
f 84 212 211
f 85 212 84
f 85 213 212
f 86 213 85
f 86 214 213
f 87 214 86
f 87 215 214
f 88 215 87
f 88 216 215
f 89 216 88
f 89 217 216
f 90 217 89
f 90 218 217
f 91 218 90
f 91 219 218
f 92 219 91
f 92 220 219
f 93 220 92
f 93 221 220
f 94 221 93
f 94 222 221
f 95 222 94
f 95 223 222
f 96 223 95
f 96 224 223
f 97 224 96
f 97 225 224
f 98 225 97
f 98 226 225
f 99 226 98
f 99 227 226
f 100 227 99
f 100 228 227
f 101 228 100
f 101 229 228
f 102 229 101
f 102 230 229
f 103 230 102
f 103 231 230
f 104 231 103
f 104 232 231
f 105 232 104
f 105 233 232
f 106 233 105
f 106 234 233
f 107 234 106
f 107 235 234
f 108 235 107
f 108 236 235
f 109 236 108
f 109 237 236
f 110 237 109
f 110 238 237
f 111 238 110
f 111 239 238
f 112 239 111
f 112 240 239
f 113 240 112
f 113 241 240
f 114 241 113
f 114 242 241
f 115 242 114
f 115 243 242
f 116 243 115
f 116 244 243
f 117 244 116
f 117 245 244
f 118 245 117
f 118 246 245
f 119 246 118
f 119 247 246
f 120 247 119
f 120 248 247
f 121 248 120
f 121 249 248
f 122 249 121
f 122 250 249
f 123 250 122
f 123 251 250
f 124 251 123
f 124 252 251
f 125 252 124
f 125 253 252
f 126 253 125
f 127 192 254
f 65 192 127
f 126 254 253
f 127 254 126
f 284 332 331
f 284 331 330
f 284 330 329
f 284 329 328
f 284 328 327
f 333 332 284
f 333 284 283
f 333 283 282
f 333 282 281
f 333 281 280
f 333 280 279
f 333 279 278
f 333 278 277
f 333 277 276
f 333 276 275
f 333 275 274
f 333 274 273
f 333 273 272
f 333 272 271
f 271 270 269
f 271 269 268
f 271 268 267
f 271 267 266
f 271 266 265
f 271 265 264
f 271 264 263
f 271 263 262
f 271 262 261
f 271 261 260
f 271 260 259
f 271 259 258
f 271 258 257
f 271 257 256
f 271 256 255
f 271 255 317
f 271 317 316
f 316 315 314
f 316 314 313
f 316 313 312
f 316 312 311
f 316 311 310
f 316 310 309
f 316 309 308
f 316 308 307
f 316 307 306
f 316 306 305
f 316 305 304
f 316 304 303
f 316 303 302
f 316 302 301
f 316 301 300
f 316 300 299
f 316 299 298
f 316 298 297
f 297 296 295
f 297 295 294
f 297 294 293
f 297 293 292
f 297 292 291
f 297 291 290
f 297 290 289
f 297 289 288
f 297 288 287
f 297 287 286
f 297 286 285
f 297 285 284
f 297 284 327
f 297 327 326
f 297 326 325
f 297 325 324
f 297 324 323
f 297 323 322
f 297 322 321
f 297 321 320
f 334 333 271
f 316 297 320
f 316 320 319
f 316 319 318
f 316 318 349
f 316 349 348
f 316 348 347
f 316 347 346
f 316 346 345
f 316 345 344
f 316 344 343
f 335 334 271
f 271 316 343
f 271 343 342
f 271 342 341
f 271 341 340
f 271 340 339
f 271 339 338
f 271 338 337
f 271 337 336
f 271 336 335
f 426 427 379
f 425 426 379
f 424 425 379
f 423 424 379
f 422 423 379
f 379 427 428
f 378 379 428
f 377 378 428
f 376 377 428
f 375 376 428
f 374 375 428
f 373 374 428
f 372 373 428
f 371 372 428
f 370 371 428
f 369 370 428
f 368 369 428
f 367 368 428
f 366 367 428
f 364 365 366
f 363 364 366
f 362 363 366
f 361 362 366
f 360 361 366
f 359 360 366
f 358 359 366
f 357 358 366
f 356 357 366
f 355 356 366
f 354 355 366
f 353 354 366
f 352 353 366
f 351 352 366
f 350 351 366
f 412 350 366
f 411 412 366
f 409 410 411
f 408 409 411
f 407 408 411
f 406 407 411
f 405 406 411
f 404 405 411
f 403 404 411
f 402 403 411
f 401 402 411
f 400 401 411
f 399 400 411
f 398 399 411
f 397 398 411
f 396 397 411
f 395 396 411
f 394 395 411
f 393 394 411
f 392 393 411
f 390 391 392
f 389 390 392
f 388 389 392
f 387 388 392
f 386 387 392
f 385 386 392
f 384 385 392
f 383 384 392
f 382 383 392
f 381 382 392
f 380 381 392
f 379 380 392
f 422 379 392
f 421 422 392
f 420 421 392
f 419 420 392
f 418 419 392
f 417 418 392
f 416 417 392
f 415 416 392
f 366 428 429
f 415 392 411
f 414 415 411
f 413 414 411
f 444 413 411
f 443 444 411
f 442 443 411
f 441 442 411
f 440 441 411
f 439 440 411
f 438 439 411
f 366 429 430
f 438 411 366
f 437 438 366
f 436 437 366
f 435 436 366
f 434 435 366
f 433 434 366
f 432 433 366
f 431 432 366
f 430 431 366
f 255 351 350
f 256 351 255
f 256 352 351
f 257 352 256
f 257 353 352
f 258 353 257
f 258 354 353
f 259 354 258
f 259 355 354
f 260 355 259
f 260 356 355
f 261 356 260
f 261 357 356
f 262 357 261
f 262 358 357
f 263 358 262
f 263 359 358
f 264 359 263
f 264 360 359
f 265 360 264
f 265 361 360
f 266 361 265
f 266 362 361
f 267 362 266
f 267 363 362
f 268 363 267
f 268 364 363
f 269 364 268
f 269 365 364
f 270 365 269
f 270 366 365
f 271 366 270
f 271 367 366
f 272 367 271
f 272 368 367
f 273 368 272
f 273 369 368
f 274 369 273
f 274 370 369
f 275 370 274
f 275 371 370
f 276 371 275
f 276 372 371
f 277 372 276
f 277 373 372
f 278 373 277
f 278 374 373
f 279 374 278
f 279 375 374
f 280 375 279
f 280 376 375
f 281 376 280
f 281 377 376
f 282 377 281
f 282 378 377
f 283 378 282
f 283 379 378
f 284 379 283
f 284 380 379
f 285 380 284
f 285 381 380
f 286 381 285
f 286 382 381
f 287 382 286
f 287 383 382
f 288 383 287
f 288 384 383
f 289 384 288
f 289 385 384
f 290 385 289
f 290 386 385
f 291 386 290
f 291 387 386
f 292 387 291
f 292 388 387
f 293 388 292
f 293 389 388
f 294 389 293
f 294 390 389
f 295 390 294
f 295 391 390
f 296 391 295
f 296 392 391
f 297 392 296
f 297 393 392
f 298 393 297
f 298 394 393
f 299 394 298
f 299 395 394
f 300 395 299
f 300 396 395
f 301 396 300
f 301 397 396
f 302 397 301
f 302 398 397
f 303 398 302
f 303 399 398
f 304 399 303
f 304 400 399
f 305 400 304
f 305 401 400
f 306 401 305
f 306 402 401
f 307 402 306
f 307 403 402
f 308 403 307
f 308 404 403
f 309 404 308
f 309 405 404
f 310 405 309
f 310 406 405
f 311 406 310
f 311 407 406
f 312 407 311
f 312 408 407
f 313 408 312
f 313 409 408
f 314 409 313
f 314 410 409
f 315 410 314
f 315 411 410
f 316 411 315
f 317 350 412
f 255 350 317
f 316 412 411
f 317 412 316
f 318 414 413
f 319 414 318
f 319 415 414
f 320 415 319
f 320 416 415
f 321 416 320
f 321 417 416
f 322 417 321
f 322 418 417
f 323 418 322
f 323 419 418
f 324 419 323
f 324 420 419
f 325 420 324
f 325 421 420
f 326 421 325
f 326 422 421
f 327 422 326
f 327 423 422
f 328 423 327
f 328 424 423
f 329 424 328
f 329 425 424
f 330 425 329
f 330 426 425
f 331 426 330
f 331 427 426
f 332 427 331
f 332 428 427
f 333 428 332
f 333 429 428
f 334 429 333
f 334 430 429
f 335 430 334
f 335 431 430
f 336 431 335
f 336 432 431
f 337 432 336
f 337 433 432
f 338 433 337
f 338 434 433
f 339 434 338
f 339 435 434
f 340 435 339
f 340 436 435
f 341 436 340
f 341 437 436
f 342 437 341
f 342 438 437
f 343 438 342
f 343 439 438
f 344 439 343
f 344 440 439
f 345 440 344
f 345 441 440
f 346 441 345
f 346 442 441
f 347 442 346
f 347 443 442
f 348 443 347
f 349 413 444
f 318 413 349
f 348 444 443
f 349 444 348
f 474 522 521
f 474 521 520
f 474 520 519
f 474 519 518
f 474 518 517
f 523 522 474
f 523 474 473
f 523 473 472
f 523 472 471
f 523 471 470
f 523 470 469
f 523 469 468
f 523 468 467
f 523 467 466
f 523 466 465
f 523 465 464
f 523 464 463
f 523 463 462
f 462 461 460
f 462 460 459
f 462 459 458
f 462 458 457
f 462 457 456
f 462 456 455
f 462 455 454
f 462 454 453
f 462 453 452
f 462 452 451
f 462 451 450
f 462 450 449
f 462 449 448
f 462 448 447
f 462 447 446
f 462 446 445
f 462 445 507
f 507 506 505
f 507 505 504
f 507 504 503
f 507 503 502
f 507 502 501
f 507 501 500
f 507 500 499
f 507 499 498
f 507 498 497
f 507 497 496
f 507 496 495
f 507 495 494
f 507 494 493
f 507 493 492
f 507 492 491
f 507 491 490
f 507 490 489
f 507 489 488
f 488 487 486
f 488 486 485
f 488 485 484
f 488 484 483
f 488 483 482
f 488 482 481
f 488 481 480
f 488 480 479
f 488 479 478
f 488 478 477
f 488 477 476
f 488 476 475
f 488 475 474
f 488 474 517
f 488 517 516
f 488 516 515
f 488 515 514
f 488 514 513
f 488 513 512
f 488 512 511
f 488 511 510
f 524 523 462
f 507 488 510
f 507 510 509
f 507 509 508
f 507 508 539
f 507 539 538
f 507 538 537
f 507 537 536
f 507 536 535
f 507 535 534
f 507 534 533
f 525 524 462
f 462 507 533
f 462 533 532
f 462 532 531
f 462 531 530
f 462 530 529
f 462 529 528
f 462 528 527
f 462 527 526
f 462 526 525
f 616 617 569
f 615 616 569
f 614 615 569
f 613 614 569
f 612 613 569
f 569 617 618
f 568 569 618
f 567 568 618
f 566 567 618
f 565 566 618
f 564 565 618
f 563 564 618
f 562 563 618
f 561 562 618
f 560 561 618
f 559 560 618
f 558 559 618
f 557 558 618
f 555 556 557
f 554 555 557
f 553 554 557
f 552 553 557
f 551 552 557
f 550 551 557
f 549 550 557
f 548 549 557
f 547 548 557
f 546 547 557
f 545 546 557
f 544 545 557
f 543 544 557
f 542 543 557
f 541 542 557
f 540 541 557
f 602 540 557
f 600 601 602
f 599 600 602
f 598 599 602
f 597 598 602
f 596 597 602
f 595 596 602
f 594 595 602
f 593 594 602
f 592 593 602
f 591 592 602
f 590 591 602
f 589 590 602
f 588 589 602
f 587 588 602
f 586 587 602
f 585 586 602
f 584 585 602
f 583 584 602
f 581 582 583
f 580 581 583
f 579 580 583
f 578 579 583
f 577 578 583
f 576 577 583
f 575 576 583
f 574 575 583
f 573 574 583
f 572 573 583
f 571 572 583
f 570 571 583
f 569 570 583
f 612 569 583
f 611 612 583
f 610 611 583
f 609 610 583
f 608 609 583
f 607 608 583
f 606 607 583
f 605 606 583
f 557 618 619
f 605 583 602
f 604 605 602
f 603 604 602
f 634 603 602
f 633 634 602
f 632 633 602
f 631 632 602
f 630 631 602
f 629 630 602
f 628 629 602
f 557 619 620
f 628 602 557
f 627 628 557
f 626 627 557
f 625 626 557
f 624 625 557
f 623 624 557
f 622 623 557
f 621 622 557
f 620 621 557
f 445 541 540
f 446 541 445
f 446 542 541
f 447 542 446
f 447 543 542
f 448 543 447
f 448 544 543
f 449 544 448
f 449 545 544
f 450 545 449
f 450 546 545
f 451 546 450
f 451 547 546
f 452 547 451
f 452 548 547
f 453 548 452
f 453 549 548
f 454 549 453
f 454 550 549
f 455 550 454
f 455 551 550
f 456 551 455
f 456 552 551
f 457 552 456
f 457 553 552
f 458 553 457
f 458 554 553
f 459 554 458
f 459 555 554
f 460 555 459
f 460 556 555
f 461 556 460
f 461 557 556
f 462 557 461
f 462 558 557
f 463 558 462
f 463 559 558
f 464 559 463
f 464 560 559
f 465 560 464
f 465 561 560
f 466 561 465
f 466 562 561
f 467 562 466
f 467 563 562
f 468 563 467
f 468 564 563
f 469 564 468
f 469 565 564
f 470 565 469
f 470 566 565
f 471 566 470
f 471 567 566
f 472 567 471
f 472 568 567
f 473 568 472
f 473 569 568
f 474 569 473
f 474 570 569
f 475 570 474
f 475 571 570
f 476 571 475
f 476 572 571
f 477 572 476
f 477 573 572
f 478 573 477
f 478 574 573
f 479 574 478
f 479 575 574
f 480 575 479
f 480 576 575
f 481 576 480
f 481 577 576
f 482 577 481
f 482 578 577
f 483 578 482
f 483 579 578
f 484 579 483
f 484 580 579
f 485 580 484
f 485 581 580
f 486 581 485
f 486 582 581
f 487 582 486
f 487 583 582
f 488 583 487
f 488 584 583
f 489 584 488
f 489 585 584
f 490 585 489
f 490 586 585
f 491 586 490
f 491 587 586
f 492 587 491
f 492 588 587
f 493 588 492
f 493 589 588
f 494 589 493
f 494 590 589
f 495 590 494
f 495 591 590
f 496 591 495
f 496 592 591
f 497 592 496
f 497 593 592
f 498 593 497
f 498 594 593
f 499 594 498
f 499 595 594
f 500 595 499
f 500 596 595
f 501 596 500
f 501 597 596
f 502 597 501
f 502 598 597
f 503 598 502
f 503 599 598
f 504 599 503
f 504 600 599
f 505 600 504
f 505 601 600
f 506 601 505
f 507 540 602
f 445 540 507
f 506 602 601
f 507 602 506
f 508 604 603
f 509 604 508
f 509 605 604
f 510 605 509
f 510 606 605
f 511 606 510
f 511 607 606
f 512 607 511
f 512 608 607
f 513 608 512
f 513 609 608
f 514 609 513
f 514 610 609
f 515 610 514
f 515 611 610
f 516 611 515
f 516 612 611
f 517 612 516
f 517 613 612
f 518 613 517
f 518 614 613
f 519 614 518
f 519 615 614
f 520 615 519
f 520 616 615
f 521 616 520
f 521 617 616
f 522 617 521
f 522 618 617
f 523 618 522
f 523 619 618
f 524 619 523
f 524 620 619
f 525 620 524
f 525 621 620
f 526 621 525
f 526 622 621
f 527 622 526
f 527 623 622
f 528 623 527
f 528 624 623
f 529 624 528
f 529 625 624
f 530 625 529
f 530 626 625
f 531 626 530
f 531 627 626
f 532 627 531
f 532 628 627
f 533 628 532
f 533 629 628
f 534 629 533
f 534 630 629
f 535 630 534
f 535 631 630
f 536 631 535
f 536 632 631
f 537 632 536
f 537 633 632
f 538 633 537
f 539 603 634
f 508 603 539
f 538 634 633
f 539 634 538
f 684 683 682
f 684 682 681
f 684 681 680
f 684 680 679
f 684 679 678
f 684 678 677
f 684 677 676
f 684 676 675
f 684 675 674
f 684 674 673
f 684 673 672
f 684 672 671
f 684 671 670
f 684 670 669
f 684 669 668
f 684 668 667
f 684 667 666
f 684 666 665
f 684 665 664
f 684 664 663
f 684 663 662
f 684 662 661
f 684 661 660
f 684 660 659
f 684 659 658
f 658 657 656
f 658 656 655
f 658 655 654
f 658 654 653
f 658 653 652
f 658 652 651
f 658 651 650
f 658 650 649
f 658 649 648
f 658 648 647
f 658 647 646
f 658 646 645
f 658 645 644
f 658 644 643
f 658 643 642
f 658 642 641
f 658 641 640
f 658 640 639
f 658 639 638
f 658 638 637
f 658 637 636
f 658 636 635
f 658 635 684
f 732 733 734
f 731 732 734
f 730 731 734
f 729 730 734
f 728 729 734
f 727 728 734
f 726 727 734
f 725 726 734
f 724 725 734
f 723 724 734
f 722 723 734
f 721 722 734
f 720 721 734
f 719 720 734
f 718 719 734
f 717 718 734
f 716 717 734
f 715 716 734
f 714 715 734
f 713 714 734
f 712 713 734
f 711 712 734
f 710 711 734
f 709 710 734
f 708 709 734
f 706 707 708
f 705 706 708
f 704 705 708
f 703 704 708
f 702 703 708
f 701 702 708
f 700 701 708
f 699 700 708
f 698 699 708
f 697 698 708
f 696 697 708
f 695 696 708
f 694 695 708
f 693 694 708
f 692 693 708
f 691 692 708
f 690 691 708
f 689 690 708
f 688 689 708
f 687 688 708
f 686 687 708
f 685 686 708
f 734 685 708
f 635 686 685
f 636 686 635
f 636 687 686
f 637 687 636
f 637 688 687
f 638 688 637
f 638 689 688
f 639 689 638
f 639 690 689
f 640 690 639
f 640 691 690
f 641 691 640
f 641 692 691
f 642 692 641
f 642 693 692
f 643 693 642
f 643 694 693
f 644 694 643
f 644 695 694
f 645 695 644
f 645 696 695
f 646 696 645
f 646 697 696
f 647 697 646
f 647 698 697
f 648 698 647
f 648 699 698
f 649 699 648
f 649 700 699
f 650 700 649
f 650 701 700
f 651 701 650
f 651 702 701
f 652 702 651
f 652 703 702
f 653 703 652
f 653 704 703
f 654 704 653
f 654 705 704
f 655 705 654
f 655 706 705
f 656 706 655
f 656 707 706
f 657 707 656
f 657 708 707
f 658 708 657
f 658 709 708
f 659 709 658
f 659 710 709
f 660 710 659
f 660 711 710
f 661 711 660
f 661 712 711
f 662 712 661
f 662 713 712
f 663 713 662
f 663 714 713
f 664 714 663
f 664 715 714
f 665 715 664
f 665 716 715
f 666 716 665
f 666 717 716
f 667 717 666
f 667 718 717
f 668 718 667
f 668 719 718
f 669 719 668
f 669 720 719
f 670 720 669
f 670 721 720
f 671 721 670
f 671 722 721
f 672 722 671
f 672 723 722
f 673 723 672
f 673 724 723
f 674 724 673
f 674 725 724
f 675 725 674
f 675 726 725
f 676 726 675
f 676 727 726
f 677 727 676
f 677 728 727
f 678 728 677
f 678 729 728
f 679 729 678
f 679 730 729
f 680 730 679
f 680 731 730
f 681 731 680
f 681 732 731
f 682 732 681
f 682 733 732
f 683 733 682
f 684 685 734
f 635 685 684
f 683 734 733
f 684 734 683
f 735 785 784
f 735 784 783
f 735 783 782
f 735 782 781
f 735 781 780
f 735 780 779
f 735 779 778
f 735 778 777
f 735 777 776
f 735 776 775
f 735 775 774
f 735 774 773
f 735 773 772
f 735 772 771
f 735 771 770
f 735 770 769
f 735 769 768
f 735 768 767
f 735 767 766
f 735 766 765
f 735 765 764
f 735 764 763
f 735 763 762
f 761 760 759
f 761 759 758
f 761 758 757
f 761 757 756
f 761 756 755
f 761 755 754
f 761 754 753
f 761 753 752
f 761 752 751
f 761 751 750
f 761 750 749
f 761 749 748
f 761 748 747
f 761 747 746
f 761 746 745
f 761 745 744
f 761 744 743
f 761 743 742
f 761 742 741
f 761 741 740
f 761 740 739
f 761 739 738
f 761 738 737
f 737 736 735
f 737 735 762
f 737 762 761
f 835 836 786
f 834 835 786
f 833 834 786
f 832 833 786
f 831 832 786
f 830 831 786
f 829 830 786
f 828 829 786
f 827 828 786
f 826 827 786
f 825 826 786
f 824 825 786
f 823 824 786
f 822 823 786
f 821 822 786
f 820 821 786
f 819 820 786
f 818 819 786
f 817 818 786
f 816 817 786
f 815 816 786
f 814 815 786
f 813 814 786
f 810 811 812
f 809 810 812
f 808 809 812
f 807 808 812
f 806 807 812
f 805 806 812
f 804 805 812
f 803 804 812
f 802 803 812
f 801 802 812
f 800 801 812
f 799 800 812
f 798 799 812
f 797 798 812
f 796 797 812
f 795 796 812
f 794 795 812
f 793 794 812
f 792 793 812
f 791 792 812
f 790 791 812
f 789 790 812
f 788 789 812
f 786 787 788
f 813 786 788
f 812 813 788
f 735 787 786
f 736 787 735
f 736 788 787
f 737 788 736
f 737 789 788
f 738 789 737
f 738 790 789
f 739 790 738
f 739 791 790
f 740 791 739
f 740 792 791
f 741 792 740
f 741 793 792
f 742 793 741
f 742 794 793
f 743 794 742
f 743 795 794
f 744 795 743
f 744 796 795
f 745 796 744
f 745 797 796
f 746 797 745
f 746 798 797
f 747 798 746
f 747 799 798
f 748 799 747
f 748 800 799
f 749 800 748
f 749 801 800
f 750 801 749
f 750 802 801
f 751 802 750
f 751 803 802
f 752 803 751
f 752 804 803
f 753 804 752
f 753 805 804
f 754 805 753
f 754 806 805
f 755 806 754
f 755 807 806
f 756 807 755
f 756 808 807
f 757 808 756
f 757 809 808
f 758 809 757
f 758 810 809
f 759 810 758
f 759 811 810
f 760 811 759
f 760 812 811
f 761 812 760
f 761 813 812
f 762 813 761
f 762 814 813
f 763 814 762
f 763 815 814
f 764 815 763
f 764 816 815
f 765 816 764
f 765 817 816
f 766 817 765
f 766 818 817
f 767 818 766
f 767 819 818
f 768 819 767
f 768 820 819
f 769 820 768
f 769 821 820
f 770 821 769
f 770 822 821
f 771 822 770
f 771 823 822
f 772 823 771
f 772 824 823
f 773 824 772
f 773 825 824
f 774 825 773
f 774 826 825
f 775 826 774
f 775 827 826
f 776 827 775
f 776 828 827
f 777 828 776
f 777 829 828
f 778 829 777
f 778 830 829
f 779 830 778
f 779 831 830
f 780 831 779
f 780 832 831
f 781 832 780
f 781 833 832
f 782 833 781
f 782 834 833
f 783 834 782
f 783 835 834
f 784 835 783
f 785 786 836
f 735 786 785
f 784 836 835
f 785 836 784
f 952 951 950
f 952 950 949
f 952 949 948
f 952 948 947
f 952 947 946
f 952 946 945
f 952 945 944
f 952 944 943
f 952 943 942
f 952 942 941
f 952 941 940
f 952 940 939
f 952 939 938
f 952 938 937
f 952 937 936
f 952 936 935
f 952 935 934
f 952 934 933
f 952 933 932
f 952 932 931
f 952 931 930
f 952 930 929
f 952 929 928
f 952 928 927
f 952 927 926
f 952 926 925
f 925 924 923
f 925 923 922
f 925 922 921
f 925 921 920
f 925 920 919
f 925 919 918
f 925 918 917
f 925 917 916
f 925 916 915
f 925 915 914
f 925 914 913
f 925 913 912
f 925 912 911
f 925 911 910
f 925 910 909
f 925 909 908
f 925 908 907
f 925 907 906
f 925 906 905
f 905 904 903
f 905 903 902
f 905 902 901
f 905 901 900
f 905 900 899
f 905 899 898
f 905 898 897
f 905 897 896
f 905 896 895
f 905 895 894
f 905 894 893
f 905 893 892
f 905 892 891
f 905 891 890
f 890 889 888
f 890 888 887
f 890 887 886
f 890 886 885
f 890 885 884
f 890 884 883
f 890 883 882
f 890 882 881
f 890 881 880
f 890 880 879
f 890 879 878
f 890 878 877
f 890 877 876
f 890 876 875
f 890 875 874
f 890 874 873
f 890 873 872
f 890 872 871
f 890 871 870
f 890 870 869
f 890 869 868
f 890 868 867
f 890 867 866
f 837 952 925
f 905 890 866
f 905 866 865
f 905 865 864
f 905 864 863
f 905 863 862
f 905 862 861
f 905 861 860
f 905 860 859
f 905 859 858
f 905 858 857
f 905 857 856
f 905 856 855
f 905 855 854
f 905 854 853
f 905 853 852
f 905 852 851
f 838 837 925
f 925 905 851
f 925 851 850
f 925 850 849
f 925 849 848
f 925 848 847
f 925 847 846
f 925 846 845
f 925 845 844
f 925 844 843
f 925 843 842
f 925 842 841
f 925 841 840
f 925 840 839
f 925 839 838
f 1066 1067 1068
f 1065 1066 1068
f 1064 1065 1068
f 1063 1064 1068
f 1062 1063 1068
f 1061 1062 1068
f 1060 1061 1068
f 1059 1060 1068
f 1058 1059 1068
f 1057 1058 1068
f 1056 1057 1068
f 1055 1056 1068
f 1054 1055 1068
f 1053 1054 1068
f 1052 1053 1068
f 1051 1052 1068
f 1050 1051 1068
f 1049 1050 1068
f 1048 1049 1068
f 1047 1048 1068
f 1046 1047 1068
f 1045 1046 1068
f 1044 1045 1068
f 1043 1044 1068
f 1042 1043 1068
f 1041 1042 1068
f 1039 1040 1041
f 1038 1039 1041
f 1037 1038 1041
f 1036 1037 1041
f 1035 1036 1041
f 1034 1035 1041
f 1033 1034 1041
f 1032 1033 1041
f 1031 1032 1041
f 1030 1031 1041
f 1029 1030 1041
f 1028 1029 1041
f 1027 1028 1041
f 1026 1027 1041
f 1025 1026 1041
f 1024 1025 1041
f 1023 1024 1041
f 1022 1023 1041
f 1021 1022 1041
f 1019 1020 1021
f 1018 1019 1021
f 1017 1018 1021
f 1016 1017 1021
f 1015 1016 1021
f 1014 1015 1021
f 1013 1014 1021
f 1012 1013 1021
f 1011 1012 1021
f 1010 1011 1021
f 1009 1010 1021
f 1008 1009 1021
f 1007 1008 1021
f 1006 1007 1021
f 1004 1005 1006
f 1003 1004 1006
f 1002 1003 1006
f 1001 1002 1006
f 1000 1001 1006
f 999 1000 1006
f 998 999 1006
f 997 998 1006
f 996 997 1006
f 995 996 1006
f 994 995 1006
f 993 994 1006
f 992 993 1006
f 991 992 1006
f 990 991 1006
f 989 990 1006
f 988 989 1006
f 987 988 1006
f 986 987 1006
f 985 986 1006
f 984 985 1006
f 983 984 1006
f 982 983 1006
f 1041 1068 953
f 982 1006 1021
f 981 982 1021
f 980 981 1021
f 979 980 1021
f 978 979 1021
f 977 978 1021
f 976 977 1021
f 975 976 1021
f 974 975 1021
f 973 974 1021
f 972 973 1021
f 971 972 1021
f 970 971 1021
f 969 970 1021
f 968 969 1021
f 967 968 1021
f 1041 953 954
f 967 1021 1041
f 966 967 1041
f 965 966 1041
f 964 965 1041
f 963 964 1041
f 962 963 1041
f 961 962 1041
f 960 961 1041
f 959 960 1041
f 958 959 1041
f 957 958 1041
f 956 957 1041
f 955 956 1041
f 954 955 1041
f 837 954 953
f 838 954 837
f 838 955 954
f 839 955 838
f 839 956 955
f 840 956 839
f 840 957 956
f 841 957 840
f 841 958 957
f 842 958 841
f 842 959 958
f 843 959 842
f 843 960 959
f 844 960 843
f 844 961 960
f 845 961 844
f 845 962 961
f 846 962 845
f 846 963 962
f 847 963 846
f 847 964 963
f 848 964 847
f 848 965 964
f 849 965 848
f 849 966 965
f 850 966 849
f 850 967 966
f 851 967 850
f 851 968 967
f 852 968 851
f 852 969 968
f 853 969 852
f 853 970 969
f 854 970 853
f 854 971 970
f 855 971 854
f 855 972 971
f 856 972 855
f 856 973 972
f 857 973 856
f 857 974 973
f 858 974 857
f 858 975 974
f 859 975 858
f 859 976 975
f 860 976 859
f 860 977 976
f 861 977 860
f 861 978 977
f 862 978 861
f 862 979 978
f 863 979 862
f 863 980 979
f 864 980 863
f 864 981 980
f 865 981 864
f 865 982 981
f 866 982 865
f 866 983 982
f 867 983 866
f 867 984 983
f 868 984 867
f 868 985 984
f 869 985 868
f 869 986 985
f 870 986 869
f 870 987 986
f 871 987 870
f 871 988 987
f 872 988 871
f 872 989 988
f 873 989 872
f 873 990 989
f 874 990 873
f 874 991 990
f 875 991 874
f 875 992 991
f 876 992 875
f 876 993 992
f 877 993 876
f 877 994 993
f 878 994 877
f 878 995 994
f 879 995 878
f 879 996 995
f 880 996 879
f 880 997 996
f 881 997 880
f 881 998 997
f 882 998 881
f 882 999 998
f 883 999 882
f 883 1000 999
f 884 1000 883
f 884 1001 1000
f 885 1001 884
f 885 1002 1001
f 886 1002 885
f 886 1003 1002
f 887 1003 886
f 887 1004 1003
f 888 1004 887
f 888 1005 1004
f 889 1005 888
f 889 1006 1005
f 890 1006 889
f 890 1007 1006
f 891 1007 890
f 891 1008 1007
f 892 1008 891
f 892 1009 1008
f 893 1009 892
f 893 1010 1009
f 894 1010 893
f 894 1011 1010
f 895 1011 894
f 895 1012 1011
f 896 1012 895
f 896 1013 1012
f 897 1013 896
f 897 1014 1013
f 898 1014 897
f 898 1015 1014
f 899 1015 898
f 899 1016 1015
f 900 1016 899
f 900 1017 1016
f 901 1017 900
f 901 1018 1017
f 902 1018 901
f 902 1019 1018
f 903 1019 902
f 903 1020 1019
f 904 1020 903
f 904 1021 1020
f 905 1021 904
f 905 1022 1021
f 906 1022 905
f 906 1023 1022
f 907 1023 906
f 907 1024 1023
f 908 1024 907
f 908 1025 1024
f 909 1025 908
f 909 1026 1025
f 910 1026 909
f 910 1027 1026
f 911 1027 910
f 911 1028 1027
f 912 1028 911
f 912 1029 1028
f 913 1029 912
f 913 1030 1029
f 914 1030 913
f 914 1031 1030
f 915 1031 914
f 915 1032 1031
f 916 1032 915
f 916 1033 1032
f 917 1033 916
f 917 1034 1033
f 918 1034 917
f 918 1035 1034
f 919 1035 918
f 919 1036 1035
f 920 1036 919
f 920 1037 1036
f 921 1037 920
f 921 1038 1037
f 922 1038 921
f 922 1039 1038
f 923 1039 922
f 923 1040 1039
f 924 1040 923
f 924 1041 1040
f 925 1041 924
f 925 1042 1041
f 926 1042 925
f 926 1043 1042
f 927 1043 926
f 927 1044 1043
f 928 1044 927
f 928 1045 1044
f 929 1045 928
f 929 1046 1045
f 930 1046 929
f 930 1047 1046
f 931 1047 930
f 931 1048 1047
f 932 1048 931
f 932 1049 1048
f 933 1049 932
f 933 1050 1049
f 934 1050 933
f 934 1051 1050
f 935 1051 934
f 935 1052 1051
f 936 1052 935
f 936 1053 1052
f 937 1053 936
f 937 1054 1053
f 938 1054 937
f 938 1055 1054
f 939 1055 938
f 939 1056 1055
f 940 1056 939
f 940 1057 1056
f 941 1057 940
f 941 1058 1057
f 942 1058 941
f 942 1059 1058
f 943 1059 942
f 943 1060 1059
f 944 1060 943
f 944 1061 1060
f 945 1061 944
f 945 1062 1061
f 946 1062 945
f 946 1063 1062
f 947 1063 946
f 947 1064 1063
f 948 1064 947
f 948 1065 1064
f 949 1065 948
f 949 1066 1065
f 950 1066 949
f 950 1067 1066
f 951 1067 950
f 952 953 1068
f 837 953 952
f 951 1068 1067
f 952 1068 951

