# https://github.com/mikedh/trimesh

o mark_cycles
v 0.05425975 0.13385819 0.00000000
v 0.05250000 0.13299038 0.00000000
v 0.04939340 0.13060661 0.00000000
v 0.04700962 0.12750000 0.00000000
v 0.04614181 0.12574024 0.00000000
v 0.04512833 0.12195789 0.00000000
v 0.04512833 0.11804210 0.00000000
v 0.04614181 0.11425975 0.00000000
v 0.04700962 0.11250000 0.00000000
v 0.04939340 0.10939340 0.00000000
v 0.05086858 0.10809970 0.00000000
v 0.05425975 0.10614181 0.00000000
v 0.05611771 0.10551111 0.00000000
v 0.06000000 0.10500000 0.00000000
v 0.15063219 0.10501333 0.00000000
v 0.15258293 0.10522406 0.00000000
v 0.15574025 0.10614181 0.00000000
v 0.15962486 0.10849512 0.00000000
v 0.16190030 0.11086858 0.00000000
v 0.16329494 0.11305416 0.00000000
v 0.16448888 0.11611772 0.00000000
v 0.16500001 0.12000000 0.00000000
v 0.16500001 0.20999999 0.00000000
v 0.16487168 0.21195789 0.00000000
v 0.16385819 0.21574025 0.00000000
v 0.16190030 0.21913143 0.00000000
v 0.15913142 0.22190030 0.00000000
v 0.15574025 0.22385819 0.00000000
v 0.15195790 0.22487168 0.00000000
v 0.14804211 0.22487168 0.00000000
v 0.14425975 0.22385819 0.00000000
v 0.14086857 0.22190030 0.00000000
v 0.13809970 0.21913143 0.00000000
v 0.13614181 0.21574025 0.00000000
v 0.13512833 0.21195789 0.00000000
v 0.13500001 0.20999999 0.00000000
v 0.13500001 0.15641114 0.00000000
v 0.12306989 0.16570365 0.00000000
v 0.11043848 0.17412136 0.00000000
v 0.09721883 0.18158133 0.00000000
v 0.08348341 0.18804267 0.00000000
v 0.06930755 0.19346994 0.00000000
v 0.05476896 0.19783340 0.00000000
v 0.03994736 0.20110911 0.00000000
v 0.02841867 0.20287547 0.00000000
v 0.01357360 0.20417364 0.00000000
v -0.00160422 0.20438375 0.00000000
v -0.01675598 0.20347019 0.00000000
v -0.03179860 0.20143799 0.00000000
v -0.04322987 0.19912355 0.00000000
v -0.05787829 0.19514434 0.00000000
v -0.07219212 0.19009213 0.00000000
v -0.08609287 0.18399462 0.00000000
v -0.09620140 0.17875542 0.00000000
v -0.10600347 0.17296308 0.00000000
v -0.11546884 0.16663550 0.00000000
v -0.12730117 0.15757692 0.00000000
v -0.13587949 0.15009065 0.00000000
v -0.14422213 0.14194015 0.00000000
v -0.15190622 0.13353856 0.00000000
v -0.15911202 0.12472334 0.00000000
v -0.16581731 0.11552165 0.00000000
v -0.17380351 0.10294063 0.00000000
v -0.17940332 0.09270967 0.00000000
v -0.18429996 0.08243082 0.00000000
v -0.18983349 0.06859458 0.00000000
v -0.19442157 0.05412531 0.00000000
v -0.19499788 0.05025217 0.00000000
v -0.19490248 0.04829239 0.00000000
v -0.19395274 0.04449353 0.00000000
v -0.19205213 0.04106992 0.00000000
v -0.18933019 0.03825489 0.00000000
v -0.18771732 0.03713754 0.00000000
v -0.18412530 0.03557843 0.00000000
v -0.18025216 0.03500212 0.00000000
v -0.17636183 0.03544790 0.00000000
v -0.17271943 0.03688537 0.00000000
v -0.16957320 0.03921659 0.00000000
v -0.16713753 0.04228268 0.00000000
v -0.16624026 0.04402759 0.00000000
v -0.16269465 0.05530172 0.00000000
v -0.15933749 0.06442292 0.00000000
v -0.15408362 0.07626793 0.00000000
v -0.14957574 0.08487872 0.00000000
v -0.14459674 0.09322596 0.00000000
v -0.13916202 0.10128391 0.00000000
v -0.13328829 0.10902770 0.00000000
v -0.12699373 0.11643344 0.00000000
v -0.12029771 0.12347830 0.00000000
v -0.11322089 0.13014054 0.00000000
v -0.10578512 0.13639963 0.00000000
v -0.09535217 0.14408474 0.00000000
v -0.08716980 0.14933026 0.00000000
v -0.07583108 0.15560248 0.00000000
v -0.06405932 0.16101851 0.00000000
v -0.05498509 0.16450059 0.00000000
v -0.04573153 0.16747352 0.00000000
v -0.03316390 0.17062980 0.00000000
v -0.02360371 0.17238180 0.00000000
v -0.01073355 0.17388728 0.00000000
v -0.00102711 0.17438897 0.00000000
v 0.01192968 0.17421840 0.00000000
v 0.02483832 0.17308956 0.00000000
v 0.03444561 0.17161760 0.00000000
v 0.04395637 0.16961452 0.00000000
v 0.05643655 0.16612849 0.00000000
v 0.06862457 0.16172856 0.00000000
v 0.07753360 0.15784317 0.00000000
v 0.08905071 0.15190488 0.00000000
v 0.09738284 0.14690064 0.00000000
v 0.10542428 0.14144152 0.00000000
v 0.11381118 0.13500001 0.00000000
v 0.05804211 0.13487168 0.00000000
v 0.05425975 0.13385819 0.02000000
v 0.05250000 0.13299038 0.02000000
v 0.04939340 0.13060661 0.02000000
v 0.04700962 0.12750000 0.02000000
v 0.04614181 0.12574024 0.02000000
v 0.04512833 0.12195789 0.02000000
v 0.04512833 0.11804210 0.02000000
v 0.04614181 0.11425975 0.02000000
v 0.04700962 0.11250000 0.02000000
v 0.04939340 0.10939340 0.02000000
v 0.05086858 0.10809970 0.02000000
v 0.05425975 0.10614181 0.02000000
v 0.05611771 0.10551111 0.02000000
v 0.06000000 0.10500000 0.02000000
v 0.15063219 0.10501333 0.02000000
v 0.15258293 0.10522406 0.02000000
v 0.15574025 0.10614181 0.02000000
v 0.15962486 0.10849512 0.02000000
v 0.16190030 0.11086858 0.02000000
v 0.16329494 0.11305416 0.02000000
v 0.16448888 0.11611772 0.02000000
v 0.16500001 0.12000000 0.02000000
v 0.16500001 0.20999999 0.02000000
v 0.16487168 0.21195789 0.02000000
v 0.16385819 0.21574025 0.02000000
v 0.16190030 0.21913143 0.02000000
v 0.15913142 0.22190030 0.02000000
v 0.15574025 0.22385819 0.02000000
v 0.15195790 0.22487168 0.02000000
v 0.14804211 0.22487168 0.02000000
v 0.14425975 0.22385819 0.02000000
v 0.14086857 0.22190030 0.02000000
v 0.13809970 0.21913143 0.02000000
v 0.13614181 0.21574025 0.02000000
v 0.13512833 0.21195789 0.02000000
v 0.13500001 0.20999999 0.02000000
v 0.13500001 0.15641114 0.02000000
v 0.12306989 0.16570365 0.02000000
v 0.11043848 0.17412136 0.02000000
v 0.09721883 0.18158133 0.02000000
v 0.08348341 0.18804267 0.02000000
v 0.06930755 0.19346994 0.02000000
v 0.05476896 0.19783340 0.02000000
v 0.03994736 0.20110911 0.02000000
v 0.02841867 0.20287547 0.02000000
v 0.01357360 0.20417364 0.02000000
v -0.00160422 0.20438375 0.02000000
v -0.01675598 0.20347019 0.02000000
v -0.03179860 0.20143799 0.02000000
v -0.04322987 0.19912355 0.02000000
v -0.05787829 0.19514434 0.02000000
v -0.07219212 0.19009213 0.02000000
v -0.08609287 0.18399462 0.02000000
v -0.09620140 0.17875542 0.02000000
v -0.10600347 0.17296308 0.02000000
v -0.11546884 0.16663550 0.02000000
v -0.12730117 0.15757692 0.02000000
v -0.13587949 0.15009065 0.02000000
v -0.14422213 0.14194015 0.02000000
v -0.15190622 0.13353856 0.02000000
v -0.15911202 0.12472334 0.02000000
v -0.16581731 0.11552165 0.02000000
v -0.17380351 0.10294063 0.02000000
v -0.17940332 0.09270967 0.02000000
v -0.18429996 0.08243082 0.02000000
v -0.18983349 0.06859458 0.02000000
v -0.19442157 0.05412531 0.02000000
v -0.19499788 0.05025217 0.02000000
v -0.19490248 0.04829239 0.02000000
v -0.19395274 0.04449353 0.02000000
v -0.19205213 0.04106992 0.02000000
v -0.18933019 0.03825489 0.02000000
v -0.18771732 0.03713754 0.02000000
v -0.18412530 0.03557843 0.02000000
v -0.18025216 0.03500212 0.02000000
v -0.17636183 0.03544790 0.02000000
v -0.17271943 0.03688537 0.02000000
v -0.16957320 0.03921659 0.02000000
v -0.16713753 0.04228268 0.02000000
v -0.16624026 0.04402759 0.02000000
v -0.16269465 0.05530172 0.02000000
v -0.15933749 0.06442292 0.02000000
v -0.15408362 0.07626793 0.02000000
v -0.14957574 0.08487872 0.02000000
v -0.14459674 0.09322596 0.02000000
v -0.13916202 0.10128391 0.02000000
v -0.13328829 0.10902770 0.02000000
v -0.12699373 0.11643344 0.02000000
v -0.12029771 0.12347830 0.02000000
v -0.11322089 0.13014054 0.02000000
v -0.10578512 0.13639963 0.02000000
v -0.09535217 0.14408474 0.02000000
v -0.08716980 0.14933026 0.02000000
v -0.07583108 0.15560248 0.02000000
v -0.06405932 0.16101851 0.02000000
v -0.05498509 0.16450059 0.02000000
v -0.04573153 0.16747352 0.02000000
v -0.03316390 0.17062980 0.02000000
v -0.02360371 0.17238180 0.02000000
v -0.01073355 0.17388728 0.02000000
v -0.00102711 0.17438897 0.02000000
v 0.01192968 0.17421840 0.02000000
v 0.02483832 0.17308956 0.02000000
v 0.03444561 0.17161760 0.02000000
v 0.04395637 0.16961452 0.02000000
v 0.05643655 0.16612849 0.02000000
v 0.06862457 0.16172856 0.02000000
v 0.07753360 0.15784317 0.02000000
v 0.08905071 0.15190488 0.02000000
v 0.09738284 0.14690064 0.02000000
v 0.10542428 0.14144152 0.02000000
v 0.11381118 0.13500001 0.02000000
v 0.05804211 0.13487168 0.02000000
v 0.15810649 -0.06742015 0.00000000
v 0.15408362 -0.07626793 0.00000000
v 0.14957574 -0.08487872 0.00000000
v 0.14283501 -0.09594534 0.00000000
v 0.13529389 -0.10648283 0.00000000
v 0.12699373 -0.11643344 0.00000000
v 0.12029771 -0.12347830 0.00000000
v 0.11078107 -0.13227269 0.00000000
v 0.10063980 -0.14033878 0.00000000
v 0.09265725 -0.14588365 0.00000000
v 0.08155851 -0.15257135 0.00000000
v 0.06999535 -0.15841949 0.00000000
v 0.05803115 -0.16339597 0.00000000
v 0.04883422 -0.16653973 0.00000000
v 0.03632718 -0.16992813 0.00000000
v 0.02360371 -0.17238180 0.00000000
v 0.01396099 -0.17360035 0.00000000
v 0.00426550 -0.17428167 0.00000000
v -0.00545286 -0.17442365 0.00000000
v -0.01516412 -0.17402588 0.00000000
v -0.02483832 -0.17308956 0.00000000
v -0.03444561 -0.17161760 0.00000000
v -0.05022874 -0.16798706 0.00000000
v -0.05951359 -0.16511333 0.00000000
v -0.06862457 -0.16172856 0.00000000
v -0.08334713 -0.15498066 0.00000000
v -0.09185881 -0.15028833 0.00000000
v -0.10009686 -0.14513066 0.00000000
v -0.10803585 -0.13952360 0.00000000
v -0.11381118 -0.13500001 0.00000000
v -0.06000000 -0.13500001 0.00000000
v -0.05804211 -0.13487168 0.00000000
v -0.05425975 -0.13385819 0.00000000
v -0.05250000 -0.13299038 0.00000000
v -0.04939340 -0.13060661 0.00000000
v -0.04700962 -0.12750000 0.00000000
v -0.04551111 -0.12388229 0.00000000
v -0.04500000 -0.12000000 0.00000000
v -0.04551111 -0.11611772 0.00000000
v -0.04700962 -0.11250000 0.00000000
v -0.04939340 -0.10939340 0.00000000
v -0.05250000 -0.10700962 0.00000000
v -0.05425975 -0.10614181 0.00000000
v -0.05804211 -0.10512833 0.00000000
v -0.06000000 -0.10500000 0.00000000
v -0.15000001 -0.10500000 0.00000000
v -0.15388228 -0.10551111 0.00000000
v -0.15631922 -0.10639605 0.00000000
v -0.15962486 -0.10849512 0.00000000
v -0.16227458 -0.11137825 0.00000000
v -0.16408780 -0.11484892 0.00000000
v -0.16494098 -0.11867063 0.00000000
v -0.16500001 -0.20999999 0.00000000
v -0.16448888 -0.21388228 0.00000000
v -0.16299038 -0.21750000 0.00000000
v -0.16190030 -0.21913143 0.00000000
v -0.15913142 -0.22190030 0.00000000
v -0.15574025 -0.22385819 0.00000000
v -0.15195790 -0.22487168 0.00000000
v -0.14804211 -0.22487168 0.00000000
v -0.14425975 -0.22385819 0.00000000
v -0.14086857 -0.22190030 0.00000000
v -0.13809970 -0.21913143 0.00000000
v -0.13614181 -0.21574025 0.00000000
v -0.13512833 -0.21195789 0.00000000
v -0.13500001 -0.20999999 0.00000000
v -0.13500001 -0.15641114 0.00000000
v -0.12306989 -0.16570365 0.00000000
v -0.11043848 -0.17412136 0.00000000
v -0.09721883 -0.18158133 0.00000000
v -0.08348341 -0.18804267 0.00000000
v -0.07262737 -0.19230610 0.00000000
v -0.05816580 -0.19691840 0.00000000
v -0.04340259 -0.20044796 0.00000000
v -0.02841867 -0.20287547 0.00000000
v -0.01329622 -0.20418759 0.00000000
v 0.00160422 -0.20438375 0.00000000
v 0.01675598 -0.20347019 0.00000000
v 0.03179860 -0.20143799 0.00000000
v 0.04664962 -0.19829829 0.00000000
v 0.06122760 -0.19406830 0.00000000
v 0.07545262 -0.18877120 0.00000000
v 0.08924668 -0.18243606 0.00000000
v 0.10253417 -0.17509758 0.00000000
v 0.11524222 -0.16679604 0.00000000
v 0.12730117 -0.15757692 0.00000000
v 0.13608345 -0.14990215 0.00000000
v 0.14683521 -0.13918720 0.00000000
v 0.15676464 -0.12770605 0.00000000
v 0.16581731 -0.11552165 0.00000000
v 0.17394356 -0.10270081 0.00000000
v 0.17927679 -0.09295690 0.00000000
v 0.18261400 -0.08613888 0.00000000
v 0.18580438 -0.07894606 0.00000000
v 0.18983349 -0.06859458 0.00000000
v 0.19337523 -0.05777387 0.00000000
v 0.19483666 -0.05220762 0.00000000
v 0.19499788 -0.05025217 0.00000000
v 0.19455211 -0.04636183 0.00000000
v 0.19311462 -0.04271944 0.00000000
v 0.19205213 -0.04106992 0.00000000
v 0.19078341 -0.03957320 0.00000000
v 0.18771732 -0.03713754 0.00000000
v 0.18597241 -0.03624026 0.00000000
v 0.18220763 -0.03516334 0.00000000
v 0.18025216 -0.03500212 0.00000000
v 0.17636183 -0.03544790 0.00000000
v 0.17271943 -0.03688537 0.00000000
v 0.17106992 -0.03794787 0.00000000
v 0.16825488 -0.04066981 0.00000000
v 0.16713753 -0.04228268 0.00000000
v 0.16557842 -0.04587469 0.00000000
v 0.16269465 -0.05530172 0.00000000
v 0.15810649 -0.06742015 0.02000000
v 0.15408362 -0.07626793 0.02000000
v 0.14957574 -0.08487872 0.02000000
v 0.14283501 -0.09594534 0.02000000
v 0.13529389 -0.10648283 0.02000000
v 0.12699373 -0.11643344 0.02000000
v 0.12029771 -0.12347830 0.02000000
v 0.11078107 -0.13227269 0.02000000
v 0.10063980 -0.14033878 0.02000000
v 0.09265725 -0.14588365 0.02000000
v 0.08155851 -0.15257135 0.02000000
v 0.06999535 -0.15841949 0.02000000
v 0.05803115 -0.16339597 0.02000000
v 0.04883422 -0.16653973 0.02000000
v 0.03632718 -0.16992813 0.02000000
v 0.02360371 -0.17238180 0.02000000
v 0.01396099 -0.17360035 0.02000000
v 0.00426550 -0.17428167 0.02000000
v -0.00545286 -0.17442365 0.02000000
v -0.01516412 -0.17402588 0.02000000
v -0.02483832 -0.17308956 0.02000000
v -0.03444561 -0.17161760 0.02000000
v -0.05022874 -0.16798706 0.02000000
v -0.05951359 -0.16511333 0.02000000
v -0.06862457 -0.16172856 0.02000000
v -0.08334713 -0.15498066 0.02000000
v -0.09185881 -0.15028833 0.02000000
v -0.10009686 -0.14513066 0.02000000
v -0.10803585 -0.13952360 0.02000000
v -0.11381118 -0.13500001 0.02000000
v -0.06000000 -0.13500001 0.02000000
v -0.05804211 -0.13487168 0.02000000
v -0.05425975 -0.13385819 0.02000000
v -0.05250000 -0.13299038 0.02000000
v -0.04939340 -0.13060661 0.02000000
v -0.04700962 -0.12750000 0.02000000
v -0.04551111 -0.12388229 0.02000000
v -0.04500000 -0.12000000 0.02000000
v -0.04551111 -0.11611772 0.02000000
v -0.04700962 -0.11250000 0.02000000
v -0.04939340 -0.10939340 0.02000000
v -0.05250000 -0.10700962 0.02000000
v -0.05425975 -0.10614181 0.02000000
v -0.05804211 -0.10512833 0.02000000
v -0.06000000 -0.10500000 0.02000000
v -0.15000001 -0.10500000 0.02000000
v -0.15388228 -0.10551111 0.02000000
v -0.15631922 -0.10639605 0.02000000
v -0.15962486 -0.10849512 0.02000000
v -0.16227458 -0.11137825 0.02000000
v -0.16408780 -0.11484892 0.02000000
v -0.16494098 -0.11867063 0.02000000
v -0.16500001 -0.20999999 0.02000000
v -0.16448888 -0.21388228 0.02000000
v -0.16299038 -0.21750000 0.02000000
v -0.16190030 -0.21913143 0.02000000
v -0.15913142 -0.22190030 0.02000000
v -0.15574025 -0.22385819 0.02000000
v -0.15195790 -0.22487168 0.02000000
v -0.14804211 -0.22487168 0.02000000
v -0.14425975 -0.22385819 0.02000000
v -0.14086857 -0.22190030 0.02000000
v -0.13809970 -0.21913143 0.02000000
v -0.13614181 -0.21574025 0.02000000
v -0.13512833 -0.21195789 0.02000000
v -0.13500001 -0.20999999 0.02000000
v -0.13500001 -0.15641114 0.02000000
v -0.12306989 -0.16570365 0.02000000
v -0.11043848 -0.17412136 0.02000000
v -0.09721883 -0.18158133 0.02000000
v -0.08348341 -0.18804267 0.02000000
v -0.07262737 -0.19230610 0.02000000
v -0.05816580 -0.19691840 0.02000000
v -0.04340259 -0.20044796 0.02000000
v -0.02841867 -0.20287547 0.02000000
v -0.01329622 -0.20418759 0.02000000
v 0.00160422 -0.20438375 0.02000000
v 0.01675598 -0.20347019 0.02000000
v 0.03179860 -0.20143799 0.02000000
v 0.04664962 -0.19829829 0.02000000
v 0.06122760 -0.19406830 0.02000000
v 0.07545262 -0.18877120 0.02000000
v 0.08924668 -0.18243606 0.02000000
v 0.10253417 -0.17509758 0.02000000
v 0.11524222 -0.16679604 0.02000000
v 0.12730117 -0.15757692 0.02000000
v 0.13608345 -0.14990215 0.02000000
v 0.14683521 -0.13918720 0.02000000
v 0.15676464 -0.12770605 0.02000000
v 0.16581731 -0.11552165 0.02000000
v 0.17394356 -0.10270081 0.02000000
v 0.17927679 -0.09295690 0.02000000
v 0.18261400 -0.08613888 0.02000000
v 0.18580438 -0.07894606 0.02000000
v 0.18983349 -0.06859458 0.02000000
v 0.19337523 -0.05777387 0.02000000
v 0.19483666 -0.05220762 0.02000000
v 0.19499788 -0.05025217 0.02000000
v 0.19455211 -0.04636183 0.02000000
v 0.19311462 -0.04271944 0.02000000
v 0.19205213 -0.04106992 0.02000000
v 0.19078341 -0.03957320 0.02000000
v 0.18771732 -0.03713754 0.02000000
v 0.18597241 -0.03624026 0.02000000
v 0.18220763 -0.03516334 0.02000000
v 0.18025216 -0.03500212 0.02000000
v 0.17636183 -0.03544790 0.02000000
v 0.17271943 -0.03688537 0.02000000
v 0.17106992 -0.03794787 0.02000000
v 0.16825488 -0.04066981 0.02000000
v 0.16713753 -0.04228268 0.02000000
v 0.16557842 -0.04587469 0.02000000
v 0.16269465 -0.05530172 0.02000000
f 1 113 112
f 81 80 79
f 81 79 78
f 81 78 77
f 81 77 76
f 81 76 75
f 81 75 74
f 81 74 73
f 81 73 72
f 81 72 71
f 81 71 70
f 81 70 69
f 81 69 68
f 81 68 67
f 81 67 66
f 81 66 65
f 81 65 64
f 81 64 63
f 81 63 62
f 81 62 61
f 81 61 60
f 81 60 59
f 81 59 58
f 81 58 57
f 57 56 55
f 57 55 54
f 57 54 53
f 57 53 52
f 57 52 51
f 57 51 50
f 57 50 49
f 57 49 48
f 57 48 47
f 57 47 46
f 57 46 45
f 57 45 44
f 57 44 43
f 57 43 42
f 57 42 41
f 41 40 39
f 41 39 38
f 41 38 37
f 37 36 35
f 37 35 34
f 37 34 33
f 37 33 32
f 37 32 31
f 37 31 30
f 37 30 29
f 37 29 28
f 37 28 27
f 37 27 26
f 37 26 25
f 37 25 24
f 37 24 23
f 37 23 22
f 37 22 21
f 37 21 20
f 37 20 19
f 37 19 18
f 37 18 17
f 37 17 16
f 37 16 15
f 15 14 13
f 15 13 12
f 15 12 11
f 15 11 10
f 15 10 9
f 15 9 8
f 15 8 7
f 15 7 6
f 15 6 5
f 15 5 4
f 15 4 3
f 15 3 2
f 15 2 1
f 15 1 112
f 82 81 57
f 41 37 15
f 41 15 112
f 41 112 111
f 41 111 110
f 41 110 109
f 41 109 108
f 41 108 107
f 41 107 106
f 41 106 105
f 41 105 104
f 41 104 103
f 41 103 102
f 41 102 101
f 41 101 100
f 41 100 99
f 83 82 57
f 57 41 99
f 57 99 98
f 57 98 97
f 57 97 96
f 57 96 95
f 57 95 94
f 57 94 93
f 57 93 92
f 57 92 91
f 57 91 90
f 57 90 89
f 57 89 88
f 57 88 87
f 57 87 86
f 57 86 85
f 57 85 84
f 57 84 83
f 225 226 114
f 192 193 194
f 191 192 194
f 190 191 194
f 189 190 194
f 188 189 194
f 187 188 194
f 186 187 194
f 185 186 194
f 184 185 194
f 183 184 194
f 182 183 194
f 181 182 194
f 180 181 194
f 179 180 194
f 178 179 194
f 177 178 194
f 176 177 194
f 175 176 194
f 174 175 194
f 173 174 194
f 172 173 194
f 171 172 194
f 170 171 194
f 168 169 170
f 167 168 170
f 166 167 170
f 165 166 170
f 164 165 170
f 163 164 170
f 162 163 170
f 161 162 170
f 160 161 170
f 159 160 170
f 158 159 170
f 157 158 170
f 156 157 170
f 155 156 170
f 154 155 170
f 152 153 154
f 151 152 154
f 150 151 154
f 148 149 150
f 147 148 150
f 146 147 150
f 145 146 150
f 144 145 150
f 143 144 150
f 142 143 150
f 141 142 150
f 140 141 150
f 139 140 150
f 138 139 150
f 137 138 150
f 136 137 150
f 135 136 150
f 134 135 150
f 133 134 150
f 132 133 150
f 131 132 150
f 130 131 150
f 129 130 150
f 128 129 150
f 126 127 128
f 125 126 128
f 124 125 128
f 123 124 128
f 122 123 128
f 121 122 128
f 120 121 128
f 119 120 128
f 118 119 128
f 117 118 128
f 116 117 128
f 115 116 128
f 114 115 128
f 225 114 128
f 170 194 195
f 128 150 154
f 225 128 154
f 224 225 154
f 223 224 154
f 222 223 154
f 221 222 154
f 220 221 154
f 219 220 154
f 218 219 154
f 217 218 154
f 216 217 154
f 215 216 154
f 214 215 154
f 213 214 154
f 212 213 154
f 170 195 196
f 212 154 170
f 211 212 170
f 210 211 170
f 209 210 170
f 208 209 170
f 207 208 170
f 206 207 170
f 205 206 170
f 204 205 170
f 203 204 170
f 202 203 170
f 201 202 170
f 200 201 170
f 199 200 170
f 198 199 170
f 197 198 170
f 196 197 170
f 1 115 114
f 2 115 1
f 2 116 115
f 3 116 2
f 3 117 116
f 4 117 3
f 4 118 117
f 5 118 4
f 5 119 118
f 6 119 5
f 6 120 119
f 7 120 6
f 7 121 120
f 8 121 7
f 8 122 121
f 9 122 8
f 9 123 122
f 10 123 9
f 10 124 123
f 11 124 10
f 11 125 124
f 12 125 11
f 12 126 125
f 13 126 12
f 13 127 126
f 14 127 13
f 14 128 127
f 15 128 14
f 15 129 128
f 16 129 15
f 16 130 129
f 17 130 16
f 17 131 130
f 18 131 17
f 18 132 131
f 19 132 18
f 19 133 132
f 20 133 19
f 20 134 133
f 21 134 20
f 21 135 134
f 22 135 21
f 22 136 135
f 23 136 22
f 23 137 136
f 24 137 23
f 24 138 137
f 25 138 24
f 25 139 138
f 26 139 25
f 26 140 139
f 27 140 26
f 27 141 140
f 28 141 27
f 28 142 141
f 29 142 28
f 29 143 142
f 30 143 29
f 30 144 143
f 31 144 30
f 31 145 144
f 32 145 31
f 32 146 145
f 33 146 32
f 33 147 146
f 34 147 33
f 34 148 147
f 35 148 34
f 35 149 148
f 36 149 35
f 36 150 149
f 37 150 36
f 37 151 150
f 38 151 37
f 38 152 151
f 39 152 38
f 39 153 152
f 40 153 39
f 40 154 153
f 41 154 40
f 41 155 154
f 42 155 41
f 42 156 155
f 43 156 42
f 43 157 156
f 44 157 43
f 44 158 157
f 45 158 44
f 45 159 158
f 46 159 45
f 46 160 159
f 47 160 46
f 47 161 160
f 48 161 47
f 48 162 161
f 49 162 48
f 49 163 162
f 50 163 49
f 50 164 163
f 51 164 50
f 51 165 164
f 52 165 51
f 52 166 165
f 53 166 52
f 53 167 166
f 54 167 53
f 54 168 167
f 55 168 54
f 55 169 168
f 56 169 55
f 56 170 169
f 57 170 56
f 57 171 170
f 58 171 57
f 58 172 171
f 59 172 58
f 59 173 172
f 60 173 59
f 60 174 173
f 61 174 60
f 61 175 174
f 62 175 61
f 62 176 175
f 63 176 62
f 63 177 176
f 64 177 63
f 64 178 177
f 65 178 64
f 65 179 178
f 66 179 65
f 66 180 179
f 67 180 66
f 67 181 180
f 68 181 67
f 68 182 181
f 69 182 68
f 69 183 182
f 70 183 69
f 70 184 183
f 71 184 70
f 71 185 184
f 72 185 71
f 72 186 185
f 73 186 72
f 73 187 186
f 74 187 73
f 74 188 187
f 75 188 74
f 75 189 188
f 76 189 75
f 76 190 189
f 77 190 76
f 77 191 190
f 78 191 77
f 78 192 191
f 79 192 78
f 79 193 192
f 80 193 79
f 80 194 193
f 81 194 80
f 81 195 194
f 82 195 81
f 82 196 195
f 83 196 82
f 83 197 196
f 84 197 83
f 84 198 197
f 85 198 84
f 85 199 198
f 86 199 85
f 86 200 199
f 87 200 86
f 87 201 200
f 88 201 87
f 88 202 201
f 89 202 88
f 89 203 202
f 90 203 89
f 90 204 203
f 91 204 90
f 91 205 204
f 92 205 91
f 92 206 205
f 93 206 92
f 93 207 206
f 94 207 93
f 94 208 207
f 95 208 94
f 95 209 208
f 96 209 95
f 96 210 209
f 97 210 96
f 97 211 210
f 98 211 97
f 98 212 211
f 99 212 98
f 99 213 212
f 100 213 99
f 100 214 213
f 101 214 100
f 101 215 214
f 102 215 101
f 102 216 215
f 103 216 102
f 103 217 216
f 104 217 103
f 104 218 217
f 105 218 104
f 105 219 218
f 106 219 105
f 106 220 219
f 107 220 106
f 107 221 220
f 108 221 107
f 108 222 221
f 109 222 108
f 109 223 222
f 110 223 109
f 110 224 223
f 111 224 110
f 111 225 224
f 112 225 111
f 113 114 226
f 1 114 113
f 112 226 225
f 113 226 112
f 339 338 337
f 339 337 336
f 339 336 335
f 339 335 334
f 339 334 333
f 339 333 332
f 339 332 331
f 339 331 330
f 339 330 329
f 339 329 328
f 339 328 327
f 339 327 326
f 339 326 325
f 339 325 324
f 339 324 323
f 339 323 322
f 339 322 321
f 339 321 320
f 339 320 319
f 339 319 318
f 339 318 317
f 339 317 316
f 339 316 315
f 339 315 314
f 339 314 313
f 339 313 312
f 312 311 310
f 312 310 309
f 312 309 308
f 312 308 307
f 312 307 306
f 312 306 305
f 312 305 304
f 312 304 303
f 312 303 302
f 312 302 301
f 312 301 300
f 312 300 299
f 312 299 298
f 312 298 297
f 297 296 295
f 297 295 294
f 297 294 293
f 293 292 291
f 293 291 290
f 293 290 289
f 293 289 288
f 293 288 287
f 293 287 286
f 293 286 285
f 293 285 284
f 293 284 283
f 293 283 282
f 293 282 281
f 293 281 280
f 293 280 279
f 293 279 278
f 293 278 277
f 293 277 276
f 293 276 275
f 293 275 274
f 293 274 273
f 293 273 272
f 272 271 270
f 272 270 269
f 272 269 268
f 272 268 267
f 272 267 266
f 272 266 265
f 272 265 264
f 272 264 263
f 272 263 262
f 272 262 261
f 272 261 260
f 272 260 259
f 272 259 258
f 272 258 257
f 272 257 256
f 227 339 312
f 297 293 272
f 297 272 256
f 297 256 255
f 297 255 254
f 297 254 253
f 297 253 252
f 297 252 251
f 297 251 250
f 297 250 249
f 297 249 248
f 297 248 247
f 297 247 246
f 297 246 245
f 297 245 244
f 297 244 243
f 297 243 242
f 228 227 312
f 312 297 242
f 312 242 241
f 312 241 240
f 312 240 239
f 312 239 238
f 312 238 237
f 312 237 236
f 312 236 235
f 312 235 234
f 312 234 233
f 312 233 232
f 312 232 231
f 312 231 230
f 312 230 229
f 312 229 228
f 450 451 452
f 449 450 452
f 448 449 452
f 447 448 452
f 446 447 452
f 445 446 452
f 444 445 452
f 443 444 452
f 442 443 452
f 441 442 452
f 440 441 452
f 439 440 452
f 438 439 452
f 437 438 452
f 436 437 452
f 435 436 452
f 434 435 452
f 433 434 452
f 432 433 452
f 431 432 452
f 430 431 452
f 429 430 452
f 428 429 452
f 427 428 452
f 426 427 452
f 425 426 452
f 423 424 425
f 422 423 425
f 421 422 425
f 420 421 425
f 419 420 425
f 418 419 425
f 417 418 425
f 416 417 425
f 415 416 425
f 414 415 425
f 413 414 425
f 412 413 425
f 411 412 425
f 410 411 425
f 408 409 410
f 407 408 410
f 406 407 410
f 404 405 406
f 403 404 406
f 402 403 406
f 401 402 406
f 400 401 406
f 399 400 406
f 398 399 406
f 397 398 406
f 396 397 406
f 395 396 406
f 394 395 406
f 393 394 406
f 392 393 406
f 391 392 406
f 390 391 406
f 389 390 406
f 388 389 406
f 387 388 406
f 386 387 406
f 385 386 406
f 383 384 385
f 382 383 385
f 381 382 385
f 380 381 385
f 379 380 385
f 378 379 385
f 377 378 385
f 376 377 385
f 375 376 385
f 374 375 385
f 373 374 385
f 372 373 385
f 371 372 385
f 370 371 385
f 369 370 385
f 425 452 340
f 385 406 410
f 369 385 410
f 368 369 410
f 367 368 410
f 366 367 410
f 365 366 410
f 364 365 410
f 363 364 410
f 362 363 410
f 361 362 410
f 360 361 410
f 359 360 410
f 358 359 410
f 357 358 410
f 356 357 410
f 355 356 410
f 425 340 341
f 355 410 425
f 354 355 425
f 353 354 425
f 352 353 425
f 351 352 425
f 350 351 425
f 349 350 425
f 348 349 425
f 347 348 425
f 346 347 425
f 345 346 425
f 344 345 425
f 343 344 425
f 342 343 425
f 341 342 425
f 227 341 340
f 228 341 227
f 228 342 341
f 229 342 228
f 229 343 342
f 230 343 229
f 230 344 343
f 231 344 230
f 231 345 344
f 232 345 231
f 232 346 345
f 233 346 232
f 233 347 346
f 234 347 233
f 234 348 347
f 235 348 234
f 235 349 348
f 236 349 235
f 236 350 349
f 237 350 236
f 237 351 350
f 238 351 237
f 238 352 351
f 239 352 238
f 239 353 352
f 240 353 239
f 240 354 353
f 241 354 240
f 241 355 354
f 242 355 241
f 242 356 355
f 243 356 242
f 243 357 356
f 244 357 243
f 244 358 357
f 245 358 244
f 245 359 358
f 246 359 245
f 246 360 359
f 247 360 246
f 247 361 360
f 248 361 247
f 248 362 361
f 249 362 248
f 249 363 362
f 250 363 249
f 250 364 363
f 251 364 250
f 251 365 364
f 252 365 251
f 252 366 365
f 253 366 252
f 253 367 366
f 254 367 253
f 254 368 367
f 255 368 254
f 255 369 368
f 256 369 255
f 256 370 369
f 257 370 256
f 257 371 370
f 258 371 257
f 258 372 371
f 259 372 258
f 259 373 372
f 260 373 259
f 260 374 373
f 261 374 260
f 261 375 374
f 262 375 261
f 262 376 375
f 263 376 262
f 263 377 376
f 264 377 263
f 264 378 377
f 265 378 264
f 265 379 378
f 266 379 265
f 266 380 379
f 267 380 266
f 267 381 380
f 268 381 267
f 268 382 381
f 269 382 268
f 269 383 382
f 270 383 269
f 270 384 383
f 271 384 270
f 271 385 384
f 272 385 271
f 272 386 385
f 273 386 272
f 273 387 386
f 274 387 273
f 274 388 387
f 275 388 274
f 275 389 388
f 276 389 275
f 276 390 389
f 277 390 276
f 277 391 390
f 278 391 277
f 278 392 391
f 279 392 278
f 279 393 392
f 280 393 279
f 280 394 393
f 281 394 280
f 281 395 394
f 282 395 281
f 282 396 395
f 283 396 282
f 283 397 396
f 284 397 283
f 284 398 397
f 285 398 284
f 285 399 398
f 286 399 285
f 286 400 399
f 287 400 286
f 287 401 400
f 288 401 287
f 288 402 401
f 289 402 288
f 289 403 402
f 290 403 289
f 290 404 403
f 291 404 290
f 291 405 404
f 292 405 291
f 292 406 405
f 293 406 292
f 293 407 406
f 294 407 293
f 294 408 407
f 295 408 294
f 295 409 408
f 296 409 295
f 296 410 409
f 297 410 296
f 297 411 410
f 298 411 297
f 298 412 411
f 299 412 298
f 299 413 412
f 300 413 299
f 300 414 413
f 301 414 300
f 301 415 414
f 302 415 301
f 302 416 415
f 303 416 302
f 303 417 416
f 304 417 303
f 304 418 417
f 305 418 304
f 305 419 418
f 306 419 305
f 306 420 419
f 307 420 306
f 307 421 420
f 308 421 307
f 308 422 421
f 309 422 308
f 309 423 422
f 310 423 309
f 310 424 423
f 311 424 310
f 311 425 424
f 312 425 311
f 312 426 425
f 313 426 312
f 313 427 426
f 314 427 313
f 314 428 427
f 315 428 314
f 315 429 428
f 316 429 315
f 316 430 429
f 317 430 316
f 317 431 430
f 318 431 317
f 318 432 431
f 319 432 318
f 319 433 432
f 320 433 319
f 320 434 433
f 321 434 320
f 321 435 434
f 322 435 321
f 322 436 435
f 323 436 322
f 323 437 436
f 324 437 323
f 324 438 437
f 325 438 324
f 325 439 438
f 326 439 325
f 326 440 439
f 327 440 326
f 327 441 440
f 328 441 327
f 328 442 441
f 329 442 328
f 329 443 442
f 330 443 329
f 330 444 443
f 331 444 330
f 331 445 444
f 332 445 331
f 332 446 445
f 333 446 332
f 333 447 446
f 334 447 333
f 334 448 447
f 335 448 334
f 335 449 448
f 336 449 335
f 336 450 449
f 337 450 336
f 337 451 450
f 338 451 337
f 339 340 452
f 227 340 339
f 338 452 451
f 339 452 338

