# https://github.com/mikedh/trimesh

o mark_plan_uses
v -0.14128301 0.15231162 0.00000000
v -0.14309768 0.15901023 0.00000000
v -0.14486186 0.16364419 0.00000000
v -0.14796135 0.16985366 0.00000000
v -0.15060435 0.17404896 0.00000000
v -0.15486702 0.17952563 0.00000000
v -0.15828513 0.18311764 0.00000000
v -0.16354370 0.18764661 0.00000000
v -0.16760279 0.19049439 0.00000000
v -0.17365094 0.19389795 0.00000000
v -0.18193319 0.19720885 0.00000000
v -0.18866087 0.19891253 0.00000000
v -0.19356450 0.19964768 0.00000000
v -0.20049602 0.19999179 0.00000000
v -0.20544834 0.19974594 0.00000000
v -0.21231169 0.19871698 0.00000000
v -0.21711838 0.19749977 0.00000000
v -0.22364426 0.19513811 0.00000000
v -0.22811671 0.19299729 0.00000000
v -0.23404901 0.18939561 0.00000000
v -0.23801172 0.18641520 0.00000000
v -0.24311769 0.18171483 0.00000000
v -0.24641515 0.17801178 0.00000000
v -0.25049442 0.17239715 0.00000000
v -0.25299725 0.16811676 0.00000000
v -0.25588974 0.16180821 0.00000000
v -0.25749975 0.15711845 0.00000000
v -0.25909194 0.15036350 0.00000000
v -0.25974593 0.14544840 0.00000000
v -0.25997540 0.13851215 0.00000000
v -0.25964770 0.13356456 0.00000000
v -0.25827783 0.12575373 0.00000000
v -0.25624266 0.11911879 0.00000000
v -0.25299725 0.11188324 0.00000000
v -0.25049442 0.10760285 0.00000000
v -0.24641515 0.10198823 0.00000000
v -0.24099623 0.09619850 0.00000000
v -0.23723915 0.09296270 0.00000000
v -0.23070998 0.08846206 0.00000000
v -0.22723667 0.08654510 0.00000000
v -0.22088115 0.08375732 0.00000000
v -0.21328077 0.08149459 0.00000000
v -0.20544834 0.08025406 0.00000000
v -0.19653004 0.08010659 0.00000000
v -0.18866087 0.08108747 0.00000000
v -0.18479212 0.08196568 0.00000000
v -0.17819172 0.08411027 0.00000000
v -0.17014641 0.08796132 0.00000000
v -0.16244981 0.09323422 0.00000000
v -0.07026943 0.02619394 0.00000000
v -0.07287773 0.01768763 0.00000000
v -0.07405064 0.01185406 0.00000000
v -0.07493440 0.00297516 0.00000000
v -0.07496720 -0.00198380 0.00000000
v -0.07388738 -0.01283243 0.00000000
v -0.07287773 -0.01768763 0.00000000
v -0.07026943 -0.02619394 0.00000000
v -0.16244981 -0.09323422 0.00000000
v -0.16677241 -0.09004813 0.00000000
v -0.17101082 -0.08747487 0.00000000
v -0.17454562 -0.08567379 0.00000000
v -0.18098983 -0.08309767 0.00000000
v -0.18575366 -0.08172219 0.00000000
v -0.19257924 -0.08046687 0.00000000
v -0.20148778 -0.08002460 0.00000000
v -0.20840414 -0.08059771 0.00000000
v -0.21328077 -0.08149459 0.00000000
v -0.21994844 -0.08341978 0.00000000
v -0.22364426 -0.08486189 0.00000000
v -0.22811671 -0.08700271 0.00000000
v -0.23404901 -0.09060439 0.00000000
v -0.24099623 -0.09619850 0.00000000
v -0.24641515 -0.10198823 0.00000000
v -0.25049442 -0.10760285 0.00000000
v -0.25299725 -0.11188324 0.00000000
v -0.25588974 -0.11819179 0.00000000
v -0.25749975 -0.12288155 0.00000000
v -0.25925523 -0.13061486 0.00000000
v -0.25994259 -0.13752079 0.00000000
v -0.25994259 -0.14247921 0.00000000
v -0.25925523 -0.14938514 0.00000000
v -0.25827783 -0.15424627 0.00000000
v -0.25624266 -0.16088122 0.00000000
v -0.25432622 -0.16545431 0.00000000
v -0.25102314 -0.17155792 0.00000000
v -0.24641515 -0.17801178 0.00000000
v -0.24311769 -0.18171483 0.00000000
v -0.23801172 -0.18641520 0.00000000
v -0.23070998 -0.19153793 0.00000000
v -0.22723667 -0.19345489 0.00000000
v -0.22088115 -0.19624269 0.00000000
v -0.21231169 -0.19871698 0.00000000
v -0.20544834 -0.19974594 0.00000000
v -0.20148778 -0.19997540 0.00000000
v -0.19257924 -0.19953313 0.00000000
v -0.18575366 -0.19827782 0.00000000
v -0.18193319 -0.19720885 0.00000000
v -0.17365094 -0.19389795 0.00000000
v -0.17014641 -0.19203869 0.00000000
v -0.16433641 -0.18824284 0.00000000
v -0.15757796 -0.18242209 0.00000000
v -0.15296265 -0.17723911 0.00000000
v -0.15060435 -0.17404896 0.00000000
v -0.14610209 -0.16634913 0.00000000
v -0.14447850 -0.16272937 0.00000000
v -0.14222506 -0.15616535 0.00000000
v -0.14046687 -0.14742082 0.00000000
v -0.14000820 -0.14049596 0.00000000
v -0.14010659 -0.13652997 0.00000000
v -0.14128301 -0.12768838 0.00000000
v -0.14309768 -0.12098977 0.00000000
v -0.14448220 -0.11726179 0.00000000
v -0.05432721 -0.05169452 0.00000000
v -0.04741937 -0.05809836 0.00000000
v -0.04266394 -0.06167499 0.00000000
v -0.03503682 -0.06630563 0.00000000
v -0.02966968 -0.06887471 0.00000000
v -0.02127943 -0.07191107 0.00000000
v -0.01551119 -0.07337178 0.00000000
v -0.00668703 -0.07469471 0.00000000
v -0.00074403 -0.07498975 0.00000000
v 0.00816777 -0.07454732 0.00000000
v 0.01405233 -0.07366510 0.00000000
v 0.02270206 -0.07147469 0.00000000
v 0.02829727 -0.06944984 0.00000000
v 0.03634553 -0.06559740 0.00000000
v 0.04143182 -0.06250936 0.00000000
v 0.04856279 -0.05714605 0.00000000
v 0.05430714 -0.05167993 0.00000000
v 0.14449583 -0.11727170 0.00000000
v 0.14279114 -0.12193326 0.00000000
v 0.14149460 -0.12671916 0.00000000
v 0.14035231 -0.13356456 0.00000000
v 0.14005740 -0.13752079 0.00000000
v 0.14035231 -0.14643542 0.00000000
v 0.14149460 -0.15328082 0.00000000
v 0.14250025 -0.15711845 0.00000000
v 0.14567377 -0.16545431 0.00000000
v 0.14747484 -0.16898912 0.00000000
v 0.15117410 -0.17486106 0.00000000
v 0.15688232 -0.18171483 0.00000000
v 0.16198827 -0.18641520 0.00000000
v 0.16595098 -0.18939561 0.00000000
v 0.17188330 -0.19299729 0.00000000
v 0.17635575 -0.19513811 0.00000000
v 0.18288161 -0.19749977 0.00000000
v 0.18671924 -0.19850542 0.00000000
v 0.19554017 -0.19982785 0.00000000
v 0.20247927 -0.19994260 0.00000000
v 0.20742077 -0.19953313 0.00000000
v 0.21424635 -0.19827782 0.00000000
v 0.21901016 -0.19690233 0.00000000
v 0.22545438 -0.19432621 0.00000000
v 0.22898917 -0.19252513 0.00000000
v 0.23645629 -0.18764661 0.00000000
v 0.24171488 -0.18311764 0.00000000
v 0.24513298 -0.17952563 0.00000000
v 0.24939565 -0.17404896 0.00000000
v 0.25203866 -0.16985366 0.00000000
v 0.25513813 -0.16364419 0.00000000
v 0.25690231 -0.15901023 0.00000000
v 0.25871700 -0.15231162 0.00000000
v 0.25953314 -0.14742082 0.00000000
v 0.25999179 -0.14049596 0.00000000
v 0.25982785 -0.13554025 0.00000000
v 0.25891250 -0.12866081 0.00000000
v 0.25777495 -0.12383465 0.00000000
v 0.25552151 -0.11727063 0.00000000
v 0.25345492 -0.11276339 0.00000000
v 0.24995182 -0.10677235 0.00000000
v 0.24703734 -0.10276090 0.00000000
v 0.24447334 -0.09973359 0.00000000
v 0.23952559 -0.09486697 0.00000000
v 0.23566358 -0.09175717 0.00000000
v 0.22985360 -0.08796132 0.00000000
v 0.22180827 -0.08411027 0.00000000
v 0.21520789 -0.08196568 0.00000000
v 0.21133912 -0.08108747 0.00000000
v 0.20247927 -0.08005740 0.00000000
v 0.19554017 -0.08017215 0.00000000
v 0.19159587 -0.08059771 0.00000000
v 0.18671924 -0.08149459 0.00000000
v 0.18005155 -0.08341978 0.00000000
v 0.17188330 -0.08700271 0.00000000
v 0.16595098 -0.09060439 0.00000000
v 0.16243607 -0.09322423 0.00000000
v 0.07024952 -0.02617946 0.00000000
v 0.07225307 -0.02008755 0.00000000
v 0.07361822 -0.01429594 0.00000000
v 0.07479506 -0.00545112 0.00000000
v 0.07499180 0.00049595 0.00000000
v 0.07440209 0.00939921 0.00000000
v 0.07361822 0.01429594 0.00000000
v 0.07225307 0.02008755 0.00000000
v 0.07024952 0.02617946 0.00000000
v 0.16243607 0.09322423 0.00000000
v 0.16595098 0.09060439 0.00000000
v 0.17188330 0.08700271 0.00000000
v 0.17635575 0.08486189 0.00000000
v 0.18288161 0.08250023 0.00000000
v 0.18768831 0.08128302 0.00000000
v 0.19455166 0.08025406 0.00000000
v 0.19950399 0.08000820 0.00000000
v 0.20643550 0.08035231 0.00000000
v 0.21133912 0.08108747 0.00000000
v 0.21806681 0.08279115 0.00000000
v 0.22272931 0.08447847 0.00000000
v 0.22898917 0.08747487 0.00000000
v 0.23322760 0.09004813 0.00000000
v 0.23877400 0.09421967 0.00000000
v 0.24242203 0.09757792 0.00000000
v 0.24703734 0.10276090 0.00000000
v 0.24995182 0.10677235 0.00000000
v 0.25345492 0.11276339 0.00000000
v 0.25552151 0.11727063 0.00000000
v 0.25777495 0.12383465 0.00000000
v 0.25891250 0.12866081 0.00000000
v 0.25982785 0.13554025 0.00000000
v 0.25982785 0.14445975 0.00000000
v 0.25891250 0.15133919 0.00000000
v 0.25777495 0.15616535 0.00000000
v 0.25552151 0.16272937 0.00000000
v 0.25345492 0.16723661 0.00000000
v 0.24995182 0.17322765 0.00000000
v 0.24703734 0.17723911 0.00000000
v 0.24242203 0.18242209 0.00000000
v 0.23877400 0.18578033 0.00000000
v 0.23566358 0.18824284 0.00000000
v 0.22985360 0.19203869 0.00000000
v 0.22180827 0.19588973 0.00000000
v 0.21520789 0.19803432 0.00000000
v 0.21133912 0.19891253 0.00000000
v 0.20247927 0.19994260 0.00000000
v 0.19554017 0.19982785 0.00000000
v 0.19159587 0.19940229 0.00000000
v 0.18288161 0.19749977 0.00000000
v 0.17635575 0.19513811 0.00000000
v 0.17276333 0.19345489 0.00000000
v 0.16513899 0.18882594 0.00000000
v 0.15973355 0.18447331 0.00000000
v 0.15688232 0.18171483 0.00000000
v 0.15117410 0.17486106 0.00000000
v 0.14747484 0.16898912 0.00000000
v 0.14567377 0.16545431 0.00000000
v 0.14250025 0.15711845 0.00000000
v 0.14149460 0.15328082 0.00000000
v 0.14035231 0.14643542 0.00000000
v 0.14005740 0.13752079 0.00000000
v 0.14035231 0.13356456 0.00000000
v 0.14149460 0.12671916 0.00000000
v 0.14279114 0.12193326 0.00000000
v 0.14449583 0.11727170 0.00000000
v 0.05430714 0.05167993 0.00000000
v 0.04856279 0.05714605 0.00000000
v 0.04143182 0.06250936 0.00000000
v 0.03634553 0.06559740 0.00000000
v 0.02829727 0.06944984 0.00000000
v 0.02270206 0.07147469 0.00000000
v 0.01405233 0.07366510 0.00000000
v 0.00816777 0.07454732 0.00000000
v -0.00074403 0.07498975 0.00000000
v -0.00668703 0.07469471 0.00000000
v -0.01551119 0.07337178 0.00000000
v -0.02127943 0.07191107 0.00000000
v -0.02966968 0.06887471 0.00000000
v -0.03503682 0.06630563 0.00000000
v -0.04266394 0.06167499 0.00000000
v -0.04741937 0.05809836 0.00000000
v -0.05432721 0.05169452 0.00000000
v -0.14448220 0.11726179 0.00000000
v -0.14222506 0.12383465 0.00000000
v -0.14059770 0.13159594 0.00000000
v -0.14000820 0.13950405 0.00000000
v -0.14046687 0.14742082 0.00000000
v -0.03786896 0.02117742 0.00000000
v -0.03682116 0.02283632 0.00000000
v -0.03599886 0.02461779 0.00000000
v -0.03514675 0.02805457 0.00000000
v -0.03259319 0.03101525 0.00000000
v -0.02584008 0.03683140 0.00000000
v -0.01807300 0.04120228 0.00000000
v -0.00959673 0.04395639 0.00000000
v -0.00074389 0.04498564 0.00000000
v 0.00813814 0.04424966 0.00000000
v 0.01670083 0.04177731 0.00000000
v 0.02460818 0.03766562 0.00000000
v 0.03154990 0.03207593 0.00000000
v 0.03514459 0.02806709 0.00000000
v 0.03599886 0.02461779 0.00000000
v 0.03786896 0.02117742 0.00000000
v 0.04149547 0.01738929 0.00000000
v 0.04410905 0.00886865 0.00000000
v 0.04499179 -0.00000000 0.00000000
v 0.04410905 -0.00886865 0.00000000
v 0.04149547 -0.01738929 0.00000000
v 0.03786896 -0.02117742 0.00000000
v 0.03599886 -0.02461779 0.00000000
v 0.03514459 -0.02806709 0.00000000
v 0.03154990 -0.03207593 0.00000000
v 0.02460818 -0.03766562 0.00000000
v 0.01670083 -0.04177731 0.00000000
v 0.00813814 -0.04424966 0.00000000
v -0.00074389 -0.04498564 0.00000000
v -0.00959673 -0.04395639 0.00000000
v -0.01807300 -0.04120228 0.00000000
v -0.02584008 -0.03683140 0.00000000
v -0.03259319 -0.03101525 0.00000000
v -0.03514675 -0.02805457 0.00000000
v -0.03599886 -0.02461779 0.00000000
v -0.03682116 -0.02283632 0.00000000
v -0.03912432 -0.01966948 0.00000000
v -0.04128344 -0.01783161 0.00000000
v -0.04204773 -0.01600780 0.00000000
v -0.04437817 -0.00740541 0.00000000
v -0.04496720 0.00148758 0.00000000
v -0.04379171 0.01032219 0.00000000
v -0.04204773 0.01600780 0.00000000
v -0.04128344 0.01783161 0.00000000
v -0.17163324 0.13026167 0.00000000
v -0.17410938 0.12486117 0.00000000
v -0.17760149 0.12005472 0.00000000
v -0.18197250 0.11603092 0.00000000
v -0.18705091 0.11294767 0.00000000
v -0.19263744 0.11092595 0.00000000
v -0.19851290 0.11004510 0.00000000
v -0.20444669 0.11033968 0.00000000
v -0.21020600 0.11179814 0.00000000
v -0.21556483 0.11436323 0.00000000
v -0.22031289 0.11793432 0.00000000
v -0.22426388 0.12237126 0.00000000
v -0.22726274 0.12749997 0.00000000
v -0.22919181 0.13311917 0.00000000
v -0.22997540 0.13900837 0.00000000
v -0.22958274 0.14493649 0.00000000
v -0.22802927 0.15067090 0.00000000
v -0.22537592 0.15598658 0.00000000
v -0.22172680 0.16067494 0.00000000
v -0.21722515 0.16455203 0.00000000
v -0.21204756 0.16746569 0.00000000
v -0.20639724 0.16930158 0.00000000
v -0.20049588 0.16998769 0.00000000
v -0.19457507 0.16949709 0.00000000
v -0.18886712 0.16784900 0.00000000
v -0.18359604 0.16510813 0.00000000
v -0.17896865 0.16138200 0.00000000
v -0.17516653 0.15681686 0.00000000
v -0.17233887 0.15159181 0.00000000
v -0.17059664 0.14591189 0.00000000
v -0.17000821 0.14000000 0.00000000
v -0.17059664 0.13408811 0.00000000
v 0.22766112 0.12840819 0.00000000
v 0.22483347 0.12318315 0.00000000
v 0.22103135 0.11861800 0.00000000
v 0.21640396 0.11489187 0.00000000
v 0.21113287 0.11215100 0.00000000
v 0.20542493 0.11050292 0.00000000
v 0.19950412 0.11001231 0.00000000
v 0.19360276 0.11069841 0.00000000
v 0.18795243 0.11253431 0.00000000
v 0.18277486 0.11544798 0.00000000
v 0.17968711 0.11793432 0.00000000
v 0.17573613 0.12237126 0.00000000
v 0.17273726 0.12749997 0.00000000
v 0.17080820 0.13311917 0.00000000
v 0.17002460 0.13900837 0.00000000
v 0.17041725 0.14493649 0.00000000
v 0.17197074 0.15067090 0.00000000
v 0.17462409 0.15598658 0.00000000
v 0.17827319 0.16067494 0.00000000
v 0.18277486 0.16455203 0.00000000
v 0.18795243 0.16746569 0.00000000
v 0.19360276 0.16930158 0.00000000
v 0.19950412 0.16998769 0.00000000
v 0.20542493 0.16949709 0.00000000
v 0.21113287 0.16784900 0.00000000
v 0.21640396 0.16510813 0.00000000
v 0.22103135 0.16138200 0.00000000
v 0.22483347 0.15681686 0.00000000
v 0.22766112 0.15159181 0.00000000
v 0.22940336 0.14591189 0.00000000
v 0.22999179 0.14000000 0.00000000
v 0.22940336 0.13408811 0.00000000
v 0.22683454 -0.15339459 0.00000000
v 0.22366774 -0.15842134 0.00000000
v 0.21957222 -0.16272523 0.00000000
v 0.21470869 -0.16613738 0.00000000
v 0.20926797 -0.16852389 0.00000000
v 0.20346358 -0.16979113 0.00000000
v 0.19752330 -0.16988936 0.00000000
v 0.19168019 -0.16881473 0.00000000
v 0.18616354 -0.16660941 0.00000000
v 0.18118985 -0.16335993 0.00000000
v 0.17695427 -0.15919380 0.00000000
v 0.17362301 -0.15427452 0.00000000
v 0.17132677 -0.14879510 0.00000000
v 0.17015567 -0.14297055 0.00000000
v 0.17015567 -0.13702945 0.00000000
v 0.17132677 -0.13120490 0.00000000
v 0.17362301 -0.12572548 0.00000000
v 0.17695427 -0.12080619 0.00000000
v 0.18118985 -0.11664008 0.00000000
v 0.18616354 -0.11339059 0.00000000
v 0.19168019 -0.11118528 0.00000000
v 0.19752330 -0.11011064 0.00000000
v 0.20148711 -0.11004510 0.00000000
v 0.20736255 -0.11092595 0.00000000
v 0.21294908 -0.11294767 0.00000000
v 0.21802750 -0.11603092 0.00000000
v 0.22239852 -0.12005472 0.00000000
v 0.22589061 -0.12486117 0.00000000
v 0.22836676 -0.13026167 0.00000000
v 0.22972979 -0.13604432 0.00000000
v 0.22992623 -0.14198217 0.00000000
v 0.22894834 -0.14784226 0.00000000
v -0.17316546 -0.15339459 0.00000000
v -0.17633227 -0.15842134 0.00000000
v -0.18042777 -0.16272523 0.00000000
v -0.18529132 -0.16613738 0.00000000
v -0.19073203 -0.16852389 0.00000000
v -0.19653641 -0.16979113 0.00000000
v -0.20247671 -0.16988936 0.00000000
v -0.20639724 -0.16930158 0.00000000
v -0.21204756 -0.16746569 0.00000000
v -0.21722515 -0.16455203 0.00000000
v -0.22172680 -0.16067494 0.00000000
v -0.22537592 -0.15598658 0.00000000
v -0.22802927 -0.15067090 0.00000000
v -0.22958274 -0.14493649 0.00000000
v -0.22997540 -0.13900837 0.00000000
v -0.22919181 -0.13311917 0.00000000
v -0.22726274 -0.12749997 0.00000000
v -0.22426388 -0.12237126 0.00000000
v -0.22031289 -0.11793432 0.00000000
v -0.21556483 -0.11436323 0.00000000
v -0.21020600 -0.11179814 0.00000000
v -0.20444669 -0.11033968 0.00000000
v -0.19851290 -0.11004510 0.00000000
v -0.19263744 -0.11092595 0.00000000
v -0.18705091 -0.11294767 0.00000000
v -0.18197250 -0.11603092 0.00000000
v -0.17760149 -0.12005472 0.00000000
v -0.17410938 -0.12486117 0.00000000
v -0.17163324 -0.13026167 0.00000000
v -0.17027020 -0.13604432 0.00000000
v -0.17007378 -0.14198217 0.00000000
v -0.17105165 -0.14784226 0.00000000
v -0.14128301 0.15231162 0.02000000
v -0.14309768 0.15901023 0.02000000
v -0.14486186 0.16364419 0.02000000
v -0.14796135 0.16985366 0.02000000
v -0.15060435 0.17404896 0.02000000
v -0.15486702 0.17952563 0.02000000
v -0.15828513 0.18311764 0.02000000
v -0.16354370 0.18764661 0.02000000
v -0.16760279 0.19049439 0.02000000
v -0.17365094 0.19389795 0.02000000
v -0.18193319 0.19720885 0.02000000
v -0.18866087 0.19891253 0.02000000
v -0.19356450 0.19964768 0.02000000
v -0.20049602 0.19999179 0.02000000
v -0.20544834 0.19974594 0.02000000
v -0.21231169 0.19871698 0.02000000
v -0.21711838 0.19749977 0.02000000
v -0.22364426 0.19513811 0.02000000
v -0.22811671 0.19299729 0.02000000
v -0.23404901 0.18939561 0.02000000
v -0.23801172 0.18641520 0.02000000
v -0.24311769 0.18171483 0.02000000
v -0.24641515 0.17801178 0.02000000
v -0.25049442 0.17239715 0.02000000
v -0.25299725 0.16811676 0.02000000
v -0.25588974 0.16180821 0.02000000
v -0.25749975 0.15711845 0.02000000
v -0.25909194 0.15036350 0.02000000
v -0.25974593 0.14544840 0.02000000
v -0.25997540 0.13851215 0.02000000
v -0.25964770 0.13356456 0.02000000
v -0.25827783 0.12575373 0.02000000
v -0.25624266 0.11911879 0.02000000
v -0.25299725 0.11188324 0.02000000
v -0.25049442 0.10760285 0.02000000
v -0.24641515 0.10198823 0.02000000
v -0.24099623 0.09619850 0.02000000
v -0.23723915 0.09296270 0.02000000
v -0.23070998 0.08846206 0.02000000
v -0.22723667 0.08654510 0.02000000
v -0.22088115 0.08375732 0.02000000
v -0.21328077 0.08149459 0.02000000
v -0.20544834 0.08025406 0.02000000
v -0.19653004 0.08010659 0.02000000
v -0.18866087 0.08108747 0.02000000
v -0.18479212 0.08196568 0.02000000
v -0.17819172 0.08411027 0.02000000
v -0.17014641 0.08796132 0.02000000
v -0.16244981 0.09323422 0.02000000
v -0.07026943 0.02619394 0.02000000
v -0.07287773 0.01768763 0.02000000
v -0.07405064 0.01185406 0.02000000
v -0.07493440 0.00297516 0.02000000
v -0.07496720 -0.00198380 0.02000000
v -0.07388738 -0.01283243 0.02000000
v -0.07287773 -0.01768763 0.02000000
v -0.07026943 -0.02619394 0.02000000
v -0.16244981 -0.09323422 0.02000000
v -0.16677241 -0.09004813 0.02000000
v -0.17101082 -0.08747487 0.02000000
v -0.17454562 -0.08567379 0.02000000
v -0.18098983 -0.08309767 0.02000000
v -0.18575366 -0.08172219 0.02000000
v -0.19257924 -0.08046687 0.02000000
v -0.20148778 -0.08002460 0.02000000
v -0.20840414 -0.08059771 0.02000000
v -0.21328077 -0.08149459 0.02000000
v -0.21994844 -0.08341978 0.02000000
v -0.22364426 -0.08486189 0.02000000
v -0.22811671 -0.08700271 0.02000000
v -0.23404901 -0.09060439 0.02000000
v -0.24099623 -0.09619850 0.02000000
v -0.24641515 -0.10198823 0.02000000
v -0.25049442 -0.10760285 0.02000000
v -0.25299725 -0.11188324 0.02000000
v -0.25588974 -0.11819179 0.02000000
v -0.25749975 -0.12288155 0.02000000
v -0.25925523 -0.13061486 0.02000000
v -0.25994259 -0.13752079 0.02000000
v -0.25994259 -0.14247921 0.02000000
v -0.25925523 -0.14938514 0.02000000
v -0.25827783 -0.15424627 0.02000000
v -0.25624266 -0.16088122 0.02000000
v -0.25432622 -0.16545431 0.02000000
v -0.25102314 -0.17155792 0.02000000
v -0.24641515 -0.17801178 0.02000000
v -0.24311769 -0.18171483 0.02000000
v -0.23801172 -0.18641520 0.02000000
v -0.23070998 -0.19153793 0.02000000
v -0.22723667 -0.19345489 0.02000000
v -0.22088115 -0.19624269 0.02000000
v -0.21231169 -0.19871698 0.02000000
v -0.20544834 -0.19974594 0.02000000
v -0.20148778 -0.19997540 0.02000000
v -0.19257924 -0.19953313 0.02000000
v -0.18575366 -0.19827782 0.02000000
v -0.18193319 -0.19720885 0.02000000
v -0.17365094 -0.19389795 0.02000000
v -0.17014641 -0.19203869 0.02000000
v -0.16433641 -0.18824284 0.02000000
v -0.15757796 -0.18242209 0.02000000
v -0.15296265 -0.17723911 0.02000000
v -0.15060435 -0.17404896 0.02000000
v -0.14610209 -0.16634913 0.02000000
v -0.14447850 -0.16272937 0.02000000
v -0.14222506 -0.15616535 0.02000000
v -0.14046687 -0.14742082 0.02000000
v -0.14000820 -0.14049596 0.02000000
v -0.14010659 -0.13652997 0.02000000
v -0.14128301 -0.12768838 0.02000000
v -0.14309768 -0.12098977 0.02000000
v -0.14448220 -0.11726179 0.02000000
v -0.05432721 -0.05169452 0.02000000
v -0.04741937 -0.05809836 0.02000000
v -0.04266394 -0.06167499 0.02000000
v -0.03503682 -0.06630563 0.02000000
v -0.02966968 -0.06887471 0.02000000
v -0.02127943 -0.07191107 0.02000000
v -0.01551119 -0.07337178 0.02000000
v -0.00668703 -0.07469471 0.02000000
v -0.00074403 -0.07498975 0.02000000
v 0.00816777 -0.07454732 0.02000000
v 0.01405233 -0.07366510 0.02000000
v 0.02270206 -0.07147469 0.02000000
v 0.02829727 -0.06944984 0.02000000
v 0.03634553 -0.06559740 0.02000000
v 0.04143182 -0.06250936 0.02000000
v 0.04856279 -0.05714605 0.02000000
v 0.05430714 -0.05167993 0.02000000
v 0.14449583 -0.11727170 0.02000000
v 0.14279114 -0.12193326 0.02000000
v 0.14149460 -0.12671916 0.02000000
v 0.14035231 -0.13356456 0.02000000
v 0.14005740 -0.13752079 0.02000000
v 0.14035231 -0.14643542 0.02000000
v 0.14149460 -0.15328082 0.02000000
v 0.14250025 -0.15711845 0.02000000
v 0.14567377 -0.16545431 0.02000000
v 0.14747484 -0.16898912 0.02000000
v 0.15117410 -0.17486106 0.02000000
v 0.15688232 -0.18171483 0.02000000
v 0.16198827 -0.18641520 0.02000000
v 0.16595098 -0.18939561 0.02000000
v 0.17188330 -0.19299729 0.02000000
v 0.17635575 -0.19513811 0.02000000
v 0.18288161 -0.19749977 0.02000000
v 0.18671924 -0.19850542 0.02000000
v 0.19554017 -0.19982785 0.02000000
v 0.20247927 -0.19994260 0.02000000
v 0.20742077 -0.19953313 0.02000000
v 0.21424635 -0.19827782 0.02000000
v 0.21901016 -0.19690233 0.02000000
v 0.22545438 -0.19432621 0.02000000
v 0.22898917 -0.19252513 0.02000000
v 0.23645629 -0.18764661 0.02000000
v 0.24171488 -0.18311764 0.02000000
v 0.24513298 -0.17952563 0.02000000
v 0.24939565 -0.17404896 0.02000000
v 0.25203866 -0.16985366 0.02000000
v 0.25513813 -0.16364419 0.02000000
v 0.25690231 -0.15901023 0.02000000
v 0.25871700 -0.15231162 0.02000000
v 0.25953314 -0.14742082 0.02000000
v 0.25999179 -0.14049596 0.02000000
v 0.25982785 -0.13554025 0.02000000
v 0.25891250 -0.12866081 0.02000000
v 0.25777495 -0.12383465 0.02000000
v 0.25552151 -0.11727063 0.02000000
v 0.25345492 -0.11276339 0.02000000
v 0.24995182 -0.10677235 0.02000000
v 0.24703734 -0.10276090 0.02000000
v 0.24447334 -0.09973359 0.02000000
v 0.23952559 -0.09486697 0.02000000
v 0.23566358 -0.09175717 0.02000000
v 0.22985360 -0.08796132 0.02000000
v 0.22180827 -0.08411027 0.02000000
v 0.21520789 -0.08196568 0.02000000
v 0.21133912 -0.08108747 0.02000000
v 0.20247927 -0.08005740 0.02000000
v 0.19554017 -0.08017215 0.02000000
v 0.19159587 -0.08059771 0.02000000
v 0.18671924 -0.08149459 0.02000000
v 0.18005155 -0.08341978 0.02000000
v 0.17188330 -0.08700271 0.02000000
v 0.16595098 -0.09060439 0.02000000
v 0.16243607 -0.09322423 0.02000000
v 0.07024952 -0.02617946 0.02000000
v 0.07225307 -0.02008755 0.02000000
v 0.07361822 -0.01429594 0.02000000
v 0.07479506 -0.00545112 0.02000000
v 0.07499180 0.00049595 0.02000000
v 0.07440209 0.00939921 0.02000000
v 0.07361822 0.01429594 0.02000000
v 0.07225307 0.02008755 0.02000000
v 0.07024952 0.02617946 0.02000000
v 0.16243607 0.09322423 0.02000000
v 0.16595098 0.09060439 0.02000000
v 0.17188330 0.08700271 0.02000000
v 0.17635575 0.08486189 0.02000000
v 0.18288161 0.08250023 0.02000000
v 0.18768831 0.08128302 0.02000000
v 0.19455166 0.08025406 0.02000000
v 0.19950399 0.08000820 0.02000000
v 0.20643550 0.08035231 0.02000000
v 0.21133912 0.08108747 0.02000000
v 0.21806681 0.08279115 0.02000000
v 0.22272931 0.08447847 0.02000000
v 0.22898917 0.08747487 0.02000000
v 0.23322760 0.09004813 0.02000000
v 0.23877400 0.09421967 0.02000000
v 0.24242203 0.09757792 0.02000000
v 0.24703734 0.10276090 0.02000000
v 0.24995182 0.10677235 0.02000000
v 0.25345492 0.11276339 0.02000000
v 0.25552151 0.11727063 0.02000000
v 0.25777495 0.12383465 0.02000000
v 0.25891250 0.12866081 0.02000000
v 0.25982785 0.13554025 0.02000000
v 0.25982785 0.14445975 0.02000000
v 0.25891250 0.15133919 0.02000000
v 0.25777495 0.15616535 0.02000000
v 0.25552151 0.16272937 0.02000000
v 0.25345492 0.16723661 0.02000000
v 0.24995182 0.17322765 0.02000000
v 0.24703734 0.17723911 0.02000000
v 0.24242203 0.18242209 0.02000000
v 0.23877400 0.18578033 0.02000000
v 0.23566358 0.18824284 0.02000000
v 0.22985360 0.19203869 0.02000000
v 0.22180827 0.19588973 0.02000000
v 0.21520789 0.19803432 0.02000000
v 0.21133912 0.19891253 0.02000000
v 0.20247927 0.19994260 0.02000000
v 0.19554017 0.19982785 0.02000000
v 0.19159587 0.19940229 0.02000000
v 0.18288161 0.19749977 0.02000000
v 0.17635575 0.19513811 0.02000000
v 0.17276333 0.19345489 0.02000000
v 0.16513899 0.18882594 0.02000000
v 0.15973355 0.18447331 0.02000000
v 0.15688232 0.18171483 0.02000000
v 0.15117410 0.17486106 0.02000000
v 0.14747484 0.16898912 0.02000000
v 0.14567377 0.16545431 0.02000000
v 0.14250025 0.15711845 0.02000000
v 0.14149460 0.15328082 0.02000000
v 0.14035231 0.14643542 0.02000000
v 0.14005740 0.13752079 0.02000000
v 0.14035231 0.13356456 0.02000000
v 0.14149460 0.12671916 0.02000000
v 0.14279114 0.12193326 0.02000000
v 0.14449583 0.11727170 0.02000000
v 0.05430714 0.05167993 0.02000000
v 0.04856279 0.05714605 0.02000000
v 0.04143182 0.06250936 0.02000000
v 0.03634553 0.06559740 0.02000000
v 0.02829727 0.06944984 0.02000000
v 0.02270206 0.07147469 0.02000000
v 0.01405233 0.07366510 0.02000000
v 0.00816777 0.07454732 0.02000000
v -0.00074403 0.07498975 0.02000000
v -0.00668703 0.07469471 0.02000000
v -0.01551119 0.07337178 0.02000000
v -0.02127943 0.07191107 0.02000000
v -0.02966968 0.06887471 0.02000000
v -0.03503682 0.06630563 0.02000000
v -0.04266394 0.06167499 0.02000000
v -0.04741937 0.05809836 0.02000000
v -0.05432721 0.05169452 0.02000000
v -0.14448220 0.11726179 0.02000000
v -0.14222506 0.12383465 0.02000000
v -0.14059770 0.13159594 0.02000000
v -0.14000820 0.13950405 0.02000000
v -0.14046687 0.14742082 0.02000000
v -0.03786896 0.02117742 0.02000000
v -0.03682116 0.02283632 0.02000000
v -0.03599886 0.02461779 0.02000000
v -0.03514675 0.02805457 0.02000000
v -0.03259319 0.03101525 0.02000000
v -0.02584008 0.03683140 0.02000000
v -0.01807300 0.04120228 0.02000000
v -0.00959673 0.04395639 0.02000000
v -0.00074389 0.04498564 0.02000000
v 0.00813814 0.04424966 0.02000000
v 0.01670083 0.04177731 0.02000000
v 0.02460818 0.03766562 0.02000000
v 0.03154990 0.03207593 0.02000000
v 0.03514459 0.02806709 0.02000000
v 0.03599886 0.02461779 0.02000000
v 0.03786896 0.02117742 0.02000000
v 0.04149547 0.01738929 0.02000000
v 0.04410905 0.00886865 0.02000000
v 0.04499179 -0.00000000 0.02000000
v 0.04410905 -0.00886865 0.02000000
v 0.04149547 -0.01738929 0.02000000
v 0.03786896 -0.02117742 0.02000000
v 0.03599886 -0.02461779 0.02000000
v 0.03514459 -0.02806709 0.02000000
v 0.03154990 -0.03207593 0.02000000
v 0.02460818 -0.03766562 0.02000000
v 0.01670083 -0.04177731 0.02000000
v 0.00813814 -0.04424966 0.02000000
v -0.00074389 -0.04498564 0.02000000
v -0.00959673 -0.04395639 0.02000000
v -0.01807300 -0.04120228 0.02000000
v -0.02584008 -0.03683140 0.02000000
v -0.03259319 -0.03101525 0.02000000
v -0.03514675 -0.02805457 0.02000000
v -0.03599886 -0.02461779 0.02000000
v -0.03682116 -0.02283632 0.02000000
v -0.03912432 -0.01966948 0.02000000
v -0.04128344 -0.01783161 0.02000000
v -0.04204773 -0.01600780 0.02000000
v -0.04437817 -0.00740541 0.02000000
v -0.04496720 0.00148758 0.02000000
v -0.04379171 0.01032219 0.02000000
v -0.04204773 0.01600780 0.02000000
v -0.04128344 0.01783161 0.02000000
v -0.17163324 0.13026167 0.02000000
v -0.17410938 0.12486117 0.02000000
v -0.17760149 0.12005472 0.02000000
v -0.18197250 0.11603092 0.02000000
v -0.18705091 0.11294767 0.02000000
v -0.19263744 0.11092595 0.02000000
v -0.19851290 0.11004510 0.02000000
v -0.20444669 0.11033968 0.02000000
v -0.21020600 0.11179814 0.02000000
v -0.21556483 0.11436323 0.02000000
v -0.22031289 0.11793432 0.02000000
v -0.22426388 0.12237126 0.02000000
v -0.22726274 0.12749997 0.02000000
v -0.22919181 0.13311917 0.02000000
v -0.22997540 0.13900837 0.02000000
v -0.22958274 0.14493649 0.02000000
v -0.22802927 0.15067090 0.02000000
v -0.22537592 0.15598658 0.02000000
v -0.22172680 0.16067494 0.02000000
v -0.21722515 0.16455203 0.02000000
v -0.21204756 0.16746569 0.02000000
v -0.20639724 0.16930158 0.02000000
v -0.20049588 0.16998769 0.02000000
v -0.19457507 0.16949709 0.02000000
v -0.18886712 0.16784900 0.02000000
v -0.18359604 0.16510813 0.02000000
v -0.17896865 0.16138200 0.02000000
v -0.17516653 0.15681686 0.02000000
v -0.17233887 0.15159181 0.02000000
v -0.17059664 0.14591189 0.02000000
v -0.17000821 0.14000000 0.02000000
v -0.17059664 0.13408811 0.02000000
v 0.22766112 0.12840819 0.02000000
v 0.22483347 0.12318315 0.02000000
v 0.22103135 0.11861800 0.02000000
v 0.21640396 0.11489187 0.02000000
v 0.21113287 0.11215100 0.02000000
v 0.20542493 0.11050292 0.02000000
v 0.19950412 0.11001231 0.02000000
v 0.19360276 0.11069841 0.02000000
v 0.18795243 0.11253431 0.02000000
v 0.18277486 0.11544798 0.02000000
v 0.17968711 0.11793432 0.02000000
v 0.17573613 0.12237126 0.02000000
v 0.17273726 0.12749997 0.02000000
v 0.17080820 0.13311917 0.02000000
v 0.17002460 0.13900837 0.02000000
v 0.17041725 0.14493649 0.02000000
v 0.17197074 0.15067090 0.02000000
v 0.17462409 0.15598658 0.02000000
v 0.17827319 0.16067494 0.02000000
v 0.18277486 0.16455203 0.02000000
v 0.18795243 0.16746569 0.02000000
v 0.19360276 0.16930158 0.02000000
v 0.19950412 0.16998769 0.02000000
v 0.20542493 0.16949709 0.02000000
v 0.21113287 0.16784900 0.02000000
v 0.21640396 0.16510813 0.02000000
v 0.22103135 0.16138200 0.02000000
v 0.22483347 0.15681686 0.02000000
v 0.22766112 0.15159181 0.02000000
v 0.22940336 0.14591189 0.02000000
v 0.22999179 0.14000000 0.02000000
v 0.22940336 0.13408811 0.02000000
v 0.22683454 -0.15339459 0.02000000
v 0.22366774 -0.15842134 0.02000000
v 0.21957222 -0.16272523 0.02000000
v 0.21470869 -0.16613738 0.02000000
v 0.20926797 -0.16852389 0.02000000
v 0.20346358 -0.16979113 0.02000000
v 0.19752330 -0.16988936 0.02000000
v 0.19168019 -0.16881473 0.02000000
v 0.18616354 -0.16660941 0.02000000
v 0.18118985 -0.16335993 0.02000000
v 0.17695427 -0.15919380 0.02000000
v 0.17362301 -0.15427452 0.02000000
v 0.17132677 -0.14879510 0.02000000
v 0.17015567 -0.14297055 0.02000000
v 0.17015567 -0.13702945 0.02000000
v 0.17132677 -0.13120490 0.02000000
v 0.17362301 -0.12572548 0.02000000
v 0.17695427 -0.12080619 0.02000000
v 0.18118985 -0.11664008 0.02000000
v 0.18616354 -0.11339059 0.02000000
v 0.19168019 -0.11118528 0.02000000
v 0.19752330 -0.11011064 0.02000000
v 0.20148711 -0.11004510 0.02000000
v 0.20736255 -0.11092595 0.02000000
v 0.21294908 -0.11294767 0.02000000
v 0.21802750 -0.11603092 0.02000000
v 0.22239852 -0.12005472 0.02000000
v 0.22589061 -0.12486117 0.02000000
v 0.22836676 -0.13026167 0.02000000
v 0.22972979 -0.13604432 0.02000000
v 0.22992623 -0.14198217 0.02000000
v 0.22894834 -0.14784226 0.02000000
v -0.17316546 -0.15339459 0.02000000
v -0.17633227 -0.15842134 0.02000000
v -0.18042777 -0.16272523 0.02000000
v -0.18529132 -0.16613738 0.02000000
v -0.19073203 -0.16852389 0.02000000
v -0.19653641 -0.16979113 0.02000000
v -0.20247671 -0.16988936 0.02000000
v -0.20639724 -0.16930158 0.02000000
v -0.21204756 -0.16746569 0.02000000
v -0.21722515 -0.16455203 0.02000000
v -0.22172680 -0.16067494 0.02000000
v -0.22537592 -0.15598658 0.02000000
v -0.22802927 -0.15067090 0.02000000
v -0.22958274 -0.14493649 0.02000000
v -0.22997540 -0.13900837 0.02000000
v -0.22919181 -0.13311917 0.02000000
v -0.22726274 -0.12749997 0.02000000
v -0.22426388 -0.12237126 0.02000000
v -0.22031289 -0.11793432 0.02000000
v -0.21556483 -0.11436323 0.02000000
v -0.21020600 -0.11179814 0.02000000
v -0.20444669 -0.11033968 0.02000000
v -0.19851290 -0.11004510 0.02000000
v -0.19263744 -0.11092595 0.02000000
v -0.18705091 -0.11294767 0.02000000
v -0.18197250 -0.11603092 0.02000000
v -0.17760149 -0.12005472 0.02000000
v -0.17410938 -0.12486117 0.02000000
v -0.17163324 -0.13026167 0.02000000
v -0.17027020 -0.13604432 0.02000000
v -0.17007378 -0.14198217 0.02000000
v -0.17105165 -0.14784226 0.02000000
f 134 397 396
f 134 396 395
f 134 395 394
f 134 394 393
f 134 393 392
f 134 392 391
f 398 397 134
f 398 134 133
f 398 133 132
f 398 132 131
f 398 131 130
f 398 130 129
f 129 128 127
f 129 127 126
f 129 126 125
f 129 125 124
f 129 124 123
f 129 123 122
f 129 122 121
f 129 121 120
f 129 120 119
f 129 119 118
f 129 118 117
f 129 117 116
f 129 116 115
f 129 115 114
f 129 114 113
f 112 111 110
f 112 110 109
f 112 109 108
f 112 108 107
f 112 107 106
f 112 106 105
f 112 105 104
f 112 104 103
f 112 103 102
f 112 102 101
f 112 101 100
f 112 100 99
f 112 99 98
f 112 98 97
f 112 97 96
f 112 96 95
f 112 95 94
f 112 94 93
f 93 92 91
f 93 91 90
f 93 90 89
f 93 89 88
f 93 88 87
f 93 87 86
f 93 86 85
f 93 85 84
f 93 84 83
f 93 83 82
f 93 82 81
f 93 81 80
f 93 80 79
f 79 429 428
f 79 428 427
f 79 427 426
f 79 426 425
f 79 425 424
f 430 429 79
f 430 79 78
f 430 78 77
f 430 77 76
f 430 76 75
f 430 75 74
f 430 74 73
f 430 73 72
f 430 72 71
f 430 71 70
f 430 70 69
f 430 69 68
f 430 68 67
f 67 66 65
f 67 65 64
f 67 64 63
f 67 63 62
f 67 62 61
f 67 61 60
f 67 60 59
f 67 59 58
f 57 56 55
f 57 55 54
f 57 54 315
f 57 315 314
f 57 314 313
f 57 313 312
f 57 312 311
f 57 311 310
f 57 310 309
f 57 309 308
f 57 308 307
f 57 307 306
f 57 306 305
f 57 305 304
f 298 297 296
f 298 296 295
f 291 290 289
f 291 289 288
f 278 277 276
f 278 276 275
f 278 275 318
f 316 315 54
f 316 54 53
f 316 53 52
f 316 52 51
f 316 51 50
f 316 50 49
f 49 48 47
f 49 47 46
f 49 46 45
f 49 45 44
f 49 44 43
f 49 43 42
f 49 42 41
f 49 41 40
f 49 40 39
f 49 39 38
f 49 38 37
f 49 37 36
f 49 36 35
f 49 35 34
f 49 34 33
f 49 33 32
f 32 31 30
f 32 30 333
f 32 333 332
f 32 332 331
f 32 331 330
f 32 330 329
f 32 329 328
f 32 328 327
f 334 333 30
f 334 30 29
f 334 29 28
f 334 28 27
f 334 27 26
f 334 26 25
f 334 25 24
f 334 24 23
f 334 23 22
f 334 22 21
f 334 21 20
f 334 20 19
f 334 19 18
f 334 18 17
f 17 16 15
f 17 15 14
f 17 14 13
f 17 13 12
f 17 12 11
f 17 11 10
f 17 10 9
f 17 9 8
f 17 8 7
f 17 7 6
f 17 6 5
f 17 5 4
f 17 4 3
f 17 3 2
f 17 2 1
f 17 1 274
f 17 274 273
f 17 273 272
f 272 271 270
f 269 268 267
f 269 267 266
f 269 266 265
f 269 265 264
f 269 264 263
f 269 263 262
f 269 262 261
f 269 261 260
f 269 260 259
f 269 259 258
f 269 258 257
f 269 257 256
f 269 256 255
f 269 255 254
f 269 254 253
f 252 251 250
f 252 250 249
f 252 249 248
f 252 248 365
f 252 365 364
f 252 364 363
f 252 363 362
f 252 362 361
f 252 361 360
f 252 360 359
f 252 359 358
f 366 365 248
f 366 248 247
f 366 247 246
f 366 246 245
f 366 245 244
f 366 244 243
f 366 243 242
f 366 242 241
f 366 241 240
f 366 240 239
f 366 239 238
f 366 238 237
f 366 237 236
f 236 235 234
f 236 234 233
f 236 233 232
f 236 232 231
f 236 231 230
f 236 230 229
f 236 229 228
f 236 228 227
f 236 227 226
f 236 226 225
f 236 225 224
f 236 224 223
f 236 223 222
f 236 222 221
f 236 221 220
f 236 220 219
f 236 219 218
f 236 218 217
f 217 216 215
f 217 215 214
f 217 214 213
f 217 213 212
f 217 212 211
f 217 211 210
f 217 210 209
f 217 209 208
f 217 208 207
f 217 207 206
f 217 206 205
f 217 205 204
f 217 204 203
f 217 203 202
f 217 202 201
f 217 201 200
f 217 200 199
f 217 199 198
f 217 198 197
f 217 197 196
f 195 194 193
f 195 193 192
f 195 192 191
f 195 191 190
f 195 190 189
f 195 189 188
f 195 188 187
f 186 185 184
f 186 184 183
f 186 183 182
f 186 182 181
f 186 181 180
f 186 180 179
f 186 179 178
f 186 178 177
f 186 177 176
f 186 176 175
f 186 175 174
f 186 174 173
f 186 173 172
f 186 172 171
f 186 171 170
f 186 170 169
f 186 169 168
f 186 168 167
f 186 167 166
f 166 165 164
f 166 164 163
f 166 163 162
f 166 162 161
f 166 161 160
f 166 160 159
f 166 159 158
f 166 158 157
f 166 157 156
f 166 156 155
f 166 155 154
f 166 154 153
f 166 153 152
f 166 152 151
f 166 151 150
f 166 150 149
f 166 149 148
f 166 148 147
f 166 147 146
f 146 145 144
f 146 144 143
f 146 143 142
f 146 142 141
f 146 141 140
f 146 140 139
f 146 139 138
f 146 138 137
f 146 137 136
f 146 136 135
f 146 135 134
f 146 134 391
f 146 391 390
f 146 390 389
f 146 389 388
f 146 388 387
f 146 387 386
f 146 386 385
f 399 398 129
f 93 79 424
f 93 424 423
f 93 423 422
f 93 422 421
f 93 421 420
f 93 420 419
f 93 419 418
f 93 418 417
f 93 417 416
f 431 430 67
f 317 316 49
f 49 32 327
f 49 327 326
f 49 326 325
f 49 325 324
f 49 324 323
f 49 323 322
f 49 322 321
f 49 321 320
f 49 320 319
f 49 319 350
f 49 350 349
f 49 349 348
f 335 334 17
f 253 252 358
f 253 358 357
f 253 357 356
f 253 356 355
f 367 366 236
f 166 146 385
f 166 385 384
f 166 384 383
f 166 383 414
f 166 414 413
f 166 413 412
f 166 412 411
f 166 411 410
f 166 410 409
f 166 409 408
f 166 408 407
f 166 407 406
f 400 399 129
f 112 93 416
f 112 416 415
f 112 415 446
f 112 446 445
f 112 445 444
f 112 444 443
f 112 443 442
f 112 442 441
f 112 441 440
f 112 440 439
f 112 439 438
f 112 438 437
f 432 431 67
f 318 317 49
f 336 335 17
f 368 367 236
f 186 166 406
f 186 406 405
f 186 405 404
f 186 404 403
f 186 403 402
f 186 402 401
f 186 401 400
f 186 400 129
f 113 112 437
f 113 437 436
f 113 436 435
f 433 432 67
f 278 318 49
f 337 336 17
f 369 368 236
f 187 186 129
f 434 433 67
f 279 278 49
f 338 337 17
f 370 369 236
f 195 187 129
f 435 434 67
f 435 67 58
f 280 279 49
f 339 338 17
f 371 370 236
f 113 435 58
f 113 58 57
f 113 57 304
f 113 304 303
f 113 303 302
f 340 339 17
f 372 371 236
f 129 113 302
f 129 302 301
f 129 301 300
f 129 300 299
f 129 299 298
f 129 298 295
f 129 295 294
f 129 294 293
f 129 293 292
f 341 340 17
f 373 372 236
f 195 129 292
f 195 292 291
f 195 291 288
f 195 288 287
f 195 287 286
f 195 286 285
f 342 341 17
f 374 373 236
f 343 342 17
f 375 374 236
f 344 343 17
f 344 17 272
f 376 375 236
f 345 344 272
f 377 376 236
f 377 236 217
f 346 345 272
f 346 272 270
f 378 377 217
f 347 346 270
f 379 378 217
f 348 347 270
f 380 379 217
f 49 348 270
f 49 270 269
f 381 380 217
f 280 49 269
f 382 381 217
f 281 280 269
f 351 382 217
f 282 281 269
f 282 269 253
f 352 351 217
f 283 282 253
f 353 352 217
f 284 283 253
f 354 353 217
f 285 284 253
f 355 354 217
f 355 217 196
f 195 285 253
f 253 355 196
f 253 196 195
f 842 843 580
f 841 842 580
f 840 841 580
f 839 840 580
f 838 839 580
f 837 838 580
f 580 843 844
f 579 580 844
f 578 579 844
f 577 578 844
f 576 577 844
f 575 576 844
f 573 574 575
f 572 573 575
f 571 572 575
f 570 571 575
f 569 570 575
f 568 569 575
f 567 568 575
f 566 567 575
f 565 566 575
f 564 565 575
f 563 564 575
f 562 563 575
f 561 562 575
f 560 561 575
f 559 560 575
f 556 557 558
f 555 556 558
f 554 555 558
f 553 554 558
f 552 553 558
f 551 552 558
f 550 551 558
f 549 550 558
f 548 549 558
f 547 548 558
f 546 547 558
f 545 546 558
f 544 545 558
f 543 544 558
f 542 543 558
f 541 542 558
f 540 541 558
f 539 540 558
f 537 538 539
f 536 537 539
f 535 536 539
f 534 535 539
f 533 534 539
f 532 533 539
f 531 532 539
f 530 531 539
f 529 530 539
f 528 529 539
f 527 528 539
f 526 527 539
f 525 526 539
f 874 875 525
f 873 874 525
f 872 873 525
f 871 872 525
f 870 871 525
f 525 875 876
f 524 525 876
f 523 524 876
f 522 523 876
f 521 522 876
f 520 521 876
f 519 520 876
f 518 519 876
f 517 518 876
f 516 517 876
f 515 516 876
f 514 515 876
f 513 514 876
f 511 512 513
f 510 511 513
f 509 510 513
f 508 509 513
f 507 508 513
f 506 507 513
f 505 506 513
f 504 505 513
f 501 502 503
f 500 501 503
f 761 500 503
f 760 761 503
f 759 760 503
f 758 759 503
f 757 758 503
f 756 757 503
f 755 756 503
f 754 755 503
f 753 754 503
f 752 753 503
f 751 752 503
f 750 751 503
f 742 743 744
f 741 742 744
f 735 736 737
f 734 735 737
f 722 723 724
f 721 722 724
f 764 721 724
f 500 761 762
f 499 500 762
f 498 499 762
f 497 498 762
f 496 497 762
f 495 496 762
f 493 494 495
f 492 493 495
f 491 492 495
f 490 491 495
f 489 490 495
f 488 489 495
f 487 488 495
f 486 487 495
f 485 486 495
f 484 485 495
f 483 484 495
f 482 483 495
f 481 482 495
f 480 481 495
f 479 480 495
f 478 479 495
f 476 477 478
f 779 476 478
f 778 779 478
f 777 778 478
f 776 777 478
f 775 776 478
f 774 775 478
f 773 774 478
f 476 779 780
f 475 476 780
f 474 475 780
f 473 474 780
f 472 473 780
f 471 472 780
f 470 471 780
f 469 470 780
f 468 469 780
f 467 468 780
f 466 467 780
f 465 466 780
f 464 465 780
f 463 464 780
f 461 462 463
f 460 461 463
f 459 460 463
f 458 459 463
f 457 458 463
f 456 457 463
f 455 456 463
f 454 455 463
f 453 454 463
f 452 453 463
f 451 452 463
f 450 451 463
f 449 450 463
f 448 449 463
f 447 448 463
f 720 447 463
f 719 720 463
f 718 719 463
f 716 717 718
f 713 714 715
f 712 713 715
f 711 712 715
f 710 711 715
f 709 710 715
f 708 709 715
f 707 708 715
f 706 707 715
f 705 706 715
f 704 705 715
f 703 704 715
f 702 703 715
f 701 702 715
f 700 701 715
f 699 700 715
f 696 697 698
f 695 696 698
f 694 695 698
f 811 694 698
f 810 811 698
f 809 810 698
f 808 809 698
f 807 808 698
f 806 807 698
f 805 806 698
f 804 805 698
f 694 811 812
f 693 694 812
f 692 693 812
f 691 692 812
f 690 691 812
f 689 690 812
f 688 689 812
f 687 688 812
f 686 687 812
f 685 686 812
f 684 685 812
f 683 684 812
f 682 683 812
f 680 681 682
f 679 680 682
f 678 679 682
f 677 678 682
f 676 677 682
f 675 676 682
f 674 675 682
f 673 674 682
f 672 673 682
f 671 672 682
f 670 671 682
f 669 670 682
f 668 669 682
f 667 668 682
f 666 667 682
f 665 666 682
f 664 665 682
f 663 664 682
f 661 662 663
f 660 661 663
f 659 660 663
f 658 659 663
f 657 658 663
f 656 657 663
f 655 656 663
f 654 655 663
f 653 654 663
f 652 653 663
f 651 652 663
f 650 651 663
f 649 650 663
f 648 649 663
f 647 648 663
f 646 647 663
f 645 646 663
f 644 645 663
f 643 644 663
f 642 643 663
f 639 640 641
f 638 639 641
f 637 638 641
f 636 637 641
f 635 636 641
f 634 635 641
f 633 634 641
f 630 631 632
f 629 630 632
f 628 629 632
f 627 628 632
f 626 627 632
f 625 626 632
f 624 625 632
f 623 624 632
f 622 623 632
f 621 622 632
f 620 621 632
f 619 620 632
f 618 619 632
f 617 618 632
f 616 617 632
f 615 616 632
f 614 615 632
f 613 614 632
f 612 613 632
f 610 611 612
f 609 610 612
f 608 609 612
f 607 608 612
f 606 607 612
f 605 606 612
f 604 605 612
f 603 604 612
f 602 603 612
f 601 602 612
f 600 601 612
f 599 600 612
f 598 599 612
f 597 598 612
f 596 597 612
f 595 596 612
f 594 595 612
f 593 594 612
f 592 593 612
f 590 591 592
f 589 590 592
f 588 589 592
f 587 588 592
f 586 587 592
f 585 586 592
f 584 585 592
f 583 584 592
f 582 583 592
f 581 582 592
f 580 581 592
f 837 580 592
f 836 837 592
f 835 836 592
f 834 835 592
f 833 834 592
f 832 833 592
f 831 832 592
f 575 844 845
f 870 525 539
f 869 870 539
f 868 869 539
f 867 868 539
f 866 867 539
f 865 866 539
f 864 865 539
f 863 864 539
f 862 863 539
f 513 876 877
f 495 762 763
f 773 478 495
f 772 773 495
f 771 772 495
f 770 771 495
f 769 770 495
f 768 769 495
f 767 768 495
f 766 767 495
f 765 766 495
f 796 765 495
f 795 796 495
f 794 795 495
f 463 780 781
f 804 698 699
f 803 804 699
f 802 803 699
f 801 802 699
f 682 812 813
f 831 592 612
f 830 831 612
f 829 830 612
f 860 829 612
f 859 860 612
f 858 859 612
f 857 858 612
f 856 857 612
f 855 856 612
f 854 855 612
f 853 854 612
f 852 853 612
f 575 845 846
f 862 539 558
f 861 862 558
f 892 861 558
f 891 892 558
f 890 891 558
f 889 890 558
f 888 889 558
f 887 888 558
f 886 887 558
f 885 886 558
f 884 885 558
f 883 884 558
f 513 877 878
f 495 763 764
f 463 781 782
f 682 813 814
f 852 612 632
f 851 852 632
f 850 851 632
f 849 850 632
f 848 849 632
f 847 848 632
f 846 847 632
f 575 846 632
f 883 558 559
f 882 883 559
f 881 882 559
f 513 878 879
f 495 764 724
f 463 782 783
f 682 814 815
f 575 632 633
f 513 879 880
f 495 724 725
f 463 783 784
f 682 815 816
f 575 633 641
f 513 880 881
f 504 513 881
f 495 725 726
f 463 784 785
f 682 816 817
f 504 881 559
f 503 504 559
f 750 503 559
f 749 750 559
f 748 749 559
f 463 785 786
f 682 817 818
f 748 559 575
f 747 748 575
f 746 747 575
f 745 746 575
f 744 745 575
f 741 744 575
f 740 741 575
f 739 740 575
f 738 739 575
f 463 786 787
f 682 818 819
f 738 575 641
f 737 738 641
f 734 737 641
f 733 734 641
f 732 733 641
f 731 732 641
f 463 787 788
f 682 819 820
f 463 788 789
f 682 820 821
f 463 789 790
f 718 463 790
f 682 821 822
f 718 790 791
f 682 822 823
f 663 682 823
f 718 791 792
f 716 718 792
f 663 823 824
f 716 792 793
f 663 824 825
f 716 793 794
f 663 825 826
f 716 794 495
f 715 716 495
f 663 826 827
f 715 495 726
f 663 827 828
f 715 726 727
f 663 828 797
f 715 727 728
f 699 715 728
f 663 797 798
f 699 728 729
f 663 798 799
f 699 729 730
f 663 799 800
f 699 730 731
f 663 800 801
f 642 663 801
f 699 731 641
f 642 801 699
f 641 642 699
f 1 448 447
f 2 448 1
f 2 449 448
f 3 449 2
f 3 450 449
f 4 450 3
f 4 451 450
f 5 451 4
f 5 452 451
f 6 452 5
f 6 453 452
f 7 453 6
f 7 454 453
f 8 454 7
f 8 455 454
f 9 455 8
f 9 456 455
f 10 456 9
f 10 457 456
f 11 457 10
f 11 458 457
f 12 458 11
f 12 459 458
f 13 459 12
f 13 460 459
f 14 460 13
f 14 461 460
f 15 461 14
f 15 462 461
f 16 462 15
f 16 463 462
f 17 463 16
f 17 464 463
f 18 464 17
f 18 465 464
f 19 465 18
f 19 466 465
f 20 466 19
f 20 467 466
f 21 467 20
f 21 468 467
f 22 468 21
f 22 469 468
f 23 469 22
f 23 470 469
f 24 470 23
f 24 471 470
f 25 471 24
f 25 472 471
f 26 472 25
f 26 473 472
f 27 473 26
f 27 474 473
f 28 474 27
f 28 475 474
f 29 475 28
f 29 476 475
f 30 476 29
f 30 477 476
f 31 477 30
f 31 478 477
f 32 478 31
f 32 479 478
f 33 479 32
f 33 480 479
f 34 480 33
f 34 481 480
f 35 481 34
f 35 482 481
f 36 482 35
f 36 483 482
f 37 483 36
f 37 484 483
f 38 484 37
f 38 485 484
f 39 485 38
f 39 486 485
f 40 486 39
f 40 487 486
f 41 487 40
f 41 488 487
f 42 488 41
f 42 489 488
f 43 489 42
f 43 490 489
f 44 490 43
f 44 491 490
f 45 491 44
f 45 492 491
f 46 492 45
f 46 493 492
f 47 493 46
f 47 494 493
f 48 494 47
f 48 495 494
f 49 495 48
f 49 496 495
f 50 496 49
f 50 497 496
f 51 497 50
f 51 498 497
f 52 498 51
f 52 499 498
f 53 499 52
f 53 500 499
f 54 500 53
f 54 501 500
f 55 501 54
f 55 502 501
f 56 502 55
f 56 503 502
f 57 503 56
f 57 504 503
f 58 504 57
f 58 505 504
f 59 505 58
f 59 506 505
f 60 506 59
f 60 507 506
f 61 507 60
f 61 508 507
f 62 508 61
f 62 509 508
f 63 509 62
f 63 510 509
f 64 510 63
f 64 511 510
f 65 511 64
f 65 512 511
f 66 512 65
f 66 513 512
f 67 513 66
f 67 514 513
f 68 514 67
f 68 515 514
f 69 515 68
f 69 516 515
f 70 516 69
f 70 517 516
f 71 517 70
f 71 518 517
f 72 518 71
f 72 519 518
f 73 519 72
f 73 520 519
f 74 520 73
f 74 521 520
f 75 521 74
f 75 522 521
f 76 522 75
f 76 523 522
f 77 523 76
f 77 524 523
f 78 524 77
f 78 525 524
f 79 525 78
f 79 526 525
f 80 526 79
f 80 527 526
f 81 527 80
f 81 528 527
f 82 528 81
f 82 529 528
f 83 529 82
f 83 530 529
f 84 530 83
f 84 531 530
f 85 531 84
f 85 532 531
f 86 532 85
f 86 533 532
f 87 533 86
f 87 534 533
f 88 534 87
f 88 535 534
f 89 535 88
f 89 536 535
f 90 536 89
f 90 537 536
f 91 537 90
f 91 538 537
f 92 538 91
f 92 539 538
f 93 539 92
f 93 540 539
f 94 540 93
f 94 541 540
f 95 541 94
f 95 542 541
f 96 542 95
f 96 543 542
f 97 543 96
f 97 544 543
f 98 544 97
f 98 545 544
f 99 545 98
f 99 546 545
f 100 546 99
f 100 547 546
f 101 547 100
f 101 548 547
f 102 548 101
f 102 549 548
f 103 549 102
f 103 550 549
f 104 550 103
f 104 551 550
f 105 551 104
f 105 552 551
f 106 552 105
f 106 553 552
f 107 553 106
f 107 554 553
f 108 554 107
f 108 555 554
f 109 555 108
f 109 556 555
f 110 556 109
f 110 557 556
f 111 557 110
f 111 558 557
f 112 558 111
f 112 559 558
f 113 559 112
f 113 560 559
f 114 560 113
f 114 561 560
f 115 561 114
f 115 562 561
f 116 562 115
f 116 563 562
f 117 563 116
f 117 564 563
f 118 564 117
f 118 565 564
f 119 565 118
f 119 566 565
f 120 566 119
f 120 567 566
f 121 567 120
f 121 568 567
f 122 568 121
f 122 569 568
f 123 569 122
f 123 570 569
f 124 570 123
f 124 571 570
f 125 571 124
f 125 572 571
f 126 572 125
f 126 573 572
f 127 573 126
f 127 574 573
f 128 574 127
f 128 575 574
f 129 575 128
f 129 576 575
f 130 576 129
f 130 577 576
f 131 577 130
f 131 578 577
f 132 578 131
f 132 579 578
f 133 579 132
f 133 580 579
f 134 580 133
f 134 581 580
f 135 581 134
f 135 582 581
f 136 582 135
f 136 583 582
f 137 583 136
f 137 584 583
f 138 584 137
f 138 585 584
f 139 585 138
f 139 586 585
f 140 586 139
f 140 587 586
f 141 587 140
f 141 588 587
f 142 588 141
f 142 589 588
f 143 589 142
f 143 590 589
f 144 590 143
f 144 591 590
f 145 591 144
f 145 592 591
f 146 592 145
f 146 593 592
f 147 593 146
f 147 594 593
f 148 594 147
f 148 595 594
f 149 595 148
f 149 596 595
f 150 596 149
f 150 597 596
f 151 597 150
f 151 598 597
f 152 598 151
f 152 599 598
f 153 599 152
f 153 600 599
f 154 600 153
f 154 601 600
f 155 601 154
f 155 602 601
f 156 602 155
f 156 603 602
f 157 603 156
f 157 604 603
f 158 604 157
f 158 605 604
f 159 605 158
f 159 606 605
f 160 606 159
f 160 607 606
f 161 607 160
f 161 608 607
f 162 608 161
f 162 609 608
f 163 609 162
f 163 610 609
f 164 610 163
f 164 611 610
f 165 611 164
f 165 612 611
f 166 612 165
f 166 613 612
f 167 613 166
f 167 614 613
f 168 614 167
f 168 615 614
f 169 615 168
f 169 616 615
f 170 616 169
f 170 617 616
f 171 617 170
f 171 618 617
f 172 618 171
f 172 619 618
f 173 619 172
f 173 620 619
f 174 620 173
f 174 621 620
f 175 621 174
f 175 622 621
f 176 622 175
f 176 623 622
f 177 623 176
f 177 624 623
f 178 624 177
f 178 625 624
f 179 625 178
f 179 626 625
f 180 626 179
f 180 627 626
f 181 627 180
f 181 628 627
f 182 628 181
f 182 629 628
f 183 629 182
f 183 630 629
f 184 630 183
f 184 631 630
f 185 631 184
f 185 632 631
f 186 632 185
f 186 633 632
f 187 633 186
f 187 634 633
f 188 634 187
f 188 635 634
f 189 635 188
f 189 636 635
f 190 636 189
f 190 637 636
f 191 637 190
f 191 638 637
f 192 638 191
f 192 639 638
f 193 639 192
f 193 640 639
f 194 640 193
f 194 641 640
f 195 641 194
f 195 642 641
f 196 642 195
f 196 643 642
f 197 643 196
f 197 644 643
f 198 644 197
f 198 645 644
f 199 645 198
f 199 646 645
f 200 646 199
f 200 647 646
f 201 647 200
f 201 648 647
f 202 648 201
f 202 649 648
f 203 649 202
f 203 650 649
f 204 650 203
f 204 651 650
f 205 651 204
f 205 652 651
f 206 652 205
f 206 653 652
f 207 653 206
f 207 654 653
f 208 654 207
f 208 655 654
f 209 655 208
f 209 656 655
f 210 656 209
f 210 657 656
f 211 657 210
f 211 658 657
f 212 658 211
f 212 659 658
f 213 659 212
f 213 660 659
f 214 660 213
f 214 661 660
f 215 661 214
f 215 662 661
f 216 662 215
f 216 663 662
f 217 663 216
f 217 664 663
f 218 664 217
f 218 665 664
f 219 665 218
f 219 666 665
f 220 666 219
f 220 667 666
f 221 667 220
f 221 668 667
f 222 668 221
f 222 669 668
f 223 669 222
f 223 670 669
f 224 670 223
f 224 671 670
f 225 671 224
f 225 672 671
f 226 672 225
f 226 673 672
f 227 673 226
f 227 674 673
f 228 674 227
f 228 675 674
f 229 675 228
f 229 676 675
f 230 676 229
f 230 677 676
f 231 677 230
f 231 678 677
f 232 678 231
f 232 679 678
f 233 679 232
f 233 680 679
f 234 680 233
f 234 681 680
f 235 681 234
f 235 682 681
f 236 682 235
f 236 683 682
f 237 683 236
f 237 684 683
f 238 684 237
f 238 685 684
f 239 685 238
f 239 686 685
f 240 686 239
f 240 687 686
f 241 687 240
f 241 688 687
f 242 688 241
f 242 689 688
f 243 689 242
f 243 690 689
f 244 690 243
f 244 691 690
f 245 691 244
f 245 692 691
f 246 692 245
f 246 693 692
f 247 693 246
f 247 694 693
f 248 694 247
f 248 695 694
f 249 695 248
f 249 696 695
f 250 696 249
f 250 697 696
f 251 697 250
f 251 698 697
f 252 698 251
f 252 699 698
f 253 699 252
f 253 700 699
f 254 700 253
f 254 701 700
f 255 701 254
f 255 702 701
f 256 702 255
f 256 703 702
f 257 703 256
f 257 704 703
f 258 704 257
f 258 705 704
f 259 705 258
f 259 706 705
f 260 706 259
f 260 707 706
f 261 707 260
f 261 708 707
f 262 708 261
f 262 709 708
f 263 709 262
f 263 710 709
f 264 710 263
f 264 711 710
f 265 711 264
f 265 712 711
f 266 712 265
f 266 713 712
f 267 713 266
f 267 714 713
f 268 714 267
f 268 715 714
f 269 715 268
f 269 716 715
f 270 716 269
f 270 717 716
f 271 717 270
f 271 718 717
f 272 718 271
f 272 719 718
f 273 719 272
f 274 447 720
f 1 447 274
f 273 720 719
f 274 720 273
f 275 722 721
f 276 722 275
f 276 723 722
f 277 723 276
f 277 724 723
f 278 724 277
f 278 725 724
f 279 725 278
f 279 726 725
f 280 726 279
f 280 727 726
f 281 727 280
f 281 728 727
f 282 728 281
f 282 729 728
f 283 729 282
f 283 730 729
f 284 730 283
f 284 731 730
f 285 731 284
f 285 732 731
f 286 732 285
f 286 733 732
f 287 733 286
f 287 734 733
f 288 734 287
f 288 735 734
f 289 735 288
f 289 736 735
f 290 736 289
f 290 737 736
f 291 737 290
f 291 738 737
f 292 738 291
f 292 739 738
f 293 739 292
f 293 740 739
f 294 740 293
f 294 741 740
f 295 741 294
f 295 742 741
f 296 742 295
f 296 743 742
f 297 743 296
f 297 744 743
f 298 744 297
f 298 745 744
f 299 745 298
f 299 746 745
f 300 746 299
f 300 747 746
f 301 747 300
f 301 748 747
f 302 748 301
f 302 749 748
f 303 749 302
f 303 750 749
f 304 750 303
f 304 751 750
f 305 751 304
f 305 752 751
f 306 752 305
f 306 753 752
f 307 753 306
f 307 754 753
f 308 754 307
f 308 755 754
f 309 755 308
f 309 756 755
f 310 756 309
f 310 757 756
f 311 757 310
f 311 758 757
f 312 758 311
f 312 759 758
f 313 759 312
f 313 760 759
f 314 760 313
f 314 761 760
f 315 761 314
f 315 762 761
f 316 762 315
f 316 763 762
f 317 763 316
f 318 721 764
f 275 721 318
f 317 764 763
f 318 764 317
f 319 766 765
f 320 766 319
f 320 767 766
f 321 767 320
f 321 768 767
f 322 768 321
f 322 769 768
f 323 769 322
f 323 770 769
f 324 770 323
f 324 771 770
f 325 771 324
f 325 772 771
f 326 772 325
f 326 773 772
f 327 773 326
f 327 774 773
f 328 774 327
f 328 775 774
f 329 775 328
f 329 776 775
f 330 776 329
f 330 777 776
f 331 777 330
f 331 778 777
f 332 778 331
f 332 779 778
f 333 779 332
f 333 780 779
f 334 780 333
f 334 781 780
f 335 781 334
f 335 782 781
f 336 782 335
f 336 783 782
f 337 783 336
f 337 784 783
f 338 784 337
f 338 785 784
f 339 785 338
f 339 786 785
f 340 786 339
f 340 787 786
f 341 787 340
f 341 788 787
f 342 788 341
f 342 789 788
f 343 789 342
f 343 790 789
f 344 790 343
f 344 791 790
f 345 791 344
f 345 792 791
f 346 792 345
f 346 793 792
f 347 793 346
f 347 794 793
f 348 794 347
f 348 795 794
f 349 795 348
f 350 765 796
f 319 765 350
f 349 796 795
f 350 796 349
f 351 798 797
f 352 798 351
f 352 799 798
f 353 799 352
f 353 800 799
f 354 800 353
f 354 801 800
f 355 801 354
f 355 802 801
f 356 802 355
f 356 803 802
f 357 803 356
f 357 804 803
f 358 804 357
f 358 805 804
f 359 805 358
f 359 806 805
f 360 806 359
f 360 807 806
f 361 807 360
f 361 808 807
f 362 808 361
f 362 809 808
f 363 809 362
f 363 810 809
f 364 810 363
f 364 811 810
f 365 811 364
f 365 812 811
f 366 812 365
f 366 813 812
f 367 813 366
f 367 814 813
f 368 814 367
f 368 815 814
f 369 815 368
f 369 816 815
f 370 816 369
f 370 817 816
f 371 817 370
f 371 818 817
f 372 818 371
f 372 819 818
f 373 819 372
f 373 820 819
f 374 820 373
f 374 821 820
f 375 821 374
f 375 822 821
f 376 822 375
f 376 823 822
f 377 823 376
f 377 824 823
f 378 824 377
f 378 825 824
f 379 825 378
f 379 826 825
f 380 826 379
f 380 827 826
f 381 827 380
f 382 797 828
f 351 797 382
f 381 828 827
f 382 828 381
f 383 830 829
f 384 830 383
f 384 831 830
f 385 831 384
f 385 832 831
f 386 832 385
f 386 833 832
f 387 833 386
f 387 834 833
f 388 834 387
f 388 835 834
f 389 835 388
f 389 836 835
f 390 836 389
f 390 837 836
f 391 837 390
f 391 838 837
f 392 838 391
f 392 839 838
f 393 839 392
f 393 840 839
f 394 840 393
f 394 841 840
f 395 841 394
f 395 842 841
f 396 842 395
f 396 843 842
f 397 843 396
f 397 844 843
f 398 844 397
f 398 845 844
f 399 845 398
f 399 846 845
f 400 846 399
f 400 847 846
f 401 847 400
f 401 848 847
f 402 848 401
f 402 849 848
f 403 849 402
f 403 850 849
f 404 850 403
f 404 851 850
f 405 851 404
f 405 852 851
f 406 852 405
f 406 853 852
f 407 853 406
f 407 854 853
f 408 854 407
f 408 855 854
f 409 855 408
f 409 856 855
f 410 856 409
f 410 857 856
f 411 857 410
f 411 858 857
f 412 858 411
f 412 859 858
f 413 859 412
f 414 829 860
f 383 829 414
f 413 860 859
f 414 860 413
f 415 862 861
f 416 862 415
f 416 863 862
f 417 863 416
f 417 864 863
f 418 864 417
f 418 865 864
f 419 865 418
f 419 866 865
f 420 866 419
f 420 867 866
f 421 867 420
f 421 868 867
f 422 868 421
f 422 869 868
f 423 869 422
f 423 870 869
f 424 870 423
f 424 871 870
f 425 871 424
f 425 872 871
f 426 872 425
f 426 873 872
f 427 873 426
f 427 874 873
f 428 874 427
f 428 875 874
f 429 875 428
f 429 876 875
f 430 876 429
f 430 877 876
f 431 877 430
f 431 878 877
f 432 878 431
f 432 879 878
f 433 879 432
f 433 880 879
f 434 880 433
f 434 881 880
f 435 881 434
f 435 882 881
f 436 882 435
f 436 883 882
f 437 883 436
f 437 884 883
f 438 884 437
f 438 885 884
f 439 885 438
f 439 886 885
f 440 886 439
f 440 887 886
f 441 887 440
f 441 888 887
f 442 888 441
f 442 889 888
f 443 889 442
f 443 890 889
f 444 890 443
f 444 891 890
f 445 891 444
f 446 861 892
f 415 861 446
f 445 892 891
f 446 892 445

