# https://github.com/mikedh/trimesh

o mark_streak
v -0.02702398 0.07568299 0.00000000
v -0.03088691 0.08271627 0.00000000
v -0.03495277 0.08930020 0.00000000
v -0.04156418 0.09881090 0.00000000
v -0.04668108 0.10545867 0.00000000
v -0.05454360 0.11482316 0.00000000
v -0.06933365 0.13054651 0.00000000
v -0.07253559 0.13301086 0.00000000
v -0.07435593 0.13389765 0.00000000
v -0.07827011 0.13489991 0.00000000
v -0.08029263 0.13499714 0.00000000
v -0.08428490 0.13437496 0.00000000
v -0.08618192 0.13366689 0.00000000
v -0.08960548 0.13152106 0.00000000
v -0.09106965 0.13012239 0.00000000
v -0.09336983 0.12680057 0.00000000
v -0.09964972 0.11501705 0.00000000
v -0.10814337 0.10080063 0.00000000
v -0.13409685 0.06131764 0.00000000
v -0.14509396 0.04354711 0.00000000
v -0.15030485 0.03426526 0.00000000
v -0.15522535 0.02464780 0.00000000
v -0.15977763 0.01464478 0.00000000
v -0.16378322 0.00448283 0.00000000
v -0.16745716 -0.00669449 0.00000000
v -0.17042480 -0.01810541 0.00000000
v -0.17270918 -0.03005202 0.00000000
v -0.17424008 -0.04256165 0.00000000
v -0.17494600 -0.05532955 0.00000000
v -0.17483744 -0.06752209 0.00000000
v -0.17392631 -0.07934807 0.00000000
v -0.17227444 -0.09076082 0.00000000
v -0.16995338 -0.10172005 0.00000000
v -0.16795683 -0.10914485 0.00000000
v -0.16299559 -0.12369572 0.00000000
v -0.15662979 -0.13805011 0.00000000
v -0.15131517 -0.14791149 0.00000000
v -0.14730768 -0.15447305 0.00000000
v -0.13824618 -0.16729727 0.00000000
v -0.13339980 -0.17326608 0.00000000
v -0.12587963 -0.18156902 0.00000000
v -0.11447551 -0.19236340 0.00000000
v -0.10577226 -0.19941643 0.00000000
v -0.09954642 -0.20392783 0.00000000
v -0.08624408 -0.21227169 0.00000000
v -0.07632492 -0.21747766 0.00000000
v -0.06933417 -0.22067820 0.00000000
v -0.05465198 -0.22624642 0.00000000
v -0.04729699 -0.22848651 0.00000000
v -0.03642019 -0.23116741 0.00000000
v -0.02093025 -0.23374301 0.00000000
v -0.01327852 -0.23449467 0.00000000
v -0.00208701 -0.23498672 0.00000000
v 0.01360708 -0.23446935 0.00000000
v 0.02474188 -0.23324130 0.00000000
v 0.03232749 -0.23198734 0.00000000
v 0.04761417 -0.22839715 0.00000000
v 0.06220959 -0.22356857 0.00000000
v 0.06933417 -0.22067820 0.00000000
v 0.07947243 -0.21591294 0.00000000
v 0.09284926 -0.20833653 0.00000000
v 0.10550954 -0.19961536 0.00000000
v 0.11759982 -0.18959551 0.00000000
v 0.12851980 -0.17877445 0.00000000
v 0.13585576 -0.17030829 0.00000000
v 0.14056985 -0.16423447 0.00000000
v 0.14917544 -0.15149534 0.00000000
v 0.15677649 -0.13775504 0.00000000
v 0.16299559 -0.12369572 0.00000000
v 0.16563608 -0.11647479 0.00000000
v 0.16891001 -0.10576156 0.00000000
v 0.17227444 -0.09076082 0.00000000
v 0.17430937 -0.07552269 0.00000000
v 0.17499909 -0.06016476 0.00000000
v 0.17446515 -0.04325578 0.00000000
v 0.17334640 -0.03080007 0.00000000
v 0.17100501 -0.01508762 0.00000000
v 0.16778712 -0.00023390 0.00000000
v 0.16358513 0.01449489 0.00000000
v 0.15872900 0.02821919 0.00000000
v 0.15299593 0.04182573 0.00000000
v 0.14670114 0.05473779 0.00000000
v 0.13804556 0.07025717 0.00000000
v 0.13248776 0.07927331 0.00000000
v 0.12471484 0.09099362 0.00000000
v 0.10823176 0.11353244 0.00000000
v 0.09298501 0.13272046 0.00000000
v 0.05532693 0.17838331 0.00000000
v 0.03823610 0.20029148 0.00000000
v 0.02411554 0.22008681 0.00000000
v 0.01170881 0.23937570 0.00000000
v 0.01039549 0.24081360 0.00000000
v 0.00726827 0.24312145 0.00000000
v 0.00550709 0.24395248 0.00000000
v 0.00173752 0.24489903 0.00000000
v -0.00020734 0.24499857 0.00000000
v -0.00405385 0.24444182 0.00000000
v -0.00589067 0.24379493 0.00000000
v -0.00923716 0.24181841 0.00000000
v -0.01069043 0.24052210 0.00000000
v -0.01303494 0.23742229 0.00000000
v -0.01388667 0.23567101 0.00000000
v -0.01487753 0.23191285 0.00000000
v -0.01487969 0.21355838 0.00000000
v -0.01389261 0.15400578 0.00000000
v -0.01407007 0.13543297 0.00000000
v -0.01463250 0.12122710 0.00000000
v -0.01601978 0.10443886 0.00000000
v -0.01778264 0.09190162 0.00000000
v -0.02020521 0.08026262 0.00000000
v -0.02368339 0.06866668 0.00000000
v -0.06785671 0.08384989 0.00000000
v -0.06184596 0.07556687 0.00000000
v -0.05670906 0.06744371 0.00000000
v -0.05248556 0.05951107 0.00000000
v -0.05019062 0.05434273 0.00000000
v -0.04753784 0.04678513 0.00000000
v -0.04546838 0.03706849 0.00000000
v -0.04482518 0.02771658 0.00000000
v -0.04440103 0.02580353 0.00000000
v -0.04282689 0.02222369 0.00000000
v -0.04170376 0.02061800 0.00000000
v -0.03888090 0.01791159 0.00000000
v -0.03722934 0.01685707 0.00000000
v -0.03358640 0.01543505 0.00000000
v -0.03165718 0.01509182 0.00000000
v -0.02969969 0.01500301 0.00000000
v -0.02583339 0.01559030 0.00000000
v -0.02399057 0.01625639 0.00000000
v -0.02064228 0.01827682 0.00000000
v -0.01491204 0.02421515 0.00000000
v -0.01032419 0.02996309 0.00000000
v -0.00650672 0.03554607 0.00000000
v -0.00171570 0.04393671 0.00000000
v 0.00137022 0.05045923 0.00000000
v 0.00494161 0.05961029 0.00000000
v 0.00714326 0.06649366 0.00000000
v 0.00974910 0.07656392 0.00000000
v 0.01176167 0.08669119 0.00000000
v 0.01334930 0.09737195 0.00000000
v 0.01531534 0.11945745 0.00000000
v 0.01609447 0.14624323 0.00000000
v 0.01576398 0.18026271 0.00000000
v 0.03420703 0.15679203 0.00000000
v 0.07402015 0.10847184 0.00000000
v 0.09045824 0.08730583 0.00000000
v 0.10003493 0.07393766 0.00000000
v 0.10894740 0.06035984 0.00000000
v 0.11709512 0.04648511 0.00000000
v 0.12299865 0.03511008 0.00000000
v 0.12703711 0.02638550 0.00000000
v 0.13072059 0.01747019 0.00000000
v 0.13601878 0.00212158 0.00000000
v 0.14018647 -0.01394380 0.00000000
v 0.14312573 -0.03085431 0.00000000
v 0.14472850 -0.04874271 0.00000000
v 0.14485915 -0.06636897 0.00000000
v 0.14443959 -0.07272565 0.00000000
v 0.14328788 -0.08221079 0.00000000
v 0.14217401 -0.08848316 0.00000000
v 0.13998944 -0.09778488 0.00000000
v 0.13719699 -0.10692252 0.00000000
v 0.13500354 -0.11290351 0.00000000
v 0.13122621 -0.12167996 0.00000000
v 0.12839033 -0.12738444 0.00000000
v 0.12530661 -0.13295884 0.00000000
v 0.12022949 -0.14105313 0.00000000
v 0.11265204 -0.15129215 0.00000000
v 0.10639498 -0.15851317 0.00000000
v 0.10196517 -0.16309142 0.00000000
v 0.09495421 -0.16958301 0.00000000
v 0.09004922 -0.17364803 0.00000000
v 0.08236887 -0.17933191 0.00000000
v 0.07704782 -0.18283473 0.00000000
v 0.07157803 -0.18610045 0.00000000
v 0.06311768 -0.19054079 0.00000000
v 0.05732286 -0.19318719 0.00000000
v 0.04842671 -0.19667330 0.00000000
v 0.03624490 -0.20039603 0.00000000
v 0.02691975 -0.20247829 0.00000000
v 0.02063552 -0.20352322 0.00000000
v 0.00795977 -0.20478046 0.00000000
v -0.00477740 -0.20492037 0.00000000
v -0.01431146 -0.20429109 0.00000000
v -0.02063552 -0.20352322 0.00000000
v -0.02691975 -0.20247829 0.00000000
v -0.03624490 -0.20039603 0.00000000
v -0.04842671 -0.19667330 0.00000000
v -0.05732286 -0.19318719 0.00000000
v -0.06311768 -0.19054079 0.00000000
v -0.07433086 -0.18449764 0.00000000
v -0.08497041 -0.17749369 0.00000000
v -0.09004922 -0.17364803 0.00000000
v -0.09733856 -0.16747066 0.00000000
v -0.10639498 -0.15851317 0.00000000
v -0.11463031 -0.14879544 0.00000000
v -0.12198100 -0.13839243 0.00000000
v -0.12530661 -0.13295884 0.00000000
v -0.12983960 -0.12454777 0.00000000
v -0.13500354 -0.11290351 0.00000000
v -0.13912562 -0.10085096 0.00000000
v -0.14217401 -0.08848316 0.00000000
v -0.14412519 -0.07589555 0.00000000
v -0.14496410 -0.06318525 0.00000000
v -0.14462703 -0.04869083 0.00000000
v -0.14305000 -0.03456431 0.00000000
v -0.14036313 -0.02135768 0.00000000
v -0.13769220 -0.01194656 0.00000000
v -0.13334222 0.00008153 0.00000000
v -0.12818260 0.01165922 0.00000000
v -0.12231451 0.02292775 0.00000000
v -0.11242337 0.03952863 0.00000000
v -0.08651012 0.07891181 0.00000000
v -0.07676671 0.09465875 0.00000000
v -0.02702398 0.07568299 0.02000000
v -0.03088691 0.08271627 0.02000000
v -0.03495277 0.08930020 0.02000000
v -0.04156418 0.09881090 0.02000000
v -0.04668108 0.10545867 0.02000000
v -0.05454360 0.11482316 0.02000000
v -0.06933365 0.13054651 0.02000000
v -0.07253559 0.13301086 0.02000000
v -0.07435593 0.13389765 0.02000000
v -0.07827011 0.13489991 0.02000000
v -0.08029263 0.13499714 0.02000000
v -0.08428490 0.13437496 0.02000000
v -0.08618192 0.13366689 0.02000000
v -0.08960548 0.13152106 0.02000000
v -0.09106965 0.13012239 0.02000000
v -0.09336983 0.12680057 0.02000000
v -0.09964972 0.11501705 0.02000000
v -0.10814337 0.10080063 0.02000000
v -0.13409685 0.06131764 0.02000000
v -0.14509396 0.04354711 0.02000000
v -0.15030485 0.03426526 0.02000000
v -0.15522535 0.02464780 0.02000000
v -0.15977763 0.01464478 0.02000000
v -0.16378322 0.00448283 0.02000000
v -0.16745716 -0.00669449 0.02000000
v -0.17042480 -0.01810541 0.02000000
v -0.17270918 -0.03005202 0.02000000
v -0.17424008 -0.04256165 0.02000000
v -0.17494600 -0.05532955 0.02000000
v -0.17483744 -0.06752209 0.02000000
v -0.17392631 -0.07934807 0.02000000
v -0.17227444 -0.09076082 0.02000000
v -0.16995338 -0.10172005 0.02000000
v -0.16795683 -0.10914485 0.02000000
v -0.16299559 -0.12369572 0.02000000
v -0.15662979 -0.13805011 0.02000000
v -0.15131517 -0.14791149 0.02000000
v -0.14730768 -0.15447305 0.02000000
v -0.13824618 -0.16729727 0.02000000
v -0.13339980 -0.17326608 0.02000000
v -0.12587963 -0.18156902 0.02000000
v -0.11447551 -0.19236340 0.02000000
v -0.10577226 -0.19941643 0.02000000
v -0.09954642 -0.20392783 0.02000000
v -0.08624408 -0.21227169 0.02000000
v -0.07632492 -0.21747766 0.02000000
v -0.06933417 -0.22067820 0.02000000
v -0.05465198 -0.22624642 0.02000000
v -0.04729699 -0.22848651 0.02000000
v -0.03642019 -0.23116741 0.02000000
v -0.02093025 -0.23374301 0.02000000
v -0.01327852 -0.23449467 0.02000000
v -0.00208701 -0.23498672 0.02000000
v 0.01360708 -0.23446935 0.02000000
v 0.02474188 -0.23324130 0.02000000
v 0.03232749 -0.23198734 0.02000000
v 0.04761417 -0.22839715 0.02000000
v 0.06220959 -0.22356857 0.02000000
v 0.06933417 -0.22067820 0.02000000
v 0.07947243 -0.21591294 0.02000000
v 0.09284926 -0.20833653 0.02000000
v 0.10550954 -0.19961536 0.02000000
v 0.11759982 -0.18959551 0.02000000
v 0.12851980 -0.17877445 0.02000000
v 0.13585576 -0.17030829 0.02000000
v 0.14056985 -0.16423447 0.02000000
v 0.14917544 -0.15149534 0.02000000
v 0.15677649 -0.13775504 0.02000000
v 0.16299559 -0.12369572 0.02000000
v 0.16563608 -0.11647479 0.02000000
v 0.16891001 -0.10576156 0.02000000
v 0.17227444 -0.09076082 0.02000000
v 0.17430937 -0.07552269 0.02000000
v 0.17499909 -0.06016476 0.02000000
v 0.17446515 -0.04325578 0.02000000
v 0.17334640 -0.03080007 0.02000000
v 0.17100501 -0.01508762 0.02000000
v 0.16778712 -0.00023390 0.02000000
v 0.16358513 0.01449489 0.02000000
v 0.15872900 0.02821919 0.02000000
v 0.15299593 0.04182573 0.02000000
v 0.14670114 0.05473779 0.02000000
v 0.13804556 0.07025717 0.02000000
v 0.13248776 0.07927331 0.02000000
v 0.12471484 0.09099362 0.02000000
v 0.10823176 0.11353244 0.02000000
v 0.09298501 0.13272046 0.02000000
v 0.05532693 0.17838331 0.02000000
v 0.03823610 0.20029148 0.02000000
v 0.02411554 0.22008681 0.02000000
v 0.01170881 0.23937570 0.02000000
v 0.01039549 0.24081360 0.02000000
v 0.00726827 0.24312145 0.02000000
v 0.00550709 0.24395248 0.02000000
v 0.00173752 0.24489903 0.02000000
v -0.00020734 0.24499857 0.02000000
v -0.00405385 0.24444182 0.02000000
v -0.00589067 0.24379493 0.02000000
v -0.00923716 0.24181841 0.02000000
v -0.01069043 0.24052210 0.02000000
v -0.01303494 0.23742229 0.02000000
v -0.01388667 0.23567101 0.02000000
v -0.01487753 0.23191285 0.02000000
v -0.01487969 0.21355838 0.02000000
v -0.01389261 0.15400578 0.02000000
v -0.01407007 0.13543297 0.02000000
v -0.01463250 0.12122710 0.02000000
v -0.01601978 0.10443886 0.02000000
v -0.01778264 0.09190162 0.02000000
v -0.02020521 0.08026262 0.02000000
v -0.02368339 0.06866668 0.02000000
v -0.06785671 0.08384989 0.02000000
v -0.06184596 0.07556687 0.02000000
v -0.05670906 0.06744371 0.02000000
v -0.05248556 0.05951107 0.02000000
v -0.05019062 0.05434273 0.02000000
v -0.04753784 0.04678513 0.02000000
v -0.04546838 0.03706849 0.02000000
v -0.04482518 0.02771658 0.02000000
v -0.04440103 0.02580353 0.02000000
v -0.04282689 0.02222369 0.02000000
v -0.04170376 0.02061800 0.02000000
v -0.03888090 0.01791159 0.02000000
v -0.03722934 0.01685707 0.02000000
v -0.03358640 0.01543505 0.02000000
v -0.03165718 0.01509182 0.02000000
v -0.02969969 0.01500301 0.02000000
v -0.02583339 0.01559030 0.02000000
v -0.02399057 0.01625639 0.02000000
v -0.02064228 0.01827682 0.02000000
v -0.01491204 0.02421515 0.02000000
v -0.01032419 0.02996309 0.02000000
v -0.00650672 0.03554607 0.02000000
v -0.00171570 0.04393671 0.02000000
v 0.00137022 0.05045923 0.02000000
v 0.00494161 0.05961029 0.02000000
v 0.00714326 0.06649366 0.02000000
v 0.00974910 0.07656392 0.02000000
v 0.01176167 0.08669119 0.02000000
v 0.01334930 0.09737195 0.02000000
v 0.01531534 0.11945745 0.02000000
v 0.01609447 0.14624323 0.02000000
v 0.01576398 0.18026271 0.02000000
v 0.03420703 0.15679203 0.02000000
v 0.07402015 0.10847184 0.02000000
v 0.09045824 0.08730583 0.02000000
v 0.10003493 0.07393766 0.02000000
v 0.10894740 0.06035984 0.02000000
v 0.11709512 0.04648511 0.02000000
v 0.12299865 0.03511008 0.02000000
v 0.12703711 0.02638550 0.02000000
v 0.13072059 0.01747019 0.02000000
v 0.13601878 0.00212158 0.02000000
v 0.14018647 -0.01394380 0.02000000
v 0.14312573 -0.03085431 0.02000000
v 0.14472850 -0.04874271 0.02000000
v 0.14485915 -0.06636897 0.02000000
v 0.14443959 -0.07272565 0.02000000
v 0.14328788 -0.08221079 0.02000000
v 0.14217401 -0.08848316 0.02000000
v 0.13998944 -0.09778488 0.02000000
v 0.13719699 -0.10692252 0.02000000
v 0.13500354 -0.11290351 0.02000000
v 0.13122621 -0.12167996 0.02000000
v 0.12839033 -0.12738444 0.02000000
v 0.12530661 -0.13295884 0.02000000
v 0.12022949 -0.14105313 0.02000000
v 0.11265204 -0.15129215 0.02000000
v 0.10639498 -0.15851317 0.02000000
v 0.10196517 -0.16309142 0.02000000
v 0.09495421 -0.16958301 0.02000000
v 0.09004922 -0.17364803 0.02000000
v 0.08236887 -0.17933191 0.02000000
v 0.07704782 -0.18283473 0.02000000
v 0.07157803 -0.18610045 0.02000000
v 0.06311768 -0.19054079 0.02000000
v 0.05732286 -0.19318719 0.02000000
v 0.04842671 -0.19667330 0.02000000
v 0.03624490 -0.20039603 0.02000000
v 0.02691975 -0.20247829 0.02000000
v 0.02063552 -0.20352322 0.02000000
v 0.00795977 -0.20478046 0.02000000
v -0.00477740 -0.20492037 0.02000000
v -0.01431146 -0.20429109 0.02000000
v -0.02063552 -0.20352322 0.02000000
v -0.02691975 -0.20247829 0.02000000
v -0.03624490 -0.20039603 0.02000000
v -0.04842671 -0.19667330 0.02000000
v -0.05732286 -0.19318719 0.02000000
v -0.06311768 -0.19054079 0.02000000
v -0.07433086 -0.18449764 0.02000000
v -0.08497041 -0.17749369 0.02000000
v -0.09004922 -0.17364803 0.02000000
v -0.09733856 -0.16747066 0.02000000
v -0.10639498 -0.15851317 0.02000000
v -0.11463031 -0.14879544 0.02000000
v -0.12198100 -0.13839243 0.02000000
v -0.12530661 -0.13295884 0.02000000
v -0.12983960 -0.12454777 0.02000000
v -0.13500354 -0.11290351 0.02000000
v -0.13912562 -0.10085096 0.02000000
v -0.14217401 -0.08848316 0.02000000
v -0.14412519 -0.07589555 0.02000000
v -0.14496410 -0.06318525 0.02000000
v -0.14462703 -0.04869083 0.02000000
v -0.14305000 -0.03456431 0.02000000
v -0.14036313 -0.02135768 0.02000000
v -0.13769220 -0.01194656 0.02000000
v -0.13334222 0.00008153 0.02000000
v -0.12818260 0.01165922 0.02000000
v -0.12231451 0.02292775 0.02000000
v -0.11242337 0.03952863 0.02000000
v -0.08651012 0.07891181 0.02000000
v -0.07676671 0.09465875 0.02000000
f 29 204 203
f 29 203 202
f 29 202 201
f 29 201 200
f 29 200 199
f 29 199 198
f 29 198 197
f 145 144 143
f 143 142 141
f 143 141 140
f 143 140 139
f 143 139 138
f 143 138 137
f 143 137 136
f 143 136 135
f 143 135 134
f 143 134 133
f 143 133 132
f 143 132 131
f 143 131 130
f 143 130 129
f 143 129 128
f 143 128 127
f 143 127 126
f 143 126 125
f 143 125 124
f 143 124 123
f 123 122 121
f 123 121 120
f 123 120 119
f 123 119 118
f 123 118 117
f 214 213 212
f 205 204 29
f 205 29 28
f 205 28 27
f 205 27 26
f 205 26 25
f 205 25 24
f 205 24 23
f 205 23 22
f 205 22 21
f 205 21 20
f 205 20 19
f 17 16 15
f 17 15 14
f 17 14 13
f 17 13 12
f 17 12 11
f 17 11 10
f 17 10 9
f 17 9 8
f 17 8 7
f 17 7 6
f 17 6 5
f 17 5 4
f 17 4 3
f 17 3 2
f 17 2 1
f 17 1 111
f 105 104 103
f 105 103 102
f 105 102 101
f 105 101 100
f 105 100 99
f 105 99 98
f 105 98 97
f 105 97 96
f 105 96 95
f 105 95 94
f 105 94 93
f 105 93 92
f 105 92 91
f 105 91 90
f 105 90 89
f 88 87 86
f 88 86 85
f 88 85 84
f 88 84 83
f 88 83 82
f 88 82 81
f 88 81 80
f 88 80 79
f 88 79 78
f 88 78 77
f 88 77 76
f 88 76 75
f 88 75 74
f 74 73 72
f 74 72 71
f 74 71 70
f 74 70 69
f 74 69 68
f 74 68 67
f 74 67 66
f 74 66 65
f 74 65 64
f 74 64 63
f 74 63 62
f 74 62 61
f 74 61 60
f 74 60 59
f 59 58 57
f 59 57 56
f 59 56 55
f 59 55 54
f 59 54 53
f 59 53 52
f 59 52 51
f 59 51 50
f 59 50 49
f 59 49 48
f 59 48 47
f 59 47 46
f 59 46 45
f 59 45 44
f 59 44 43
f 59 43 42
f 42 41 40
f 42 40 39
f 42 39 38
f 42 38 37
f 42 37 36
f 42 36 35
f 42 35 34
f 42 34 33
f 42 33 32
f 42 32 31
f 42 31 30
f 42 30 29
f 42 29 197
f 42 197 196
f 42 196 195
f 42 195 194
f 42 194 193
f 42 193 192
f 42 192 191
f 42 191 190
f 42 190 189
f 42 189 188
f 42 188 187
f 42 187 186
f 42 186 185
f 42 185 184
f 206 205 19
f 89 88 74
f 59 42 184
f 59 184 183
f 59 183 182
f 59 182 181
f 59 181 180
f 59 180 179
f 59 179 178
f 59 178 177
f 59 177 176
f 59 176 175
f 59 175 174
f 59 174 173
f 59 173 172
f 59 172 171
f 59 171 170
f 59 170 169
f 59 169 168
f 59 168 167
f 207 206 19
f 207 19 18
f 74 59 167
f 74 167 166
f 74 166 165
f 74 165 164
f 74 164 163
f 74 163 162
f 74 162 161
f 74 161 160
f 74 160 159
f 74 159 158
f 74 158 157
f 74 157 156
f 74 156 155
f 74 155 154
f 74 154 153
f 74 153 152
f 74 152 151
f 74 151 150
f 74 150 149
f 208 207 18
f 208 18 17
f 89 74 149
f 89 149 148
f 89 148 147
f 89 147 146
f 89 146 145
f 89 145 143
f 209 208 17
f 105 89 143
f 210 209 17
f 106 105 143
f 211 210 17
f 107 106 143
f 212 211 17
f 108 107 143
f 214 212 17
f 214 17 111
f 109 108 143
f 112 214 111
f 110 109 143
f 110 143 123
f 113 112 111
f 111 110 123
f 111 123 117
f 111 117 116
f 111 116 115
f 111 115 114
f 111 114 113
f 417 418 243
f 416 417 243
f 415 416 243
f 414 415 243
f 413 414 243
f 412 413 243
f 411 412 243
f 357 358 359
f 355 356 357
f 354 355 357
f 353 354 357
f 352 353 357
f 351 352 357
f 350 351 357
f 349 350 357
f 348 349 357
f 347 348 357
f 346 347 357
f 345 346 357
f 344 345 357
f 343 344 357
f 342 343 357
f 341 342 357
f 340 341 357
f 339 340 357
f 338 339 357
f 337 338 357
f 335 336 337
f 334 335 337
f 333 334 337
f 332 333 337
f 331 332 337
f 426 427 428
f 243 418 419
f 242 243 419
f 241 242 419
f 240 241 419
f 239 240 419
f 238 239 419
f 237 238 419
f 236 237 419
f 235 236 419
f 234 235 419
f 233 234 419
f 229 230 231
f 228 229 231
f 227 228 231
f 226 227 231
f 225 226 231
f 224 225 231
f 223 224 231
f 222 223 231
f 221 222 231
f 220 221 231
f 219 220 231
f 218 219 231
f 217 218 231
f 216 217 231
f 215 216 231
f 325 215 231
f 317 318 319
f 316 317 319
f 315 316 319
f 314 315 319
f 313 314 319
f 312 313 319
f 311 312 319
f 310 311 319
f 309 310 319
f 308 309 319
f 307 308 319
f 306 307 319
f 305 306 319
f 304 305 319
f 303 304 319
f 300 301 302
f 299 300 302
f 298 299 302
f 297 298 302
f 296 297 302
f 295 296 302
f 294 295 302
f 293 294 302
f 292 293 302
f 291 292 302
f 290 291 302
f 289 290 302
f 288 289 302
f 286 287 288
f 285 286 288
f 284 285 288
f 283 284 288
f 282 283 288
f 281 282 288
f 280 281 288
f 279 280 288
f 278 279 288
f 277 278 288
f 276 277 288
f 275 276 288
f 274 275 288
f 273 274 288
f 271 272 273
f 270 271 273
f 269 270 273
f 268 269 273
f 267 268 273
f 266 267 273
f 265 266 273
f 264 265 273
f 263 264 273
f 262 263 273
f 261 262 273
f 260 261 273
f 259 260 273
f 258 259 273
f 257 258 273
f 256 257 273
f 254 255 256
f 253 254 256
f 252 253 256
f 251 252 256
f 250 251 256
f 249 250 256
f 248 249 256
f 247 248 256
f 246 247 256
f 245 246 256
f 244 245 256
f 243 244 256
f 411 243 256
f 410 411 256
f 409 410 256
f 408 409 256
f 407 408 256
f 406 407 256
f 405 406 256
f 404 405 256
f 403 404 256
f 402 403 256
f 401 402 256
f 400 401 256
f 399 400 256
f 398 399 256
f 233 419 420
f 288 302 303
f 398 256 273
f 397 398 273
f 396 397 273
f 395 396 273
f 394 395 273
f 393 394 273
f 392 393 273
f 391 392 273
f 390 391 273
f 389 390 273
f 388 389 273
f 387 388 273
f 386 387 273
f 385 386 273
f 384 385 273
f 383 384 273
f 382 383 273
f 381 382 273
f 233 420 421
f 232 233 421
f 381 273 288
f 380 381 288
f 379 380 288
f 378 379 288
f 377 378 288
f 376 377 288
f 375 376 288
f 374 375 288
f 373 374 288
f 372 373 288
f 371 372 288
f 370 371 288
f 369 370 288
f 368 369 288
f 367 368 288
f 366 367 288
f 365 366 288
f 364 365 288
f 363 364 288
f 232 421 422
f 231 232 422
f 363 288 303
f 362 363 303
f 361 362 303
f 360 361 303
f 359 360 303
f 357 359 303
f 231 422 423
f 357 303 319
f 231 423 424
f 357 319 320
f 231 424 425
f 357 320 321
f 231 425 426
f 357 321 322
f 231 426 428
f 325 231 428
f 357 322 323
f 325 428 326
f 357 323 324
f 337 357 324
f 325 326 327
f 337 324 325
f 331 337 325
f 330 331 325
f 329 330 325
f 328 329 325
f 327 328 325
f 1 216 215
f 2 216 1
f 2 217 216
f 3 217 2
f 3 218 217
f 4 218 3
f 4 219 218
f 5 219 4
f 5 220 219
f 6 220 5
f 6 221 220
f 7 221 6
f 7 222 221
f 8 222 7
f 8 223 222
f 9 223 8
f 9 224 223
f 10 224 9
f 10 225 224
f 11 225 10
f 11 226 225
f 12 226 11
f 12 227 226
f 13 227 12
f 13 228 227
f 14 228 13
f 14 229 228
f 15 229 14
f 15 230 229
f 16 230 15
f 16 231 230
f 17 231 16
f 17 232 231
f 18 232 17
f 18 233 232
f 19 233 18
f 19 234 233
f 20 234 19
f 20 235 234
f 21 235 20
f 21 236 235
f 22 236 21
f 22 237 236
f 23 237 22
f 23 238 237
f 24 238 23
f 24 239 238
f 25 239 24
f 25 240 239
f 26 240 25
f 26 241 240
f 27 241 26
f 27 242 241
f 28 242 27
f 28 243 242
f 29 243 28
f 29 244 243
f 30 244 29
f 30 245 244
f 31 245 30
f 31 246 245
f 32 246 31
f 32 247 246
f 33 247 32
f 33 248 247
f 34 248 33
f 34 249 248
f 35 249 34
f 35 250 249
f 36 250 35
f 36 251 250
f 37 251 36
f 37 252 251
f 38 252 37
f 38 253 252
f 39 253 38
f 39 254 253
f 40 254 39
f 40 255 254
f 41 255 40
f 41 256 255
f 42 256 41
f 42 257 256
f 43 257 42
f 43 258 257
f 44 258 43
f 44 259 258
f 45 259 44
f 45 260 259
f 46 260 45
f 46 261 260
f 47 261 46
f 47 262 261
f 48 262 47
f 48 263 262
f 49 263 48
f 49 264 263
f 50 264 49
f 50 265 264
f 51 265 50
f 51 266 265
f 52 266 51
f 52 267 266
f 53 267 52
f 53 268 267
f 54 268 53
f 54 269 268
f 55 269 54
f 55 270 269
f 56 270 55
f 56 271 270
f 57 271 56
f 57 272 271
f 58 272 57
f 58 273 272
f 59 273 58
f 59 274 273
f 60 274 59
f 60 275 274
f 61 275 60
f 61 276 275
f 62 276 61
f 62 277 276
f 63 277 62
f 63 278 277
f 64 278 63
f 64 279 278
f 65 279 64
f 65 280 279
f 66 280 65
f 66 281 280
f 67 281 66
f 67 282 281
f 68 282 67
f 68 283 282
f 69 283 68
f 69 284 283
f 70 284 69
f 70 285 284
f 71 285 70
f 71 286 285
f 72 286 71
f 72 287 286
f 73 287 72
f 73 288 287
f 74 288 73
f 74 289 288
f 75 289 74
f 75 290 289
f 76 290 75
f 76 291 290
f 77 291 76
f 77 292 291
f 78 292 77
f 78 293 292
f 79 293 78
f 79 294 293
f 80 294 79
f 80 295 294
f 81 295 80
f 81 296 295
f 82 296 81
f 82 297 296
f 83 297 82
f 83 298 297
f 84 298 83
f 84 299 298
f 85 299 84
f 85 300 299
f 86 300 85
f 86 301 300
f 87 301 86
f 87 302 301
f 88 302 87
f 88 303 302
f 89 303 88
f 89 304 303
f 90 304 89
f 90 305 304
f 91 305 90
f 91 306 305
f 92 306 91
f 92 307 306
f 93 307 92
f 93 308 307
f 94 308 93
f 94 309 308
f 95 309 94
f 95 310 309
f 96 310 95
f 96 311 310
f 97 311 96
f 97 312 311
f 98 312 97
f 98 313 312
f 99 313 98
f 99 314 313
f 100 314 99
f 100 315 314
f 101 315 100
f 101 316 315
f 102 316 101
f 102 317 316
f 103 317 102
f 103 318 317
f 104 318 103
f 104 319 318
f 105 319 104
f 105 320 319
f 106 320 105
f 106 321 320
f 107 321 106
f 107 322 321
f 108 322 107
f 108 323 322
f 109 323 108
f 109 324 323
f 110 324 109
f 111 215 325
f 1 215 111
f 110 325 324
f 111 325 110
f 112 327 326
f 113 327 112
f 113 328 327
f 114 328 113
f 114 329 328
f 115 329 114
f 115 330 329
f 116 330 115
f 116 331 330
f 117 331 116
f 117 332 331
f 118 332 117
f 118 333 332
f 119 333 118
f 119 334 333
f 120 334 119
f 120 335 334
f 121 335 120
f 121 336 335
f 122 336 121
f 122 337 336
f 123 337 122
f 123 338 337
f 124 338 123
f 124 339 338
f 125 339 124
f 125 340 339
f 126 340 125
f 126 341 340
f 127 341 126
f 127 342 341
f 128 342 127
f 128 343 342
f 129 343 128
f 129 344 343
f 130 344 129
f 130 345 344
f 131 345 130
f 131 346 345
f 132 346 131
f 132 347 346
f 133 347 132
f 133 348 347
f 134 348 133
f 134 349 348
f 135 349 134
f 135 350 349
f 136 350 135
f 136 351 350
f 137 351 136
f 137 352 351
f 138 352 137
f 138 353 352
f 139 353 138
f 139 354 353
f 140 354 139
f 140 355 354
f 141 355 140
f 141 356 355
f 142 356 141
f 142 357 356
f 143 357 142
f 143 358 357
f 144 358 143
f 144 359 358
f 145 359 144
f 145 360 359
f 146 360 145
f 146 361 360
f 147 361 146
f 147 362 361
f 148 362 147
f 148 363 362
f 149 363 148
f 149 364 363
f 150 364 149
f 150 365 364
f 151 365 150
f 151 366 365
f 152 366 151
f 152 367 366
f 153 367 152
f 153 368 367
f 154 368 153
f 154 369 368
f 155 369 154
f 155 370 369
f 156 370 155
f 156 371 370
f 157 371 156
f 157 372 371
f 158 372 157
f 158 373 372
f 159 373 158
f 159 374 373
f 160 374 159
f 160 375 374
f 161 375 160
f 161 376 375
f 162 376 161
f 162 377 376
f 163 377 162
f 163 378 377
f 164 378 163
f 164 379 378
f 165 379 164
f 165 380 379
f 166 380 165
f 166 381 380
f 167 381 166
f 167 382 381
f 168 382 167
f 168 383 382
f 169 383 168
f 169 384 383
f 170 384 169
f 170 385 384
f 171 385 170
f 171 386 385
f 172 386 171
f 172 387 386
f 173 387 172
f 173 388 387
f 174 388 173
f 174 389 388
f 175 389 174
f 175 390 389
f 176 390 175
f 176 391 390
f 177 391 176
f 177 392 391
f 178 392 177
f 178 393 392
f 179 393 178
f 179 394 393
f 180 394 179
f 180 395 394
f 181 395 180
f 181 396 395
f 182 396 181
f 182 397 396
f 183 397 182
f 183 398 397
f 184 398 183
f 184 399 398
f 185 399 184
f 185 400 399
f 186 400 185
f 186 401 400
f 187 401 186
f 187 402 401
f 188 402 187
f 188 403 402
f 189 403 188
f 189 404 403
f 190 404 189
f 190 405 404
f 191 405 190
f 191 406 405
f 192 406 191
f 192 407 406
f 193 407 192
f 193 408 407
f 194 408 193
f 194 409 408
f 195 409 194
f 195 410 409
f 196 410 195
f 196 411 410
f 197 411 196
f 197 412 411
f 198 412 197
f 198 413 412
f 199 413 198
f 199 414 413
f 200 414 199
f 200 415 414
f 201 415 200
f 201 416 415
f 202 416 201
f 202 417 416
f 203 417 202
f 203 418 417
f 204 418 203
f 204 419 418
f 205 419 204
f 205 420 419
f 206 420 205
f 206 421 420
f 207 421 206
f 207 422 421
f 208 422 207
f 208 423 422
f 209 423 208
f 209 424 423
f 210 424 209
f 210 425 424
f 211 425 210
f 211 426 425
f 212 426 211
f 212 427 426
f 213 427 212
f 214 326 428
f 112 326 214
f 213 428 427
f 214 428 213

