# https://github.com/mikedh/trimesh

o mark_workouts
v 0.24343349 0.02004119 0.00000000
v 0.24620236 0.02281007 0.00000000
v 0.24967623 0.02754810 0.00000000
v 0.25204253 0.03292556 0.00000000
v 0.25305602 0.03670792 0.00000000
v 0.25369546 0.04254809 0.00000000
v 0.25305602 0.04838827 0.00000000
v 0.25204253 0.05217063 0.00000000
v 0.24967623 0.05754809 0.00000000
v 0.17358615 0.18908332 0.00000000
v 0.16990867 0.19366510 0.00000000
v 0.16369545 0.19843267 0.00000000
v 0.15646003 0.20142968 0.00000000
v 0.15065335 0.20232357 0.00000000
v 0.14673758 0.20232357 0.00000000
v 0.14093089 0.20142968 0.00000000
v 0.13907292 0.20079899 0.00000000
v 0.13369547 0.19843267 0.00000000
v 0.12503521 0.19343267 0.00000000
v 0.11673753 0.20766021 0.00000000
v 0.11251500 0.21305792 0.00000000
v 0.10853097 0.21669042 0.00000000
v 0.10270442 0.22031359 0.00000000
v 0.09768445 0.22228016 0.00000000
v 0.09484413 0.22304122 0.00000000
v 0.08951343 0.22384810 0.00000000
v 0.08412301 0.22374392 0.00000000
v 0.08120765 0.22336011 0.00000000
v 0.07597394 0.22206560 0.00000000
v 0.07103372 0.21990651 0.00000000
v 0.04374356 0.20423394 0.00000000
v 0.03931947 0.20115255 0.00000000
v 0.03710868 0.19921373 0.00000000
v 0.03347619 0.19522969 0.00000000
v 0.02985301 0.18940315 0.00000000
v 0.02788645 0.18438318 0.00000000
v 0.02712539 0.18154286 0.00000000
v 0.02629441 0.17474033 0.00000000
v 0.02680651 0.16790637 0.00000000
v 0.02769680 0.16408812 0.00000000
v 0.02864200 0.16130365 0.00000000
v 0.03093267 0.15642305 0.00000000
v 0.08343267 0.06549038 0.00000000
v -0.09843267 -0.03950962 0.00000000
v -0.15093267 0.05142305 0.00000000
v -0.15492916 0.05700015 0.00000000
v -0.15881445 0.06073808 0.00000000
v -0.16114731 0.06252815 0.00000000
v -0.16576345 0.06531359 0.00000000
v -0.17078343 0.06728015 0.00000000
v -0.17749207 0.06867988 0.00000000
v -0.18042628 0.06887220 0.00000000
v -0.18726023 0.06836010 0.00000000
v -0.19249393 0.06706560 0.00000000
v -0.19874355 0.06423394 0.00000000
v -0.22596149 0.04843626 0.00000000
v -0.23135920 0.04421373 0.00000000
v -0.23403935 0.04135216 0.00000000
v -0.23582941 0.03901929 0.00000000
v -0.23861486 0.03440315 0.00000000
v -0.24058142 0.02938318 0.00000000
v -0.24198115 0.02267454 0.00000000
v -0.24204518 0.01582174 0.00000000
v -0.24166137 0.01290638 0.00000000
v -0.23982587 0.00630365 0.00000000
v -0.23820779 0.00273244 0.00000000
v -0.23003520 -0.01156733 0.00000000
v -0.23869546 -0.01656733 0.00000000
v -0.24343349 -0.02004119 0.00000000
v -0.24620236 -0.02281007 0.00000000
v -0.24858615 -0.02591667 0.00000000
v -0.25054404 -0.02930784 0.00000000
v -0.25267324 -0.03478352 0.00000000
v -0.25356713 -0.04059020 0.00000000
v -0.25356713 -0.04450599 0.00000000
v -0.25267324 -0.05031266 0.00000000
v -0.24967623 -0.05754809 0.00000000
v -0.17467622 -0.18745190 0.00000000
v -0.16990867 -0.19366510 0.00000000
v -0.16532688 -0.19734259 0.00000000
v -0.16193572 -0.19930048 0.00000000
v -0.15646003 -0.20142968 0.00000000
v -0.14869547 -0.20245190 0.00000000
v -0.14285529 -0.20181246 0.00000000
v -0.13907292 -0.20079899 0.00000000
v -0.13369547 -0.19843267 0.00000000
v -0.12503521 -0.19343267 0.00000000
v -0.11673753 -0.20766021 0.00000000
v -0.11251500 -0.21305792 0.00000000
v -0.10853097 -0.21669042 0.00000000
v -0.10270442 -0.22031359 0.00000000
v -0.09768445 -0.22228016 0.00000000
v -0.09484413 -0.22304122 0.00000000
v -0.08951343 -0.22384810 0.00000000
v -0.08412301 -0.22374392 0.00000000
v -0.08120765 -0.22336011 0.00000000
v -0.07597394 -0.22206560 0.00000000
v -0.07103372 -0.21990651 0.00000000
v -0.04374356 -0.20423394 0.00000000
v -0.03816645 -0.20023744 0.00000000
v -0.03347619 -0.19522969 0.00000000
v -0.03056807 -0.19068985 0.00000000
v -0.02926751 -0.18805258 0.00000000
v -0.02712539 -0.18154286 0.00000000
v -0.02629441 -0.17474033 0.00000000
v -0.02680651 -0.16790637 0.00000000
v -0.02769680 -0.16408812 0.00000000
v -0.02864200 -0.16130365 0.00000000
v -0.03093267 -0.15642305 0.00000000
v -0.08343267 -0.06549038 0.00000000
v 0.09843267 0.03950962 0.00000000
v 0.15093267 -0.05142305 0.00000000
v 0.15401407 -0.05584713 0.00000000
v 0.15595287 -0.05805793 0.00000000
v 0.16114731 -0.06252815 0.00000000
v 0.16576345 -0.06531359 0.00000000
v 0.17078343 -0.06728015 0.00000000
v 0.17749207 -0.06867988 0.00000000
v 0.18042628 -0.06887220 0.00000000
v 0.18434487 -0.06874391 0.00000000
v 0.19107848 -0.06746981 0.00000000
v 0.19386294 -0.06652461 0.00000000
v 0.19874355 -0.06423394 0.00000000
v 0.22596149 -0.04843626 0.00000000
v 0.23135920 -0.04421373 0.00000000
v 0.23582941 -0.03901929 0.00000000
v 0.23789981 -0.03568984 0.00000000
v 0.24058142 -0.02938318 0.00000000
v 0.24198115 -0.02267454 0.00000000
v 0.24217346 -0.01974032 0.00000000
v 0.24166137 -0.01290638 0.00000000
v 0.24077107 -0.00908811 0.00000000
v 0.23820779 -0.00273244 0.00000000
v 0.23003520 0.01156733 0.00000000
v 0.23869546 0.01656733 0.00000000
v 0.21189024 -0.01733918 0.00000000
v 0.21198384 -0.02019836 0.00000000
v 0.21047319 -0.02262768 0.00000000
v 0.18282743 -0.03858897 0.00000000
v 0.18092129 -0.03883992 0.00000000
v 0.17906421 -0.03834232 0.00000000
v 0.17753893 -0.03717192 0.00000000
v 0.17654498 -0.03578487 0.00000000
v 0.05728188 0.17078488 0.00000000
v 0.05635829 0.17327990 0.00000000
v 0.05682429 0.17610238 0.00000000
v 0.05799468 0.17762768 0.00000000
v 0.05938173 0.17862162 0.00000000
v 0.08408614 0.19288473 0.00000000
v 0.08658116 0.19380832 0.00000000
v 0.08940366 0.19334231 0.00000000
v 0.09092895 0.19217192 0.00000000
v 0.09192289 0.19078487 0.00000000
v 0.14865360 0.17229566 0.00000000
v 0.14918704 0.17160048 0.00000000
v 0.22320388 0.04339953 0.00000000
v 0.22353922 0.04258996 0.00000000
v 0.22284403 0.04205652 0.00000000
v 0.21588664 0.03803967 0.00000000
v 0.21507707 0.03770434 0.00000000
v 0.21454363 0.03839953 0.00000000
v 0.14052679 0.16660047 0.00000000
v 0.14019145 0.16741005 0.00000000
v -0.14052679 -0.16660047 0.00000000
v -0.14019145 -0.16741005 0.00000000
v -0.14088665 -0.16794348 0.00000000
v -0.14784403 -0.17196032 0.00000000
v -0.14865360 -0.17229566 0.00000000
v -0.14918704 -0.17160048 0.00000000
v -0.22353922 -0.04258996 0.00000000
v -0.21507707 -0.03770434 0.00000000
v -0.18282743 0.03858897 0.00000000
v -0.18092129 0.03883992 0.00000000
v -0.17906421 0.03834232 0.00000000
v -0.17753893 0.03717192 0.00000000
v -0.17654498 0.03578487 0.00000000
v -0.05728188 -0.17078488 0.00000000
v -0.05635829 -0.17327990 0.00000000
v -0.05648403 -0.17519836 0.00000000
v -0.05733437 -0.17692268 0.00000000
v -0.05938173 -0.17862162 0.00000000
v -0.08564045 -0.19358897 0.00000000
v -0.08754659 -0.19383992 0.00000000
v -0.08940366 -0.19334231 0.00000000
v -0.09092895 -0.19217192 0.00000000
v -0.09192289 -0.19078487 0.00000000
v -0.21118599 0.01578487 0.00000000
v -0.21189024 0.01733918 0.00000000
v -0.21214119 0.01924532 0.00000000
v -0.21113351 0.02192267 0.00000000
v -0.20908614 0.02362163 0.00000000
v 0.24343349 0.02004119 0.02000000
v 0.24620236 0.02281007 0.02000000
v 0.24967623 0.02754810 0.02000000
v 0.25204253 0.03292556 0.02000000
v 0.25305602 0.03670792 0.02000000
v 0.25369546 0.04254809 0.02000000
v 0.25305602 0.04838827 0.02000000
v 0.25204253 0.05217063 0.02000000
v 0.24967623 0.05754809 0.02000000
v 0.17358615 0.18908332 0.02000000
v 0.16990867 0.19366510 0.02000000
v 0.16369545 0.19843267 0.02000000
v 0.15646003 0.20142968 0.02000000
v 0.15065335 0.20232357 0.02000000
v 0.14673758 0.20232357 0.02000000
v 0.14093089 0.20142968 0.02000000
v 0.13907292 0.20079899 0.02000000
v 0.13369547 0.19843267 0.02000000
v 0.12503521 0.19343267 0.02000000
v 0.11673753 0.20766021 0.02000000
v 0.11251500 0.21305792 0.02000000
v 0.10853097 0.21669042 0.02000000
v 0.10270442 0.22031359 0.02000000
v 0.09768445 0.22228016 0.02000000
v 0.09484413 0.22304122 0.02000000
v 0.08951343 0.22384810 0.02000000
v 0.08412301 0.22374392 0.02000000
v 0.08120765 0.22336011 0.02000000
v 0.07597394 0.22206560 0.02000000
v 0.07103372 0.21990651 0.02000000
v 0.04374356 0.20423394 0.02000000
v 0.03931947 0.20115255 0.02000000
v 0.03710868 0.19921373 0.02000000
v 0.03347619 0.19522969 0.02000000
v 0.02985301 0.18940315 0.02000000
v 0.02788645 0.18438318 0.02000000
v 0.02712539 0.18154286 0.02000000
v 0.02629441 0.17474033 0.02000000
v 0.02680651 0.16790637 0.02000000
v 0.02769680 0.16408812 0.02000000
v 0.02864200 0.16130365 0.02000000
v 0.03093267 0.15642305 0.02000000
v 0.08343267 0.06549038 0.02000000
v -0.09843267 -0.03950962 0.02000000
v -0.15093267 0.05142305 0.02000000
v -0.15492916 0.05700015 0.02000000
v -0.15881445 0.06073808 0.02000000
v -0.16114731 0.06252815 0.02000000
v -0.16576345 0.06531359 0.02000000
v -0.17078343 0.06728015 0.02000000
v -0.17749207 0.06867988 0.02000000
v -0.18042628 0.06887220 0.02000000
v -0.18726023 0.06836010 0.02000000
v -0.19249393 0.06706560 0.02000000
v -0.19874355 0.06423394 0.02000000
v -0.22596149 0.04843626 0.02000000
v -0.23135920 0.04421373 0.02000000
v -0.23403935 0.04135216 0.02000000
v -0.23582941 0.03901929 0.02000000
v -0.23861486 0.03440315 0.02000000
v -0.24058142 0.02938318 0.02000000
v -0.24198115 0.02267454 0.02000000
v -0.24204518 0.01582174 0.02000000
v -0.24166137 0.01290638 0.02000000
v -0.23982587 0.00630365 0.02000000
v -0.23820779 0.00273244 0.02000000
v -0.23003520 -0.01156733 0.02000000
v -0.23869546 -0.01656733 0.02000000
v -0.24343349 -0.02004119 0.02000000
v -0.24620236 -0.02281007 0.02000000
v -0.24858615 -0.02591667 0.02000000
v -0.25054404 -0.02930784 0.02000000
v -0.25267324 -0.03478352 0.02000000
v -0.25356713 -0.04059020 0.02000000
v -0.25356713 -0.04450599 0.02000000
v -0.25267324 -0.05031266 0.02000000
v -0.24967623 -0.05754809 0.02000000
v -0.17467622 -0.18745190 0.02000000
v -0.16990867 -0.19366510 0.02000000
v -0.16532688 -0.19734259 0.02000000
v -0.16193572 -0.19930048 0.02000000
v -0.15646003 -0.20142968 0.02000000
v -0.14869547 -0.20245190 0.02000000
v -0.14285529 -0.20181246 0.02000000
v -0.13907292 -0.20079899 0.02000000
v -0.13369547 -0.19843267 0.02000000
v -0.12503521 -0.19343267 0.02000000
v -0.11673753 -0.20766021 0.02000000
v -0.11251500 -0.21305792 0.02000000
v -0.10853097 -0.21669042 0.02000000
v -0.10270442 -0.22031359 0.02000000
v -0.09768445 -0.22228016 0.02000000
v -0.09484413 -0.22304122 0.02000000
v -0.08951343 -0.22384810 0.02000000
v -0.08412301 -0.22374392 0.02000000
v -0.08120765 -0.22336011 0.02000000
v -0.07597394 -0.22206560 0.02000000
v -0.07103372 -0.21990651 0.02000000
v -0.04374356 -0.20423394 0.02000000
v -0.03816645 -0.20023744 0.02000000
v -0.03347619 -0.19522969 0.02000000
v -0.03056807 -0.19068985 0.02000000
v -0.02926751 -0.18805258 0.02000000
v -0.02712539 -0.18154286 0.02000000
v -0.02629441 -0.17474033 0.02000000
v -0.02680651 -0.16790637 0.02000000
v -0.02769680 -0.16408812 0.02000000
v -0.02864200 -0.16130365 0.02000000
v -0.03093267 -0.15642305 0.02000000
v -0.08343267 -0.06549038 0.02000000
v 0.09843267 0.03950962 0.02000000
v 0.15093267 -0.05142305 0.02000000
v 0.15401407 -0.05584713 0.02000000
v 0.15595287 -0.05805793 0.02000000
v 0.16114731 -0.06252815 0.02000000
v 0.16576345 -0.06531359 0.02000000
v 0.17078343 -0.06728015 0.02000000
v 0.17749207 -0.06867988 0.02000000
v 0.18042628 -0.06887220 0.02000000
v 0.18434487 -0.06874391 0.02000000
v 0.19107848 -0.06746981 0.02000000
v 0.19386294 -0.06652461 0.02000000
v 0.19874355 -0.06423394 0.02000000
v 0.22596149 -0.04843626 0.02000000
v 0.23135920 -0.04421373 0.02000000
v 0.23582941 -0.03901929 0.02000000
v 0.23789981 -0.03568984 0.02000000
v 0.24058142 -0.02938318 0.02000000
v 0.24198115 -0.02267454 0.02000000
v 0.24217346 -0.01974032 0.02000000
v 0.24166137 -0.01290638 0.02000000
v 0.24077107 -0.00908811 0.02000000
v 0.23820779 -0.00273244 0.02000000
v 0.23003520 0.01156733 0.02000000
v 0.23869546 0.01656733 0.02000000
v 0.21189024 -0.01733918 0.02000000
v 0.21198384 -0.02019836 0.02000000
v 0.21047319 -0.02262768 0.02000000
v 0.18282743 -0.03858897 0.02000000
v 0.18092129 -0.03883992 0.02000000
v 0.17906421 -0.03834232 0.02000000
v 0.17753893 -0.03717192 0.02000000
v 0.17654498 -0.03578487 0.02000000
v 0.05728188 0.17078488 0.02000000
v 0.05635829 0.17327990 0.02000000
v 0.05682429 0.17610238 0.02000000
v 0.05799468 0.17762768 0.02000000
v 0.05938173 0.17862162 0.02000000
v 0.08408614 0.19288473 0.02000000
v 0.08658116 0.19380832 0.02000000
v 0.08940366 0.19334231 0.02000000
v 0.09092895 0.19217192 0.02000000
v 0.09192289 0.19078487 0.02000000
v 0.14865360 0.17229566 0.02000000
v 0.14918704 0.17160048 0.02000000
v 0.22320388 0.04339953 0.02000000
v 0.22353922 0.04258996 0.02000000
v 0.22284403 0.04205652 0.02000000
v 0.21588664 0.03803967 0.02000000
v 0.21507707 0.03770434 0.02000000
v 0.21454363 0.03839953 0.02000000
v 0.14052679 0.16660047 0.02000000
v 0.14019145 0.16741005 0.02000000
v -0.14052679 -0.16660047 0.02000000
v -0.14019145 -0.16741005 0.02000000
v -0.14088665 -0.16794348 0.02000000
v -0.14784403 -0.17196032 0.02000000
v -0.14865360 -0.17229566 0.02000000
v -0.14918704 -0.17160048 0.02000000
v -0.22353922 -0.04258996 0.02000000
v -0.21507707 -0.03770434 0.02000000
v -0.18282743 0.03858897 0.02000000
v -0.18092129 0.03883992 0.02000000
v -0.17906421 0.03834232 0.02000000
v -0.17753893 0.03717192 0.02000000
v -0.17654498 0.03578487 0.02000000
v -0.05728188 -0.17078488 0.02000000
v -0.05635829 -0.17327990 0.02000000
v -0.05648403 -0.17519836 0.02000000
v -0.05733437 -0.17692268 0.02000000
v -0.05938173 -0.17862162 0.02000000
v -0.08564045 -0.19358897 0.02000000
v -0.08754659 -0.19383992 0.02000000
v -0.08940366 -0.19334231 0.02000000
v -0.09092895 -0.19217192 0.02000000
v -0.09192289 -0.19078487 0.02000000
v -0.21118599 0.01578487 0.02000000
v -0.21189024 0.01733918 0.02000000
v -0.21214119 0.01924532 0.02000000
v -0.21113351 0.02192267 0.02000000
v -0.20908614 0.02362163 0.02000000
f 153 163 162
f 153 162 161
f 153 161 160
f 154 163 153
f 154 153 152
f 154 152 151
f 146 145 38
f 146 38 37
f 146 37 36
f 146 36 35
f 146 35 34
f 146 34 33
f 146 33 32
f 146 32 31
f 146 31 30
f 146 30 29
f 146 29 28
f 146 28 27
f 146 27 26
f 26 25 24
f 26 24 23
f 26 23 22
f 26 22 21
f 26 21 20
f 26 20 19
f 19 18 17
f 19 17 16
f 19 16 15
f 19 15 14
f 19 14 13
f 19 13 12
f 19 12 11
f 19 11 10
f 10 9 8
f 10 8 7
f 10 7 6
f 10 6 5
f 10 5 4
f 10 4 3
f 10 3 2
f 10 2 1
f 10 1 135
f 134 133 132
f 134 132 131
f 134 131 130
f 134 130 129
f 134 129 128
f 134 128 127
f 134 127 126
f 134 126 125
f 134 125 124
f 134 124 123
f 134 123 122
f 134 122 121
f 121 120 119
f 121 119 118
f 121 118 117
f 121 117 116
f 121 116 115
f 121 115 114
f 121 114 113
f 121 113 112
f 121 112 111
f 110 109 108
f 110 108 107
f 110 107 106
f 110 106 105
f 110 105 104
f 110 104 103
f 110 103 102
f 110 102 101
f 110 101 100
f 110 100 99
f 99 98 97
f 99 97 96
f 99 96 95
f 99 95 94
f 99 94 93
f 99 93 92
f 99 92 91
f 99 91 90
f 99 90 89
f 99 89 88
f 99 88 87
f 87 86 85
f 87 85 84
f 87 84 83
f 87 83 82
f 87 82 81
f 87 81 80
f 87 80 79
f 87 79 78
f 78 77 76
f 78 76 75
f 78 75 74
f 78 74 170
f 78 170 169
f 78 169 168
f 78 168 167
f 171 170 74
f 171 74 73
f 171 73 72
f 171 72 71
f 171 71 70
f 171 70 69
f 171 69 68
f 171 68 67
f 171 67 66
f 171 66 65
f 171 65 64
f 171 64 63
f 171 63 189
f 171 189 188
f 171 188 187
f 171 187 186
f 171 186 185
f 190 189 63
f 190 63 62
f 190 62 61
f 190 61 60
f 190 60 59
f 190 59 58
f 190 58 57
f 190 57 56
f 190 56 55
f 190 55 54
f 190 54 53
f 190 53 52
f 190 52 51
f 190 51 50
f 190 50 49
f 49 48 47
f 49 47 46
f 49 46 45
f 49 45 44
f 43 42 41
f 43 41 40
f 43 40 39
f 43 39 38
f 43 38 145
f 43 145 144
f 43 144 143
f 43 143 142
f 136 153 160
f 136 160 159
f 136 159 158
f 136 158 157
f 147 146 26
f 87 78 167
f 87 167 166
f 87 166 165
f 87 165 164
f 164 171 185
f 164 185 184
f 191 190 49
f 137 136 157
f 148 147 26
f 87 164 184
f 87 184 183
f 172 191 49
f 149 148 26
f 99 87 183
f 99 183 182
f 99 182 181
f 99 181 180
f 99 180 179
f 99 179 178
f 99 178 177
f 173 172 49
f 150 149 26
f 150 26 19
f 150 19 10
f 110 99 177
f 110 177 176
f 110 176 175
f 174 173 49
f 151 150 10
f 175 174 49
f 175 49 44
f 154 151 10
f 110 175 44
f 110 44 43
f 155 154 10
f 111 110 43
f 111 43 142
f 156 155 10
f 156 10 135
f 121 111 142
f 121 142 141
f 121 141 140
f 121 140 139
f 121 139 138
f 121 138 137
f 157 156 135
f 157 135 134
f 134 121 137
f 134 137 157
f 353 354 344
f 352 353 344
f 351 352 344
f 344 354 345
f 343 344 345
f 342 343 345
f 229 336 337
f 228 229 337
f 227 228 337
f 226 227 337
f 225 226 337
f 224 225 337
f 223 224 337
f 222 223 337
f 221 222 337
f 220 221 337
f 219 220 337
f 218 219 337
f 217 218 337
f 215 216 217
f 214 215 217
f 213 214 217
f 212 213 217
f 211 212 217
f 210 211 217
f 208 209 210
f 207 208 210
f 206 207 210
f 205 206 210
f 204 205 210
f 203 204 210
f 202 203 210
f 201 202 210
f 199 200 201
f 198 199 201
f 197 198 201
f 196 197 201
f 195 196 201
f 194 195 201
f 193 194 201
f 192 193 201
f 326 192 201
f 323 324 325
f 322 323 325
f 321 322 325
f 320 321 325
f 319 320 325
f 318 319 325
f 317 318 325
f 316 317 325
f 315 316 325
f 314 315 325
f 313 314 325
f 312 313 325
f 310 311 312
f 309 310 312
f 308 309 312
f 307 308 312
f 306 307 312
f 305 306 312
f 304 305 312
f 303 304 312
f 302 303 312
f 299 300 301
f 298 299 301
f 297 298 301
f 296 297 301
f 295 296 301
f 294 295 301
f 293 294 301
f 292 293 301
f 291 292 301
f 290 291 301
f 288 289 290
f 287 288 290
f 286 287 290
f 285 286 290
f 284 285 290
f 283 284 290
f 282 283 290
f 281 282 290
f 280 281 290
f 279 280 290
f 278 279 290
f 276 277 278
f 275 276 278
f 274 275 278
f 273 274 278
f 272 273 278
f 271 272 278
f 270 271 278
f 269 270 278
f 267 268 269
f 266 267 269
f 265 266 269
f 361 265 269
f 360 361 269
f 359 360 269
f 358 359 269
f 265 361 362
f 264 265 362
f 263 264 362
f 262 263 362
f 261 262 362
f 260 261 362
f 259 260 362
f 258 259 362
f 257 258 362
f 256 257 362
f 255 256 362
f 254 255 362
f 380 254 362
f 379 380 362
f 378 379 362
f 377 378 362
f 376 377 362
f 254 380 381
f 253 254 381
f 252 253 381
f 251 252 381
f 250 251 381
f 249 250 381
f 248 249 381
f 247 248 381
f 246 247 381
f 245 246 381
f 244 245 381
f 243 244 381
f 242 243 381
f 241 242 381
f 240 241 381
f 238 239 240
f 237 238 240
f 236 237 240
f 235 236 240
f 232 233 234
f 231 232 234
f 230 231 234
f 229 230 234
f 336 229 234
f 335 336 234
f 334 335 234
f 333 334 234
f 351 344 327
f 350 351 327
f 349 350 327
f 348 349 327
f 217 337 338
f 358 269 278
f 357 358 278
f 356 357 278
f 355 356 278
f 376 362 355
f 375 376 355
f 240 381 382
f 348 327 328
f 217 338 339
f 375 355 278
f 374 375 278
f 240 382 363
f 217 339 340
f 374 278 290
f 373 374 290
f 372 373 290
f 371 372 290
f 370 371 290
f 369 370 290
f 368 369 290
f 240 363 364
f 217 340 341
f 210 217 341
f 201 210 341
f 368 290 301
f 367 368 301
f 366 367 301
f 240 364 365
f 201 341 342
f 240 365 366
f 235 240 366
f 201 342 345
f 235 366 301
f 234 235 301
f 201 345 346
f 234 301 302
f 333 234 302
f 201 346 347
f 326 201 347
f 333 302 312
f 332 333 312
f 331 332 312
f 330 331 312
f 329 330 312
f 328 329 312
f 326 347 348
f 325 326 348
f 328 312 325
f 348 328 325
f 1 193 192
f 2 193 1
f 2 194 193
f 3 194 2
f 3 195 194
f 4 195 3
f 4 196 195
f 5 196 4
f 5 197 196
f 6 197 5
f 6 198 197
f 7 198 6
f 7 199 198
f 8 199 7
f 8 200 199
f 9 200 8
f 9 201 200
f 10 201 9
f 10 202 201
f 11 202 10
f 11 203 202
f 12 203 11
f 12 204 203
f 13 204 12
f 13 205 204
f 14 205 13
f 14 206 205
f 15 206 14
f 15 207 206
f 16 207 15
f 16 208 207
f 17 208 16
f 17 209 208
f 18 209 17
f 18 210 209
f 19 210 18
f 19 211 210
f 20 211 19
f 20 212 211
f 21 212 20
f 21 213 212
f 22 213 21
f 22 214 213
f 23 214 22
f 23 215 214
f 24 215 23
f 24 216 215
f 25 216 24
f 25 217 216
f 26 217 25
f 26 218 217
f 27 218 26
f 27 219 218
f 28 219 27
f 28 220 219
f 29 220 28
f 29 221 220
f 30 221 29
f 30 222 221
f 31 222 30
f 31 223 222
f 32 223 31
f 32 224 223
f 33 224 32
f 33 225 224
f 34 225 33
f 34 226 225
f 35 226 34
f 35 227 226
f 36 227 35
f 36 228 227
f 37 228 36
f 37 229 228
f 38 229 37
f 38 230 229
f 39 230 38
f 39 231 230
f 40 231 39
f 40 232 231
f 41 232 40
f 41 233 232
f 42 233 41
f 42 234 233
f 43 234 42
f 43 235 234
f 44 235 43
f 44 236 235
f 45 236 44
f 45 237 236
f 46 237 45
f 46 238 237
f 47 238 46
f 47 239 238
f 48 239 47
f 48 240 239
f 49 240 48
f 49 241 240
f 50 241 49
f 50 242 241
f 51 242 50
f 51 243 242
f 52 243 51
f 52 244 243
f 53 244 52
f 53 245 244
f 54 245 53
f 54 246 245
f 55 246 54
f 55 247 246
f 56 247 55
f 56 248 247
f 57 248 56
f 57 249 248
f 58 249 57
f 58 250 249
f 59 250 58
f 59 251 250
f 60 251 59
f 60 252 251
f 61 252 60
f 61 253 252
f 62 253 61
f 62 254 253
f 63 254 62
f 63 255 254
f 64 255 63
f 64 256 255
f 65 256 64
f 65 257 256
f 66 257 65
f 66 258 257
f 67 258 66
f 67 259 258
f 68 259 67
f 68 260 259
f 69 260 68
f 69 261 260
f 70 261 69
f 70 262 261
f 71 262 70
f 71 263 262
f 72 263 71
f 72 264 263
f 73 264 72
f 73 265 264
f 74 265 73
f 74 266 265
f 75 266 74
f 75 267 266
f 76 267 75
f 76 268 267
f 77 268 76
f 77 269 268
f 78 269 77
f 78 270 269
f 79 270 78
f 79 271 270
f 80 271 79
f 80 272 271
f 81 272 80
f 81 273 272
f 82 273 81
f 82 274 273
f 83 274 82
f 83 275 274
f 84 275 83
f 84 276 275
f 85 276 84
f 85 277 276
f 86 277 85
f 86 278 277
f 87 278 86
f 87 279 278
f 88 279 87
f 88 280 279
f 89 280 88
f 89 281 280
f 90 281 89
f 90 282 281
f 91 282 90
f 91 283 282
f 92 283 91
f 92 284 283
f 93 284 92
f 93 285 284
f 94 285 93
f 94 286 285
f 95 286 94
f 95 287 286
f 96 287 95
f 96 288 287
f 97 288 96
f 97 289 288
f 98 289 97
f 98 290 289
f 99 290 98
f 99 291 290
f 100 291 99
f 100 292 291
f 101 292 100
f 101 293 292
f 102 293 101
f 102 294 293
f 103 294 102
f 103 295 294
f 104 295 103
f 104 296 295
f 105 296 104
f 105 297 296
f 106 297 105
f 106 298 297
f 107 298 106
f 107 299 298
f 108 299 107
f 108 300 299
f 109 300 108
f 109 301 300
f 110 301 109
f 110 302 301
f 111 302 110
f 111 303 302
f 112 303 111
f 112 304 303
f 113 304 112
f 113 305 304
f 114 305 113
f 114 306 305
f 115 306 114
f 115 307 306
f 116 307 115
f 116 308 307
f 117 308 116
f 117 309 308
f 118 309 117
f 118 310 309
f 119 310 118
f 119 311 310
f 120 311 119
f 120 312 311
f 121 312 120
f 121 313 312
f 122 313 121
f 122 314 313
f 123 314 122
f 123 315 314
f 124 315 123
f 124 316 315
f 125 316 124
f 125 317 316
f 126 317 125
f 126 318 317
f 127 318 126
f 127 319 318
f 128 319 127
f 128 320 319
f 129 320 128
f 129 321 320
f 130 321 129
f 130 322 321
f 131 322 130
f 131 323 322
f 132 323 131
f 132 324 323
f 133 324 132
f 133 325 324
f 134 325 133
f 135 192 326
f 1 192 135
f 134 326 325
f 135 326 134
f 136 328 327
f 137 328 136
f 137 329 328
f 138 329 137
f 138 330 329
f 139 330 138
f 139 331 330
f 140 331 139
f 140 332 331
f 141 332 140
f 141 333 332
f 142 333 141
f 142 334 333
f 143 334 142
f 143 335 334
f 144 335 143
f 144 336 335
f 145 336 144
f 145 337 336
f 146 337 145
f 146 338 337
f 147 338 146
f 147 339 338
f 148 339 147
f 148 340 339
f 149 340 148
f 149 341 340
f 150 341 149
f 150 342 341
f 151 342 150
f 151 343 342
f 152 343 151
f 153 327 344
f 136 327 153
f 152 344 343
f 153 344 152
f 154 346 345
f 155 346 154
f 155 347 346
f 156 347 155
f 156 348 347
f 157 348 156
f 157 349 348
f 158 349 157
f 158 350 349
f 159 350 158
f 159 351 350
f 160 351 159
f 160 352 351
f 161 352 160
f 161 353 352
f 162 353 161
f 163 345 354
f 154 345 163
f 162 354 353
f 163 354 162
f 164 356 355
f 165 356 164
f 165 357 356
f 166 357 165
f 166 358 357
f 167 358 166
f 167 359 358
f 168 359 167
f 168 360 359
f 169 360 168
f 169 361 360
f 170 361 169
f 171 355 362
f 164 355 171
f 170 362 361
f 171 362 170
f 172 364 363
f 173 364 172
f 173 365 364
f 174 365 173
f 174 366 365
f 175 366 174
f 175 367 366
f 176 367 175
f 176 368 367
f 177 368 176
f 177 369 368
f 178 369 177
f 178 370 369
f 179 370 178
f 179 371 370
f 180 371 179
f 180 372 371
f 181 372 180
f 181 373 372
f 182 373 181
f 182 374 373
f 183 374 182
f 183 375 374
f 184 375 183
f 184 376 375
f 185 376 184
f 185 377 376
f 186 377 185
f 186 378 377
f 187 378 186
f 187 379 378
f 188 379 187
f 188 380 379
f 189 380 188
f 189 381 380
f 190 381 189
f 191 363 382
f 172 363 191
f 190 382 381
f 191 382 190

