# https://github.com/mikedh/trimesh

o mark_early_bird
v -0.01299038 0.07250000 0.00000000
v -0.01060660 0.06939340 0.00000000
v -0.00750000 0.06700962 0.00000000
v -0.00574025 0.06614181 0.00000000
v -0.00195789 0.06512833 0.00000000
v 0.00195789 0.06512833 0.00000000
v 0.00574025 0.06614181 0.00000000
v 0.00750000 0.06700962 0.00000000
v 0.01060660 0.06939340 0.00000000
v 0.01299038 0.07250000 0.00000000
v 0.01448889 0.07611772 0.00000000
v 0.01500000 0.08000000 0.00000000
v 0.01487167 0.14195789 0.00000000
v 0.01385819 0.14574026 0.00000000
v 0.01299038 0.14749999 0.00000000
v 0.01060660 0.15060660 0.00000000
v 0.00750000 0.15299039 0.00000000
v 0.00388229 0.15448889 0.00000000
v 0.00195789 0.15487167 0.00000000
v -0.00195789 0.15487167 0.00000000
v -0.00574025 0.15385820 0.00000000
v -0.00750000 0.15299039 0.00000000
v -0.01060660 0.15060660 0.00000000
v -0.01190030 0.14913142 0.00000000
v -0.01385819 0.14574026 0.00000000
v -0.01448889 0.14388229 0.00000000
v -0.01500000 0.14000000 0.00000000
v -0.01500000 0.08000000 0.00000000
v -0.01487167 0.07804210 0.00000000
v -0.01385819 0.07425975 0.00000000
v -0.01299038 0.07250000 0.02000000
v -0.01060660 0.06939340 0.02000000
v -0.00750000 0.06700962 0.02000000
v -0.00574025 0.06614181 0.02000000
v -0.00195789 0.06512833 0.02000000
v 0.00195789 0.06512833 0.02000000
v 0.00574025 0.06614181 0.02000000
v 0.00750000 0.06700962 0.02000000
v 0.01060660 0.06939340 0.02000000
v 0.01299038 0.07250000 0.02000000
v 0.01448889 0.07611772 0.02000000
v 0.01500000 0.08000000 0.02000000
v 0.01487167 0.14195789 0.02000000
v 0.01385819 0.14574026 0.02000000
v 0.01299038 0.14749999 0.02000000
v 0.01060660 0.15060660 0.02000000
v 0.00750000 0.15299039 0.02000000
v 0.00388229 0.15448889 0.02000000
v 0.00195789 0.15487167 0.02000000
v -0.00195789 0.15487167 0.02000000
v -0.00574025 0.15385820 0.02000000
v -0.00750000 0.15299039 0.02000000
v -0.01060660 0.15060660 0.02000000
v -0.01190030 0.14913142 0.02000000
v -0.01385819 0.14574026 0.02000000
v -0.01448889 0.14388229 0.02000000
v -0.01500000 0.14000000 0.02000000
v -0.01500000 0.08000000 0.02000000
v -0.01487167 0.07804210 0.02000000
v -0.01385819 0.07425975 0.02000000
v -0.11695790 0.02012833 0.00000000
v -0.11304211 0.02012833 0.00000000
v -0.10925975 0.02114181 0.00000000
v -0.10750000 0.02200962 0.00000000
v -0.10439340 0.02439340 0.00000000
v -0.10200962 0.02750000 0.00000000
v -0.10114181 0.02925975 0.00000000
v -0.10012833 0.03304211 0.00000000
v -0.10012833 0.03695789 0.00000000
v -0.10114181 0.04074025 0.00000000
v -0.10200962 0.04250000 0.00000000
v -0.10439340 0.04560660 0.00000000
v -0.15086858 0.09190030 0.00000000
v -0.15425974 0.09385819 0.00000000
v -0.15804210 0.09487167 0.00000000
v -0.16195789 0.09487167 0.00000000
v -0.16574025 0.09385819 0.00000000
v -0.16750000 0.09299038 0.00000000
v -0.17060660 0.09060660 0.00000000
v -0.17190030 0.08913142 0.00000000
v -0.17385820 0.08574025 0.00000000
v -0.17448889 0.08388229 0.00000000
v -0.17487167 0.08195789 0.00000000
v -0.17487167 0.07804210 0.00000000
v -0.17385820 0.07425975 0.00000000
v -0.17299038 0.07250000 0.00000000
v -0.17060660 0.06939340 0.00000000
v -0.12560660 0.02439340 0.00000000
v -0.12250000 0.02200962 0.00000000
v -0.12074025 0.02114181 0.00000000
v -0.11695790 0.02012833 0.02000000
v -0.11304211 0.02012833 0.02000000
v -0.10925975 0.02114181 0.02000000
v -0.10750000 0.02200962 0.02000000
v -0.10439340 0.02439340 0.02000000
v -0.10200962 0.02750000 0.02000000
v -0.10114181 0.02925975 0.02000000
v -0.10012833 0.03304211 0.02000000
v -0.10012833 0.03695789 0.02000000
v -0.10114181 0.04074025 0.02000000
v -0.10200962 0.04250000 0.02000000
v -0.10439340 0.04560660 0.02000000
v -0.15086858 0.09190030 0.02000000
v -0.15425974 0.09385819 0.02000000
v -0.15804210 0.09487167 0.02000000
v -0.16195789 0.09487167 0.02000000
v -0.16574025 0.09385819 0.02000000
v -0.16750000 0.09299038 0.02000000
v -0.17060660 0.09060660 0.02000000
v -0.17190030 0.08913142 0.02000000
v -0.17385820 0.08574025 0.02000000
v -0.17448889 0.08388229 0.02000000
v -0.17487167 0.08195789 0.02000000
v -0.17487167 0.07804210 0.02000000
v -0.17385820 0.07425975 0.02000000
v -0.17299038 0.07250000 0.02000000
v -0.17060660 0.06939340 0.02000000
v -0.12560660 0.02439340 0.02000000
v -0.12250000 0.02200962 0.02000000
v -0.12074025 0.02114181 0.02000000
v 0.10012833 0.03695789 0.00000000
v 0.10012833 0.03304211 0.00000000
v 0.10114181 0.02925975 0.00000000
v 0.10200962 0.02750000 0.00000000
v 0.10439340 0.02439340 0.00000000
v 0.10750000 0.02200962 0.00000000
v 0.10925975 0.02114181 0.00000000
v 0.11304211 0.02012833 0.00000000
v 0.11695790 0.02012833 0.00000000
v 0.12074025 0.02114181 0.00000000
v 0.12250000 0.02200962 0.00000000
v 0.12560660 0.02439340 0.00000000
v 0.17190030 0.07086858 0.00000000
v 0.17385820 0.07425975 0.00000000
v 0.17487167 0.07804210 0.00000000
v 0.17487167 0.08195789 0.00000000
v 0.17385820 0.08574025 0.00000000
v 0.17299038 0.08750000 0.00000000
v 0.17190030 0.08913142 0.00000000
v 0.16913143 0.09190030 0.00000000
v 0.16574025 0.09385819 0.00000000
v 0.16388229 0.09448889 0.00000000
v 0.16195789 0.09487167 0.00000000
v 0.15804210 0.09487167 0.00000000
v 0.15425974 0.09385819 0.00000000
v 0.15250000 0.09299038 0.00000000
v 0.14939339 0.09060660 0.00000000
v 0.10439340 0.04560660 0.00000000
v 0.10200962 0.04250000 0.00000000
v 0.10114181 0.04074025 0.00000000
v 0.10012833 0.03695789 0.02000000
v 0.10012833 0.03304211 0.02000000
v 0.10114181 0.02925975 0.02000000
v 0.10200962 0.02750000 0.02000000
v 0.10439340 0.02439340 0.02000000
v 0.10750000 0.02200962 0.02000000
v 0.10925975 0.02114181 0.02000000
v 0.11304211 0.02012833 0.02000000
v 0.11695790 0.02012833 0.02000000
v 0.12074025 0.02114181 0.02000000
v 0.12250000 0.02200962 0.02000000
v 0.12560660 0.02439340 0.02000000
v 0.17190030 0.07086858 0.02000000
v 0.17385820 0.07425975 0.02000000
v 0.17487167 0.07804210 0.02000000
v 0.17487167 0.08195789 0.02000000
v 0.17385820 0.08574025 0.02000000
v 0.17299038 0.08750000 0.02000000
v 0.17190030 0.08913142 0.02000000
v 0.16913143 0.09190030 0.02000000
v 0.16574025 0.09385819 0.02000000
v 0.16388229 0.09448889 0.02000000
v 0.16195789 0.09487167 0.02000000
v 0.15804210 0.09487167 0.02000000
v 0.15425974 0.09385819 0.02000000
v 0.15250000 0.09299038 0.02000000
v 0.14939339 0.09060660 0.02000000
v 0.10439340 0.04560660 0.02000000
v 0.10200962 0.04250000 0.02000000
v 0.10114181 0.04074025 0.02000000
v -0.15250000 -0.05299038 0.00000000
v -0.14939339 -0.05060660 0.00000000
v -0.14700963 -0.04750000 0.00000000
v -0.14614181 -0.04574025 0.00000000
v -0.14512832 -0.04195789 0.00000000
v -0.14512832 -0.03804211 0.00000000
v -0.14614181 -0.03425975 0.00000000
v -0.14700963 -0.03250000 0.00000000
v -0.14939339 -0.02939340 0.00000000
v -0.15250000 -0.02700962 0.00000000
v -0.15611771 -0.02551111 0.00000000
v -0.16000000 -0.02500000 0.00000000
v -0.22195789 -0.02512833 0.00000000
v -0.22574025 -0.02614181 0.00000000
v -0.22750001 -0.02700962 0.00000000
v -0.23060660 -0.02939340 0.00000000
v -0.23299038 -0.03250000 0.00000000
v -0.23448889 -0.03611771 0.00000000
v -0.23500000 -0.04000000 0.00000000
v -0.23487167 -0.04195789 0.00000000
v -0.23448889 -0.04388228 0.00000000
v -0.23299038 -0.04750000 0.00000000
v -0.23060660 -0.05060660 0.00000000
v -0.22913142 -0.05190030 0.00000000
v -0.22574025 -0.05385819 0.00000000
v -0.22388229 -0.05448889 0.00000000
v -0.22000000 -0.05500000 0.00000000
v -0.16000000 -0.05500000 0.00000000
v -0.15804210 -0.05487167 0.00000000
v -0.15425974 -0.05385819 0.00000000
v -0.15250000 -0.05299038 0.02000000
v -0.14939339 -0.05060660 0.02000000
v -0.14700963 -0.04750000 0.02000000
v -0.14614181 -0.04574025 0.02000000
v -0.14512832 -0.04195789 0.02000000
v -0.14512832 -0.03804211 0.02000000
v -0.14614181 -0.03425975 0.02000000
v -0.14700963 -0.03250000 0.02000000
v -0.14939339 -0.02939340 0.02000000
v -0.15250000 -0.02700962 0.02000000
v -0.15611771 -0.02551111 0.02000000
v -0.16000000 -0.02500000 0.02000000
v -0.22195789 -0.02512833 0.02000000
v -0.22574025 -0.02614181 0.02000000
v -0.22750001 -0.02700962 0.02000000
v -0.23060660 -0.02939340 0.02000000
v -0.23299038 -0.03250000 0.02000000
v -0.23448889 -0.03611771 0.02000000
v -0.23500000 -0.04000000 0.02000000
v -0.23487167 -0.04195789 0.02000000
v -0.23448889 -0.04388228 0.02000000
v -0.23299038 -0.04750000 0.02000000
v -0.23060660 -0.05060660 0.02000000
v -0.22913142 -0.05190030 0.02000000
v -0.22574025 -0.05385819 0.02000000
v -0.22388229 -0.05448889 0.02000000
v -0.22000000 -0.05500000 0.02000000
v -0.16000000 -0.05500000 0.02000000
v -0.15804210 -0.05487167 0.02000000
v -0.15425974 -0.05385819 0.02000000
v 0.22913142 -0.05190030 0.00000000
v 0.23190030 -0.04913142 0.00000000
v 0.23299038 -0.04750000 0.00000000
v 0.23385820 -0.04574025 0.00000000
v 0.23487167 -0.04195789 0.00000000
v 0.23487167 -0.03804211 0.00000000
v 0.23385820 -0.03425975 0.00000000
v 0.23190030 -0.03086858 0.00000000
v 0.22913142 -0.02809970 0.00000000
v 0.22750001 -0.02700962 0.00000000
v 0.22388229 -0.02551111 0.00000000
v 0.22000000 -0.02500000 0.00000000
v 0.15804210 -0.02512833 0.00000000
v 0.15425974 -0.02614181 0.00000000
v 0.15086858 -0.02809970 0.00000000
v 0.14809971 -0.03086858 0.00000000
v 0.14614181 -0.03425975 0.00000000
v 0.14551111 -0.03611771 0.00000000
v 0.14512832 -0.03804211 0.00000000
v 0.14512832 -0.04195789 0.00000000
v 0.14614181 -0.04574025 0.00000000
v 0.14700963 -0.04750000 0.00000000
v 0.14809971 -0.04913142 0.00000000
v 0.15086858 -0.05190030 0.00000000
v 0.15425974 -0.05385819 0.00000000
v 0.15611771 -0.05448889 0.00000000
v 0.16000000 -0.05500000 0.00000000
v 0.22000000 -0.05500000 0.00000000
v 0.22195789 -0.05487167 0.00000000
v 0.22574025 -0.05385819 0.00000000
v 0.22913142 -0.05190030 0.02000000
v 0.23190030 -0.04913142 0.02000000
v 0.23299038 -0.04750000 0.02000000
v 0.23385820 -0.04574025 0.02000000
v 0.23487167 -0.04195789 0.02000000
v 0.23487167 -0.03804211 0.02000000
v 0.23385820 -0.03425975 0.02000000
v 0.23190030 -0.03086858 0.02000000
v 0.22913142 -0.02809970 0.02000000
v 0.22750001 -0.02700962 0.02000000
v 0.22388229 -0.02551111 0.02000000
v 0.22000000 -0.02500000 0.02000000
v 0.15804210 -0.02512833 0.02000000
v 0.15425974 -0.02614181 0.02000000
v 0.15086858 -0.02809970 0.02000000
v 0.14809971 -0.03086858 0.02000000
v 0.14614181 -0.03425975 0.02000000
v 0.14551111 -0.03611771 0.02000000
v 0.14512832 -0.03804211 0.02000000
v 0.14512832 -0.04195789 0.02000000
v 0.14614181 -0.04574025 0.02000000
v 0.14700963 -0.04750000 0.02000000
v 0.14809971 -0.04913142 0.02000000
v 0.15086858 -0.05190030 0.02000000
v 0.15425974 -0.05385819 0.02000000
v 0.15611771 -0.05448889 0.02000000
v 0.16000000 -0.05500000 0.02000000
v 0.22000000 -0.05500000 0.02000000
v 0.22195789 -0.05487167 0.02000000
v 0.22574025 -0.05385819 0.02000000
v 0.13211228 -0.09223384 0.00000000
v 0.12915757 -0.08071981 0.00000000
v 0.12662970 -0.07320756 0.00000000
v 0.12384127 -0.06626033 0.00000000
v 0.11863379 -0.05557457 0.00000000
v 0.11250649 -0.04538833 0.00000000
v 0.10550688 -0.03578059 0.00000000
v 0.09768923 -0.02682583 0.00000000
v 0.08878288 -0.01830333 0.00000000
v 0.08266152 -0.01326816 0.00000000
v 0.07661820 -0.00885027 0.00000000
v 0.06654353 -0.00254120 0.00000000
v 0.05595293 0.00285716 0.00000000
v 0.04492849 0.00730296 0.00000000
v 0.03355571 0.01076172 0.00000000
v 0.02148809 0.01327743 0.00000000
v 0.00968061 0.01465102 0.00000000
v 0.00176158 0.01498707 0.00000000
v -0.00572356 0.01487718 0.00000000
v -0.01800283 0.01379279 0.00000000
v -0.02970255 0.01169044 0.00000000
v -0.04117196 0.00856703 0.00000000
v -0.05232216 0.00444679 0.00000000
v -0.06306668 -0.00063834 0.00000000
v -0.07332222 -0.00664893 0.00000000
v -0.08300926 -0.01353839 0.00000000
v -0.09205269 -0.02125328 0.00000000
v -0.10038240 -0.02973380 0.00000000
v -0.10793380 -0.03891420 0.00000000
v -0.11464834 -0.04872328 0.00000000
v -0.12047397 -0.05908501 0.00000000
v -0.12536550 -0.06991903 0.00000000
v -0.12928502 -0.08114136 0.00000000
v -0.13220215 -0.09266497 0.00000000
v -0.13415608 -0.10500000 0.00000000
v -0.22195789 -0.10512833 0.00000000
v -0.22574025 -0.10614181 0.00000000
v -0.22750001 -0.10700962 0.00000000
v -0.23060660 -0.10939340 0.00000000
v -0.23299038 -0.11250000 0.00000000
v -0.23385820 -0.11425975 0.00000000
v -0.23448889 -0.11611772 0.00000000
v -0.23500000 -0.12000000 0.00000000
v -0.23448889 -0.12388229 0.00000000
v -0.23385820 -0.12574024 0.00000000
v -0.23299038 -0.12750000 0.00000000
v -0.23060660 -0.13060661 0.00000000
v -0.22750001 -0.13299038 0.00000000
v -0.22574025 -0.13385819 0.00000000
v -0.22195789 -0.13487168 0.00000000
v -0.22000000 -0.13500001 0.00000000
v 0.22000000 -0.13500001 0.00000000
v 0.22195789 -0.13487168 0.00000000
v 0.22574025 -0.13385819 0.00000000
v 0.22913142 -0.13190030 0.00000000
v 0.23190030 -0.12913142 0.00000000
v 0.23299038 -0.12750000 0.00000000
v 0.23385820 -0.12574024 0.00000000
v 0.23487167 -0.12195789 0.00000000
v 0.23487167 -0.11804210 0.00000000
v 0.23448889 -0.11611772 0.00000000
v 0.23385820 -0.11425975 0.00000000
v 0.23190030 -0.11086858 0.00000000
v 0.22913142 -0.10809970 0.00000000
v 0.22750001 -0.10700962 0.00000000
v 0.22574025 -0.10614181 0.00000000
v 0.22195789 -0.10512833 0.00000000
v 0.13415608 -0.10500000 0.00000000
v -0.10135385 -0.09257635 0.00000000
v -0.09854852 -0.08376675 0.00000000
v -0.09497911 -0.07523808 0.00000000
v -0.09067328 -0.06705647 0.00000000
v -0.08566441 -0.05928535 0.00000000
v -0.07999136 -0.05198498 0.00000000
v -0.07369810 -0.04521196 0.00000000
v -0.06683343 -0.03901881 0.00000000
v -0.05945057 -0.03345354 0.00000000
v -0.05160676 -0.02855929 0.00000000
v -0.04336282 -0.02437403 0.00000000
v -0.03478267 -0.02093020 0.00000000
v -0.02593284 -0.01825449 0.00000000
v -0.01688194 -0.01636766 0.00000000
v -0.00770014 -0.01528435 0.00000000
v 0.00154136 -0.01501293 0.00000000
v 0.01077090 -0.01555553 0.00000000
v 0.01991694 -0.01690792 0.00000000
v 0.02890855 -0.01905964 0.00000000
v 0.03767602 -0.02199399 0.00000000
v 0.04615137 -0.02568822 0.00000000
v 0.05426889 -0.03011369 0.00000000
v 0.06196564 -0.03523609 0.00000000
v 0.06918194 -0.04101570 0.00000000
v 0.07586185 -0.04740771 0.00000000
v 0.08195357 -0.05436256 0.00000000
v 0.08740986 -0.06182633 0.00000000
v 0.09218843 -0.06974114 0.00000000
v 0.09625223 -0.07804562 0.00000000
v 0.09956973 -0.08667541 0.00000000
v 0.10211524 -0.09556356 0.00000000
v 0.10391667 -0.10500000 0.00000000
v -0.10391667 -0.10500000 0.00000000
v 0.13211228 -0.09223384 0.02000000
v 0.12915757 -0.08071981 0.02000000
v 0.12662970 -0.07320756 0.02000000
v 0.12384127 -0.06626033 0.02000000
v 0.11863379 -0.05557457 0.02000000
v 0.11250649 -0.04538833 0.02000000
v 0.10550688 -0.03578059 0.02000000
v 0.09768923 -0.02682583 0.02000000
v 0.08878288 -0.01830333 0.02000000
v 0.08266152 -0.01326816 0.02000000
v 0.07661820 -0.00885027 0.02000000
v 0.06654353 -0.00254120 0.02000000
v 0.05595293 0.00285716 0.02000000
v 0.04492849 0.00730296 0.02000000
v 0.03355571 0.01076172 0.02000000
v 0.02148809 0.01327743 0.02000000
v 0.00968061 0.01465102 0.02000000
v 0.00176158 0.01498707 0.02000000
v -0.00572356 0.01487718 0.02000000
v -0.01800283 0.01379279 0.02000000
v -0.02970255 0.01169044 0.02000000
v -0.04117196 0.00856703 0.02000000
v -0.05232216 0.00444679 0.02000000
v -0.06306668 -0.00063834 0.02000000
v -0.07332222 -0.00664893 0.02000000
v -0.08300926 -0.01353839 0.02000000
v -0.09205269 -0.02125328 0.02000000
v -0.10038240 -0.02973380 0.02000000
v -0.10793380 -0.03891420 0.02000000
v -0.11464834 -0.04872328 0.02000000
v -0.12047397 -0.05908501 0.02000000
v -0.12536550 -0.06991903 0.02000000
v -0.12928502 -0.08114136 0.02000000
v -0.13220215 -0.09266497 0.02000000
v -0.13415608 -0.10500000 0.02000000
v -0.22195789 -0.10512833 0.02000000
v -0.22574025 -0.10614181 0.02000000
v -0.22750001 -0.10700962 0.02000000
v -0.23060660 -0.10939340 0.02000000
v -0.23299038 -0.11250000 0.02000000
v -0.23385820 -0.11425975 0.02000000
v -0.23448889 -0.11611772 0.02000000
v -0.23500000 -0.12000000 0.02000000
v -0.23448889 -0.12388229 0.02000000
v -0.23385820 -0.12574024 0.02000000
v -0.23299038 -0.12750000 0.02000000
v -0.23060660 -0.13060661 0.02000000
v -0.22750001 -0.13299038 0.02000000
v -0.22574025 -0.13385819 0.02000000
v -0.22195789 -0.13487168 0.02000000
v -0.22000000 -0.13500001 0.02000000
v 0.22000000 -0.13500001 0.02000000
v 0.22195789 -0.13487168 0.02000000
v 0.22574025 -0.13385819 0.02000000
v 0.22913142 -0.13190030 0.02000000
v 0.23190030 -0.12913142 0.02000000
v 0.23299038 -0.12750000 0.02000000
v 0.23385820 -0.12574024 0.02000000
v 0.23487167 -0.12195789 0.02000000
v 0.23487167 -0.11804210 0.02000000
v 0.23448889 -0.11611772 0.02000000
v 0.23385820 -0.11425975 0.02000000
v 0.23190030 -0.11086858 0.02000000
v 0.22913142 -0.10809970 0.02000000
v 0.22750001 -0.10700962 0.02000000
v 0.22574025 -0.10614181 0.02000000
v 0.22195789 -0.10512833 0.02000000
v 0.13415608 -0.10500000 0.02000000
v -0.10135385 -0.09257635 0.02000000
v -0.09854852 -0.08376675 0.02000000
v -0.09497911 -0.07523808 0.02000000
v -0.09067328 -0.06705647 0.02000000
v -0.08566441 -0.05928535 0.02000000
v -0.07999136 -0.05198498 0.02000000
v -0.07369810 -0.04521196 0.02000000
v -0.06683343 -0.03901881 0.02000000
v -0.05945057 -0.03345354 0.02000000
v -0.05160676 -0.02855929 0.02000000
v -0.04336282 -0.02437403 0.02000000
v -0.03478267 -0.02093020 0.02000000
v -0.02593284 -0.01825449 0.02000000
v -0.01688194 -0.01636766 0.02000000
v -0.00770014 -0.01528435 0.02000000
v 0.00154136 -0.01501293 0.02000000
v 0.01077090 -0.01555553 0.02000000
v 0.01991694 -0.01690792 0.02000000
v 0.02890855 -0.01905964 0.02000000
v 0.03767602 -0.02199399 0.02000000
v 0.04615137 -0.02568822 0.02000000
v 0.05426889 -0.03011369 0.02000000
v 0.06196564 -0.03523609 0.02000000
v 0.06918194 -0.04101570 0.02000000
v 0.07586185 -0.04740771 0.02000000
v 0.08195357 -0.05436256 0.02000000
v 0.08740986 -0.06182633 0.02000000
v 0.09218843 -0.06974114 0.02000000
v 0.09625223 -0.07804562 0.02000000
v 0.09956973 -0.08667541 0.02000000
v 0.10211524 -0.09556356 0.02000000
v 0.10391667 -0.10500000 0.02000000
v -0.10391667 -0.10500000 0.02000000
v 0.10913142 -0.21190029 0.00000000
v 0.11190030 -0.20913142 0.00000000
v 0.11299038 -0.20750000 0.00000000
v 0.11385819 -0.20574026 0.00000000
v 0.11487167 -0.20195790 0.00000000
v 0.11487167 -0.19804211 0.00000000
v 0.11385819 -0.19425975 0.00000000
v 0.11190030 -0.19086857 0.00000000
v 0.11060660 -0.18939340 0.00000000
v 0.10913142 -0.18809970 0.00000000
v 0.10574025 -0.18614180 0.00000000
v 0.10195789 -0.18512833 0.00000000
v -0.10000000 -0.18500000 0.00000000
v -0.10195789 -0.18512833 0.00000000
v -0.10574025 -0.18614180 0.00000000
v -0.10913142 -0.18809970 0.00000000
v -0.11190030 -0.19086857 0.00000000
v -0.11299038 -0.19250000 0.00000000
v -0.11385819 -0.19425975 0.00000000
v -0.11487167 -0.19804211 0.00000000
v -0.11487167 -0.20195790 0.00000000
v -0.11448888 -0.20388229 0.00000000
v -0.11385819 -0.20574026 0.00000000
v -0.11190030 -0.20913142 0.00000000
v -0.10913142 -0.21190029 0.00000000
v -0.10750000 -0.21299039 0.00000000
v -0.10574025 -0.21385819 0.00000000
v -0.10195789 -0.21487167 0.00000000
v 0.10000000 -0.21500000 0.00000000
v 0.10195789 -0.21487167 0.00000000
v 0.10574025 -0.21385819 0.00000000
v 0.10913142 -0.21190029 0.02000000
v 0.11190030 -0.20913142 0.02000000
v 0.11299038 -0.20750000 0.02000000
v 0.11385819 -0.20574026 0.02000000
v 0.11487167 -0.20195790 0.02000000
v 0.11487167 -0.19804211 0.02000000
v 0.11385819 -0.19425975 0.02000000
v 0.11190030 -0.19086857 0.02000000
v 0.11060660 -0.18939340 0.02000000
v 0.10913142 -0.18809970 0.02000000
v 0.10574025 -0.18614180 0.02000000
v 0.10195789 -0.18512833 0.02000000
v -0.10000000 -0.18500000 0.02000000
v -0.10195789 -0.18512833 0.02000000
v -0.10574025 -0.18614180 0.02000000
v -0.10913142 -0.18809970 0.02000000
v -0.11190030 -0.19086857 0.02000000
v -0.11299038 -0.19250000 0.02000000
v -0.11385819 -0.19425975 0.02000000
v -0.11487167 -0.19804211 0.02000000
v -0.11487167 -0.20195790 0.02000000
v -0.11448888 -0.20388229 0.02000000
v -0.11385819 -0.20574026 0.02000000
v -0.11190030 -0.20913142 0.02000000
v -0.10913142 -0.21190029 0.02000000
v -0.10750000 -0.21299039 0.02000000
v -0.10574025 -0.21385819 0.02000000
v -0.10195789 -0.21487167 0.02000000
v 0.10000000 -0.21500000 0.02000000
v 0.10195789 -0.21487167 0.02000000
v 0.10574025 -0.21385819 0.02000000
f 1 30 29
f 1 29 28
f 1 28 27
f 1 27 26
f 1 26 25
f 1 25 24
f 1 24 23
f 1 23 22
f 1 22 21
f 1 21 20
f 1 20 19
f 1 19 18
f 1 18 17
f 1 17 16
f 1 16 15
f 1 15 14
f 1 14 13
f 1 13 12
f 1 12 11
f 1 11 10
f 1 10 9
f 1 9 8
f 1 8 7
f 1 7 6
f 1 6 5
f 1 5 4
f 1 4 3
f 1 3 2
f 59 60 31
f 58 59 31
f 57 58 31
f 56 57 31
f 55 56 31
f 54 55 31
f 53 54 31
f 52 53 31
f 51 52 31
f 50 51 31
f 49 50 31
f 48 49 31
f 47 48 31
f 46 47 31
f 45 46 31
f 44 45 31
f 43 44 31
f 42 43 31
f 41 42 31
f 40 41 31
f 39 40 31
f 38 39 31
f 37 38 31
f 36 37 31
f 35 36 31
f 34 35 31
f 33 34 31
f 32 33 31
f 1 32 31
f 2 32 1
f 2 33 32
f 3 33 2
f 3 34 33
f 4 34 3
f 4 35 34
f 5 35 4
f 5 36 35
f 6 36 5
f 6 37 36
f 7 37 6
f 7 38 37
f 8 38 7
f 8 39 38
f 9 39 8
f 9 40 39
f 10 40 9
f 10 41 40
f 11 41 10
f 11 42 41
f 12 42 11
f 12 43 42
f 13 43 12
f 13 44 43
f 14 44 13
f 14 45 44
f 15 45 14
f 15 46 45
f 16 46 15
f 16 47 46
f 17 47 16
f 17 48 47
f 18 48 17
f 18 49 48
f 19 49 18
f 19 50 49
f 20 50 19
f 20 51 50
f 21 51 20
f 21 52 51
f 22 52 21
f 22 53 52
f 23 53 22
f 23 54 53
f 24 54 23
f 24 55 54
f 25 55 24
f 25 56 55
f 26 56 25
f 26 57 56
f 27 57 26
f 27 58 57
f 28 58 27
f 28 59 58
f 29 59 28
f 30 31 60
f 1 31 30
f 29 60 59
f 30 60 29
f 61 90 89
f 61 89 88
f 61 88 87
f 61 87 86
f 61 86 85
f 61 85 84
f 61 84 83
f 61 83 82
f 61 82 81
f 61 81 80
f 61 80 79
f 61 79 78
f 61 78 77
f 61 77 76
f 61 76 75
f 61 75 74
f 61 74 73
f 61 73 72
f 61 72 71
f 61 71 70
f 61 70 69
f 61 69 68
f 61 68 67
f 61 67 66
f 61 66 65
f 61 65 64
f 61 64 63
f 61 63 62
f 119 120 91
f 118 119 91
f 117 118 91
f 116 117 91
f 115 116 91
f 114 115 91
f 113 114 91
f 112 113 91
f 111 112 91
f 110 111 91
f 109 110 91
f 108 109 91
f 107 108 91
f 106 107 91
f 105 106 91
f 104 105 91
f 103 104 91
f 102 103 91
f 101 102 91
f 100 101 91
f 99 100 91
f 98 99 91
f 97 98 91
f 96 97 91
f 95 96 91
f 94 95 91
f 93 94 91
f 92 93 91
f 61 92 91
f 62 92 61
f 62 93 92
f 63 93 62
f 63 94 93
f 64 94 63
f 64 95 94
f 65 95 64
f 65 96 95
f 66 96 65
f 66 97 96
f 67 97 66
f 67 98 97
f 68 98 67
f 68 99 98
f 69 99 68
f 69 100 99
f 70 100 69
f 70 101 100
f 71 101 70
f 71 102 101
f 72 102 71
f 72 103 102
f 73 103 72
f 73 104 103
f 74 104 73
f 74 105 104
f 75 105 74
f 75 106 105
f 76 106 75
f 76 107 106
f 77 107 76
f 77 108 107
f 78 108 77
f 78 109 108
f 79 109 78
f 79 110 109
f 80 110 79
f 80 111 110
f 81 111 80
f 81 112 111
f 82 112 81
f 82 113 112
f 83 113 82
f 83 114 113
f 84 114 83
f 84 115 114
f 85 115 84
f 85 116 115
f 86 116 85
f 86 117 116
f 87 117 86
f 87 118 117
f 88 118 87
f 88 119 118
f 89 119 88
f 90 91 120
f 61 91 90
f 89 120 119
f 90 120 89
f 121 150 149
f 121 149 148
f 121 148 147
f 121 147 146
f 121 146 145
f 121 145 144
f 121 144 143
f 121 143 142
f 121 142 141
f 121 141 140
f 121 140 139
f 121 139 138
f 121 138 137
f 121 137 136
f 121 136 135
f 121 135 134
f 121 134 133
f 121 133 132
f 121 132 131
f 121 131 130
f 121 130 129
f 121 129 128
f 121 128 127
f 121 127 126
f 121 126 125
f 121 125 124
f 121 124 123
f 121 123 122
f 179 180 151
f 178 179 151
f 177 178 151
f 176 177 151
f 175 176 151
f 174 175 151
f 173 174 151
f 172 173 151
f 171 172 151
f 170 171 151
f 169 170 151
f 168 169 151
f 167 168 151
f 166 167 151
f 165 166 151
f 164 165 151
f 163 164 151
f 162 163 151
f 161 162 151
f 160 161 151
f 159 160 151
f 158 159 151
f 157 158 151
f 156 157 151
f 155 156 151
f 154 155 151
f 153 154 151
f 152 153 151
f 121 152 151
f 122 152 121
f 122 153 152
f 123 153 122
f 123 154 153
f 124 154 123
f 124 155 154
f 125 155 124
f 125 156 155
f 126 156 125
f 126 157 156
f 127 157 126
f 127 158 157
f 128 158 127
f 128 159 158
f 129 159 128
f 129 160 159
f 130 160 129
f 130 161 160
f 131 161 130
f 131 162 161
f 132 162 131
f 132 163 162
f 133 163 132
f 133 164 163
f 134 164 133
f 134 165 164
f 135 165 134
f 135 166 165
f 136 166 135
f 136 167 166
f 137 167 136
f 137 168 167
f 138 168 137
f 138 169 168
f 139 169 138
f 139 170 169
f 140 170 139
f 140 171 170
f 141 171 140
f 141 172 171
f 142 172 141
f 142 173 172
f 143 173 142
f 143 174 173
f 144 174 143
f 144 175 174
f 145 175 144
f 145 176 175
f 146 176 145
f 146 177 176
f 147 177 146
f 147 178 177
f 148 178 147
f 148 179 178
f 149 179 148
f 150 151 180
f 121 151 150
f 149 180 179
f 150 180 149
f 181 210 209
f 181 209 208
f 181 208 207
f 181 207 206
f 181 206 205
f 181 205 204
f 181 204 203
f 181 203 202
f 181 202 201
f 181 201 200
f 181 200 199
f 181 199 198
f 181 198 197
f 181 197 196
f 181 196 195
f 181 195 194
f 181 194 193
f 181 193 192
f 181 192 191
f 181 191 190
f 181 190 189
f 181 189 188
f 181 188 187
f 181 187 186
f 181 186 185
f 181 185 184
f 181 184 183
f 181 183 182
f 239 240 211
f 238 239 211
f 237 238 211
f 236 237 211
f 235 236 211
f 234 235 211
f 233 234 211
f 232 233 211
f 231 232 211
f 230 231 211
f 229 230 211
f 228 229 211
f 227 228 211
f 226 227 211
f 225 226 211
f 224 225 211
f 223 224 211
f 222 223 211
f 221 222 211
f 220 221 211
f 219 220 211
f 218 219 211
f 217 218 211
f 216 217 211
f 215 216 211
f 214 215 211
f 213 214 211
f 212 213 211
f 181 212 211
f 182 212 181
f 182 213 212
f 183 213 182
f 183 214 213
f 184 214 183
f 184 215 214
f 185 215 184
f 185 216 215
f 186 216 185
f 186 217 216
f 187 217 186
f 187 218 217
f 188 218 187
f 188 219 218
f 189 219 188
f 189 220 219
f 190 220 189
f 190 221 220
f 191 221 190
f 191 222 221
f 192 222 191
f 192 223 222
f 193 223 192
f 193 224 223
f 194 224 193
f 194 225 224
f 195 225 194
f 195 226 225
f 196 226 195
f 196 227 226
f 197 227 196
f 197 228 227
f 198 228 197
f 198 229 228
f 199 229 198
f 199 230 229
f 200 230 199
f 200 231 230
f 201 231 200
f 201 232 231
f 202 232 201
f 202 233 232
f 203 233 202
f 203 234 233
f 204 234 203
f 204 235 234
f 205 235 204
f 205 236 235
f 206 236 205
f 206 237 236
f 207 237 206
f 207 238 237
f 208 238 207
f 208 239 238
f 209 239 208
f 210 211 240
f 181 211 210
f 209 240 239
f 210 240 209
f 241 270 269
f 241 269 268
f 241 268 267
f 241 267 266
f 241 266 265
f 241 265 264
f 241 264 263
f 241 263 262
f 241 262 261
f 241 261 260
f 241 260 259
f 241 259 258
f 241 258 257
f 241 257 256
f 241 256 255
f 241 255 254
f 241 254 253
f 241 253 252
f 241 252 251
f 241 251 250
f 241 250 249
f 241 249 248
f 241 248 247
f 241 247 246
f 241 246 245
f 241 245 244
f 241 244 243
f 241 243 242
f 299 300 271
f 298 299 271
f 297 298 271
f 296 297 271
f 295 296 271
f 294 295 271
f 293 294 271
f 292 293 271
f 291 292 271
f 290 291 271
f 289 290 271
f 288 289 271
f 287 288 271
f 286 287 271
f 285 286 271
f 284 285 271
f 283 284 271
f 282 283 271
f 281 282 271
f 280 281 271
f 279 280 271
f 278 279 271
f 277 278 271
f 276 277 271
f 275 276 271
f 274 275 271
f 273 274 271
f 272 273 271
f 241 272 271
f 242 272 241
f 242 273 272
f 243 273 242
f 243 274 273
f 244 274 243
f 244 275 274
f 245 275 244
f 245 276 275
f 246 276 245
f 246 277 276
f 247 277 246
f 247 278 277
f 248 278 247
f 248 279 278
f 249 279 248
f 249 280 279
f 250 280 249
f 250 281 280
f 251 281 250
f 251 282 281
f 252 282 251
f 252 283 282
f 253 283 252
f 253 284 283
f 254 284 253
f 254 285 284
f 255 285 254
f 255 286 285
f 256 286 255
f 256 287 286
f 257 287 256
f 257 288 287
f 258 288 257
f 258 289 288
f 259 289 258
f 259 290 289
f 260 290 259
f 260 291 290
f 261 291 260
f 261 292 291
f 262 292 261
f 262 293 292
f 263 293 262
f 263 294 293
f 264 294 263
f 264 295 294
f 265 295 264
f 265 296 295
f 266 296 265
f 266 297 296
f 267 297 266
f 267 298 297
f 268 298 267
f 268 299 298
f 269 299 268
f 270 271 300
f 241 271 270
f 269 300 299
f 270 300 269
f 400 335 336
f 335 401 369
f 334 335 369
f 333 334 369
f 332 333 369
f 331 332 369
f 330 331 369
f 329 330 369
f 328 329 369
f 327 328 369
f 326 327 369
f 324 325 326
f 323 324 326
f 322 323 326
f 321 322 326
f 320 321 326
f 319 320 326
f 318 319 326
f 317 318 326
f 316 317 326
f 315 316 326
f 314 315 326
f 313 314 326
f 312 313 326
f 311 312 326
f 310 311 326
f 308 309 310
f 307 308 310
f 306 307 310
f 305 306 310
f 304 305 310
f 303 304 310
f 302 303 310
f 301 302 310
f 368 301 310
f 366 367 368
f 365 366 368
f 364 365 368
f 363 364 368
f 362 363 368
f 361 362 368
f 360 361 368
f 359 360 368
f 358 359 368
f 357 358 368
f 356 357 368
f 355 356 368
f 354 355 368
f 353 354 368
f 352 353 368
f 351 352 368
f 350 351 368
f 349 350 368
f 348 349 368
f 347 348 368
f 346 347 368
f 345 346 368
f 344 345 368
f 343 344 368
f 342 343 368
f 341 342 368
f 340 341 368
f 339 340 368
f 338 339 368
f 337 338 368
f 336 337 368
f 400 336 368
f 399 400 368
f 398 399 368
f 397 398 368
f 396 397 368
f 395 396 368
f 394 395 368
f 393 394 368
f 326 369 370
f 393 368 310
f 392 393 310
f 391 392 310
f 390 391 310
f 389 390 310
f 388 389 310
f 387 388 310
f 386 387 310
f 385 386 310
f 384 385 310
f 326 370 371
f 384 310 326
f 383 384 326
f 382 383 326
f 381 382 326
f 380 381 326
f 379 380 326
f 378 379 326
f 377 378 326
f 376 377 326
f 375 376 326
f 374 375 326
f 373 374 326
f 372 373 326
f 371 372 326
f 437 436 501
f 470 502 436
f 470 436 435
f 470 435 434
f 470 434 433
f 470 433 432
f 470 432 431
f 470 431 430
f 470 430 429
f 470 429 428
f 470 428 427
f 427 426 425
f 427 425 424
f 427 424 423
f 427 423 422
f 427 422 421
f 427 421 420
f 427 420 419
f 427 419 418
f 427 418 417
f 427 417 416
f 427 416 415
f 427 415 414
f 427 414 413
f 427 413 412
f 427 412 411
f 411 410 409
f 411 409 408
f 411 408 407
f 411 407 406
f 411 406 405
f 411 405 404
f 411 404 403
f 411 403 402
f 411 402 469
f 469 468 467
f 469 467 466
f 469 466 465
f 469 465 464
f 469 464 463
f 469 463 462
f 469 462 461
f 469 461 460
f 469 460 459
f 469 459 458
f 469 458 457
f 469 457 456
f 469 456 455
f 469 455 454
f 469 454 453
f 469 453 452
f 469 452 451
f 469 451 450
f 469 450 449
f 469 449 448
f 469 448 447
f 469 447 446
f 469 446 445
f 469 445 444
f 469 444 443
f 469 443 442
f 469 442 441
f 469 441 440
f 469 440 439
f 469 439 438
f 469 438 437
f 469 437 501
f 469 501 500
f 469 500 499
f 469 499 498
f 469 498 497
f 469 497 496
f 469 496 495
f 469 495 494
f 471 470 427
f 411 469 494
f 411 494 493
f 411 493 492
f 411 492 491
f 411 491 490
f 411 490 489
f 411 489 488
f 411 488 487
f 411 487 486
f 411 486 485
f 472 471 427
f 427 411 485
f 427 485 484
f 427 484 483
f 427 483 482
f 427 482 481
f 427 481 480
f 427 480 479
f 427 479 478
f 427 478 477
f 427 477 476
f 427 476 475
f 427 475 474
f 427 474 473
f 427 473 472
f 402 403 301
f 301 403 302
f 403 404 302
f 302 404 303
f 404 405 303
f 303 405 304
f 405 406 304
f 304 406 305
f 406 407 305
f 305 407 306
f 407 408 306
f 306 408 307
f 408 409 307
f 307 409 308
f 409 410 308
f 308 410 309
f 410 411 309
f 309 411 310
f 411 412 310
f 310 412 311
f 412 413 311
f 311 413 312
f 413 414 312
f 312 414 313
f 414 415 313
f 313 415 314
f 415 416 314
f 314 416 315
f 416 417 315
f 315 417 316
f 417 418 316
f 316 418 317
f 418 419 317
f 317 419 318
f 419 420 318
f 318 420 319
f 420 421 319
f 319 421 320
f 421 422 320
f 320 422 321
f 422 423 321
f 321 423 322
f 423 424 322
f 322 424 323
f 424 425 323
f 323 425 324
f 425 426 324
f 324 426 325
f 426 427 325
f 325 427 326
f 427 428 326
f 326 428 327
f 428 429 327
f 327 429 328
f 429 430 328
f 328 430 329
f 430 431 329
f 329 431 330
f 431 432 330
f 330 432 331
f 432 433 331
f 331 433 332
f 433 434 332
f 332 434 333
f 434 435 333
f 333 435 334
f 435 436 334
f 334 436 335
f 436 437 335
f 335 437 336
f 437 438 336
f 336 438 337
f 438 439 337
f 337 439 338
f 439 440 338
f 338 440 339
f 440 441 339
f 339 441 340
f 441 442 340
f 340 442 341
f 442 443 341
f 341 443 342
f 443 444 342
f 342 444 343
f 444 445 343
f 343 445 344
f 445 446 344
f 344 446 345
f 446 447 345
f 345 447 346
f 447 448 346
f 346 448 347
f 448 449 347
f 347 449 348
f 449 450 348
f 348 450 349
f 450 451 349
f 349 451 350
f 451 452 350
f 350 452 351
f 452 453 351
f 351 453 352
f 453 454 352
f 352 454 353
f 454 455 353
f 353 455 354
f 455 456 354
f 354 456 355
f 456 457 355
f 355 457 356
f 457 458 356
f 356 458 357
f 458 459 357
f 357 459 358
f 459 460 358
f 358 460 359
f 460 461 359
f 359 461 360
f 461 462 360
f 360 462 361
f 462 463 361
f 361 463 362
f 463 464 362
f 362 464 363
f 464 465 363
f 363 465 364
f 465 466 364
f 364 466 365
f 466 467 365
f 365 467 366
f 467 468 366
f 366 468 367
f 469 402 368
f 368 402 301
f 468 469 367
f 367 469 368
f 470 471 369
f 369 471 370
f 471 472 370
f 370 472 371
f 472 473 371
f 371 473 372
f 473 474 372
f 372 474 373
f 474 475 373
f 373 475 374
f 475 476 374
f 374 476 375
f 476 477 375
f 375 477 376
f 477 478 376
f 376 478 377
f 478 479 377
f 377 479 378
f 479 480 378
f 378 480 379
f 480 481 379
f 379 481 380
f 481 482 380
f 380 482 381
f 482 483 381
f 381 483 382
f 483 484 382
f 382 484 383
f 484 485 383
f 383 485 384
f 485 486 384
f 384 486 385
f 486 487 385
f 385 487 386
f 487 488 386
f 386 488 387
f 488 489 387
f 387 489 388
f 489 490 388
f 388 490 389
f 490 491 389
f 389 491 390
f 491 492 390
f 390 492 391
f 492 493 391
f 391 493 392
f 493 494 392
f 392 494 393
f 494 495 393
f 393 495 394
f 495 496 394
f 394 496 395
f 496 497 395
f 395 497 396
f 497 498 396
f 396 498 397
f 498 499 397
f 397 499 398
f 499 500 398
f 398 500 399
f 501 436 400
f 400 436 335
f 500 501 399
f 399 501 400
f 436 502 335
f 335 502 401
f 502 470 401
f 401 470 369
f 503 533 532
f 503 532 531
f 503 531 530
f 503 530 529
f 503 529 528
f 503 528 527
f 503 527 526
f 503 526 525
f 503 525 524
f 503 524 523
f 503 523 522
f 503 522 521
f 503 521 520
f 503 520 519
f 503 519 518
f 503 518 517
f 503 517 516
f 503 516 515
f 503 515 514
f 503 514 513
f 503 513 512
f 503 512 511
f 503 511 510
f 503 510 509
f 503 509 508
f 503 508 507
f 503 507 506
f 503 506 505
f 503 505 504
f 563 564 534
f 562 563 534
f 561 562 534
f 560 561 534
f 559 560 534
f 558 559 534
f 557 558 534
f 556 557 534
f 555 556 534
f 554 555 534
f 553 554 534
f 552 553 534
f 551 552 534
f 550 551 534
f 549 550 534
f 548 549 534
f 547 548 534
f 546 547 534
f 545 546 534
f 544 545 534
f 543 544 534
f 542 543 534
f 541 542 534
f 540 541 534
f 539 540 534
f 538 539 534
f 537 538 534
f 536 537 534
f 535 536 534
f 503 535 534
f 504 535 503
f 504 536 535
f 505 536 504
f 505 537 536
f 506 537 505
f 506 538 537
f 507 538 506
f 507 539 538
f 508 539 507
f 508 540 539
f 509 540 508
f 509 541 540
f 510 541 509
f 510 542 541
f 511 542 510
f 511 543 542
f 512 543 511
f 512 544 543
f 513 544 512
f 513 545 544
f 514 545 513
f 514 546 545
f 515 546 514
f 515 547 546
f 516 547 515
f 516 548 547
f 517 548 516
f 517 549 548
f 518 549 517
f 518 550 549
f 519 550 518
f 519 551 550
f 520 551 519
f 520 552 551
f 521 552 520
f 521 553 552
f 522 553 521
f 522 554 553
f 523 554 522
f 523 555 554
f 524 555 523
f 524 556 555
f 525 556 524
f 525 557 556
f 526 557 525
f 526 558 557
f 527 558 526
f 527 559 558
f 528 559 527
f 528 560 559
f 529 560 528
f 529 561 560
f 530 561 529
f 530 562 561
f 531 562 530
f 531 563 562
f 532 563 531
f 533 534 564
f 503 534 533
f 532 564 563
f 533 564 532

