# https://github.com/mikedh/trimesh

o mark_night_owl
v 0.06909121 0.14378718 0.00000000
v 0.06575613 0.14181317 0.00000000
v 0.06303812 0.13905060 0.00000000
v 0.06111859 0.13568388 0.00000000
v 0.06012569 0.13193774 0.00000000
v 0.06012569 0.12806226 0.00000000
v 0.06050065 0.12615699 0.00000000
v 0.06111859 0.12431612 0.00000000
v 0.06303812 0.12094940 0.00000000
v 0.06575613 0.11818683 0.00000000
v 0.06735966 0.11709166 0.00000000
v 0.11257634 0.09757634 0.00000000
v 0.13209167 0.05235966 0.00000000
v 0.13318683 0.05075614 0.00000000
v 0.13594940 0.04803812 0.00000000
v 0.13931611 0.04611859 0.00000000
v 0.14115699 0.04550065 0.00000000
v 0.14306225 0.04512569 0.00000000
v 0.14693774 0.04512569 0.00000000
v 0.15068388 0.04611859 0.00000000
v 0.15405060 0.04803812 0.00000000
v 0.15681317 0.05075614 0.00000000
v 0.15878718 0.05409121 0.00000000
v 0.17742366 0.09757634 0.00000000
v 0.22264035 0.11709166 0.00000000
v 0.22569247 0.11947996 0.00000000
v 0.22696188 0.12094940 0.00000000
v 0.22888140 0.12431612 0.00000000
v 0.22949935 0.12615699 0.00000000
v 0.23000000 0.13000000 0.00000000
v 0.22949935 0.13384302 0.00000000
v 0.22888140 0.13568388 0.00000000
v 0.22696188 0.13905060 0.00000000
v 0.22424386 0.14181317 0.00000000
v 0.22090879 0.14378718 0.00000000
v 0.17742366 0.16242366 0.00000000
v 0.15790834 0.20764035 0.00000000
v 0.15552004 0.21069247 0.00000000
v 0.15405060 0.21196188 0.00000000
v 0.15242949 0.21303083 0.00000000
v 0.14884302 0.21449935 0.00000000
v 0.14693774 0.21487431 0.00000000
v 0.14306225 0.21487431 0.00000000
v 0.13931611 0.21388140 0.00000000
v 0.13594940 0.21196188 0.00000000
v 0.13318683 0.20924386 0.00000000
v 0.13121283 0.20590879 0.00000000
v 0.11257634 0.16242366 0.00000000
v 0.13160534 0.13807102 0.00000000
v 0.13460660 0.14039339 0.00000000
v 0.13586310 0.14182028 0.00000000
v 0.13778718 0.14509121 0.00000000
v 0.14500000 0.16192113 0.00000000
v 0.15221283 0.14509121 0.00000000
v 0.15307102 0.14339466 0.00000000
v 0.15539339 0.14039339 0.00000000
v 0.15682028 0.13913691 0.00000000
v 0.16009121 0.13721283 0.00000000
v 0.17692113 0.13000000 0.00000000
v 0.16009121 0.12278718 0.00000000
v 0.15682028 0.12086309 0.00000000
v 0.15539339 0.11960660 0.00000000
v 0.15307102 0.11660534 0.00000000
v 0.15221283 0.11490879 0.00000000
v 0.14500000 0.09807886 0.00000000
v 0.13778718 0.11490879 0.00000000
v 0.13692899 0.11660534 0.00000000
v 0.13460660 0.11960660 0.00000000
v 0.13160534 0.12192899 0.00000000
v 0.12990879 0.12278718 0.00000000
v 0.11307886 0.13000000 0.00000000
v 0.06909121 0.14378718 0.02000000
v 0.06575613 0.14181317 0.02000000
v 0.06303812 0.13905060 0.02000000
v 0.06111859 0.13568388 0.02000000
v 0.06012569 0.13193774 0.02000000
v 0.06012569 0.12806226 0.02000000
v 0.06050065 0.12615699 0.02000000
v 0.06111859 0.12431612 0.02000000
v 0.06303812 0.12094940 0.02000000
v 0.06575613 0.11818683 0.02000000
v 0.06735966 0.11709166 0.02000000
v 0.11257634 0.09757634 0.02000000
v 0.13209167 0.05235966 0.02000000
v 0.13318683 0.05075614 0.02000000
v 0.13594940 0.04803812 0.02000000
v 0.13931611 0.04611859 0.02000000
v 0.14115699 0.04550065 0.02000000
v 0.14306225 0.04512569 0.02000000
v 0.14693774 0.04512569 0.02000000
v 0.15068388 0.04611859 0.02000000
v 0.15405060 0.04803812 0.02000000
v 0.15681317 0.05075614 0.02000000
v 0.15878718 0.05409121 0.02000000
v 0.17742366 0.09757634 0.02000000
v 0.22264035 0.11709166 0.02000000
v 0.22569247 0.11947996 0.02000000
v 0.22696188 0.12094940 0.02000000
v 0.22888140 0.12431612 0.02000000
v 0.22949935 0.12615699 0.02000000
v 0.23000000 0.13000000 0.02000000
v 0.22949935 0.13384302 0.02000000
v 0.22888140 0.13568388 0.02000000
v 0.22696188 0.13905060 0.02000000
v 0.22424386 0.14181317 0.02000000
v 0.22090879 0.14378718 0.02000000
v 0.17742366 0.16242366 0.02000000
v 0.15790834 0.20764035 0.02000000
v 0.15552004 0.21069247 0.02000000
v 0.15405060 0.21196188 0.02000000
v 0.15242949 0.21303083 0.02000000
v 0.14884302 0.21449935 0.02000000
v 0.14693774 0.21487431 0.02000000
v 0.14306225 0.21487431 0.02000000
v 0.13931611 0.21388140 0.02000000
v 0.13594940 0.21196188 0.02000000
v 0.13318683 0.20924386 0.02000000
v 0.13121283 0.20590879 0.02000000
v 0.11257634 0.16242366 0.02000000
v 0.13160534 0.13807102 0.02000000
v 0.13460660 0.14039339 0.02000000
v 0.13586310 0.14182028 0.02000000
v 0.13778718 0.14509121 0.02000000
v 0.14500000 0.16192113 0.02000000
v 0.15221283 0.14509121 0.02000000
v 0.15307102 0.14339466 0.02000000
v 0.15539339 0.14039339 0.02000000
v 0.15682028 0.13913691 0.02000000
v 0.16009121 0.13721283 0.02000000
v 0.17692113 0.13000000 0.02000000
v 0.16009121 0.12278718 0.02000000
v 0.15682028 0.12086309 0.02000000
v 0.15539339 0.11960660 0.02000000
v 0.15307102 0.11660534 0.02000000
v 0.15221283 0.11490879 0.02000000
v 0.14500000 0.09807886 0.02000000
v 0.13778718 0.11490879 0.02000000
v 0.13692899 0.11660534 0.02000000
v 0.13460660 0.11960660 0.02000000
v 0.13160534 0.12192899 0.02000000
v 0.12990879 0.12278718 0.02000000
v 0.11307886 0.13000000 0.02000000
v 0.01832472 0.18780570 0.00000000
v 0.02075594 0.19093518 0.00000000
v 0.02228278 0.19459212 0.00000000
v 0.02279866 0.19852127 0.00000000
v 0.02226759 0.20244841 0.00000000
v 0.02072662 0.20609942 0.00000000
v 0.01828332 0.20921946 0.00000000
v 0.01677442 0.21051043 0.00000000
v 0.01510821 0.21159078 0.00000000
v 0.01142292 0.21304785 0.00000000
v 0.00598082 0.21378970 0.00000000
v -0.00901969 0.21484634 0.00000000
v -0.02405727 0.21489863 0.00000000
v -0.03906477 0.21394634 0.00000000
v -0.05397514 0.21199374 0.00000000
v -0.06529902 0.20982458 0.00000000
v -0.07987548 0.20612879 0.00000000
v -0.09417251 0.20146762 0.00000000
v -0.10812625 0.19586185 0.00000000
v -0.12167439 0.18933652 0.00000000
v -0.13475639 0.18192080 0.00000000
v -0.14422676 0.17579447 0.00000000
v -0.15615666 0.16705735 0.00000000
v -0.16485527 0.15987724 0.00000000
v -0.17318313 0.15227023 0.00000000
v -0.18111929 0.14425543 0.00000000
v -0.18880624 0.13566202 0.00000000
v -0.19589047 0.12688516 0.00000000
v -0.20449618 0.11486012 0.00000000
v -0.21051824 0.10532311 0.00000000
v -0.21617220 0.09527481 0.00000000
v -0.22119808 0.08517727 0.00000000
v -0.22571163 0.07484055 0.00000000
v -0.22970149 0.06429063 0.00000000
v -0.23412263 0.05017988 0.00000000
v -0.23686607 0.03923944 0.00000000
v -0.23910020 0.02792819 0.00000000
v -0.24072227 0.01676626 0.00000000
v -0.24178293 0.00553706 0.00000000
v -0.24227951 -0.00573118 0.00000000
v -0.24221846 -0.01675959 0.00000000
v -0.24159713 -0.02802164 0.00000000
v -0.24041219 -0.03923840 0.00000000
v -0.23866661 -0.05038169 0.00000000
v -0.23636481 -0.06142350 0.00000000
v -0.23351254 -0.07233608 0.00000000
v -0.23011698 -0.08309200 0.00000000
v -0.22618666 -0.09366426 0.00000000
v -0.22173147 -0.10402626 0.00000000
v -0.21304722 -0.12097672 0.00000000
v -0.20723981 -0.13064593 0.00000000
v -0.20095512 -0.14001197 0.00000000
v -0.19420896 -0.14905128 0.00000000
v -0.18701828 -0.15774114 0.00000000
v -0.17940114 -0.16605975 0.00000000
v -0.17137671 -0.17398618 0.00000000
v -0.16296513 -0.18150051 0.00000000
v -0.15418755 -0.18858385 0.00000000
v -0.14527228 -0.19507599 0.00000000
v -0.13583662 -0.20125562 0.00000000
v -0.12610310 -0.20695463 0.00000000
v -0.11609623 -0.21215869 0.00000000
v -0.10584113 -0.21685474 0.00000000
v -0.09536357 -0.22103095 0.00000000
v -0.08468990 -0.22467683 0.00000000
v -0.07384693 -0.22778325 0.00000000
v -0.05522620 -0.23178354 0.00000000
v -0.03658362 -0.23417340 0.00000000
v -0.01780664 -0.23499899 0.00000000
v 0.00097374 -0.23425454 0.00000000
v 0.01194053 -0.23308870 0.00000000
v 0.02308364 -0.23134200 0.00000000
v 0.04141614 -0.22719757 0.00000000
v 0.05933878 -0.22153755 0.00000000
v 0.07672650 -0.21440142 0.00000000
v 0.09345795 -0.20583899 0.00000000
v 0.10962345 -0.19576870 0.00000000
v 0.12468503 -0.18452567 0.00000000
v 0.13875569 -0.17206480 0.00000000
v 0.15173727 -0.15847306 0.00000000
v 0.16353917 -0.14384528 0.00000000
v 0.17407905 -0.12828353 0.00000000
v 0.17976621 -0.11854310 0.00000000
v 0.18484820 -0.10875520 0.00000000
v 0.18954320 -0.09849963 0.00000000
v 0.19063672 -0.09469061 0.00000000
v 0.19069460 -0.09072815 0.00000000
v 0.18971276 -0.08688882 0.00000000
v 0.18775977 -0.08344059 0.00000000
v 0.18645926 -0.08193991 0.00000000
v 0.18332380 -0.07951641 0.00000000
v 0.17966311 -0.07799860 0.00000000
v 0.17771468 -0.07761514 0.00000000
v 0.17375185 -0.07763258 0.00000000
v 0.17180687 -0.07803318 0.00000000
v 0.16815968 -0.07958315 0.00000000
v 0.15343139 -0.09016774 0.00000000
v 0.14521091 -0.09512793 0.00000000
v 0.13669911 -0.09956966 0.00000000
v 0.12195453 -0.10577504 0.00000000
v 0.10664888 -0.11042763 0.00000000
v 0.09726382 -0.11245252 0.00000000
v 0.08777139 -0.11389248 0.00000000
v 0.07181114 -0.11497857 0.00000000
v 0.05582394 -0.11441384 0.00000000
v 0.04628958 -0.11328437 0.00000000
v 0.03684344 -0.11156678 0.00000000
v 0.02444839 -0.10837350 0.00000000
v 0.00939424 -0.10296225 0.00000000
v -0.00502200 -0.09602817 0.00000000
v -0.01864675 -0.08764514 0.00000000
v -0.03133490 -0.07790244 0.00000000
v -0.04295129 -0.06690385 0.00000000
v -0.05337217 -0.05476654 0.00000000
v -0.06248656 -0.04161979 0.00000000
v -0.06728707 -0.03330506 0.00000000
v -0.07156359 -0.02470906 0.00000000
v -0.07748305 -0.00984739 0.00000000
v -0.08183918 0.00554525 0.00000000
v -0.08458559 0.02130490 0.00000000
v -0.08569302 0.03726368 0.00000000
v -0.08556512 0.04686386 0.00000000
v -0.08484309 0.05643770 0.00000000
v -0.08232799 0.07223591 0.00000000
v -0.08004132 0.08156066 0.00000000
v -0.07718172 0.09072594 0.00000000
v -0.07117332 0.10555187 0.00000000
v -0.06366879 0.11967955 0.00000000
v -0.05848056 0.12775804 0.00000000
v -0.05280211 0.13549981 0.00000000
v -0.04230868 0.14757445 0.00000000
v -0.03062660 0.15850323 0.00000000
v -0.02309808 0.16446151 0.00000000
v -0.01521510 0.16994224 0.00000000
v -0.00137186 0.17795934 0.00000000
v 0.01515881 0.18542212 0.00000000
v -0.06111755 0.17122757 0.00000000
v -0.07170118 0.15978508 0.00000000
v -0.08110384 0.14774422 0.00000000
v -0.08732139 0.13848908 0.00000000
v -0.09125443 0.13193896 0.00000000
v -0.09829286 0.11837974 0.00000000
v -0.10429592 0.10399547 0.00000000
v -0.10783586 0.09342265 0.00000000
v -0.10989063 0.08606393 0.00000000
v -0.11308040 0.07112347 0.00000000
v -0.11505306 0.05566215 0.00000000
v -0.11571680 0.04039940 0.00000000
v -0.11511897 0.02513393 0.00000000
v -0.11388851 0.01405234 0.00000000
v -0.11266093 0.00651139 0.00000000
v -0.10919617 -0.00868530 0.00000000
v -0.10457063 -0.02324540 0.00000000
v -0.09875952 -0.03737419 0.00000000
v -0.09542145 -0.04424661 0.00000000
v -0.09004717 -0.05401559 0.00000000
v -0.08156766 -0.06709388 0.00000000
v -0.07221708 -0.07917521 0.00000000
v -0.06717568 -0.08491606 0.00000000
v -0.05940272 -0.09290960 0.00000000
v -0.04799768 -0.10307410 0.00000000
v -0.03579286 -0.11226291 0.00000000
v -0.02260278 -0.12056746 0.00000000
v -0.01276308 -0.12581113 0.00000000
v -0.00584680 -0.12905735 0.00000000
v 0.00835816 -0.13467973 0.00000000
v 0.02297858 -0.13911091 0.00000000
v 0.03822007 -0.14237292 0.00000000
v 0.04577671 -0.14349994 0.00000000
v 0.05687371 -0.14458267 0.00000000
v 0.07214578 -0.14497709 0.00000000
v 0.08739834 -0.14411010 0.00000000
v 0.10283201 -0.14193165 0.00000000
v 0.11772865 -0.13854314 0.00000000
v 0.13363129 -0.13343854 0.00000000
v 0.12248785 -0.14593534 0.00000000
v 0.11065474 -0.15712965 0.00000000
v 0.10312068 -0.16335814 0.00000000
v 0.09528395 -0.16920123 0.00000000
v 0.08160395 -0.17804389 0.00000000
v 0.06723367 -0.18571393 0.00000000
v 0.05832169 -0.18973051 0.00000000
v 0.04921962 -0.19329540 0.00000000
v 0.03995034 -0.19639969 0.00000000
v 0.03053714 -0.19903556 0.00000000
v 0.01459303 -0.20237027 0.00000000
v 0.00491248 -0.20372787 0.00000000
v -0.00482394 -0.20459864 0.00000000
v -0.01459176 -0.20498039 0.00000000
v -0.02436645 -0.20487215 0.00000000
v -0.03412342 -0.20427418 0.00000000
v -0.04383817 -0.20318802 0.00000000
v -0.05348629 -0.20161636 0.00000000
v -0.06304351 -0.19956319 0.00000000
v -0.07248584 -0.19703364 0.00000000
v -0.08178954 -0.19403407 0.00000000
v -0.09093122 -0.19057204 0.00000000
v -0.09988792 -0.18665621 0.00000000
v -0.10863713 -0.18229645 0.00000000
v -0.11715686 -0.17750372 0.00000000
v -0.13078859 -0.16858685 0.00000000
v -0.13859345 -0.16270123 0.00000000
v -0.14609355 -0.15643190 0.00000000
v -0.15327004 -0.14979456 0.00000000
v -0.16010489 -0.14280593 0.00000000
v -0.16658092 -0.13548356 0.00000000
v -0.17268187 -0.12784585 0.00000000
v -0.17839238 -0.11991199 0.00000000
v -0.18369813 -0.11170193 0.00000000
v -0.18858577 -0.10323629 0.00000000
v -0.19304302 -0.09453634 0.00000000
v -0.19948544 -0.07957538 0.00000000
v -0.20274325 -0.07035894 0.00000000
v -0.20553510 -0.06099082 0.00000000
v -0.20785396 -0.05149456 0.00000000
v -0.20969401 -0.04189402 0.00000000
v -0.21105064 -0.03221333 0.00000000
v -0.21192041 -0.02247682 0.00000000
v -0.21230116 -0.01270896 0.00000000
v -0.21219192 -0.00293429 0.00000000
v -0.21092232 0.01330526 0.00000000
v -0.20951113 0.02297815 0.00000000
v -0.20761698 0.03256816 0.00000000
v -0.20524462 0.04205120 0.00000000
v -0.20239998 0.05140343 0.00000000
v -0.19909026 0.06060136 0.00000000
v -0.19532375 0.06962186 0.00000000
v -0.19110991 0.07844228 0.00000000
v -0.18645935 0.08704044 0.00000000
v -0.18138374 0.09539474 0.00000000
v -0.17589584 0.10348418 0.00000000
v -0.17000943 0.11128844 0.00000000
v -0.16373934 0.11878790 0.00000000
v -0.15710127 0.12596372 0.00000000
v -0.15011196 0.13279785 0.00000000
v -0.14278892 0.13927315 0.00000000
v -0.13515060 0.14537331 0.00000000
v -0.12721616 0.15108302 0.00000000
v -0.11900555 0.15638794 0.00000000
v -0.11053941 0.16127473 0.00000000
v -0.10183901 0.16573109 0.00000000
v -0.09292623 0.16974585 0.00000000
v -0.08382344 0.17330891 0.00000000
v -0.07455353 0.17641132 0.00000000
v -0.06513979 0.17904526 0.00000000
v -0.04874552 0.18244736 0.00000000
v 0.01832472 0.18780570 0.02000000
v 0.02075594 0.19093518 0.02000000
v 0.02228278 0.19459212 0.02000000
v 0.02279866 0.19852127 0.02000000
v 0.02226759 0.20244841 0.02000000
v 0.02072662 0.20609942 0.02000000
v 0.01828332 0.20921946 0.02000000
v 0.01677442 0.21051043 0.02000000
v 0.01510821 0.21159078 0.02000000
v 0.01142292 0.21304785 0.02000000
v 0.00598082 0.21378970 0.02000000
v -0.00901969 0.21484634 0.02000000
v -0.02405727 0.21489863 0.02000000
v -0.03906477 0.21394634 0.02000000
v -0.05397514 0.21199374 0.02000000
v -0.06529902 0.20982458 0.02000000
v -0.07987548 0.20612879 0.02000000
v -0.09417251 0.20146762 0.02000000
v -0.10812625 0.19586185 0.02000000
v -0.12167439 0.18933652 0.02000000
v -0.13475639 0.18192080 0.02000000
v -0.14422676 0.17579447 0.02000000
v -0.15615666 0.16705735 0.02000000
v -0.16485527 0.15987724 0.02000000
v -0.17318313 0.15227023 0.02000000
v -0.18111929 0.14425543 0.02000000
v -0.18880624 0.13566202 0.02000000
v -0.19589047 0.12688516 0.02000000
v -0.20449618 0.11486012 0.02000000
v -0.21051824 0.10532311 0.02000000
v -0.21617220 0.09527481 0.02000000
v -0.22119808 0.08517727 0.02000000
v -0.22571163 0.07484055 0.02000000
v -0.22970149 0.06429063 0.02000000
v -0.23412263 0.05017988 0.02000000
v -0.23686607 0.03923944 0.02000000
v -0.23910020 0.02792819 0.02000000
v -0.24072227 0.01676626 0.02000000
v -0.24178293 0.00553706 0.02000000
v -0.24227951 -0.00573118 0.02000000
v -0.24221846 -0.01675959 0.02000000
v -0.24159713 -0.02802164 0.02000000
v -0.24041219 -0.03923840 0.02000000
v -0.23866661 -0.05038169 0.02000000
v -0.23636481 -0.06142350 0.02000000
v -0.23351254 -0.07233608 0.02000000
v -0.23011698 -0.08309200 0.02000000
v -0.22618666 -0.09366426 0.02000000
v -0.22173147 -0.10402626 0.02000000
v -0.21304722 -0.12097672 0.02000000
v -0.20723981 -0.13064593 0.02000000
v -0.20095512 -0.14001197 0.02000000
v -0.19420896 -0.14905128 0.02000000
v -0.18701828 -0.15774114 0.02000000
v -0.17940114 -0.16605975 0.02000000
v -0.17137671 -0.17398618 0.02000000
v -0.16296513 -0.18150051 0.02000000
v -0.15418755 -0.18858385 0.02000000
v -0.14527228 -0.19507599 0.02000000
v -0.13583662 -0.20125562 0.02000000
v -0.12610310 -0.20695463 0.02000000
v -0.11609623 -0.21215869 0.02000000
v -0.10584113 -0.21685474 0.02000000
v -0.09536357 -0.22103095 0.02000000
v -0.08468990 -0.22467683 0.02000000
v -0.07384693 -0.22778325 0.02000000
v -0.05522620 -0.23178354 0.02000000
v -0.03658362 -0.23417340 0.02000000
v -0.01780664 -0.23499899 0.02000000
v 0.00097374 -0.23425454 0.02000000
v 0.01194053 -0.23308870 0.02000000
v 0.02308364 -0.23134200 0.02000000
v 0.04141614 -0.22719757 0.02000000
v 0.05933878 -0.22153755 0.02000000
v 0.07672650 -0.21440142 0.02000000
v 0.09345795 -0.20583899 0.02000000
v 0.10962345 -0.19576870 0.02000000
v 0.12468503 -0.18452567 0.02000000
v 0.13875569 -0.17206480 0.02000000
v 0.15173727 -0.15847306 0.02000000
v 0.16353917 -0.14384528 0.02000000
v 0.17407905 -0.12828353 0.02000000
v 0.17976621 -0.11854310 0.02000000
v 0.18484820 -0.10875520 0.02000000
v 0.18954320 -0.09849963 0.02000000
v 0.19063672 -0.09469061 0.02000000
v 0.19069460 -0.09072815 0.02000000
v 0.18971276 -0.08688882 0.02000000
v 0.18775977 -0.08344059 0.02000000
v 0.18645926 -0.08193991 0.02000000
v 0.18332380 -0.07951641 0.02000000
v 0.17966311 -0.07799860 0.02000000
v 0.17771468 -0.07761514 0.02000000
v 0.17375185 -0.07763258 0.02000000
v 0.17180687 -0.07803318 0.02000000
v 0.16815968 -0.07958315 0.02000000
v 0.15343139 -0.09016774 0.02000000
v 0.14521091 -0.09512793 0.02000000
v 0.13669911 -0.09956966 0.02000000
v 0.12195453 -0.10577504 0.02000000
v 0.10664888 -0.11042763 0.02000000
v 0.09726382 -0.11245252 0.02000000
v 0.08777139 -0.11389248 0.02000000
v 0.07181114 -0.11497857 0.02000000
v 0.05582394 -0.11441384 0.02000000
v 0.04628958 -0.11328437 0.02000000
v 0.03684344 -0.11156678 0.02000000
v 0.02444839 -0.10837350 0.02000000
v 0.00939424 -0.10296225 0.02000000
v -0.00502200 -0.09602817 0.02000000
v -0.01864675 -0.08764514 0.02000000
v -0.03133490 -0.07790244 0.02000000
v -0.04295129 -0.06690385 0.02000000
v -0.05337217 -0.05476654 0.02000000
v -0.06248656 -0.04161979 0.02000000
v -0.06728707 -0.03330506 0.02000000
v -0.07156359 -0.02470906 0.02000000
v -0.07748305 -0.00984739 0.02000000
v -0.08183918 0.00554525 0.02000000
v -0.08458559 0.02130490 0.02000000
v -0.08569302 0.03726368 0.02000000
v -0.08556512 0.04686386 0.02000000
v -0.08484309 0.05643770 0.02000000
v -0.08232799 0.07223591 0.02000000
v -0.08004132 0.08156066 0.02000000
v -0.07718172 0.09072594 0.02000000
v -0.07117332 0.10555187 0.02000000
v -0.06366879 0.11967955 0.02000000
v -0.05848056 0.12775804 0.02000000
v -0.05280211 0.13549981 0.02000000
v -0.04230868 0.14757445 0.02000000
v -0.03062660 0.15850323 0.02000000
v -0.02309808 0.16446151 0.02000000
v -0.01521510 0.16994224 0.02000000
v -0.00137186 0.17795934 0.02000000
v 0.01515881 0.18542212 0.02000000
v -0.06111755 0.17122757 0.02000000
v -0.07170118 0.15978508 0.02000000
v -0.08110384 0.14774422 0.02000000
v -0.08732139 0.13848908 0.02000000
v -0.09125443 0.13193896 0.02000000
v -0.09829286 0.11837974 0.02000000
v -0.10429592 0.10399547 0.02000000
v -0.10783586 0.09342265 0.02000000
v -0.10989063 0.08606393 0.02000000
v -0.11308040 0.07112347 0.02000000
v -0.11505306 0.05566215 0.02000000
v -0.11571680 0.04039940 0.02000000
v -0.11511897 0.02513393 0.02000000
v -0.11388851 0.01405234 0.02000000
v -0.11266093 0.00651139 0.02000000
v -0.10919617 -0.00868530 0.02000000
v -0.10457063 -0.02324540 0.02000000
v -0.09875952 -0.03737419 0.02000000
v -0.09542145 -0.04424661 0.02000000
v -0.09004717 -0.05401559 0.02000000
v -0.08156766 -0.06709388 0.02000000
v -0.07221708 -0.07917521 0.02000000
v -0.06717568 -0.08491606 0.02000000
v -0.05940272 -0.09290960 0.02000000
v -0.04799768 -0.10307410 0.02000000
v -0.03579286 -0.11226291 0.02000000
v -0.02260278 -0.12056746 0.02000000
v -0.01276308 -0.12581113 0.02000000
v -0.00584680 -0.12905735 0.02000000
v 0.00835816 -0.13467973 0.02000000
v 0.02297858 -0.13911091 0.02000000
v 0.03822007 -0.14237292 0.02000000
v 0.04577671 -0.14349994 0.02000000
v 0.05687371 -0.14458267 0.02000000
v 0.07214578 -0.14497709 0.02000000
v 0.08739834 -0.14411010 0.02000000
v 0.10283201 -0.14193165 0.02000000
v 0.11772865 -0.13854314 0.02000000
v 0.13363129 -0.13343854 0.02000000
v 0.12248785 -0.14593534 0.02000000
v 0.11065474 -0.15712965 0.02000000
v 0.10312068 -0.16335814 0.02000000
v 0.09528395 -0.16920123 0.02000000
v 0.08160395 -0.17804389 0.02000000
v 0.06723367 -0.18571393 0.02000000
v 0.05832169 -0.18973051 0.02000000
v 0.04921962 -0.19329540 0.02000000
v 0.03995034 -0.19639969 0.02000000
v 0.03053714 -0.19903556 0.02000000
v 0.01459303 -0.20237027 0.02000000
v 0.00491248 -0.20372787 0.02000000
v -0.00482394 -0.20459864 0.02000000
v -0.01459176 -0.20498039 0.02000000
v -0.02436645 -0.20487215 0.02000000
v -0.03412342 -0.20427418 0.02000000
v -0.04383817 -0.20318802 0.02000000
v -0.05348629 -0.20161636 0.02000000
v -0.06304351 -0.19956319 0.02000000
v -0.07248584 -0.19703364 0.02000000
v -0.08178954 -0.19403407 0.02000000
v -0.09093122 -0.19057204 0.02000000
v -0.09988792 -0.18665621 0.02000000
v -0.10863713 -0.18229645 0.02000000
v -0.11715686 -0.17750372 0.02000000
v -0.13078859 -0.16858685 0.02000000
v -0.13859345 -0.16270123 0.02000000
v -0.14609355 -0.15643190 0.02000000
v -0.15327004 -0.14979456 0.02000000
v -0.16010489 -0.14280593 0.02000000
v -0.16658092 -0.13548356 0.02000000
v -0.17268187 -0.12784585 0.02000000
v -0.17839238 -0.11991199 0.02000000
v -0.18369813 -0.11170193 0.02000000
v -0.18858577 -0.10323629 0.02000000
v -0.19304302 -0.09453634 0.02000000
v -0.19948544 -0.07957538 0.02000000
v -0.20274325 -0.07035894 0.02000000
v -0.20553510 -0.06099082 0.02000000
v -0.20785396 -0.05149456 0.02000000
v -0.20969401 -0.04189402 0.02000000
v -0.21105064 -0.03221333 0.02000000
v -0.21192041 -0.02247682 0.02000000
v -0.21230116 -0.01270896 0.02000000
v -0.21219192 -0.00293429 0.02000000
v -0.21092232 0.01330526 0.02000000
v -0.20951113 0.02297815 0.02000000
v -0.20761698 0.03256816 0.02000000
v -0.20524462 0.04205120 0.02000000
v -0.20239998 0.05140343 0.02000000
v -0.19909026 0.06060136 0.02000000
v -0.19532375 0.06962186 0.02000000
v -0.19110991 0.07844228 0.02000000
v -0.18645935 0.08704044 0.02000000
v -0.18138374 0.09539474 0.02000000
v -0.17589584 0.10348418 0.02000000
v -0.17000943 0.11128844 0.02000000
v -0.16373934 0.11878790 0.02000000
v -0.15710127 0.12596372 0.02000000
v -0.15011196 0.13279785 0.02000000
v -0.14278892 0.13927315 0.02000000
v -0.13515060 0.14537331 0.02000000
v -0.12721616 0.15108302 0.02000000
v -0.11900555 0.15638794 0.02000000
v -0.11053941 0.16127473 0.02000000
v -0.10183901 0.16573109 0.02000000
v -0.09292623 0.16974585 0.02000000
v -0.08382344 0.17330891 0.02000000
v -0.07455353 0.17641132 0.02000000
v -0.06513979 0.17904526 0.02000000
v -0.04874552 0.18244736 0.02000000
f 5 71 70
f 5 70 69
f 5 69 68
f 5 68 67
f 5 67 66
f 5 66 65
f 65 64 63
f 65 63 62
f 65 62 61
f 65 61 60
f 65 60 59
f 59 58 57
f 59 57 56
f 59 56 55
f 59 55 54
f 59 54 53
f 53 52 51
f 53 51 50
f 53 50 49
f 53 49 71
f 53 71 5
f 53 5 4
f 53 4 3
f 53 3 2
f 53 2 1
f 53 1 48
f 53 48 47
f 53 47 46
f 53 46 45
f 53 45 44
f 53 44 43
f 53 43 42
f 53 42 41
f 53 41 40
f 53 40 39
f 53 39 38
f 53 38 37
f 53 37 36
f 53 36 35
f 53 35 34
f 53 34 33
f 53 33 32
f 53 32 31
f 53 31 30
f 53 30 29
f 53 29 28
f 53 28 27
f 53 27 26
f 53 26 25
f 24 23 22
f 24 22 21
f 24 21 20
f 24 20 19
f 24 19 18
f 24 18 17
f 24 17 16
f 24 16 15
f 24 15 14
f 24 14 13
f 24 13 12
f 12 11 10
f 12 10 9
f 12 9 8
f 12 8 7
f 12 7 6
f 12 6 5
f 12 5 65
f 59 53 25
f 59 25 24
f 24 12 65
f 24 65 59
f 141 142 76
f 140 141 76
f 139 140 76
f 138 139 76
f 137 138 76
f 136 137 76
f 134 135 136
f 133 134 136
f 132 133 136
f 131 132 136
f 130 131 136
f 128 129 130
f 127 128 130
f 126 127 130
f 125 126 130
f 124 125 130
f 122 123 124
f 121 122 124
f 120 121 124
f 142 120 124
f 76 142 124
f 75 76 124
f 74 75 124
f 73 74 124
f 72 73 124
f 119 72 124
f 118 119 124
f 117 118 124
f 116 117 124
f 115 116 124
f 114 115 124
f 113 114 124
f 112 113 124
f 111 112 124
f 110 111 124
f 109 110 124
f 108 109 124
f 107 108 124
f 106 107 124
f 105 106 124
f 104 105 124
f 103 104 124
f 102 103 124
f 101 102 124
f 100 101 124
f 99 100 124
f 98 99 124
f 97 98 124
f 96 97 124
f 93 94 95
f 92 93 95
f 91 92 95
f 90 91 95
f 89 90 95
f 88 89 95
f 87 88 95
f 86 87 95
f 85 86 95
f 84 85 95
f 83 84 95
f 81 82 83
f 80 81 83
f 79 80 83
f 78 79 83
f 77 78 83
f 76 77 83
f 136 76 83
f 96 124 130
f 95 96 130
f 136 83 95
f 130 136 95
f 1 73 72
f 2 73 1
f 2 74 73
f 3 74 2
f 3 75 74
f 4 75 3
f 4 76 75
f 5 76 4
f 5 77 76
f 6 77 5
f 6 78 77
f 7 78 6
f 7 79 78
f 8 79 7
f 8 80 79
f 9 80 8
f 9 81 80
f 10 81 9
f 10 82 81
f 11 82 10
f 11 83 82
f 12 83 11
f 12 84 83
f 13 84 12
f 13 85 84
f 14 85 13
f 14 86 85
f 15 86 14
f 15 87 86
f 16 87 15
f 16 88 87
f 17 88 16
f 17 89 88
f 18 89 17
f 18 90 89
f 19 90 18
f 19 91 90
f 20 91 19
f 20 92 91
f 21 92 20
f 21 93 92
f 22 93 21
f 22 94 93
f 23 94 22
f 23 95 94
f 24 95 23
f 24 96 95
f 25 96 24
f 25 97 96
f 26 97 25
f 26 98 97
f 27 98 26
f 27 99 98
f 28 99 27
f 28 100 99
f 29 100 28
f 29 101 100
f 30 101 29
f 30 102 101
f 31 102 30
f 31 103 102
f 32 103 31
f 32 104 103
f 33 104 32
f 33 105 104
f 34 105 33
f 34 106 105
f 35 106 34
f 35 107 106
f 36 107 35
f 36 108 107
f 37 108 36
f 37 109 108
f 38 109 37
f 38 110 109
f 39 110 38
f 39 111 110
f 40 111 39
f 40 112 111
f 41 112 40
f 41 113 112
f 42 113 41
f 42 114 113
f 43 114 42
f 43 115 114
f 44 115 43
f 44 116 115
f 45 116 44
f 45 117 116
f 46 117 45
f 46 118 117
f 47 118 46
f 48 72 119
f 1 72 48
f 47 119 118
f 48 119 47
f 49 121 120
f 50 121 49
f 50 122 121
f 51 122 50
f 51 123 122
f 52 123 51
f 52 124 123
f 53 124 52
f 53 125 124
f 54 125 53
f 54 126 125
f 55 126 54
f 55 127 126
f 56 127 55
f 56 128 127
f 57 128 56
f 57 129 128
f 58 129 57
f 58 130 129
f 59 130 58
f 59 131 130
f 60 131 59
f 60 132 131
f 61 132 60
f 61 133 132
f 62 133 61
f 62 134 133
f 63 134 62
f 63 135 134
f 64 135 63
f 64 136 135
f 65 136 64
f 65 137 136
f 66 137 65
f 66 138 137
f 67 138 66
f 67 139 138
f 68 139 67
f 68 140 139
f 69 140 68
f 69 141 140
f 70 141 69
f 71 120 142
f 49 120 71
f 70 142 141
f 71 142 70
f 182 361 360
f 182 360 359
f 182 359 358
f 182 358 357
f 182 357 356
f 182 356 355
f 182 355 354
f 182 354 353
f 182 353 352
f 317 316 315
f 317 315 314
f 317 314 313
f 317 313 312
f 317 312 311
f 317 311 310
f 317 310 309
f 317 309 308
f 317 308 307
f 317 307 306
f 317 306 305
f 317 305 304
f 317 304 303
f 317 303 302
f 302 301 300
f 302 300 299
f 302 299 298
f 302 298 297
f 302 297 296
f 302 296 295
f 302 295 294
f 302 294 293
f 302 293 292
f 302 292 291
f 302 291 290
f 302 290 289
f 302 289 288
f 302 288 287
f 302 287 286
f 302 286 285
f 285 284 283
f 285 283 282
f 285 282 281
f 285 281 280
f 285 280 279
f 285 279 388
f 362 361 182
f 362 182 181
f 362 181 180
f 362 180 179
f 362 179 178
f 362 178 177
f 362 177 176
f 362 176 175
f 362 175 174
f 362 174 173
f 362 173 172
f 362 172 171
f 171 170 169
f 171 169 168
f 171 168 167
f 171 167 166
f 171 166 165
f 171 165 164
f 171 164 163
f 171 163 162
f 171 162 161
f 171 161 160
f 171 160 159
f 171 159 158
f 171 158 157
f 171 157 156
f 171 156 155
f 171 155 154
f 154 153 152
f 154 152 151
f 154 151 150
f 154 150 149
f 154 149 148
f 154 148 147
f 154 147 146
f 154 146 145
f 154 145 144
f 154 144 143
f 154 143 278
f 154 278 277
f 154 277 276
f 154 276 275
f 154 275 274
f 154 274 273
f 154 273 272
f 154 272 271
f 154 271 270
f 239 238 237
f 239 237 236
f 239 236 235
f 239 235 234
f 239 234 233
f 239 233 232
f 239 232 231
f 239 231 230
f 239 230 229
f 239 229 228
f 239 228 227
f 239 227 226
f 239 226 225
f 239 225 224
f 239 224 223
f 239 223 222
f 239 222 221
f 239 221 220
f 239 220 219
f 219 218 217
f 219 217 216
f 219 216 215
f 219 215 214
f 219 214 213
f 219 213 212
f 219 212 211
f 219 211 210
f 219 210 209
f 219 209 208
f 219 208 207
f 219 207 206
f 219 206 205
f 205 204 203
f 205 203 202
f 205 202 201
f 205 201 200
f 205 200 199
f 205 199 198
f 205 198 197
f 205 197 196
f 205 196 195
f 205 195 194
f 205 194 193
f 205 193 192
f 205 192 191
f 205 191 190
f 205 190 189
f 205 189 188
f 205 188 187
f 205 187 186
f 205 186 185
f 185 184 183
f 185 183 182
f 185 182 352
f 185 352 351
f 185 351 350
f 185 350 349
f 363 362 171
f 205 185 349
f 205 349 348
f 205 348 347
f 205 347 346
f 205 346 345
f 205 345 344
f 205 344 343
f 205 343 342
f 205 342 341
f 205 341 340
f 205 340 339
f 205 339 338
f 205 338 337
f 205 337 336
f 205 336 335
f 205 335 334
f 205 334 333
f 205 333 332
f 205 332 331
f 205 331 330
f 205 330 329
f 364 363 171
f 219 205 329
f 219 329 328
f 219 328 327
f 219 327 326
f 219 326 325
f 219 325 324
f 219 324 323
f 219 323 322
f 219 322 321
f 219 321 320
f 219 320 319
f 219 319 318
f 219 318 317
f 365 364 171
f 239 219 317
f 366 365 171
f 240 239 317
f 367 366 171
f 241 240 317
f 368 367 171
f 242 241 317
f 369 368 171
f 243 242 317
f 370 369 171
f 244 243 317
f 371 370 171
f 245 244 317
f 372 371 171
f 246 245 317
f 373 372 171
f 247 246 317
f 374 373 171
f 248 247 317
f 375 374 171
f 249 248 317
f 249 317 302
f 376 375 171
f 250 249 302
f 377 376 171
f 251 250 302
f 378 377 171
f 252 251 302
f 379 378 171
f 253 252 302
f 380 379 171
f 254 253 302
f 381 380 171
f 255 254 302
f 382 381 171
f 382 171 154
f 256 255 302
f 383 382 154
f 257 256 302
f 384 383 154
f 258 257 302
f 385 384 154
f 259 258 302
f 386 385 154
f 260 259 302
f 387 386 154
f 261 260 302
f 261 302 285
f 388 387 154
f 388 154 270
f 388 270 269
f 388 269 268
f 388 268 267
f 262 261 285
f 285 388 267
f 285 267 266
f 285 266 265
f 285 265 264
f 285 264 263
f 285 263 262
f 606 607 428
f 605 606 428
f 604 605 428
f 603 604 428
f 602 603 428
f 601 602 428
f 600 601 428
f 599 600 428
f 598 599 428
f 561 562 563
f 560 561 563
f 559 560 563
f 558 559 563
f 557 558 563
f 556 557 563
f 555 556 563
f 554 555 563
f 553 554 563
f 552 553 563
f 551 552 563
f 550 551 563
f 549 550 563
f 548 549 563
f 546 547 548
f 545 546 548
f 544 545 548
f 543 544 548
f 542 543 548
f 541 542 548
f 540 541 548
f 539 540 548
f 538 539 548
f 537 538 548
f 536 537 548
f 535 536 548
f 534 535 548
f 533 534 548
f 532 533 548
f 531 532 548
f 529 530 531
f 528 529 531
f 527 528 531
f 526 527 531
f 525 526 531
f 634 525 531
f 428 607 608
f 427 428 608
f 426 427 608
f 425 426 608
f 424 425 608
f 423 424 608
f 422 423 608
f 421 422 608
f 420 421 608
f 419 420 608
f 418 419 608
f 417 418 608
f 415 416 417
f 414 415 417
f 413 414 417
f 412 413 417
f 411 412 417
f 410 411 417
f 409 410 417
f 408 409 417
f 407 408 417
f 406 407 417
f 405 406 417
f 404 405 417
f 403 404 417
f 402 403 417
f 401 402 417
f 400 401 417
f 398 399 400
f 397 398 400
f 396 397 400
f 395 396 400
f 394 395 400
f 393 394 400
f 392 393 400
f 391 392 400
f 390 391 400
f 389 390 400
f 524 389 400
f 523 524 400
f 522 523 400
f 521 522 400
f 520 521 400
f 519 520 400
f 518 519 400
f 517 518 400
f 516 517 400
f 483 484 485
f 482 483 485
f 481 482 485
f 480 481 485
f 479 480 485
f 478 479 485
f 477 478 485
f 476 477 485
f 475 476 485
f 474 475 485
f 473 474 485
f 472 473 485
f 471 472 485
f 470 471 485
f 469 470 485
f 468 469 485
f 467 468 485
f 466 467 485
f 465 466 485
f 463 464 465
f 462 463 465
f 461 462 465
f 460 461 465
f 459 460 465
f 458 459 465
f 457 458 465
f 456 457 465
f 455 456 465
f 454 455 465
f 453 454 465
f 452 453 465
f 451 452 465
f 449 450 451
f 448 449 451
f 447 448 451
f 446 447 451
f 445 446 451
f 444 445 451
f 443 444 451
f 442 443 451
f 441 442 451
f 440 441 451
f 439 440 451
f 438 439 451
f 437 438 451
f 436 437 451
f 435 436 451
f 434 435 451
f 433 434 451
f 432 433 451
f 431 432 451
f 429 430 431
f 428 429 431
f 598 428 431
f 597 598 431
f 596 597 431
f 595 596 431
f 417 608 609
f 595 431 451
f 594 595 451
f 593 594 451
f 592 593 451
f 591 592 451
f 590 591 451
f 589 590 451
f 588 589 451
f 587 588 451
f 586 587 451
f 585 586 451
f 584 585 451
f 583 584 451
f 582 583 451
f 581 582 451
f 580 581 451
f 579 580 451
f 578 579 451
f 577 578 451
f 576 577 451
f 575 576 451
f 417 609 610
f 575 451 465
f 574 575 465
f 573 574 465
f 572 573 465
f 571 572 465
f 570 571 465
f 569 570 465
f 568 569 465
f 567 568 465
f 566 567 465
f 565 566 465
f 564 565 465
f 563 564 465
f 417 610 611
f 563 465 485
f 417 611 612
f 563 485 486
f 417 612 613
f 563 486 487
f 417 613 614
f 563 487 488
f 417 614 615
f 563 488 489
f 417 615 616
f 563 489 490
f 417 616 617
f 563 490 491
f 417 617 618
f 563 491 492
f 417 618 619
f 563 492 493
f 417 619 620
f 563 493 494
f 417 620 621
f 563 494 495
f 548 563 495
f 417 621 622
f 548 495 496
f 417 622 623
f 548 496 497
f 417 623 624
f 548 497 498
f 417 624 625
f 548 498 499
f 417 625 626
f 548 499 500
f 417 626 627
f 548 500 501
f 417 627 628
f 400 417 628
f 548 501 502
f 400 628 629
f 548 502 503
f 400 629 630
f 548 503 504
f 400 630 631
f 548 504 505
f 400 631 632
f 548 505 506
f 400 632 633
f 548 506 507
f 531 548 507
f 400 633 634
f 516 400 634
f 515 516 634
f 514 515 634
f 513 514 634
f 531 507 508
f 513 634 531
f 512 513 531
f 511 512 531
f 510 511 531
f 509 510 531
f 508 509 531
f 143 390 389
f 144 390 143
f 144 391 390
f 145 391 144
f 145 392 391
f 146 392 145
f 146 393 392
f 147 393 146
f 147 394 393
f 148 394 147
f 148 395 394
f 149 395 148
f 149 396 395
f 150 396 149
f 150 397 396
f 151 397 150
f 151 398 397
f 152 398 151
f 152 399 398
f 153 399 152
f 153 400 399
f 154 400 153
f 154 401 400
f 155 401 154
f 155 402 401
f 156 402 155
f 156 403 402
f 157 403 156
f 157 404 403
f 158 404 157
f 158 405 404
f 159 405 158
f 159 406 405
f 160 406 159
f 160 407 406
f 161 407 160
f 161 408 407
f 162 408 161
f 162 409 408
f 163 409 162
f 163 410 409
f 164 410 163
f 164 411 410
f 165 411 164
f 165 412 411
f 166 412 165
f 166 413 412
f 167 413 166
f 167 414 413
f 168 414 167
f 168 415 414
f 169 415 168
f 169 416 415
f 170 416 169
f 170 417 416
f 171 417 170
f 171 418 417
f 172 418 171
f 172 419 418
f 173 419 172
f 173 420 419
f 174 420 173
f 174 421 420
f 175 421 174
f 175 422 421
f 176 422 175
f 176 423 422
f 177 423 176
f 177 424 423
f 178 424 177
f 178 425 424
f 179 425 178
f 179 426 425
f 180 426 179
f 180 427 426
f 181 427 180
f 181 428 427
f 182 428 181
f 182 429 428
f 183 429 182
f 183 430 429
f 184 430 183
f 184 431 430
f 185 431 184
f 185 432 431
f 186 432 185
f 186 433 432
f 187 433 186
f 187 434 433
f 188 434 187
f 188 435 434
f 189 435 188
f 189 436 435
f 190 436 189
f 190 437 436
f 191 437 190
f 191 438 437
f 192 438 191
f 192 439 438
f 193 439 192
f 193 440 439
f 194 440 193
f 194 441 440
f 195 441 194
f 195 442 441
f 196 442 195
f 196 443 442
f 197 443 196
f 197 444 443
f 198 444 197
f 198 445 444
f 199 445 198
f 199 446 445
f 200 446 199
f 200 447 446
f 201 447 200
f 201 448 447
f 202 448 201
f 202 449 448
f 203 449 202
f 203 450 449
f 204 450 203
f 204 451 450
f 205 451 204
f 205 452 451
f 206 452 205
f 206 453 452
f 207 453 206
f 207 454 453
f 208 454 207
f 208 455 454
f 209 455 208
f 209 456 455
f 210 456 209
f 210 457 456
f 211 457 210
f 211 458 457
f 212 458 211
f 212 459 458
f 213 459 212
f 213 460 459
f 214 460 213
f 214 461 460
f 215 461 214
f 215 462 461
f 216 462 215
f 216 463 462
f 217 463 216
f 217 464 463
f 218 464 217
f 218 465 464
f 219 465 218
f 219 466 465
f 220 466 219
f 220 467 466
f 221 467 220
f 221 468 467
f 222 468 221
f 222 469 468
f 223 469 222
f 223 470 469
f 224 470 223
f 224 471 470
f 225 471 224
f 225 472 471
f 226 472 225
f 226 473 472
f 227 473 226
f 227 474 473
f 228 474 227
f 228 475 474
f 229 475 228
f 229 476 475
f 230 476 229
f 230 477 476
f 231 477 230
f 231 478 477
f 232 478 231
f 232 479 478
f 233 479 232
f 233 480 479
f 234 480 233
f 234 481 480
f 235 481 234
f 235 482 481
f 236 482 235
f 236 483 482
f 237 483 236
f 237 484 483
f 238 484 237
f 238 485 484
f 239 485 238
f 239 486 485
f 240 486 239
f 240 487 486
f 241 487 240
f 241 488 487
f 242 488 241
f 242 489 488
f 243 489 242
f 243 490 489
f 244 490 243
f 244 491 490
f 245 491 244
f 245 492 491
f 246 492 245
f 246 493 492
f 247 493 246
f 247 494 493
f 248 494 247
f 248 495 494
f 249 495 248
f 249 496 495
f 250 496 249
f 250 497 496
f 251 497 250
f 251 498 497
f 252 498 251
f 252 499 498
f 253 499 252
f 253 500 499
f 254 500 253
f 254 501 500
f 255 501 254
f 255 502 501
f 256 502 255
f 256 503 502
f 257 503 256
f 257 504 503
f 258 504 257
f 258 505 504
f 259 505 258
f 259 506 505
f 260 506 259
f 260 507 506
f 261 507 260
f 261 508 507
f 262 508 261
f 262 509 508
f 263 509 262
f 263 510 509
f 264 510 263
f 264 511 510
f 265 511 264
f 265 512 511
f 266 512 265
f 266 513 512
f 267 513 266
f 267 514 513
f 268 514 267
f 268 515 514
f 269 515 268
f 269 516 515
f 270 516 269
f 270 517 516
f 271 517 270
f 271 518 517
f 272 518 271
f 272 519 518
f 273 519 272
f 273 520 519
f 274 520 273
f 274 521 520
f 275 521 274
f 275 522 521
f 276 522 275
f 276 523 522
f 277 523 276
f 278 389 524
f 143 389 278
f 277 524 523
f 278 524 277
f 279 526 525
f 280 526 279
f 280 527 526
f 281 527 280
f 281 528 527
f 282 528 281
f 282 529 528
f 283 529 282
f 283 530 529
f 284 530 283
f 284 531 530
f 285 531 284
f 285 532 531
f 286 532 285
f 286 533 532
f 287 533 286
f 287 534 533
f 288 534 287
f 288 535 534
f 289 535 288
f 289 536 535
f 290 536 289
f 290 537 536
f 291 537 290
f 291 538 537
f 292 538 291
f 292 539 538
f 293 539 292
f 293 540 539
f 294 540 293
f 294 541 540
f 295 541 294
f 295 542 541
f 296 542 295
f 296 543 542
f 297 543 296
f 297 544 543
f 298 544 297
f 298 545 544
f 299 545 298
f 299 546 545
f 300 546 299
f 300 547 546
f 301 547 300
f 301 548 547
f 302 548 301
f 302 549 548
f 303 549 302
f 303 550 549
f 304 550 303
f 304 551 550
f 305 551 304
f 305 552 551
f 306 552 305
f 306 553 552
f 307 553 306
f 307 554 553
f 308 554 307
f 308 555 554
f 309 555 308
f 309 556 555
f 310 556 309
f 310 557 556
f 311 557 310
f 311 558 557
f 312 558 311
f 312 559 558
f 313 559 312
f 313 560 559
f 314 560 313
f 314 561 560
f 315 561 314
f 315 562 561
f 316 562 315
f 316 563 562
f 317 563 316
f 317 564 563
f 318 564 317
f 318 565 564
f 319 565 318
f 319 566 565
f 320 566 319
f 320 567 566
f 321 567 320
f 321 568 567
f 322 568 321
f 322 569 568
f 323 569 322
f 323 570 569
f 324 570 323
f 324 571 570
f 325 571 324
f 325 572 571
f 326 572 325
f 326 573 572
f 327 573 326
f 327 574 573
f 328 574 327
f 328 575 574
f 329 575 328
f 329 576 575
f 330 576 329
f 330 577 576
f 331 577 330
f 331 578 577
f 332 578 331
f 332 579 578
f 333 579 332
f 333 580 579
f 334 580 333
f 334 581 580
f 335 581 334
f 335 582 581
f 336 582 335
f 336 583 582
f 337 583 336
f 337 584 583
f 338 584 337
f 338 585 584
f 339 585 338
f 339 586 585
f 340 586 339
f 340 587 586
f 341 587 340
f 341 588 587
f 342 588 341
f 342 589 588
f 343 589 342
f 343 590 589
f 344 590 343
f 344 591 590
f 345 591 344
f 345 592 591
f 346 592 345
f 346 593 592
f 347 593 346
f 347 594 593
f 348 594 347
f 348 595 594
f 349 595 348
f 349 596 595
f 350 596 349
f 350 597 596
f 351 597 350
f 351 598 597
f 352 598 351
f 352 599 598
f 353 599 352
f 353 600 599
f 354 600 353
f 354 601 600
f 355 601 354
f 355 602 601
f 356 602 355
f 356 603 602
f 357 603 356
f 357 604 603
f 358 604 357
f 358 605 604
f 359 605 358
f 359 606 605
f 360 606 359
f 360 607 606
f 361 607 360
f 361 608 607
f 362 608 361
f 362 609 608
f 363 609 362
f 363 610 609
f 364 610 363
f 364 611 610
f 365 611 364
f 365 612 611
f 366 612 365
f 366 613 612
f 367 613 366
f 367 614 613
f 368 614 367
f 368 615 614
f 369 615 368
f 369 616 615
f 370 616 369
f 370 617 616
f 371 617 370
f 371 618 617
f 372 618 371
f 372 619 618
f 373 619 372
f 373 620 619
f 374 620 373
f 374 621 620
f 375 621 374
f 375 622 621
f 376 622 375
f 376 623 622
f 377 623 376
f 377 624 623
f 378 624 377
f 378 625 624
f 379 625 378
f 379 626 625
f 380 626 379
f 380 627 626
f 381 627 380
f 381 628 627
f 382 628 381
f 382 629 628
f 383 629 382
f 383 630 629
f 384 630 383
f 384 631 630
f 385 631 384
f 385 632 631
f 386 632 385
f 386 633 632
f 387 633 386
f 388 525 634
f 279 525 388
f 387 634 633
f 388 634 387

