# https://github.com/mikedh/trimesh

o mark_perfect_cycles
v -0.09995303 -0.11881381 0.00000000
v -0.09976430 -0.12264863 0.00000000
v -0.09860826 -0.12630993 0.00000000
v -0.09656063 -0.12955782 0.00000000
v -0.09524233 -0.13095877 0.00000000
v -0.09212481 -0.13319989 0.00000000
v -0.08854049 -0.13457617 0.00000000
v -0.08472421 -0.13499746 0.00000000
v -0.08092599 -0.13443615 0.00000000
v -0.07911193 -0.13379604 0.00000000
v 0.00000000 -0.08740272 0.00000000
v 0.07739470 -0.13292901 0.00000000
v 0.08092599 -0.13443615 0.00000000
v 0.08280707 -0.13483883 0.00000000
v 0.08664589 -0.13490942 0.00000000
v 0.09037687 -0.13400319 0.00000000
v 0.09375557 -0.13217948 0.00000000
v 0.09656063 -0.12955782 0.00000000
v 0.09768879 -0.12799966 0.00000000
v 0.09860826 -0.12630993 0.00000000
v 0.09976430 -0.12264863 0.00000000
v 0.09995303 -0.11881381 0.00000000
v 0.08142692 -0.03021604 0.00000000
v 0.14658958 0.03047730 0.00000000
v 0.14870492 0.03390286 0.00000000
v 0.14983296 0.03776766 0.00000000
v 0.14989242 0.04179328 0.00000000
v 0.14887902 0.04568971 0.00000000
v 0.14686577 0.04917625 0.00000000
v 0.14552696 0.05068565 0.00000000
v 0.14230566 0.05310067 0.00000000
v 0.13855803 0.05457190 0.00000000
v 0.05018789 0.06401046 0.00000000
v 0.01281688 0.14779279 0.00000000
v 0.01042458 0.15078555 0.00000000
v 0.00896175 0.15202859 0.00000000
v 0.00735215 0.15307462 0.00000000
v 0.00380004 0.15451068 0.00000000
v 0.00000000 0.15500000 0.00000000
v -0.00380004 0.15451068 0.00000000
v -0.00562213 0.15390652 0.00000000
v -0.00896175 0.15202859 0.00000000
v -0.01042458 0.15078555 0.00000000
v -0.01281688 0.14779279 0.00000000
v -0.01370717 0.14609207 0.00000000
v -0.05018789 0.06401046 0.00000000
v -0.13855803 0.05457190 0.00000000
v -0.14230566 0.05310067 0.00000000
v -0.14552696 0.05068565 0.00000000
v -0.14798990 0.04750083 0.00000000
v -0.14887902 0.04568971 0.00000000
v -0.14989242 0.04179328 0.00000000
v -0.14983296 0.03776766 0.00000000
v -0.14870492 0.03390286 0.00000000
v -0.14658958 0.03047730 0.00000000
v -0.08142692 -0.03021604 0.00000000
v -0.03842973 0.03508242 0.00000000
v -0.03462054 0.03599781 0.00000000
v -0.03117830 0.03786832 0.00000000
v -0.02833781 0.04056638 0.00000000
v -0.02629283 0.04390792 0.00000000
v 0.00000000 0.10306678 0.00000000
v 0.02629283 0.04390792 0.00000000
v 0.02833781 0.04056638 0.00000000
v 0.03117830 0.03786832 0.00000000
v 0.03462054 0.03599781 0.00000000
v 0.03842973 0.03508242 0.00000000
v 0.10061105 0.02853702 0.00000000
v 0.05479323 -0.01400810 0.00000000
v 0.05233069 -0.01696953 0.00000000
v 0.05070342 -0.02046040 0.00000000
v 0.05001873 -0.02425058 0.00000000
v 0.05032175 -0.02809016 0.00000000
v 0.06332301 -0.08984610 0.00000000
v 0.00760530 -0.05707099 0.00000000
v 0.00394112 -0.05552701 0.00000000
v 0.00000000 -0.05500000 0.00000000
v -0.00394112 -0.05552701 0.00000000
v -0.00760530 -0.05707099 0.00000000
v -0.06332301 -0.08984610 0.00000000
v -0.05032175 -0.02809016 0.00000000
v -0.05001873 -0.02425058 0.00000000
v -0.05070342 -0.02046040 0.00000000
v -0.05233069 -0.01696953 0.00000000
v -0.05479323 -0.01400810 0.00000000
v -0.10061105 0.02853702 0.00000000
v -0.09995303 -0.11881381 0.02000000
v -0.09976430 -0.12264863 0.02000000
v -0.09860826 -0.12630993 0.02000000
v -0.09656063 -0.12955782 0.02000000
v -0.09524233 -0.13095877 0.02000000
v -0.09212481 -0.13319989 0.02000000
v -0.08854049 -0.13457617 0.02000000
v -0.08472421 -0.13499746 0.02000000
v -0.08092599 -0.13443615 0.02000000
v -0.07911193 -0.13379604 0.02000000
v 0.00000000 -0.08740272 0.02000000
v 0.07739470 -0.13292901 0.02000000
v 0.08092599 -0.13443615 0.02000000
v 0.08280707 -0.13483883 0.02000000
v 0.08664589 -0.13490942 0.02000000
v 0.09037687 -0.13400319 0.02000000
v 0.09375557 -0.13217948 0.02000000
v 0.09656063 -0.12955782 0.02000000
v 0.09768879 -0.12799966 0.02000000
v 0.09860826 -0.12630993 0.02000000
v 0.09976430 -0.12264863 0.02000000
v 0.09995303 -0.11881381 0.02000000
v 0.08142692 -0.03021604 0.02000000
v 0.14658958 0.03047730 0.02000000
v 0.14870492 0.03390286 0.02000000
v 0.14983296 0.03776766 0.02000000
v 0.14989242 0.04179328 0.02000000
v 0.14887902 0.04568971 0.02000000
v 0.14686577 0.04917625 0.02000000
v 0.14552696 0.05068565 0.02000000
v 0.14230566 0.05310067 0.02000000
v 0.13855803 0.05457190 0.02000000
v 0.05018789 0.06401046 0.02000000
v 0.01281688 0.14779279 0.02000000
v 0.01042458 0.15078555 0.02000000
v 0.00896175 0.15202859 0.02000000
v 0.00735215 0.15307462 0.02000000
v 0.00380004 0.15451068 0.02000000
v 0.00000000 0.15500000 0.02000000
v -0.00380004 0.15451068 0.02000000
v -0.00562213 0.15390652 0.02000000
v -0.00896175 0.15202859 0.02000000
v -0.01042458 0.15078555 0.02000000
v -0.01281688 0.14779279 0.02000000
v -0.01370717 0.14609207 0.02000000
v -0.05018789 0.06401046 0.02000000
v -0.13855803 0.05457190 0.02000000
v -0.14230566 0.05310067 0.02000000
v -0.14552696 0.05068565 0.02000000
v -0.14798990 0.04750083 0.02000000
v -0.14887902 0.04568971 0.02000000
v -0.14989242 0.04179328 0.02000000
v -0.14983296 0.03776766 0.02000000
v -0.14870492 0.03390286 0.02000000
v -0.14658958 0.03047730 0.02000000
v -0.08142692 -0.03021604 0.02000000
v -0.03842973 0.03508242 0.02000000
v -0.03462054 0.03599781 0.02000000
v -0.03117830 0.03786832 0.02000000
v -0.02833781 0.04056638 0.02000000
v -0.02629283 0.04390792 0.02000000
v 0.00000000 0.10306678 0.02000000
v 0.02629283 0.04390792 0.02000000
v 0.02833781 0.04056638 0.02000000
v 0.03117830 0.03786832 0.02000000
v 0.03462054 0.03599781 0.02000000
v 0.03842973 0.03508242 0.02000000
v 0.10061105 0.02853702 0.02000000
v 0.05479323 -0.01400810 0.02000000
v 0.05233069 -0.01696953 0.02000000
v 0.05070342 -0.02046040 0.02000000
v 0.05001873 -0.02425058 0.02000000
v 0.05032175 -0.02809016 0.02000000
v 0.06332301 -0.08984610 0.02000000
v 0.00760530 -0.05707099 0.02000000
v 0.00394112 -0.05552701 0.02000000
v 0.00000000 -0.05500000 0.02000000
v -0.00394112 -0.05552701 0.02000000
v -0.00760530 -0.05707099 0.02000000
v -0.06332301 -0.08984610 0.02000000
v -0.05032175 -0.02809016 0.02000000
v -0.05001873 -0.02425058 0.02000000
v -0.05070342 -0.02046040 0.02000000
v -0.05233069 -0.01696953 0.02000000
v -0.05479323 -0.01400810 0.02000000
v -0.10061105 0.02853702 0.02000000
v 0.24442337 0.01668652 0.00000000
v 0.24291699 0.03182088 0.00000000
v 0.24028282 0.04780583 0.00000000
v 0.23633859 0.06453913 0.00000000
v 0.23187850 0.07907963 0.00000000
v 0.22614510 0.09423172 0.00000000
v 0.21897985 0.10985924 0.00000000
v 0.21174109 0.12323529 0.00000000
v 0.20313346 0.13695994 0.00000000
v 0.19302833 0.15086845 0.00000000
v 0.18329495 0.16255517 0.00000000
v 0.17215084 0.17431384 0.00000000
v 0.15950237 0.18595758 0.00000000
v 0.14765631 0.19549640 0.00000000
v 0.13441300 0.20482767 0.00000000
v 0.11971752 0.21374972 0.00000000
v 0.10622362 0.22076632 0.00000000
v 0.09140080 0.22730403 0.00000000
v 0.07523495 0.23315430 0.00000000
v 0.06062271 0.23737337 0.00000000
v 0.04480202 0.24086097 0.00000000
v 0.02780016 0.24340990 0.00000000
v 0.01264295 0.24466586 0.00000000
v -0.00355480 0.24496651 0.00000000
v -0.02072552 0.24411407 0.00000000
v -0.03681385 0.24221058 0.00000000
v -0.05177212 0.23945954 0.00000000
v -0.06843793 0.23523919 0.00000000
v -0.08290268 0.23053931 0.00000000
v -0.09795791 0.22455618 0.00000000
v -0.11346482 0.21713351 0.00000000
v -0.12671936 0.20967458 0.00000000
v -0.14029981 0.20084120 0.00000000
v -0.15403935 0.19050750 0.00000000
v -0.16556355 0.18058223 0.00000000
v -0.17713635 0.16924521 0.00000000
v -0.18856937 0.15640596 0.00000000
v -0.19791101 0.14440380 0.00000000
v -0.20702204 0.13100803 0.00000000
v -0.21522781 0.11703938 0.00000000
v -0.22290584 0.10165732 0.00000000
v -0.22913709 0.08670308 0.00000000
v -0.23407549 0.07231800 0.00000000
v -0.23857082 0.05572426 0.00000000
v -0.24156880 0.04081351 0.00000000
v -0.24373803 0.02475885 0.00000000
v -0.24487425 0.00760457 0.00000000
v -0.24484146 -0.00859593 0.00000000
v -0.24383627 -0.02377183 0.00000000
v -0.24156880 -0.04081351 0.00000000
v -0.23834325 -0.05668970 0.00000000
v -0.23436636 -0.07136971 0.00000000
v -0.22878417 -0.08763007 0.00000000
v -0.22290584 -0.10165732 0.00000000
v -0.21569990 -0.11616703 0.00000000
v -0.20702204 -0.13100803 0.00000000
v -0.19791101 -0.14440380 0.00000000
v -0.18856937 -0.15640596 0.00000000
v -0.17713635 -0.16924521 0.00000000
v -0.16629331 -0.17991042 0.00000000
v -0.15403935 -0.19050750 0.00000000
v -0.14029981 -0.20084120 0.00000000
v -0.12756723 -0.20915982 0.00000000
v -0.11346482 -0.21713351 0.00000000
v -0.09795791 -0.22455618 0.00000000
v -0.08383539 -0.23020177 0.00000000
v -0.06843793 -0.23523919 0.00000000
v -0.05177212 -0.23945954 0.00000000
v -0.03583291 -0.24235766 0.00000000
v -0.02072552 -0.24411407 0.00000000
v -0.00355480 -0.24496651 0.00000000
v 0.01264295 -0.24466586 0.00000000
v 0.02780016 -0.24340990 0.00000000
v 0.04480202 -0.24086097 0.00000000
v 0.05966116 -0.23761687 0.00000000
v 0.07523495 -0.23315430 0.00000000
v 0.09140080 -0.22730403 0.00000000
v 0.10622362 -0.22076632 0.00000000
v 0.11971752 -0.21374972 0.00000000
v 0.13441300 -0.20482767 0.00000000
v 0.14686359 -0.19609261 0.00000000
v 0.15950237 -0.18595758 0.00000000
v 0.17215084 -0.17431384 0.00000000
v 0.18263532 -0.16329595 0.00000000
v 0.19302833 -0.15086845 0.00000000
v 0.20313346 -0.13695994 0.00000000
v 0.21174109 -0.12323529 0.00000000
v 0.21897985 -0.10985924 0.00000000
v 0.22614510 -0.09423172 0.00000000
v 0.23155643 -0.08001778 0.00000000
v 0.23633859 -0.06453913 0.00000000
v 0.24028282 -0.04780583 0.00000000
v 0.24291699 -0.03182088 0.00000000
v 0.24442337 -0.01668652 0.00000000
v 0.24500000 0.00000000 0.00000000
v 0.21311364 -0.02835573 0.00000000
v 0.21077365 -0.04237854 0.00000000
v 0.20751199 -0.05621604 0.00000000
v 0.20334294 -0.06980772 0.00000000
v 0.19828473 -0.08309415 0.00000000
v 0.19235946 -0.09601723 0.00000000
v 0.18559305 -0.10852045 0.00000000
v 0.17801510 -0.12054913 0.00000000
v 0.16965874 -0.13205069 0.00000000
v 0.16056049 -0.14297482 0.00000000
v 0.15076016 -0.15327376 0.00000000
v 0.14030059 -0.16290247 0.00000000
v 0.12922752 -0.17181887 0.00000000
v 0.11758937 -0.17998393 0.00000000
v 0.10543703 -0.18736196 0.00000000
v 0.09282364 -0.19392072 0.00000000
v 0.07980436 -0.19963150 0.00000000
v 0.06643612 -0.20446935 0.00000000
v 0.05277736 -0.20841311 0.00000000
v 0.03888783 -0.21144553 0.00000000
v 0.02482825 -0.21355334 0.00000000
v 0.01066010 -0.21472734 0.00000000
v -0.00355466 -0.21496241 0.00000000
v -0.01775388 -0.21425749 0.00000000
v -0.03187547 -0.21261568 0.00000000
v -0.04585767 -0.21004415 0.00000000
v -0.05963935 -0.20655416 0.00000000
v -0.07316024 -0.20216095 0.00000000
v -0.08636122 -0.19688375 0.00000000
v -0.09918457 -0.19074562 0.00000000
v -0.11157420 -0.18377341 0.00000000
v -0.12347595 -0.17599761 0.00000000
v -0.13483778 -0.16745223 0.00000000
v -0.14560997 -0.15817460 0.00000000
v -0.15574548 -0.14820533 0.00000000
v -0.16519994 -0.13758798 0.00000000
v -0.17393202 -0.12636900 0.00000000
v -0.18190354 -0.11459745 0.00000000
v -0.18907964 -0.10232478 0.00000000
v -0.19542895 -0.08960468 0.00000000
v -0.20092370 -0.07649276 0.00000000
v -0.20553985 -0.06304635 0.00000000
v -0.20925723 -0.04932426 0.00000000
v -0.21205959 -0.03538649 0.00000000
v -0.21393466 -0.02129398 0.00000000
v -0.21487425 -0.00710835 0.00000000
v -0.21487425 0.00710835 0.00000000
v -0.21393466 0.02129398 0.00000000
v -0.21205959 0.03538649 0.00000000
v -0.20925723 0.04932426 0.00000000
v -0.20553985 0.06304635 0.00000000
v -0.20092370 0.07649276 0.00000000
v -0.19542895 0.08960468 0.00000000
v -0.18907964 0.10232478 0.00000000
v -0.18190354 0.11459745 0.00000000
v -0.17393202 0.12636900 0.00000000
v -0.16519994 0.13758798 0.00000000
v -0.15574548 0.14820533 0.00000000
v -0.14560997 0.15817460 0.00000000
v -0.13483778 0.16745223 0.00000000
v -0.12347595 0.17599761 0.00000000
v -0.11157420 0.18377341 0.00000000
v -0.09918457 0.19074562 0.00000000
v -0.08636122 0.19688375 0.00000000
v -0.07316024 0.20216095 0.00000000
v -0.05963935 0.20655416 0.00000000
v -0.04585767 0.21004415 0.00000000
v -0.03187547 0.21261568 0.00000000
v -0.01775388 0.21425749 0.00000000
v -0.00355466 0.21496241 0.00000000
v 0.01066010 0.21472734 0.00000000
v 0.02482825 0.21355334 0.00000000
v 0.03888783 0.21144553 0.00000000
v 0.05277736 0.20841311 0.00000000
v 0.06643612 0.20446935 0.00000000
v 0.07980436 0.19963150 0.00000000
v 0.09282364 0.19392072 0.00000000
v 0.10543703 0.18736196 0.00000000
v 0.11758937 0.17998393 0.00000000
v 0.12922752 0.17181887 0.00000000
v 0.14030059 0.16290247 0.00000000
v 0.15076016 0.15327376 0.00000000
v 0.16056049 0.14297482 0.00000000
v 0.16965874 0.13205069 0.00000000
v 0.17801510 0.12054913 0.00000000
v 0.18559305 0.10852045 0.00000000
v 0.19235946 0.09601723 0.00000000
v 0.19828473 0.08309415 0.00000000
v 0.20334294 0.06980772 0.00000000
v 0.20751199 0.05621604 0.00000000
v 0.21077365 0.04237854 0.00000000
v 0.21311364 0.02835573 0.00000000
v 0.21452174 0.01420893 0.00000000
v 0.21499179 0.00000000 0.00000000
v 0.21452174 -0.01420893 0.00000000
v 0.24442337 0.01668652 0.02000000
v 0.24291699 0.03182088 0.02000000
v 0.24028282 0.04780583 0.02000000
v 0.23633859 0.06453913 0.02000000
v 0.23187850 0.07907963 0.02000000
v 0.22614510 0.09423172 0.02000000
v 0.21897985 0.10985924 0.02000000
v 0.21174109 0.12323529 0.02000000
v 0.20313346 0.13695994 0.02000000
v 0.19302833 0.15086845 0.02000000
v 0.18329495 0.16255517 0.02000000
v 0.17215084 0.17431384 0.02000000
v 0.15950237 0.18595758 0.02000000
v 0.14765631 0.19549640 0.02000000
v 0.13441300 0.20482767 0.02000000
v 0.11971752 0.21374972 0.02000000
v 0.10622362 0.22076632 0.02000000
v 0.09140080 0.22730403 0.02000000
v 0.07523495 0.23315430 0.02000000
v 0.06062271 0.23737337 0.02000000
v 0.04480202 0.24086097 0.02000000
v 0.02780016 0.24340990 0.02000000
v 0.01264295 0.24466586 0.02000000
v -0.00355480 0.24496651 0.02000000
v -0.02072552 0.24411407 0.02000000
v -0.03681385 0.24221058 0.02000000
v -0.05177212 0.23945954 0.02000000
v -0.06843793 0.23523919 0.02000000
v -0.08290268 0.23053931 0.02000000
v -0.09795791 0.22455618 0.02000000
v -0.11346482 0.21713351 0.02000000
v -0.12671936 0.20967458 0.02000000
v -0.14029981 0.20084120 0.02000000
v -0.15403935 0.19050750 0.02000000
v -0.16556355 0.18058223 0.02000000
v -0.17713635 0.16924521 0.02000000
v -0.18856937 0.15640596 0.02000000
v -0.19791101 0.14440380 0.02000000
v -0.20702204 0.13100803 0.02000000
v -0.21522781 0.11703938 0.02000000
v -0.22290584 0.10165732 0.02000000
v -0.22913709 0.08670308 0.02000000
v -0.23407549 0.07231800 0.02000000
v -0.23857082 0.05572426 0.02000000
v -0.24156880 0.04081351 0.02000000
v -0.24373803 0.02475885 0.02000000
v -0.24487425 0.00760457 0.02000000
v -0.24484146 -0.00859593 0.02000000
v -0.24383627 -0.02377183 0.02000000
v -0.24156880 -0.04081351 0.02000000
v -0.23834325 -0.05668970 0.02000000
v -0.23436636 -0.07136971 0.02000000
v -0.22878417 -0.08763007 0.02000000
v -0.22290584 -0.10165732 0.02000000
v -0.21569990 -0.11616703 0.02000000
v -0.20702204 -0.13100803 0.02000000
v -0.19791101 -0.14440380 0.02000000
v -0.18856937 -0.15640596 0.02000000
v -0.17713635 -0.16924521 0.02000000
v -0.16629331 -0.17991042 0.02000000
v -0.15403935 -0.19050750 0.02000000
v -0.14029981 -0.20084120 0.02000000
v -0.12756723 -0.20915982 0.02000000
v -0.11346482 -0.21713351 0.02000000
v -0.09795791 -0.22455618 0.02000000
v -0.08383539 -0.23020177 0.02000000
v -0.06843793 -0.23523919 0.02000000
v -0.05177212 -0.23945954 0.02000000
v -0.03583291 -0.24235766 0.02000000
v -0.02072552 -0.24411407 0.02000000
v -0.00355480 -0.24496651 0.02000000
v 0.01264295 -0.24466586 0.02000000
v 0.02780016 -0.24340990 0.02000000
v 0.04480202 -0.24086097 0.02000000
v 0.05966116 -0.23761687 0.02000000
v 0.07523495 -0.23315430 0.02000000
v 0.09140080 -0.22730403 0.02000000
v 0.10622362 -0.22076632 0.02000000
v 0.11971752 -0.21374972 0.02000000
v 0.13441300 -0.20482767 0.02000000
v 0.14686359 -0.19609261 0.02000000
v 0.15950237 -0.18595758 0.02000000
v 0.17215084 -0.17431384 0.02000000
v 0.18263532 -0.16329595 0.02000000
v 0.19302833 -0.15086845 0.02000000
v 0.20313346 -0.13695994 0.02000000
v 0.21174109 -0.12323529 0.02000000
v 0.21897985 -0.10985924 0.02000000
v 0.22614510 -0.09423172 0.02000000
v 0.23155643 -0.08001778 0.02000000
v 0.23633859 -0.06453913 0.02000000
v 0.24028282 -0.04780583 0.02000000
v 0.24291699 -0.03182088 0.02000000
v 0.24442337 -0.01668652 0.02000000
v 0.24500000 0.00000000 0.02000000
v 0.21311364 -0.02835573 0.02000000
v 0.21077365 -0.04237854 0.02000000
v 0.20751199 -0.05621604 0.02000000
v 0.20334294 -0.06980772 0.02000000
v 0.19828473 -0.08309415 0.02000000
v 0.19235946 -0.09601723 0.02000000
v 0.18559305 -0.10852045 0.02000000
v 0.17801510 -0.12054913 0.02000000
v 0.16965874 -0.13205069 0.02000000
v 0.16056049 -0.14297482 0.02000000
v 0.15076016 -0.15327376 0.02000000
v 0.14030059 -0.16290247 0.02000000
v 0.12922752 -0.17181887 0.02000000
v 0.11758937 -0.17998393 0.02000000
v 0.10543703 -0.18736196 0.02000000
v 0.09282364 -0.19392072 0.02000000
v 0.07980436 -0.19963150 0.02000000
v 0.06643612 -0.20446935 0.02000000
v 0.05277736 -0.20841311 0.02000000
v 0.03888783 -0.21144553 0.02000000
v 0.02482825 -0.21355334 0.02000000
v 0.01066010 -0.21472734 0.02000000
v -0.00355466 -0.21496241 0.02000000
v -0.01775388 -0.21425749 0.02000000
v -0.03187547 -0.21261568 0.02000000
v -0.04585767 -0.21004415 0.02000000
v -0.05963935 -0.20655416 0.02000000
v -0.07316024 -0.20216095 0.02000000
v -0.08636122 -0.19688375 0.02000000
v -0.09918457 -0.19074562 0.02000000
v -0.11157420 -0.18377341 0.02000000
v -0.12347595 -0.17599761 0.02000000
v -0.13483778 -0.16745223 0.02000000
v -0.14560997 -0.15817460 0.02000000
v -0.15574548 -0.14820533 0.02000000
v -0.16519994 -0.13758798 0.02000000
v -0.17393202 -0.12636900 0.02000000
v -0.18190354 -0.11459745 0.02000000
v -0.18907964 -0.10232478 0.02000000
v -0.19542895 -0.08960468 0.02000000
v -0.20092370 -0.07649276 0.02000000
v -0.20553985 -0.06304635 0.02000000
v -0.20925723 -0.04932426 0.02000000
v -0.21205959 -0.03538649 0.02000000
v -0.21393466 -0.02129398 0.02000000
v -0.21487425 -0.00710835 0.02000000
v -0.21487425 0.00710835 0.02000000
v -0.21393466 0.02129398 0.02000000
v -0.21205959 0.03538649 0.02000000
v -0.20925723 0.04932426 0.02000000
v -0.20553985 0.06304635 0.02000000
v -0.20092370 0.07649276 0.02000000
v -0.19542895 0.08960468 0.02000000
v -0.18907964 0.10232478 0.02000000
v -0.18190354 0.11459745 0.02000000
v -0.17393202 0.12636900 0.02000000
v -0.16519994 0.13758798 0.02000000
v -0.15574548 0.14820533 0.02000000
v -0.14560997 0.15817460 0.02000000
v -0.13483778 0.16745223 0.02000000
v -0.12347595 0.17599761 0.02000000
v -0.11157420 0.18377341 0.02000000
v -0.09918457 0.19074562 0.02000000
v -0.08636122 0.19688375 0.02000000
v -0.07316024 0.20216095 0.02000000
v -0.05963935 0.20655416 0.02000000
v -0.04585767 0.21004415 0.02000000
v -0.03187547 0.21261568 0.02000000
v -0.01775388 0.21425749 0.02000000
v -0.00355466 0.21496241 0.02000000
v 0.01066010 0.21472734 0.02000000
v 0.02482825 0.21355334 0.02000000
v 0.03888783 0.21144553 0.02000000
v 0.05277736 0.20841311 0.02000000
v 0.06643612 0.20446935 0.02000000
v 0.07980436 0.19963150 0.02000000
v 0.09282364 0.19392072 0.02000000
v 0.10543703 0.18736196 0.02000000
v 0.11758937 0.17998393 0.02000000
v 0.12922752 0.17181887 0.02000000
v 0.14030059 0.16290247 0.02000000
v 0.15076016 0.15327376 0.02000000
v 0.16056049 0.14297482 0.02000000
v 0.16965874 0.13205069 0.02000000
v 0.17801510 0.12054913 0.02000000
v 0.18559305 0.10852045 0.02000000
v 0.19235946 0.09601723 0.02000000
v 0.19828473 0.08309415 0.02000000
v 0.20334294 0.06980772 0.02000000
v 0.20751199 0.05621604 0.02000000
v 0.21077365 0.04237854 0.02000000
v 0.21311364 0.02835573 0.02000000
v 0.21452174 0.01420893 0.02000000
v 0.21499179 0.00000000 0.02000000
v 0.21452174 -0.01420893 0.02000000
f 55 86 85
f 55 85 84
f 55 84 83
f 55 83 82
f 55 82 81
f 80 79 78
f 80 78 77
f 80 77 76
f 80 76 75
f 74 73 72
f 74 72 71
f 74 71 70
f 74 70 69
f 68 67 66
f 68 66 65
f 68 65 64
f 68 64 63
f 62 61 60
f 62 60 59
f 62 59 58
f 62 58 57
f 57 86 55
f 57 55 54
f 57 54 53
f 57 53 52
f 57 52 51
f 57 51 50
f 57 50 49
f 57 49 48
f 57 48 47
f 57 47 46
f 57 46 45
f 57 45 44
f 57 44 43
f 57 43 42
f 57 42 41
f 57 41 40
f 57 40 39
f 57 39 38
f 57 38 37
f 57 37 36
f 57 36 35
f 57 35 34
f 33 32 31
f 33 31 30
f 33 30 29
f 33 29 28
f 33 28 27
f 33 27 26
f 33 26 25
f 33 25 24
f 23 22 21
f 23 21 20
f 23 20 19
f 23 19 18
f 23 18 17
f 23 17 16
f 23 16 15
f 23 15 14
f 23 14 13
f 23 13 12
f 11 10 9
f 11 9 8
f 11 8 7
f 11 7 6
f 11 6 5
f 11 5 4
f 11 4 3
f 11 3 2
f 11 2 1
f 56 55 81
f 56 81 80
f 62 57 34
f 62 34 33
f 1 56 80
f 1 80 75
f 63 62 33
f 63 33 24
f 11 1 75
f 11 75 74
f 68 63 24
f 68 24 23
f 12 11 74
f 12 74 69
f 69 68 23
f 69 23 12
f 171 172 141
f 170 171 141
f 169 170 141
f 168 169 141
f 167 168 141
f 164 165 166
f 163 164 166
f 162 163 166
f 161 162 166
f 158 159 160
f 157 158 160
f 156 157 160
f 155 156 160
f 152 153 154
f 151 152 154
f 150 151 154
f 149 150 154
f 146 147 148
f 145 146 148
f 144 145 148
f 143 144 148
f 141 172 143
f 140 141 143
f 139 140 143
f 138 139 143
f 137 138 143
f 136 137 143
f 135 136 143
f 134 135 143
f 133 134 143
f 132 133 143
f 131 132 143
f 130 131 143
f 129 130 143
f 128 129 143
f 127 128 143
f 126 127 143
f 125 126 143
f 124 125 143
f 123 124 143
f 122 123 143
f 121 122 143
f 120 121 143
f 117 118 119
f 116 117 119
f 115 116 119
f 114 115 119
f 113 114 119
f 112 113 119
f 111 112 119
f 110 111 119
f 107 108 109
f 106 107 109
f 105 106 109
f 104 105 109
f 103 104 109
f 102 103 109
f 101 102 109
f 100 101 109
f 99 100 109
f 98 99 109
f 95 96 97
f 94 95 97
f 93 94 97
f 92 93 97
f 91 92 97
f 90 91 97
f 89 90 97
f 88 89 97
f 87 88 97
f 167 141 142
f 166 167 142
f 120 143 148
f 119 120 148
f 166 142 87
f 161 166 87
f 119 148 149
f 110 119 149
f 161 87 97
f 160 161 97
f 110 149 154
f 109 110 154
f 160 97 98
f 155 160 98
f 109 154 155
f 98 109 155
f 1 88 87
f 2 88 1
f 2 89 88
f 3 89 2
f 3 90 89
f 4 90 3
f 4 91 90
f 5 91 4
f 5 92 91
f 6 92 5
f 6 93 92
f 7 93 6
f 7 94 93
f 8 94 7
f 8 95 94
f 9 95 8
f 9 96 95
f 10 96 9
f 10 97 96
f 11 97 10
f 11 98 97
f 12 98 11
f 12 99 98
f 13 99 12
f 13 100 99
f 14 100 13
f 14 101 100
f 15 101 14
f 15 102 101
f 16 102 15
f 16 103 102
f 17 103 16
f 17 104 103
f 18 104 17
f 18 105 104
f 19 105 18
f 19 106 105
f 20 106 19
f 20 107 106
f 21 107 20
f 21 108 107
f 22 108 21
f 22 109 108
f 23 109 22
f 23 110 109
f 24 110 23
f 24 111 110
f 25 111 24
f 25 112 111
f 26 112 25
f 26 113 112
f 27 113 26
f 27 114 113
f 28 114 27
f 28 115 114
f 29 115 28
f 29 116 115
f 30 116 29
f 30 117 116
f 31 117 30
f 31 118 117
f 32 118 31
f 32 119 118
f 33 119 32
f 33 120 119
f 34 120 33
f 34 121 120
f 35 121 34
f 35 122 121
f 36 122 35
f 36 123 122
f 37 123 36
f 37 124 123
f 38 124 37
f 38 125 124
f 39 125 38
f 39 126 125
f 40 126 39
f 40 127 126
f 41 127 40
f 41 128 127
f 42 128 41
f 42 129 128
f 43 129 42
f 43 130 129
f 44 130 43
f 44 131 130
f 45 131 44
f 45 132 131
f 46 132 45
f 46 133 132
f 47 133 46
f 47 134 133
f 48 134 47
f 48 135 134
f 49 135 48
f 49 136 135
f 50 136 49
f 50 137 136
f 51 137 50
f 51 138 137
f 52 138 51
f 52 139 138
f 53 139 52
f 53 140 139
f 54 140 53
f 54 141 140
f 55 141 54
f 56 87 142
f 1 87 56
f 55 142 141
f 56 142 55
f 57 144 143
f 58 144 57
f 58 145 144
f 59 145 58
f 59 146 145
f 60 146 59
f 60 147 146
f 61 147 60
f 61 148 147
f 62 148 61
f 62 149 148
f 63 149 62
f 63 150 149
f 64 150 63
f 64 151 150
f 65 151 64
f 65 152 151
f 66 152 65
f 66 153 152
f 67 153 66
f 67 154 153
f 68 154 67
f 68 155 154
f 69 155 68
f 69 156 155
f 70 156 69
f 70 157 156
f 71 157 70
f 71 158 157
f 72 158 71
f 72 159 158
f 73 159 72
f 73 160 159
f 74 160 73
f 74 161 160
f 75 161 74
f 75 162 161
f 76 162 75
f 76 163 162
f 77 163 76
f 77 164 163
f 78 164 77
f 78 165 164
f 79 165 78
f 79 166 165
f 80 166 79
f 80 167 166
f 81 167 80
f 81 168 167
f 82 168 81
f 82 169 168
f 83 169 82
f 83 170 169
f 84 170 83
f 84 171 170
f 85 171 84
f 86 143 172
f 57 143 86
f 85 172 171
f 86 172 85
f 219 314 313
f 219 313 312
f 219 312 311
f 219 311 310
f 219 310 309
f 219 309 308
f 219 308 307
f 219 307 306
f 315 314 219
f 315 219 218
f 315 218 217
f 315 217 216
f 315 216 215
f 315 215 214
f 315 214 213
f 315 213 212
f 315 212 211
f 315 211 210
f 210 209 208
f 210 208 207
f 210 207 206
f 210 206 205
f 210 205 204
f 210 204 203
f 210 203 202
f 210 202 201
f 210 201 200
f 210 200 199
f 210 199 198
f 210 198 197
f 210 197 196
f 210 196 195
f 195 194 193
f 195 193 192
f 195 192 191
f 195 191 190
f 195 190 189
f 195 189 188
f 195 188 187
f 195 187 186
f 195 186 185
f 195 185 184
f 195 184 183
f 195 183 182
f 195 182 181
f 195 181 180
f 180 179 178
f 180 178 177
f 180 177 176
f 180 176 175
f 180 175 174
f 180 174 173
f 180 173 267
f 180 267 266
f 180 266 265
f 180 265 264
f 180 264 263
f 180 263 262
f 180 262 261
f 180 261 260
f 260 259 258
f 260 258 257
f 260 257 256
f 260 256 255
f 260 255 254
f 260 254 253
f 260 253 252
f 260 252 251
f 260 251 250
f 260 250 249
f 260 249 248
f 260 248 247
f 260 247 246
f 260 246 245
f 245 244 243
f 245 243 242
f 245 242 241
f 245 241 240
f 245 240 239
f 245 239 238
f 245 238 237
f 245 237 236
f 245 236 235
f 245 235 234
f 245 234 233
f 245 233 232
f 245 232 231
f 245 231 230
f 230 229 228
f 230 228 227
f 230 227 226
f 230 226 225
f 230 225 224
f 230 224 223
f 230 223 222
f 230 222 221
f 230 221 220
f 230 220 219
f 230 219 306
f 230 306 305
f 230 305 304
f 230 304 303
f 230 303 302
f 230 302 301
f 230 301 300
f 230 300 299
f 230 299 298
f 230 298 297
f 230 297 296
f 230 296 295
f 316 315 210
f 245 230 295
f 245 295 294
f 245 294 293
f 245 293 292
f 245 292 291
f 245 291 290
f 245 290 289
f 245 289 288
f 245 288 287
f 245 287 286
f 245 286 285
f 245 285 284
f 245 284 283
f 245 283 282
f 245 282 281
f 245 281 280
f 317 316 210
f 260 245 280
f 260 280 279
f 260 279 278
f 260 278 277
f 260 277 276
f 260 276 275
f 260 275 274
f 260 274 273
f 260 273 272
f 260 272 271
f 260 271 270
f 260 270 269
f 260 269 268
f 260 268 362
f 260 362 361
f 260 361 360
f 318 317 210
f 180 260 360
f 180 360 359
f 180 359 358
f 180 358 357
f 180 357 356
f 180 356 355
f 180 355 354
f 180 354 353
f 180 353 352
f 180 352 351
f 180 351 350
f 180 350 349
f 180 349 348
f 180 348 347
f 180 347 346
f 180 346 345
f 319 318 210
f 195 180 345
f 195 345 344
f 195 344 343
f 195 343 342
f 195 342 341
f 195 341 340
f 195 340 339
f 195 339 338
f 195 338 337
f 195 337 336
f 195 336 335
f 195 335 334
f 195 334 333
f 195 333 332
f 195 332 331
f 195 331 330
f 320 319 210
f 210 195 330
f 210 330 329
f 210 329 328
f 210 328 327
f 210 327 326
f 210 326 325
f 210 325 324
f 210 324 323
f 210 323 322
f 210 322 321
f 210 321 320
f 503 504 409
f 502 503 409
f 501 502 409
f 500 501 409
f 499 500 409
f 498 499 409
f 497 498 409
f 496 497 409
f 409 504 505
f 408 409 505
f 407 408 505
f 406 407 505
f 405 406 505
f 404 405 505
f 403 404 505
f 402 403 505
f 401 402 505
f 400 401 505
f 398 399 400
f 397 398 400
f 396 397 400
f 395 396 400
f 394 395 400
f 393 394 400
f 392 393 400
f 391 392 400
f 390 391 400
f 389 390 400
f 388 389 400
f 387 388 400
f 386 387 400
f 385 386 400
f 383 384 385
f 382 383 385
f 381 382 385
f 380 381 385
f 379 380 385
f 378 379 385
f 377 378 385
f 376 377 385
f 375 376 385
f 374 375 385
f 373 374 385
f 372 373 385
f 371 372 385
f 370 371 385
f 368 369 370
f 367 368 370
f 366 367 370
f 365 366 370
f 364 365 370
f 363 364 370
f 457 363 370
f 456 457 370
f 455 456 370
f 454 455 370
f 453 454 370
f 452 453 370
f 451 452 370
f 450 451 370
f 448 449 450
f 447 448 450
f 446 447 450
f 445 446 450
f 444 445 450
f 443 444 450
f 442 443 450
f 441 442 450
f 440 441 450
f 439 440 450
f 438 439 450
f 437 438 450
f 436 437 450
f 435 436 450
f 433 434 435
f 432 433 435
f 431 432 435
f 430 431 435
f 429 430 435
f 428 429 435
f 427 428 435
f 426 427 435
f 425 426 435
f 424 425 435
f 423 424 435
f 422 423 435
f 421 422 435
f 420 421 435
f 418 419 420
f 417 418 420
f 416 417 420
f 415 416 420
f 414 415 420
f 413 414 420
f 412 413 420
f 411 412 420
f 410 411 420
f 409 410 420
f 496 409 420
f 495 496 420
f 494 495 420
f 493 494 420
f 492 493 420
f 491 492 420
f 490 491 420
f 489 490 420
f 488 489 420
f 487 488 420
f 486 487 420
f 485 486 420
f 400 505 506
f 485 420 435
f 484 485 435
f 483 484 435
f 482 483 435
f 481 482 435
f 480 481 435
f 479 480 435
f 478 479 435
f 477 478 435
f 476 477 435
f 475 476 435
f 474 475 435
f 473 474 435
f 472 473 435
f 471 472 435
f 470 471 435
f 400 506 507
f 470 435 450
f 469 470 450
f 468 469 450
f 467 468 450
f 466 467 450
f 465 466 450
f 464 465 450
f 463 464 450
f 462 463 450
f 461 462 450
f 460 461 450
f 459 460 450
f 458 459 450
f 552 458 450
f 551 552 450
f 550 551 450
f 400 507 508
f 550 450 370
f 549 550 370
f 548 549 370
f 547 548 370
f 546 547 370
f 545 546 370
f 544 545 370
f 543 544 370
f 542 543 370
f 541 542 370
f 540 541 370
f 539 540 370
f 538 539 370
f 537 538 370
f 536 537 370
f 535 536 370
f 400 508 509
f 535 370 385
f 534 535 385
f 533 534 385
f 532 533 385
f 531 532 385
f 530 531 385
f 529 530 385
f 528 529 385
f 527 528 385
f 526 527 385
f 525 526 385
f 524 525 385
f 523 524 385
f 522 523 385
f 521 522 385
f 520 521 385
f 400 509 510
f 520 385 400
f 519 520 400
f 518 519 400
f 517 518 400
f 516 517 400
f 515 516 400
f 514 515 400
f 513 514 400
f 512 513 400
f 511 512 400
f 510 511 400
f 173 364 363
f 174 364 173
f 174 365 364
f 175 365 174
f 175 366 365
f 176 366 175
f 176 367 366
f 177 367 176
f 177 368 367
f 178 368 177
f 178 369 368
f 179 369 178
f 179 370 369
f 180 370 179
f 180 371 370
f 181 371 180
f 181 372 371
f 182 372 181
f 182 373 372
f 183 373 182
f 183 374 373
f 184 374 183
f 184 375 374
f 185 375 184
f 185 376 375
f 186 376 185
f 186 377 376
f 187 377 186
f 187 378 377
f 188 378 187
f 188 379 378
f 189 379 188
f 189 380 379
f 190 380 189
f 190 381 380
f 191 381 190
f 191 382 381
f 192 382 191
f 192 383 382
f 193 383 192
f 193 384 383
f 194 384 193
f 194 385 384
f 195 385 194
f 195 386 385
f 196 386 195
f 196 387 386
f 197 387 196
f 197 388 387
f 198 388 197
f 198 389 388
f 199 389 198
f 199 390 389
f 200 390 199
f 200 391 390
f 201 391 200
f 201 392 391
f 202 392 201
f 202 393 392
f 203 393 202
f 203 394 393
f 204 394 203
f 204 395 394
f 205 395 204
f 205 396 395
f 206 396 205
f 206 397 396
f 207 397 206
f 207 398 397
f 208 398 207
f 208 399 398
f 209 399 208
f 209 400 399
f 210 400 209
f 210 401 400
f 211 401 210
f 211 402 401
f 212 402 211
f 212 403 402
f 213 403 212
f 213 404 403
f 214 404 213
f 214 405 404
f 215 405 214
f 215 406 405
f 216 406 215
f 216 407 406
f 217 407 216
f 217 408 407
f 218 408 217
f 218 409 408
f 219 409 218
f 219 410 409
f 220 410 219
f 220 411 410
f 221 411 220
f 221 412 411
f 222 412 221
f 222 413 412
f 223 413 222
f 223 414 413
f 224 414 223
f 224 415 414
f 225 415 224
f 225 416 415
f 226 416 225
f 226 417 416
f 227 417 226
f 227 418 417
f 228 418 227
f 228 419 418
f 229 419 228
f 229 420 419
f 230 420 229
f 230 421 420
f 231 421 230
f 231 422 421
f 232 422 231
f 232 423 422
f 233 423 232
f 233 424 423
f 234 424 233
f 234 425 424
f 235 425 234
f 235 426 425
f 236 426 235
f 236 427 426
f 237 427 236
f 237 428 427
f 238 428 237
f 238 429 428
f 239 429 238
f 239 430 429
f 240 430 239
f 240 431 430
f 241 431 240
f 241 432 431
f 242 432 241
f 242 433 432
f 243 433 242
f 243 434 433
f 244 434 243
f 244 435 434
f 245 435 244
f 245 436 435
f 246 436 245
f 246 437 436
f 247 437 246
f 247 438 437
f 248 438 247
f 248 439 438
f 249 439 248
f 249 440 439
f 250 440 249
f 250 441 440
f 251 441 250
f 251 442 441
f 252 442 251
f 252 443 442
f 253 443 252
f 253 444 443
f 254 444 253
f 254 445 444
f 255 445 254
f 255 446 445
f 256 446 255
f 256 447 446
f 257 447 256
f 257 448 447
f 258 448 257
f 258 449 448
f 259 449 258
f 259 450 449
f 260 450 259
f 260 451 450
f 261 451 260
f 261 452 451
f 262 452 261
f 262 453 452
f 263 453 262
f 263 454 453
f 264 454 263
f 264 455 454
f 265 455 264
f 265 456 455
f 266 456 265
f 267 363 457
f 173 363 267
f 266 457 456
f 267 457 266
f 268 459 458
f 269 459 268
f 269 460 459
f 270 460 269
f 270 461 460
f 271 461 270
f 271 462 461
f 272 462 271
f 272 463 462
f 273 463 272
f 273 464 463
f 274 464 273
f 274 465 464
f 275 465 274
f 275 466 465
f 276 466 275
f 276 467 466
f 277 467 276
f 277 468 467
f 278 468 277
f 278 469 468
f 279 469 278
f 279 470 469
f 280 470 279
f 280 471 470
f 281 471 280
f 281 472 471
f 282 472 281
f 282 473 472
f 283 473 282
f 283 474 473
f 284 474 283
f 284 475 474
f 285 475 284
f 285 476 475
f 286 476 285
f 286 477 476
f 287 477 286
f 287 478 477
f 288 478 287
f 288 479 478
f 289 479 288
f 289 480 479
f 290 480 289
f 290 481 480
f 291 481 290
f 291 482 481
f 292 482 291
f 292 483 482
f 293 483 292
f 293 484 483
f 294 484 293
f 294 485 484
f 295 485 294
f 295 486 485
f 296 486 295
f 296 487 486
f 297 487 296
f 297 488 487
f 298 488 297
f 298 489 488
f 299 489 298
f 299 490 489
f 300 490 299
f 300 491 490
f 301 491 300
f 301 492 491
f 302 492 301
f 302 493 492
f 303 493 302
f 303 494 493
f 304 494 303
f 304 495 494
f 305 495 304
f 305 496 495
f 306 496 305
f 306 497 496
f 307 497 306
f 307 498 497
f 308 498 307
f 308 499 498
f 309 499 308
f 309 500 499
f 310 500 309
f 310 501 500
f 311 501 310
f 311 502 501
f 312 502 311
f 312 503 502
f 313 503 312
f 313 504 503
f 314 504 313
f 314 505 504
f 315 505 314
f 315 506 505
f 316 506 315
f 316 507 506
f 317 507 316
f 317 508 507
f 318 508 317
f 318 509 508
f 319 509 318
f 319 510 509
f 320 510 319
f 320 511 510
f 321 511 320
f 321 512 511
f 322 512 321
f 322 513 512
f 323 513 322
f 323 514 513
f 324 514 323
f 324 515 514
f 325 515 324
f 325 516 515
f 326 516 325
f 326 517 516
f 327 517 326
f 327 518 517
f 328 518 327
f 328 519 518
f 329 519 328
f 329 520 519
f 330 520 329
f 330 521 520
f 331 521 330
f 331 522 521
f 332 522 331
f 332 523 522
f 333 523 332
f 333 524 523
f 334 524 333
f 334 525 524
f 335 525 334
f 335 526 525
f 336 526 335
f 336 527 526
f 337 527 336
f 337 528 527
f 338 528 337
f 338 529 528
f 339 529 338
f 339 530 529
f 340 530 339
f 340 531 530
f 341 531 340
f 341 532 531
f 342 532 341
f 342 533 532
f 343 533 342
f 343 534 533
f 344 534 343
f 344 535 534
f 345 535 344
f 345 536 535
f 346 536 345
f 346 537 536
f 347 537 346
f 347 538 537
f 348 538 347
f 348 539 538
f 349 539 348
f 349 540 539
f 350 540 349
f 350 541 540
f 351 541 350
f 351 542 541
f 352 542 351
f 352 543 542
f 353 543 352
f 353 544 543
f 354 544 353
f 354 545 544
f 355 545 354
f 355 546 545
f 356 546 355
f 356 547 546
f 357 547 356
f 357 548 547
f 358 548 357
f 358 549 548
f 359 549 358
f 359 550 549
f 360 550 359
f 360 551 550
f 361 551 360
f 362 458 552
f 268 458 362
f 361 552 551
f 362 552 361

