# https://github.com/mikedh/trimesh

o mark_records
v -0.19785863 0.18277662 0.00000000
v -0.20104009 0.18015464 0.00000000
v -0.20478176 0.17496850 0.00000000
v -0.20877010 0.16815084 0.00000000
v -0.21239577 0.16028386 0.00000000
v -0.21414775 0.15549758 0.00000000
v -0.21645762 0.14714898 0.00000000
v -0.21790577 0.13860862 0.00000000
v -0.21846223 0.13072968 0.00000000
v -0.21843185 0.12563293 0.00000000
v -0.21778151 0.11776117 0.00000000
v -0.21623166 0.10923869 0.00000000
v -0.21491714 0.10431427 0.00000000
v -0.21201351 0.09615315 0.00000000
v -0.20865434 0.08900450 0.00000000
v -0.20614064 0.08457064 0.00000000
v -0.20379819 0.08092594 0.00000000
v -0.19906096 0.07460565 0.00000000
v -0.19570145 0.07077269 0.00000000
v -0.19005668 0.06524784 0.00000000
v -0.18268441 0.05937461 0.00000000
v -0.17603777 0.05510733 0.00000000
v -0.17223307 0.05303486 0.00000000
v -0.16361809 0.04921026 0.00000000
v -0.15952903 0.04777832 0.00000000
v -0.15190592 0.04571059 0.00000000
v -0.14260495 0.04418178 0.00000000
v -0.13472104 0.04370061 0.00000000
v -0.13003579 0.04376281 0.00000000
v -0.12662970 0.03320757 0.00000000
v -0.12202255 0.02224958 0.00000000
v -0.11646929 0.01173936 0.00000000
v -0.11026767 0.00211770 0.00000000
v -0.10298903 -0.00728042 0.00000000
v -0.09491187 -0.01600182 0.00000000
v -0.08878288 -0.02169667 0.00000000
v -0.07949262 -0.02911249 0.00000000
v -0.07295205 -0.03358966 0.00000000
v -0.06306668 -0.03936166 0.00000000
v -0.05595293 -0.04285716 0.00000000
v -0.04864629 -0.04592915 0.00000000
v -0.04075233 -0.04870066 0.00000000
v -0.03312896 -0.05087049 0.00000000
v -0.02539138 -0.05258918 0.00000000
v -0.01500000 -0.05415359 0.00000000
v -0.01487167 -0.11195789 0.00000000
v -0.01385819 -0.11574025 0.00000000
v -0.01299038 -0.11750000 0.00000000
v -0.01060660 -0.12060660 0.00000000
v -0.00750000 -0.12299038 0.00000000
v -0.00574025 -0.12385819 0.00000000
v -0.00195789 -0.12487167 0.00000000
v 0.00195789 -0.12487167 0.00000000
v 0.00574025 -0.12385819 0.00000000
v 0.00750000 -0.12299038 0.00000000
v 0.01060660 -0.12060660 0.00000000
v 0.01190030 -0.11913142 0.00000000
v 0.01385819 -0.11574025 0.00000000
v 0.01448889 -0.11388229 0.00000000
v 0.01500000 -0.11000000 0.00000000
v 0.01500000 -0.05415359 0.00000000
v 0.02539138 -0.05258918 0.00000000
v 0.03355571 -0.05076171 0.00000000
v 0.04451296 -0.04744884 0.00000000
v 0.05232216 -0.04444679 0.00000000
v 0.06267697 -0.03956676 0.00000000
v 0.06996303 -0.03545469 0.00000000
v 0.07949262 -0.02911249 0.00000000
v 0.08609882 -0.02397887 0.00000000
v 0.09459819 -0.01631093 0.00000000
v 0.10038240 -0.01026620 0.00000000
v 0.10766871 -0.00143748 0.00000000
v 0.11250649 0.00538833 0.00000000
v 0.11842299 0.01518791 0.00000000
v 0.12221029 0.02264795 0.00000000
v 0.12662970 0.03320757 0.00000000
v 0.13003579 0.04376281 0.00000000
v 0.13828695 0.04382714 0.00000000
v 0.14689927 0.04475600 0.00000000
v 0.15537231 0.04655660 0.00000000
v 0.16025580 0.04801583 0.00000000
v 0.16762888 0.05084871 0.00000000
v 0.17537415 0.05472757 0.00000000
v 0.17973192 0.05737098 0.00000000
v 0.18675050 0.06244783 0.00000000
v 0.19266947 0.06767786 0.00000000
v 0.19857180 0.07401799 0.00000000
v 0.20173162 0.07801716 0.00000000
v 0.20653455 0.08522595 0.00000000
v 0.21057881 0.09288616 0.00000000
v 0.21356936 0.10019670 0.00000000
v 0.21605335 0.10849517 0.00000000
v 0.21711522 0.11348017 0.00000000
v 0.21822879 0.12207057 0.00000000
v 0.21846223 0.13072968 0.00000000
v 0.21781310 0.13936760 0.00000000
v 0.21628819 0.14789458 0.00000000
v 0.21390331 0.15622206 0.00000000
v 0.21068323 0.16426358 0.00000000
v 0.20666139 0.17193557 0.00000000
v 0.20104009 0.18015464 0.00000000
v 0.19785863 0.18277662 0.00000000
v 0.19408356 0.18443346 0.00000000
v 0.19206133 0.18485768 0.00000000
v 0.13500001 0.18500000 0.00000000
v 0.13500001 0.20999999 0.00000000
v 0.13448888 0.21388228 0.00000000
v 0.13299038 0.21750000 0.00000000
v 0.13060661 0.22060660 0.00000000
v 0.12750000 0.22299038 0.00000000
v 0.12388229 0.22448888 0.00000000
v 0.12195789 0.22487168 0.00000000
v -0.12195789 0.22487168 0.00000000
v -0.12388229 0.22448888 0.00000000
v -0.12750000 0.22299038 0.00000000
v -0.13060661 0.22060660 0.00000000
v -0.13299038 0.21750000 0.00000000
v -0.13448888 0.21388228 0.00000000
v -0.13500001 0.20999999 0.00000000
v -0.13500001 0.18500000 0.00000000
v -0.19000000 0.18500000 0.00000000
v -0.19408356 0.18443346 0.00000000
v -0.14516436 0.07494580 0.00000000
v -0.15057366 0.07641304 0.00000000
v -0.15580553 0.07842324 0.00000000
v -0.16320242 0.08240939 0.00000000
v -0.16775839 0.08567382 0.00000000
v -0.17391121 0.09139626 0.00000000
v -0.17912045 0.09798923 0.00000000
v -0.18200803 0.10279291 0.00000000
v -0.18439168 0.10786554 0.00000000
v -0.18696962 0.11586290 0.00000000
v -0.18799722 0.12137265 0.00000000
v -0.18847540 0.12976162 0.00000000
v -0.18808055 0.13535246 0.00000000
v -0.18642806 0.14359096 0.00000000
v -0.18463627 0.14890158 0.00000000
v -0.18176323 0.15500000 0.00000000
v -0.13500001 0.15500000 0.00000000
v -0.13484150 0.07372376 0.00000000
v -0.13963380 0.07403674 0.00000000
v 0.18642806 0.14359096 0.00000000
v 0.18808055 0.13535246 0.00000000
v 0.18847540 0.12976162 0.00000000
v 0.18829916 0.12415963 0.00000000
v 0.18755366 0.11860467 0.00000000
v 0.18538657 0.11048634 0.00000000
v 0.18326451 0.10529884 0.00000000
v 0.17912045 0.09798923 0.00000000
v 0.17575896 0.09350441 0.00000000
v 0.16990574 0.08747587 0.00000000
v 0.16552202 0.08398353 0.00000000
v 0.16080563 0.08095550 0.00000000
v 0.15321521 0.07735145 0.00000000
v 0.14788771 0.07561047 0.00000000
v 0.14241067 0.07442077 0.00000000
v 0.13484150 0.07372376 0.00000000
v 0.13500001 0.15500000 0.00000000
v 0.18176323 0.15500000 0.00000000
v 0.18463627 0.14890158 0.00000000
v 0.10427511 0.06769703 0.00000000
v 0.10211524 0.05556356 0.00000000
v 0.09854852 0.04376675 0.00000000
v 0.09497911 0.03523808 0.00000000
v 0.09218843 0.02974114 0.00000000
v 0.08740986 0.02182633 0.00000000
v 0.08384513 0.01679672 0.00000000
v 0.07586185 0.00740771 0.00000000
v 0.06918194 0.00101570 0.00000000
v 0.06442730 -0.00290828 0.00000000
v 0.05426889 -0.00988631 0.00000000
v 0.04890014 -0.01291629 0.00000000
v 0.04053689 -0.01685774 0.00000000
v 0.02890855 -0.02094036 0.00000000
v 0.01991694 -0.02309208 0.00000000
v 0.01383238 -0.02408326 0.00000000
v 0.00154136 -0.02498707 0.00000000
v -0.01077090 -0.02444447 0.00000000
v -0.01991694 -0.02309208 0.00000000
v -0.02593284 -0.02174551 0.00000000
v -0.03767602 -0.01800601 0.00000000
v -0.04336282 -0.01562597 0.00000000
v -0.05160676 -0.01144071 0.00000000
v -0.06196564 -0.00476391 0.00000000
v -0.06918194 0.00101570 0.00000000
v -0.07796021 0.00966604 0.00000000
v -0.08384513 0.01679672 0.00000000
v -0.09067328 0.02705647 0.00000000
v -0.09497911 0.03523808 0.00000000
v -0.09854852 0.04376675 0.00000000
v -0.10135385 0.05257635 0.00000000
v -0.10386899 0.06464119 0.00000000
v -0.10495313 0.07691762 0.00000000
v -0.10500000 0.19499999 0.00000000
v 0.10500000 0.19499999 0.00000000
v 0.10500000 0.08011010 0.00000000
v -0.19785863 0.18277662 0.02000000
v -0.20104009 0.18015464 0.02000000
v -0.20478176 0.17496850 0.02000000
v -0.20877010 0.16815084 0.02000000
v -0.21239577 0.16028386 0.02000000
v -0.21414775 0.15549758 0.02000000
v -0.21645762 0.14714898 0.02000000
v -0.21790577 0.13860862 0.02000000
v -0.21846223 0.13072968 0.02000000
v -0.21843185 0.12563293 0.02000000
v -0.21778151 0.11776117 0.02000000
v -0.21623166 0.10923869 0.02000000
v -0.21491714 0.10431427 0.02000000
v -0.21201351 0.09615315 0.02000000
v -0.20865434 0.08900450 0.02000000
v -0.20614064 0.08457064 0.02000000
v -0.20379819 0.08092594 0.02000000
v -0.19906096 0.07460565 0.02000000
v -0.19570145 0.07077269 0.02000000
v -0.19005668 0.06524784 0.02000000
v -0.18268441 0.05937461 0.02000000
v -0.17603777 0.05510733 0.02000000
v -0.17223307 0.05303486 0.02000000
v -0.16361809 0.04921026 0.02000000
v -0.15952903 0.04777832 0.02000000
v -0.15190592 0.04571059 0.02000000
v -0.14260495 0.04418178 0.02000000
v -0.13472104 0.04370061 0.02000000
v -0.13003579 0.04376281 0.02000000
v -0.12662970 0.03320757 0.02000000
v -0.12202255 0.02224958 0.02000000
v -0.11646929 0.01173936 0.02000000
v -0.11026767 0.00211770 0.02000000
v -0.10298903 -0.00728042 0.02000000
v -0.09491187 -0.01600182 0.02000000
v -0.08878288 -0.02169667 0.02000000
v -0.07949262 -0.02911249 0.02000000
v -0.07295205 -0.03358966 0.02000000
v -0.06306668 -0.03936166 0.02000000
v -0.05595293 -0.04285716 0.02000000
v -0.04864629 -0.04592915 0.02000000
v -0.04075233 -0.04870066 0.02000000
v -0.03312896 -0.05087049 0.02000000
v -0.02539138 -0.05258918 0.02000000
v -0.01500000 -0.05415359 0.02000000
v -0.01487167 -0.11195789 0.02000000
v -0.01385819 -0.11574025 0.02000000
v -0.01299038 -0.11750000 0.02000000
v -0.01060660 -0.12060660 0.02000000
v -0.00750000 -0.12299038 0.02000000
v -0.00574025 -0.12385819 0.02000000
v -0.00195789 -0.12487167 0.02000000
v 0.00195789 -0.12487167 0.02000000
v 0.00574025 -0.12385819 0.02000000
v 0.00750000 -0.12299038 0.02000000
v 0.01060660 -0.12060660 0.02000000
v 0.01190030 -0.11913142 0.02000000
v 0.01385819 -0.11574025 0.02000000
v 0.01448889 -0.11388229 0.02000000
v 0.01500000 -0.11000000 0.02000000
v 0.01500000 -0.05415359 0.02000000
v 0.02539138 -0.05258918 0.02000000
v 0.03355571 -0.05076171 0.02000000
v 0.04451296 -0.04744884 0.02000000
v 0.05232216 -0.04444679 0.02000000
v 0.06267697 -0.03956676 0.02000000
v 0.06996303 -0.03545469 0.02000000
v 0.07949262 -0.02911249 0.02000000
v 0.08609882 -0.02397887 0.02000000
v 0.09459819 -0.01631093 0.02000000
v 0.10038240 -0.01026620 0.02000000
v 0.10766871 -0.00143748 0.02000000
v 0.11250649 0.00538833 0.02000000
v 0.11842299 0.01518791 0.02000000
v 0.12221029 0.02264795 0.02000000
v 0.12662970 0.03320757 0.02000000
v 0.13003579 0.04376281 0.02000000
v 0.13828695 0.04382714 0.02000000
v 0.14689927 0.04475600 0.02000000
v 0.15537231 0.04655660 0.02000000
v 0.16025580 0.04801583 0.02000000
v 0.16762888 0.05084871 0.02000000
v 0.17537415 0.05472757 0.02000000
v 0.17973192 0.05737098 0.02000000
v 0.18675050 0.06244783 0.02000000
v 0.19266947 0.06767786 0.02000000
v 0.19857180 0.07401799 0.02000000
v 0.20173162 0.07801716 0.02000000
v 0.20653455 0.08522595 0.02000000
v 0.21057881 0.09288616 0.02000000
v 0.21356936 0.10019670 0.02000000
v 0.21605335 0.10849517 0.02000000
v 0.21711522 0.11348017 0.02000000
v 0.21822879 0.12207057 0.02000000
v 0.21846223 0.13072968 0.02000000
v 0.21781310 0.13936760 0.02000000
v 0.21628819 0.14789458 0.02000000
v 0.21390331 0.15622206 0.02000000
v 0.21068323 0.16426358 0.02000000
v 0.20666139 0.17193557 0.02000000
v 0.20104009 0.18015464 0.02000000
v 0.19785863 0.18277662 0.02000000
v 0.19408356 0.18443346 0.02000000
v 0.19206133 0.18485768 0.02000000
v 0.13500001 0.18500000 0.02000000
v 0.13500001 0.20999999 0.02000000
v 0.13448888 0.21388228 0.02000000
v 0.13299038 0.21750000 0.02000000
v 0.13060661 0.22060660 0.02000000
v 0.12750000 0.22299038 0.02000000
v 0.12388229 0.22448888 0.02000000
v 0.12195789 0.22487168 0.02000000
v -0.12195789 0.22487168 0.02000000
v -0.12388229 0.22448888 0.02000000
v -0.12750000 0.22299038 0.02000000
v -0.13060661 0.22060660 0.02000000
v -0.13299038 0.21750000 0.02000000
v -0.13448888 0.21388228 0.02000000
v -0.13500001 0.20999999 0.02000000
v -0.13500001 0.18500000 0.02000000
v -0.19000000 0.18500000 0.02000000
v -0.19408356 0.18443346 0.02000000
v -0.14516436 0.07494580 0.02000000
v -0.15057366 0.07641304 0.02000000
v -0.15580553 0.07842324 0.02000000
v -0.16320242 0.08240939 0.02000000
v -0.16775839 0.08567382 0.02000000
v -0.17391121 0.09139626 0.02000000
v -0.17912045 0.09798923 0.02000000
v -0.18200803 0.10279291 0.02000000
v -0.18439168 0.10786554 0.02000000
v -0.18696962 0.11586290 0.02000000
v -0.18799722 0.12137265 0.02000000
v -0.18847540 0.12976162 0.02000000
v -0.18808055 0.13535246 0.02000000
v -0.18642806 0.14359096 0.02000000
v -0.18463627 0.14890158 0.02000000
v -0.18176323 0.15500000 0.02000000
v -0.13500001 0.15500000 0.02000000
v -0.13484150 0.07372376 0.02000000
v -0.13963380 0.07403674 0.02000000
v 0.18642806 0.14359096 0.02000000
v 0.18808055 0.13535246 0.02000000
v 0.18847540 0.12976162 0.02000000
v 0.18829916 0.12415963 0.02000000
v 0.18755366 0.11860467 0.02000000
v 0.18538657 0.11048634 0.02000000
v 0.18326451 0.10529884 0.02000000
v 0.17912045 0.09798923 0.02000000
v 0.17575896 0.09350441 0.02000000
v 0.16990574 0.08747587 0.02000000
v 0.16552202 0.08398353 0.02000000
v 0.16080563 0.08095550 0.02000000
v 0.15321521 0.07735145 0.02000000
v 0.14788771 0.07561047 0.02000000
v 0.14241067 0.07442077 0.02000000
v 0.13484150 0.07372376 0.02000000
v 0.13500001 0.15500000 0.02000000
v 0.18176323 0.15500000 0.02000000
v 0.18463627 0.14890158 0.02000000
v 0.10427511 0.06769703 0.02000000
v 0.10211524 0.05556356 0.02000000
v 0.09854852 0.04376675 0.02000000
v 0.09497911 0.03523808 0.02000000
v 0.09218843 0.02974114 0.02000000
v 0.08740986 0.02182633 0.02000000
v 0.08384513 0.01679672 0.02000000
v 0.07586185 0.00740771 0.02000000
v 0.06918194 0.00101570 0.02000000
v 0.06442730 -0.00290828 0.02000000
v 0.05426889 -0.00988631 0.02000000
v 0.04890014 -0.01291629 0.02000000
v 0.04053689 -0.01685774 0.02000000
v 0.02890855 -0.02094036 0.02000000
v 0.01991694 -0.02309208 0.02000000
v 0.01383238 -0.02408326 0.02000000
v 0.00154136 -0.02498707 0.02000000
v -0.01077090 -0.02444447 0.02000000
v -0.01991694 -0.02309208 0.02000000
v -0.02593284 -0.02174551 0.02000000
v -0.03767602 -0.01800601 0.02000000
v -0.04336282 -0.01562597 0.02000000
v -0.05160676 -0.01144071 0.02000000
v -0.06196564 -0.00476391 0.02000000
v -0.06918194 0.00101570 0.02000000
v -0.07796021 0.00966604 0.02000000
v -0.08384513 0.01679672 0.02000000
v -0.09067328 0.02705647 0.02000000
v -0.09497911 0.03523808 0.02000000
v -0.09854852 0.04376675 0.02000000
v -0.10135385 0.05257635 0.02000000
v -0.10386899 0.06464119 0.02000000
v -0.10495313 0.07691762 0.02000000
v -0.10500000 0.19499999 0.02000000
v 0.10500000 0.19499999 0.02000000
v 0.10500000 0.08011010 0.02000000
v 0.09913142 -0.17190030 0.00000000
v 0.10190030 -0.16913143 0.00000000
v 0.10299038 -0.16750000 0.00000000
v 0.10385820 -0.16574025 0.00000000
v 0.10487168 -0.16195789 0.00000000
v 0.10487168 -0.15804210 0.00000000
v 0.10385820 -0.15425974 0.00000000
v 0.10190030 -0.15086858 0.00000000
v 0.10060661 -0.14939339 0.00000000
v 0.09913142 -0.14809971 0.00000000
v 0.09574025 -0.14614181 0.00000000
v 0.09195789 -0.14512832 0.00000000
v -0.09195789 -0.14512832 0.00000000
v -0.09574025 -0.14614181 0.00000000
v -0.09913142 -0.14809971 0.00000000
v -0.10060661 -0.14939339 0.00000000
v -0.10190030 -0.15086858 0.00000000
v -0.10385820 -0.15425974 0.00000000
v -0.10487168 -0.15804210 0.00000000
v -0.10487168 -0.16195789 0.00000000
v -0.10448889 -0.16388229 0.00000000
v -0.10385820 -0.16574025 0.00000000
v -0.10190030 -0.16913143 0.00000000
v -0.09913142 -0.17190030 0.00000000
v -0.09750000 -0.17299038 0.00000000
v -0.09574025 -0.17385820 0.00000000
v -0.09195789 -0.17487167 0.00000000
v 0.09000000 -0.17500000 0.00000000
v 0.09195789 -0.17487167 0.00000000
v 0.09574025 -0.17385820 0.00000000
v 0.09913142 -0.17190030 0.02000000
v 0.10190030 -0.16913143 0.02000000
v 0.10299038 -0.16750000 0.02000000
v 0.10385820 -0.16574025 0.02000000
v 0.10487168 -0.16195789 0.02000000
v 0.10487168 -0.15804210 0.02000000
v 0.10385820 -0.15425974 0.02000000
v 0.10190030 -0.15086858 0.02000000
v 0.10060661 -0.14939339 0.02000000
v 0.09913142 -0.14809971 0.02000000
v 0.09574025 -0.14614181 0.02000000
v 0.09195789 -0.14512832 0.02000000
v -0.09195789 -0.14512832 0.02000000
v -0.09574025 -0.14614181 0.02000000
v -0.09913142 -0.14809971 0.02000000
v -0.10060661 -0.14939339 0.02000000
v -0.10190030 -0.15086858 0.02000000
v -0.10385820 -0.15425974 0.02000000
v -0.10487168 -0.15804210 0.02000000
v -0.10487168 -0.16195789 0.02000000
v -0.10448889 -0.16388229 0.02000000
v -0.10385820 -0.16574025 0.02000000
v -0.10190030 -0.16913143 0.02000000
v -0.09913142 -0.17190030 0.02000000
v -0.09750000 -0.17299038 0.02000000
v -0.09574025 -0.17385820 0.02000000
v -0.09195789 -0.17487167 0.02000000
v 0.09000000 -0.17500000 0.02000000
v 0.09195789 -0.17487167 0.02000000
v 0.09574025 -0.17385820 0.02000000
v 0.13913143 -0.22190030 0.00000000
v 0.14190030 -0.21913143 0.00000000
v 0.14299038 -0.21750000 0.00000000
v 0.14385819 -0.21574025 0.00000000
v 0.14487167 -0.21195789 0.00000000
v 0.14487167 -0.20804210 0.00000000
v 0.14385819 -0.20425975 0.00000000
v 0.14299038 -0.20250000 0.00000000
v 0.14190030 -0.20086858 0.00000000
v 0.13913143 -0.19809970 0.00000000
v 0.13574025 -0.19614181 0.00000000
v 0.13195789 -0.19512832 0.00000000
v 0.13000000 -0.19499999 0.00000000
v -0.13000000 -0.19499999 0.00000000
v -0.13195789 -0.19512832 0.00000000
v -0.13574025 -0.19614181 0.00000000
v -0.13913143 -0.19809970 0.00000000
v -0.14060660 -0.19939339 0.00000000
v -0.14190030 -0.20086858 0.00000000
v -0.14385819 -0.20425975 0.00000000
v -0.14487167 -0.20804210 0.00000000
v -0.14500000 -0.20999999 0.00000000
v -0.14487167 -0.21195789 0.00000000
v -0.14385819 -0.21574025 0.00000000
v -0.14190030 -0.21913143 0.00000000
v -0.14060660 -0.22060660 0.00000000
v -0.13913143 -0.22190030 0.00000000
v -0.13574025 -0.22385819 0.00000000
v -0.13195789 -0.22487168 0.00000000
v -0.13000000 -0.22499999 0.00000000
v 0.13000000 -0.22499999 0.00000000
v 0.13195789 -0.22487168 0.00000000
v 0.13574025 -0.22385819 0.00000000
v 0.13913143 -0.22190030 0.02000000
v 0.14190030 -0.21913143 0.02000000
v 0.14299038 -0.21750000 0.02000000
v 0.14385819 -0.21574025 0.02000000
v 0.14487167 -0.21195789 0.02000000
v 0.14487167 -0.20804210 0.02000000
v 0.14385819 -0.20425975 0.02000000
v 0.14299038 -0.20250000 0.02000000
v 0.14190030 -0.20086858 0.02000000
v 0.13913143 -0.19809970 0.02000000
v 0.13574025 -0.19614181 0.02000000
v 0.13195789 -0.19512832 0.02000000
v 0.13000000 -0.19499999 0.02000000
v -0.13000000 -0.19499999 0.02000000
v -0.13195789 -0.19512832 0.02000000
v -0.13574025 -0.19614181 0.02000000
v -0.13913143 -0.19809970 0.02000000
v -0.14060660 -0.19939339 0.02000000
v -0.14190030 -0.20086858 0.02000000
v -0.14385819 -0.20425975 0.02000000
v -0.14487167 -0.20804210 0.02000000
v -0.14500000 -0.20999999 0.02000000
v -0.14487167 -0.21195789 0.02000000
v -0.14385819 -0.21574025 0.02000000
v -0.14190030 -0.21913143 0.02000000
v -0.14060660 -0.22060660 0.02000000
v -0.13913143 -0.22190030 0.02000000
v -0.13574025 -0.22385819 0.02000000
v -0.13195789 -0.22487168 0.02000000
v -0.13000000 -0.22499999 0.02000000
v 0.13000000 -0.22499999 0.02000000
v 0.13195789 -0.22487168 0.02000000
v 0.13574025 -0.22385819 0.02000000
f 161 157 156
f 158 157 161
f 158 161 196
f 158 196 195
f 195 194 119
f 195 119 118
f 195 118 117
f 195 117 116
f 195 116 115
f 195 115 114
f 195 114 113
f 195 113 112
f 195 112 111
f 195 111 110
f 195 110 109
f 195 109 108
f 195 108 107
f 195 107 106
f 195 106 105
f 105 104 103
f 105 103 102
f 105 102 101
f 105 101 100
f 105 100 99
f 105 99 98
f 105 98 97
f 105 97 96
f 96 95 94
f 96 94 93
f 96 93 92
f 96 92 91
f 96 91 90
f 96 90 89
f 96 89 88
f 96 88 87
f 96 87 86
f 96 86 85
f 96 85 84
f 96 84 83
f 96 83 82
f 96 82 81
f 96 81 80
f 96 80 79
f 96 79 78
f 77 76 75
f 77 75 74
f 77 74 73
f 77 73 72
f 77 72 71
f 77 71 70
f 77 70 69
f 77 69 68
f 77 68 67
f 77 67 66
f 77 66 65
f 77 65 64
f 77 64 63
f 77 63 62
f 77 62 61
f 61 60 59
f 61 59 58
f 61 58 57
f 61 57 56
f 61 56 55
f 61 55 54
f 61 54 53
f 61 53 52
f 61 52 51
f 61 51 50
f 61 50 49
f 61 49 48
f 61 48 47
f 61 47 46
f 61 46 45
f 61 45 44
f 61 44 43
f 61 43 42
f 61 42 41
f 61 41 40
f 61 40 39
f 61 39 38
f 61 38 37
f 61 37 36
f 61 36 35
f 61 35 34
f 61 34 33
f 61 33 32
f 61 32 31
f 61 31 30
f 29 28 27
f 29 27 26
f 29 26 25
f 29 25 24
f 29 24 23
f 29 23 22
f 29 22 21
f 29 21 20
f 29 20 19
f 29 19 18
f 29 18 17
f 29 17 16
f 29 16 15
f 29 15 14
f 29 14 13
f 29 13 12
f 29 12 11
f 29 11 10
f 29 10 9
f 9 134 133
f 9 133 132
f 9 132 131
f 9 131 130
f 9 130 129
f 9 129 128
f 9 128 127
f 135 134 9
f 135 9 8
f 135 8 7
f 135 7 6
f 135 6 5
f 135 5 4
f 135 4 3
f 135 3 2
f 135 2 1
f 135 1 122
f 135 122 121
f 120 119 194
f 120 194 193
f 120 193 192
f 120 192 191
f 162 161 156
f 162 156 155
f 162 155 154
f 159 158 195
f 159 195 105
f 159 105 96
f 29 9 127
f 29 127 126
f 29 126 125
f 29 125 124
f 29 124 123
f 29 123 141
f 29 141 140
f 29 140 139
f 136 135 121
f 163 162 154
f 163 154 153
f 160 159 96
f 30 29 139
f 137 136 121
f 164 163 153
f 164 153 152
f 142 160 96
f 138 137 121
f 138 121 120
f 165 164 152
f 143 142 96
f 139 138 120
f 139 120 191
f 139 191 190
f 166 165 152
f 144 143 96
f 30 139 190
f 30 190 189
f 30 189 188
f 30 188 187
f 30 187 186
f 30 186 185
f 30 185 184
f 30 184 183
f 167 166 152
f 167 152 151
f 145 144 96
f 61 30 183
f 61 183 182
f 61 182 181
f 61 181 180
f 61 180 179
f 61 179 178
f 61 178 177
f 61 177 176
f 61 176 175
f 61 175 174
f 61 174 173
f 61 173 172
f 61 172 171
f 61 171 170
f 61 170 169
f 61 169 168
f 168 167 151
f 146 145 96
f 77 61 168
f 77 168 151
f 77 151 150
f 147 146 96
f 78 77 150
f 148 147 96
f 96 78 150
f 96 150 149
f 96 149 148
f 352 353 357
f 357 353 354
f 392 357 354
f 391 392 354
f 315 390 391
f 314 315 391
f 313 314 391
f 312 313 391
f 311 312 391
f 310 311 391
f 309 310 391
f 308 309 391
f 307 308 391
f 306 307 391
f 305 306 391
f 304 305 391
f 303 304 391
f 302 303 391
f 301 302 391
f 299 300 301
f 298 299 301
f 297 298 301
f 296 297 301
f 295 296 301
f 294 295 301
f 293 294 301
f 292 293 301
f 290 291 292
f 289 290 292
f 288 289 292
f 287 288 292
f 286 287 292
f 285 286 292
f 284 285 292
f 283 284 292
f 282 283 292
f 281 282 292
f 280 281 292
f 279 280 292
f 278 279 292
f 277 278 292
f 276 277 292
f 275 276 292
f 274 275 292
f 271 272 273
f 270 271 273
f 269 270 273
f 268 269 273
f 267 268 273
f 266 267 273
f 265 266 273
f 264 265 273
f 263 264 273
f 262 263 273
f 261 262 273
f 260 261 273
f 259 260 273
f 258 259 273
f 257 258 273
f 255 256 257
f 254 255 257
f 253 254 257
f 252 253 257
f 251 252 257
f 250 251 257
f 249 250 257
f 248 249 257
f 247 248 257
f 246 247 257
f 245 246 257
f 244 245 257
f 243 244 257
f 242 243 257
f 241 242 257
f 240 241 257
f 239 240 257
f 238 239 257
f 237 238 257
f 236 237 257
f 235 236 257
f 234 235 257
f 233 234 257
f 232 233 257
f 231 232 257
f 230 231 257
f 229 230 257
f 228 229 257
f 227 228 257
f 226 227 257
f 223 224 225
f 222 223 225
f 221 222 225
f 220 221 225
f 219 220 225
f 218 219 225
f 217 218 225
f 216 217 225
f 215 216 225
f 214 215 225
f 213 214 225
f 212 213 225
f 211 212 225
f 210 211 225
f 209 210 225
f 208 209 225
f 207 208 225
f 206 207 225
f 205 206 225
f 329 330 205
f 328 329 205
f 327 328 205
f 326 327 205
f 325 326 205
f 324 325 205
f 323 324 205
f 205 330 331
f 204 205 331
f 203 204 331
f 202 203 331
f 201 202 331
f 200 201 331
f 199 200 331
f 198 199 331
f 197 198 331
f 318 197 331
f 317 318 331
f 390 315 316
f 389 390 316
f 388 389 316
f 387 388 316
f 352 357 358
f 351 352 358
f 350 351 358
f 391 354 355
f 301 391 355
f 292 301 355
f 323 205 225
f 322 323 225
f 321 322 225
f 320 321 225
f 319 320 225
f 337 319 225
f 336 337 225
f 335 336 225
f 317 331 332
f 350 358 359
f 349 350 359
f 292 355 356
f 335 225 226
f 317 332 333
f 349 359 360
f 348 349 360
f 292 356 338
f 317 333 334
f 316 317 334
f 348 360 361
f 292 338 339
f 316 334 335
f 387 316 335
f 386 387 335
f 348 361 362
f 292 339 340
f 386 335 226
f 385 386 226
f 384 385 226
f 383 384 226
f 382 383 226
f 381 382 226
f 380 381 226
f 379 380 226
f 348 362 363
f 347 348 363
f 292 340 341
f 379 226 257
f 378 379 257
f 377 378 257
f 376 377 257
f 375 376 257
f 374 375 257
f 373 374 257
f 372 373 257
f 371 372 257
f 370 371 257
f 369 370 257
f 368 369 257
f 367 368 257
f 366 367 257
f 365 366 257
f 364 365 257
f 347 363 364
f 292 341 342
f 364 257 273
f 347 364 273
f 346 347 273
f 292 342 343
f 346 273 274
f 292 343 344
f 346 274 292
f 345 346 292
f 344 345 292
f 1 198 197
f 2 198 1
f 2 199 198
f 3 199 2
f 3 200 199
f 4 200 3
f 4 201 200
f 5 201 4
f 5 202 201
f 6 202 5
f 6 203 202
f 7 203 6
f 7 204 203
f 8 204 7
f 8 205 204
f 9 205 8
f 9 206 205
f 10 206 9
f 10 207 206
f 11 207 10
f 11 208 207
f 12 208 11
f 12 209 208
f 13 209 12
f 13 210 209
f 14 210 13
f 14 211 210
f 15 211 14
f 15 212 211
f 16 212 15
f 16 213 212
f 17 213 16
f 17 214 213
f 18 214 17
f 18 215 214
f 19 215 18
f 19 216 215
f 20 216 19
f 20 217 216
f 21 217 20
f 21 218 217
f 22 218 21
f 22 219 218
f 23 219 22
f 23 220 219
f 24 220 23
f 24 221 220
f 25 221 24
f 25 222 221
f 26 222 25
f 26 223 222
f 27 223 26
f 27 224 223
f 28 224 27
f 28 225 224
f 29 225 28
f 29 226 225
f 30 226 29
f 30 227 226
f 31 227 30
f 31 228 227
f 32 228 31
f 32 229 228
f 33 229 32
f 33 230 229
f 34 230 33
f 34 231 230
f 35 231 34
f 35 232 231
f 36 232 35
f 36 233 232
f 37 233 36
f 37 234 233
f 38 234 37
f 38 235 234
f 39 235 38
f 39 236 235
f 40 236 39
f 40 237 236
f 41 237 40
f 41 238 237
f 42 238 41
f 42 239 238
f 43 239 42
f 43 240 239
f 44 240 43
f 44 241 240
f 45 241 44
f 45 242 241
f 46 242 45
f 46 243 242
f 47 243 46
f 47 244 243
f 48 244 47
f 48 245 244
f 49 245 48
f 49 246 245
f 50 246 49
f 50 247 246
f 51 247 50
f 51 248 247
f 52 248 51
f 52 249 248
f 53 249 52
f 53 250 249
f 54 250 53
f 54 251 250
f 55 251 54
f 55 252 251
f 56 252 55
f 56 253 252
f 57 253 56
f 57 254 253
f 58 254 57
f 58 255 254
f 59 255 58
f 59 256 255
f 60 256 59
f 60 257 256
f 61 257 60
f 61 258 257
f 62 258 61
f 62 259 258
f 63 259 62
f 63 260 259
f 64 260 63
f 64 261 260
f 65 261 64
f 65 262 261
f 66 262 65
f 66 263 262
f 67 263 66
f 67 264 263
f 68 264 67
f 68 265 264
f 69 265 68
f 69 266 265
f 70 266 69
f 70 267 266
f 71 267 70
f 71 268 267
f 72 268 71
f 72 269 268
f 73 269 72
f 73 270 269
f 74 270 73
f 74 271 270
f 75 271 74
f 75 272 271
f 76 272 75
f 76 273 272
f 77 273 76
f 77 274 273
f 78 274 77
f 78 275 274
f 79 275 78
f 79 276 275
f 80 276 79
f 80 277 276
f 81 277 80
f 81 278 277
f 82 278 81
f 82 279 278
f 83 279 82
f 83 280 279
f 84 280 83
f 84 281 280
f 85 281 84
f 85 282 281
f 86 282 85
f 86 283 282
f 87 283 86
f 87 284 283
f 88 284 87
f 88 285 284
f 89 285 88
f 89 286 285
f 90 286 89
f 90 287 286
f 91 287 90
f 91 288 287
f 92 288 91
f 92 289 288
f 93 289 92
f 93 290 289
f 94 290 93
f 94 291 290
f 95 291 94
f 95 292 291
f 96 292 95
f 96 293 292
f 97 293 96
f 97 294 293
f 98 294 97
f 98 295 294
f 99 295 98
f 99 296 295
f 100 296 99
f 100 297 296
f 101 297 100
f 101 298 297
f 102 298 101
f 102 299 298
f 103 299 102
f 103 300 299
f 104 300 103
f 104 301 300
f 105 301 104
f 105 302 301
f 106 302 105
f 106 303 302
f 107 303 106
f 107 304 303
f 108 304 107
f 108 305 304
f 109 305 108
f 109 306 305
f 110 306 109
f 110 307 306
f 111 307 110
f 111 308 307
f 112 308 111
f 112 309 308
f 113 309 112
f 113 310 309
f 114 310 113
f 114 311 310
f 115 311 114
f 115 312 311
f 116 312 115
f 116 313 312
f 117 313 116
f 117 314 313
f 118 314 117
f 118 315 314
f 119 315 118
f 119 316 315
f 120 316 119
f 120 317 316
f 121 317 120
f 122 197 318
f 1 197 122
f 121 318 317
f 122 318 121
f 123 320 319
f 124 320 123
f 124 321 320
f 125 321 124
f 125 322 321
f 126 322 125
f 126 323 322
f 127 323 126
f 127 324 323
f 128 324 127
f 128 325 324
f 129 325 128
f 129 326 325
f 130 326 129
f 130 327 326
f 131 327 130
f 131 328 327
f 132 328 131
f 132 329 328
f 133 329 132
f 133 330 329
f 134 330 133
f 134 331 330
f 135 331 134
f 135 332 331
f 136 332 135
f 136 333 332
f 137 333 136
f 137 334 333
f 138 334 137
f 138 335 334
f 139 335 138
f 139 336 335
f 140 336 139
f 141 319 337
f 123 319 141
f 140 337 336
f 141 337 140
f 142 339 338
f 143 339 142
f 143 340 339
f 144 340 143
f 144 341 340
f 145 341 144
f 145 342 341
f 146 342 145
f 146 343 342
f 147 343 146
f 147 344 343
f 148 344 147
f 148 345 344
f 149 345 148
f 149 346 345
f 150 346 149
f 150 347 346
f 151 347 150
f 151 348 347
f 152 348 151
f 152 349 348
f 153 349 152
f 153 350 349
f 154 350 153
f 154 351 350
f 155 351 154
f 155 352 351
f 156 352 155
f 156 353 352
f 157 353 156
f 157 354 353
f 158 354 157
f 158 355 354
f 159 355 158
f 160 338 356
f 142 338 160
f 159 356 355
f 160 356 159
f 161 358 357
f 162 358 161
f 162 359 358
f 163 359 162
f 163 360 359
f 164 360 163
f 164 361 360
f 165 361 164
f 165 362 361
f 166 362 165
f 166 363 362
f 167 363 166
f 167 364 363
f 168 364 167
f 168 365 364
f 169 365 168
f 169 366 365
f 170 366 169
f 170 367 366
f 171 367 170
f 171 368 367
f 172 368 171
f 172 369 368
f 173 369 172
f 173 370 369
f 174 370 173
f 174 371 370
f 175 371 174
f 175 372 371
f 176 372 175
f 176 373 372
f 177 373 176
f 177 374 373
f 178 374 177
f 178 375 374
f 179 375 178
f 179 376 375
f 180 376 179
f 180 377 376
f 181 377 180
f 181 378 377
f 182 378 181
f 182 379 378
f 183 379 182
f 183 380 379
f 184 380 183
f 184 381 380
f 185 381 184
f 185 382 381
f 186 382 185
f 186 383 382
f 187 383 186
f 187 384 383
f 188 384 187
f 188 385 384
f 189 385 188
f 189 386 385
f 190 386 189
f 190 387 386
f 191 387 190
f 191 388 387
f 192 388 191
f 192 389 388
f 193 389 192
f 193 390 389
f 194 390 193
f 194 391 390
f 195 391 194
f 196 357 392
f 161 357 196
f 195 392 391
f 196 392 195
f 393 422 421
f 393 421 420
f 393 420 419
f 393 419 418
f 393 418 417
f 393 417 416
f 393 416 415
f 393 415 414
f 393 414 413
f 393 413 412
f 393 412 411
f 393 411 410
f 393 410 409
f 393 409 408
f 393 408 407
f 393 407 406
f 393 406 405
f 393 405 404
f 393 404 403
f 393 403 402
f 393 402 401
f 393 401 400
f 393 400 399
f 393 399 398
f 393 398 397
f 393 397 396
f 393 396 395
f 393 395 394
f 451 452 423
f 450 451 423
f 449 450 423
f 448 449 423
f 447 448 423
f 446 447 423
f 445 446 423
f 444 445 423
f 443 444 423
f 442 443 423
f 441 442 423
f 440 441 423
f 439 440 423
f 438 439 423
f 437 438 423
f 436 437 423
f 435 436 423
f 434 435 423
f 433 434 423
f 432 433 423
f 431 432 423
f 430 431 423
f 429 430 423
f 428 429 423
f 427 428 423
f 426 427 423
f 425 426 423
f 424 425 423
f 393 424 423
f 394 424 393
f 394 425 424
f 395 425 394
f 395 426 425
f 396 426 395
f 396 427 426
f 397 427 396
f 397 428 427
f 398 428 397
f 398 429 428
f 399 429 398
f 399 430 429
f 400 430 399
f 400 431 430
f 401 431 400
f 401 432 431
f 402 432 401
f 402 433 432
f 403 433 402
f 403 434 433
f 404 434 403
f 404 435 434
f 405 435 404
f 405 436 435
f 406 436 405
f 406 437 436
f 407 437 406
f 407 438 437
f 408 438 407
f 408 439 438
f 409 439 408
f 409 440 439
f 410 440 409
f 410 441 440
f 411 441 410
f 411 442 441
f 412 442 411
f 412 443 442
f 413 443 412
f 413 444 443
f 414 444 413
f 414 445 444
f 415 445 414
f 415 446 445
f 416 446 415
f 416 447 446
f 417 447 416
f 417 448 447
f 418 448 417
f 418 449 448
f 419 449 418
f 419 450 449
f 420 450 419
f 420 451 450
f 421 451 420
f 422 423 452
f 393 423 422
f 421 452 451
f 422 452 421
f 453 485 484
f 453 484 483
f 453 483 482
f 453 482 481
f 453 481 480
f 453 480 479
f 453 479 478
f 453 478 477
f 453 477 476
f 453 476 475
f 453 475 474
f 453 474 473
f 453 473 472
f 453 472 471
f 453 471 470
f 453 470 469
f 453 469 468
f 453 468 467
f 453 467 466
f 453 466 465
f 453 465 464
f 453 464 463
f 453 463 462
f 453 462 461
f 453 461 460
f 453 460 459
f 453 459 458
f 453 458 457
f 453 457 456
f 453 456 455
f 453 455 454
f 517 518 486
f 516 517 486
f 515 516 486
f 514 515 486
f 513 514 486
f 512 513 486
f 511 512 486
f 510 511 486
f 509 510 486
f 508 509 486
f 507 508 486
f 506 507 486
f 505 506 486
f 504 505 486
f 503 504 486
f 502 503 486
f 501 502 486
f 500 501 486
f 499 500 486
f 498 499 486
f 497 498 486
f 496 497 486
f 495 496 486
f 494 495 486
f 493 494 486
f 492 493 486
f 491 492 486
f 490 491 486
f 489 490 486
f 488 489 486
f 487 488 486
f 453 487 486
f 454 487 453
f 454 488 487
f 455 488 454
f 455 489 488
f 456 489 455
f 456 490 489
f 457 490 456
f 457 491 490
f 458 491 457
f 458 492 491
f 459 492 458
f 459 493 492
f 460 493 459
f 460 494 493
f 461 494 460
f 461 495 494
f 462 495 461
f 462 496 495
f 463 496 462
f 463 497 496
f 464 497 463
f 464 498 497
f 465 498 464
f 465 499 498
f 466 499 465
f 466 500 499
f 467 500 466
f 467 501 500
f 468 501 467
f 468 502 501
f 469 502 468
f 469 503 502
f 470 503 469
f 470 504 503
f 471 504 470
f 471 505 504
f 472 505 471
f 472 506 505
f 473 506 472
f 473 507 506
f 474 507 473
f 474 508 507
f 475 508 474
f 475 509 508
f 476 509 475
f 476 510 509
f 477 510 476
f 477 511 510
f 478 511 477
f 478 512 511
f 479 512 478
f 479 513 512
f 480 513 479
f 480 514 513
f 481 514 480
f 481 515 514
f 482 515 481
f 482 516 515
f 483 516 482
f 483 517 516
f 484 517 483
f 485 486 518
f 453 486 485
f 484 518 517
f 485 518 484

