# https://github.com/mikedh/trimesh

o mark_volume
v -0.20423025 0.01525658 0.00000000
v -0.20261587 0.01188583 0.00000000
v -0.20150673 0.01037736 0.00000000
v -0.19877066 0.00783137 0.00000000
v -0.19549009 0.00604081 0.00000000
v -0.19186871 0.00511686 0.00000000
v -0.19000000 0.00500000 0.00000000
v -0.09610964 0.00500000 0.00000000
v -0.10396679 -0.10500000 0.00000000
v -0.16195789 -0.10512833 0.00000000
v -0.16574025 -0.10614181 0.00000000
v -0.16750000 -0.10700962 0.00000000
v -0.17060660 -0.10939340 0.00000000
v -0.17299038 -0.11250000 0.00000000
v -0.17448889 -0.11611772 0.00000000
v -0.17500000 -0.12000000 0.00000000
v -0.17500000 -0.20000000 0.00000000
v -0.17487167 -0.20195790 0.00000000
v -0.17385820 -0.20574026 0.00000000
v -0.17190030 -0.20913142 0.00000000
v -0.16913143 -0.21190029 0.00000000
v -0.16574025 -0.21385819 0.00000000
v -0.16195789 -0.21487167 0.00000000
v -0.16000000 -0.21500000 0.00000000
v 0.16000000 -0.21500000 0.00000000
v 0.16195789 -0.21487167 0.00000000
v 0.16574025 -0.21385819 0.00000000
v 0.16913143 -0.21190029 0.00000000
v 0.17190030 -0.20913142 0.00000000
v 0.17385820 -0.20574026 0.00000000
v 0.17487167 -0.20195790 0.00000000
v 0.17500000 -0.20000000 0.00000000
v 0.17500000 -0.12000000 0.00000000
v 0.17487167 -0.11804210 0.00000000
v 0.17385820 -0.11425975 0.00000000
v 0.17190030 -0.11086858 0.00000000
v 0.16913143 -0.10809970 0.00000000
v 0.16574025 -0.10614181 0.00000000
v 0.16195789 -0.10512833 0.00000000
v 0.10396679 -0.10500000 0.00000000
v 0.09610964 0.00500000 0.00000000
v 0.19000000 0.00500000 0.00000000
v 0.19186871 0.00511686 0.00000000
v 0.19549009 0.00604081 0.00000000
v 0.19877066 0.00783137 0.00000000
v 0.20021829 0.00901882 0.00000000
v 0.20261587 0.01188583 0.00000000
v 0.20423025 0.01525658 0.00000000
v 0.23473969 0.10721768 0.00000000
v 0.23494737 0.11125546 0.00000000
v 0.23406908 0.11520202 0.00000000
v 0.23216863 0.11877065 0.00000000
v 0.22938411 0.12170208 0.00000000
v 0.22591780 0.12378331 0.00000000
v 0.22400624 0.12445511 0.00000000
v 0.22000000 0.12500000 0.00000000
v -0.22000000 0.12500000 0.00000000
v -0.22400624 0.12445511 0.00000000
v -0.22772139 0.12286001 0.00000000
v -0.23087560 0.12033061 0.00000000
v -0.23323964 0.11705066 0.00000000
v -0.23464181 0.11325847 0.00000000
v -0.23498020 0.10922953 0.00000000
v -0.23473969 0.10721768 0.00000000
v -0.19000000 0.07500000 0.00000000
v -0.19244675 0.07477443 0.00000000
v -0.19918860 0.09500000 0.00000000
v 0.19918860 0.09500000 0.00000000
v 0.19244675 0.07477443 0.00000000
v 0.17918861 0.03500000 0.00000000
v 0.07811030 0.03488049 0.00000000
v 0.07445087 0.03393582 0.00000000
v 0.07114371 0.03210645 0.00000000
v 0.06968910 0.03089428 0.00000000
v 0.06839879 0.02950851 0.00000000
v 0.06639035 0.02630694 0.00000000
v 0.06524591 0.02270498 0.00000000
v 0.06503812 0.01893129 0.00000000
v 0.07503812 -0.12106871 0.00000000
v 0.07587851 -0.12505801 0.00000000
v 0.07776205 -0.12867367 0.00000000
v 0.08054962 -0.13164862 0.00000000
v 0.08403528 -0.13376307 0.00000000
v 0.08796157 -0.13486084 0.00000000
v 0.14500000 -0.13500001 0.00000000
v 0.14500000 -0.18500000 0.00000000
v -0.14500000 -0.18500000 0.00000000
v -0.14500000 -0.13500001 0.00000000
v -0.08796157 -0.13486084 0.00000000
v -0.08403528 -0.13376307 0.00000000
v -0.08054962 -0.13164862 0.00000000
v -0.07776205 -0.12867367 0.00000000
v -0.07587851 -0.12505801 0.00000000
v -0.07503812 -0.12106871 0.00000000
v -0.06503812 0.01893129 0.00000000
v -0.06524591 0.02270498 0.00000000
v -0.06639035 0.02630694 0.00000000
v -0.06839879 0.02950851 0.00000000
v -0.06968910 0.03089428 0.00000000
v -0.07114371 0.03210645 0.00000000
v -0.07445087 0.03393582 0.00000000
v -0.07811030 0.03488049 0.00000000
v -0.17918861 0.03500000 0.00000000
v -0.18252194 0.04500000 0.00000000
v 0.18252194 0.04500000 0.00000000
v -0.20423025 0.01525658 0.02000000
v -0.20261587 0.01188583 0.02000000
v -0.20150673 0.01037736 0.02000000
v -0.19877066 0.00783137 0.02000000
v -0.19549009 0.00604081 0.02000000
v -0.19186871 0.00511686 0.02000000
v -0.19000000 0.00500000 0.02000000
v -0.09610964 0.00500000 0.02000000
v -0.10396679 -0.10500000 0.02000000
v -0.16195789 -0.10512833 0.02000000
v -0.16574025 -0.10614181 0.02000000
v -0.16750000 -0.10700962 0.02000000
v -0.17060660 -0.10939340 0.02000000
v -0.17299038 -0.11250000 0.02000000
v -0.17448889 -0.11611772 0.02000000
v -0.17500000 -0.12000000 0.02000000
v -0.17500000 -0.20000000 0.02000000
v -0.17487167 -0.20195790 0.02000000
v -0.17385820 -0.20574026 0.02000000
v -0.17190030 -0.20913142 0.02000000
v -0.16913143 -0.21190029 0.02000000
v -0.16574025 -0.21385819 0.02000000
v -0.16195789 -0.21487167 0.02000000
v -0.16000000 -0.21500000 0.02000000
v 0.16000000 -0.21500000 0.02000000
v 0.16195789 -0.21487167 0.02000000
v 0.16574025 -0.21385819 0.02000000
v 0.16913143 -0.21190029 0.02000000
v 0.17190030 -0.20913142 0.02000000
v 0.17385820 -0.20574026 0.02000000
v 0.17487167 -0.20195790 0.02000000
v 0.17500000 -0.20000000 0.02000000
v 0.17500000 -0.12000000 0.02000000
v 0.17487167 -0.11804210 0.02000000
v 0.17385820 -0.11425975 0.02000000
v 0.17190030 -0.11086858 0.02000000
v 0.16913143 -0.10809970 0.02000000
v 0.16574025 -0.10614181 0.02000000
v 0.16195789 -0.10512833 0.02000000
v 0.10396679 -0.10500000 0.02000000
v 0.09610964 0.00500000 0.02000000
v 0.19000000 0.00500000 0.02000000
v 0.19186871 0.00511686 0.02000000
v 0.19549009 0.00604081 0.02000000
v 0.19877066 0.00783137 0.02000000
v 0.20021829 0.00901882 0.02000000
v 0.20261587 0.01188583 0.02000000
v 0.20423025 0.01525658 0.02000000
v 0.23473969 0.10721768 0.02000000
v 0.23494737 0.11125546 0.02000000
v 0.23406908 0.11520202 0.02000000
v 0.23216863 0.11877065 0.02000000
v 0.22938411 0.12170208 0.02000000
v 0.22591780 0.12378331 0.02000000
v 0.22400624 0.12445511 0.02000000
v 0.22000000 0.12500000 0.02000000
v -0.22000000 0.12500000 0.02000000
v -0.22400624 0.12445511 0.02000000
v -0.22772139 0.12286001 0.02000000
v -0.23087560 0.12033061 0.02000000
v -0.23323964 0.11705066 0.02000000
v -0.23464181 0.11325847 0.02000000
v -0.23498020 0.10922953 0.02000000
v -0.23473969 0.10721768 0.02000000
v -0.19000000 0.07500000 0.02000000
v -0.19244675 0.07477443 0.02000000
v -0.19918860 0.09500000 0.02000000
v 0.19918860 0.09500000 0.02000000
v 0.19244675 0.07477443 0.02000000
v 0.17918861 0.03500000 0.02000000
v 0.07811030 0.03488049 0.02000000
v 0.07445087 0.03393582 0.02000000
v 0.07114371 0.03210645 0.02000000
v 0.06968910 0.03089428 0.02000000
v 0.06839879 0.02950851 0.02000000
v 0.06639035 0.02630694 0.02000000
v 0.06524591 0.02270498 0.02000000
v 0.06503812 0.01893129 0.02000000
v 0.07503812 -0.12106871 0.02000000
v 0.07587851 -0.12505801 0.02000000
v 0.07776205 -0.12867367 0.02000000
v 0.08054962 -0.13164862 0.02000000
v 0.08403528 -0.13376307 0.02000000
v 0.08796157 -0.13486084 0.02000000
v 0.14500000 -0.13500001 0.02000000
v 0.14500000 -0.18500000 0.02000000
v -0.14500000 -0.18500000 0.02000000
v -0.14500000 -0.13500001 0.02000000
v -0.08796157 -0.13486084 0.02000000
v -0.08403528 -0.13376307 0.02000000
v -0.08054962 -0.13164862 0.02000000
v -0.07776205 -0.12867367 0.02000000
v -0.07587851 -0.12505801 0.02000000
v -0.07503812 -0.12106871 0.02000000
v -0.06503812 0.01893129 0.02000000
v -0.06524591 0.02270498 0.02000000
v -0.06639035 0.02630694 0.02000000
v -0.06839879 0.02950851 0.02000000
v -0.06968910 0.03089428 0.02000000
v -0.07114371 0.03210645 0.02000000
v -0.07445087 0.03393582 0.02000000
v -0.07811030 0.03488049 0.02000000
v -0.17918861 0.03500000 0.02000000
v -0.18252194 0.04500000 0.02000000
v 0.18252194 0.04500000 0.02000000
f 64 104 103
f 103 102 101
f 103 101 100
f 103 100 99
f 103 99 98
f 103 98 97
f 103 97 96
f 103 96 95
f 95 94 93
f 95 93 92
f 95 92 91
f 95 91 90
f 95 90 89
f 85 84 83
f 85 83 82
f 85 82 81
f 85 81 80
f 85 80 79
f 79 78 77
f 79 77 76
f 79 76 75
f 79 75 74
f 79 74 73
f 79 73 72
f 79 72 71
f 64 67 66
f 66 65 69
f 68 67 64
f 68 64 63
f 68 63 62
f 68 62 61
f 68 61 60
f 68 60 59
f 68 59 58
f 68 58 57
f 68 57 56
f 68 56 55
f 68 55 54
f 68 54 53
f 68 53 52
f 68 52 51
f 68 51 50
f 68 50 49
f 68 49 48
f 68 48 47
f 68 47 46
f 68 46 45
f 68 45 44
f 68 44 43
f 68 43 42
f 40 39 38
f 40 38 37
f 40 37 36
f 40 36 35
f 40 35 34
f 40 34 33
f 33 32 31
f 33 31 30
f 33 30 29
f 33 29 28
f 33 28 27
f 33 27 26
f 33 26 25
f 25 24 23
f 25 23 22
f 25 22 21
f 25 21 20
f 25 20 19
f 25 19 18
f 25 18 17
f 17 16 15
f 17 15 14
f 17 14 13
f 17 13 12
f 17 12 11
f 17 11 10
f 8 7 6
f 8 6 5
f 8 5 4
f 8 4 3
f 8 3 2
f 8 2 1
f 1 64 103
f 1 103 95
f 104 64 66
f 104 66 69
f 69 68 42
f 8 1 95
f 8 95 89
f 105 104 69
f 105 69 42
f 9 8 89
f 9 89 88
f 70 105 42
f 70 42 41
f 10 9 88
f 10 88 87
f 71 70 41
f 71 41 40
f 17 10 87
f 17 87 86
f 79 71 40
f 79 40 33
f 25 17 86
f 25 86 85
f 85 79 33
f 85 33 25
f 208 209 169
f 206 207 208
f 205 206 208
f 204 205 208
f 203 204 208
f 202 203 208
f 201 202 208
f 200 201 208
f 198 199 200
f 197 198 200
f 196 197 200
f 195 196 200
f 194 195 200
f 188 189 190
f 187 188 190
f 186 187 190
f 185 186 190
f 184 185 190
f 182 183 184
f 181 182 184
f 180 181 184
f 179 180 184
f 178 179 184
f 177 178 184
f 176 177 184
f 171 172 169
f 174 170 171
f 169 172 173
f 168 169 173
f 167 168 173
f 166 167 173
f 165 166 173
f 164 165 173
f 163 164 173
f 162 163 173
f 161 162 173
f 160 161 173
f 159 160 173
f 158 159 173
f 157 158 173
f 156 157 173
f 155 156 173
f 154 155 173
f 153 154 173
f 152 153 173
f 151 152 173
f 150 151 173
f 149 150 173
f 148 149 173
f 147 148 173
f 143 144 145
f 142 143 145
f 141 142 145
f 140 141 145
f 139 140 145
f 138 139 145
f 136 137 138
f 135 136 138
f 134 135 138
f 133 134 138
f 132 133 138
f 131 132 138
f 130 131 138
f 128 129 130
f 127 128 130
f 126 127 130
f 125 126 130
f 124 125 130
f 123 124 130
f 122 123 130
f 120 121 122
f 119 120 122
f 118 119 122
f 117 118 122
f 116 117 122
f 115 116 122
f 111 112 113
f 110 111 113
f 109 110 113
f 108 109 113
f 107 108 113
f 106 107 113
f 208 169 106
f 200 208 106
f 171 169 209
f 174 171 209
f 147 173 174
f 200 106 113
f 194 200 113
f 174 209 210
f 147 174 210
f 194 113 114
f 193 194 114
f 147 210 175
f 146 147 175
f 193 114 115
f 192 193 115
f 146 175 176
f 145 146 176
f 192 115 122
f 191 192 122
f 145 176 184
f 138 145 184
f 191 122 130
f 190 191 130
f 138 184 190
f 130 138 190
f 1 107 106
f 2 107 1
f 2 108 107
f 3 108 2
f 3 109 108
f 4 109 3
f 4 110 109
f 5 110 4
f 5 111 110
f 6 111 5
f 6 112 111
f 7 112 6
f 7 113 112
f 8 113 7
f 8 114 113
f 9 114 8
f 9 115 114
f 10 115 9
f 10 116 115
f 11 116 10
f 11 117 116
f 12 117 11
f 12 118 117
f 13 118 12
f 13 119 118
f 14 119 13
f 14 120 119
f 15 120 14
f 15 121 120
f 16 121 15
f 16 122 121
f 17 122 16
f 17 123 122
f 18 123 17
f 18 124 123
f 19 124 18
f 19 125 124
f 20 125 19
f 20 126 125
f 21 126 20
f 21 127 126
f 22 127 21
f 22 128 127
f 23 128 22
f 23 129 128
f 24 129 23
f 24 130 129
f 25 130 24
f 25 131 130
f 26 131 25
f 26 132 131
f 27 132 26
f 27 133 132
f 28 133 27
f 28 134 133
f 29 134 28
f 29 135 134
f 30 135 29
f 30 136 135
f 31 136 30
f 31 137 136
f 32 137 31
f 32 138 137
f 33 138 32
f 33 139 138
f 34 139 33
f 34 140 139
f 35 140 34
f 35 141 140
f 36 141 35
f 36 142 141
f 37 142 36
f 37 143 142
f 38 143 37
f 38 144 143
f 39 144 38
f 39 145 144
f 40 145 39
f 40 146 145
f 41 146 40
f 41 147 146
f 42 147 41
f 42 148 147
f 43 148 42
f 43 149 148
f 44 149 43
f 44 150 149
f 45 150 44
f 45 151 150
f 46 151 45
f 46 152 151
f 47 152 46
f 47 153 152
f 48 153 47
f 48 154 153
f 49 154 48
f 49 155 154
f 50 155 49
f 50 156 155
f 51 156 50
f 51 157 156
f 52 157 51
f 52 158 157
f 53 158 52
f 53 159 158
f 54 159 53
f 54 160 159
f 55 160 54
f 55 161 160
f 56 161 55
f 56 162 161
f 57 162 56
f 57 163 162
f 58 163 57
f 58 164 163
f 59 164 58
f 59 165 164
f 60 165 59
f 60 166 165
f 61 166 60
f 61 167 166
f 62 167 61
f 62 168 167
f 63 168 62
f 64 106 169
f 1 106 64
f 63 169 168
f 64 169 63
f 65 171 170
f 66 171 65
f 66 172 171
f 67 172 66
f 67 173 172
f 68 173 67
f 69 170 174
f 65 170 69
f 68 174 173
f 69 174 68
f 70 176 175
f 71 176 70
f 71 177 176
f 72 177 71
f 72 178 177
f 73 178 72
f 73 179 178
f 74 179 73
f 74 180 179
f 75 180 74
f 75 181 180
f 76 181 75
f 76 182 181
f 77 182 76
f 77 183 182
f 78 183 77
f 78 184 183
f 79 184 78
f 79 185 184
f 80 185 79
f 80 186 185
f 81 186 80
f 81 187 186
f 82 187 81
f 82 188 187
f 83 188 82
f 83 189 188
f 84 189 83
f 84 190 189
f 85 190 84
f 85 191 190
f 86 191 85
f 86 192 191
f 87 192 86
f 87 193 192
f 88 193 87
f 88 194 193
f 89 194 88
f 89 195 194
f 90 195 89
f 90 196 195
f 91 196 90
f 91 197 196
f 92 197 91
f 92 198 197
f 93 198 92
f 93 199 198
f 94 199 93
f 94 200 199
f 95 200 94
f 95 201 200
f 96 201 95
f 96 202 201
f 97 202 96
f 97 203 202
f 98 203 97
f 98 204 203
f 99 204 98
f 99 205 204
f 100 205 99
f 100 206 205
f 101 206 100
f 101 207 206
f 102 207 101
f 102 208 207
f 103 208 102
f 103 209 208
f 104 209 103
f 105 175 210
f 70 175 105
f 104 210 209
f 105 210 104

